<?xml version="1.0" encoding="utf-8" standalone="no"?>
<!DOCTYPE svg PUBLIC "-//W3C//DTD SVG 1.1//EN"
  "http://www.w3.org/Graphics/SVG/1.1/DTD/svg11.dtd">
<svg height="282.790125pt" version="1.1" viewBox="0 0 380.023125 282.790125" width="380.023125pt" xmlns="http://www.w3.org/2000/svg" xmlns:xlink="http://www.w3.org/1999/xlink">
 <metadata>
  <rdf:RDF xmlns:cc="http://creativecommons.org/ns#" xmlns:dc="http://purl.org/dc/elements/1.1/" xmlns:rdf="http://www.w3.org/1999/02/22-rdf-syntax-ns#">
   <cc:Work>
    <dc:type rdf:resource="http://purl.org/dc/dcmitype/StillImage"/>
    <dc:date>2022-01-02T18:54:51.446572</dc:date>
    <dc:format>image/svg+xml</dc:format>
    <dc:creator>
     <cc:Agent>
      <dc:title>Matplotlib v3.4.3, https://matplotlib.org/</dc:title>
     </cc:Agent>
    </dc:creator>
   </cc:Work>
  </rdf:RDF>
 </metadata>
 <defs>
  <style type="text/css">*{stroke-linecap:butt;stroke-linejoin:round;}</style>
 </defs>
 <g id="figure_1">
  <g id="patch_1">
   <path d="M 0 282.790125 
L 380.023125 282.790125 
L 380.023125 0 
L 0 0 
z
" style="fill:none;"/>
  </g>
  <g id="axes_1">
   <g id="patch_2">
    <path d="M 22.903125 266.112 
L 380.023125 266.112 
L 380.023125 0 
L 22.903125 0 
z
" style="fill:none;"/>
   </g>
   <g id="patch_3">
    <path clip-path="url(#peec15170ff)" d="M 39.135852 266.112 
L 48.411696 266.112 
L 48.411696 265.484673 
L 39.135852 265.484673 
z
" style="fill:#1f77b4;"/>
   </g>
   <g id="patch_4">
    <path clip-path="url(#peec15170ff)" d="M 48.411696 266.112 
L 57.687541 266.112 
L 57.687541 265.484673 
L 48.411696 265.484673 
z
" style="fill:#1f77b4;"/>
   </g>
   <g id="patch_5">
    <path clip-path="url(#peec15170ff)" d="M 57.687541 266.112 
L 66.963385 266.112 
L 66.963385 265.484673 
L 57.687541 265.484673 
z
" style="fill:#1f77b4;"/>
   </g>
   <g id="patch_6">
    <path clip-path="url(#peec15170ff)" d="M 66.963385 266.112 
L 76.239229 266.112 
L 76.239229 262.34804 
L 66.963385 262.34804 
z
" style="fill:#1f77b4;"/>
   </g>
   <g id="patch_7">
    <path clip-path="url(#peec15170ff)" d="M 76.239229 266.112 
L 85.515073 266.112 
L 85.515073 259.838733 
L 76.239229 259.838733 
z
" style="fill:#1f77b4;"/>
   </g>
   <g id="patch_8">
    <path clip-path="url(#peec15170ff)" d="M 85.515073 266.112 
L 94.790917 266.112 
L 94.790917 252.310812 
L 85.515073 252.310812 
z
" style="fill:#1f77b4;"/>
   </g>
   <g id="patch_9">
    <path clip-path="url(#peec15170ff)" d="M 94.790917 266.112 
L 104.066761 266.112 
L 104.066761 251.683485 
L 94.790917 251.683485 
z
" style="fill:#1f77b4;"/>
   </g>
   <g id="patch_10">
    <path clip-path="url(#peec15170ff)" d="M 104.066761 266.112 
L 113.342606 266.112 
L 113.342606 222.826455 
L 104.066761 222.826455 
z
" style="fill:#1f77b4;"/>
   </g>
   <g id="patch_11">
    <path clip-path="url(#peec15170ff)" d="M 113.342606 266.112 
L 122.61845 266.112 
L 122.61845 205.888634 
L 113.342606 205.888634 
z
" style="fill:#1f77b4;"/>
   </g>
   <g id="patch_12">
    <path clip-path="url(#peec15170ff)" d="M 122.61845 266.112 
L 131.894294 266.112 
L 131.894294 210.279921 
L 122.61845 210.279921 
z
" style="fill:#1f77b4;"/>
   </g>
   <g id="patch_13">
    <path clip-path="url(#peec15170ff)" d="M 131.894294 266.112 
L 141.170138 266.112 
L 141.170138 145.037941 
L 131.894294 145.037941 
z
" style="fill:#1f77b4;"/>
   </g>
   <g id="patch_14">
    <path clip-path="url(#peec15170ff)" d="M 141.170138 266.112 
L 150.445982 266.112 
L 150.445982 122.454178 
L 141.170138 122.454178 
z
" style="fill:#1f77b4;"/>
   </g>
   <g id="patch_15">
    <path clip-path="url(#peec15170ff)" d="M 150.445982 266.112 
L 159.721826 266.112 
L 159.721826 123.708832 
L 150.445982 123.708832 
z
" style="fill:#1f77b4;"/>
   </g>
   <g id="patch_16">
    <path clip-path="url(#peec15170ff)" d="M 159.721826 266.112 
L 168.99767 266.112 
L 168.99767 79.79596 
L 159.721826 79.79596 
z
" style="fill:#1f77b4;"/>
   </g>
   <g id="patch_17">
    <path clip-path="url(#peec15170ff)" d="M 168.99767 266.112 
L 178.273515 266.112 
L 178.273515 55.957545 
L 168.99767 55.957545 
z
" style="fill:#1f77b4;"/>
   </g>
   <g id="patch_18">
    <path clip-path="url(#peec15170ff)" d="M 178.273515 266.112 
L 187.549359 266.112 
L 187.549359 63.485465 
L 178.273515 63.485465 
z
" style="fill:#1f77b4;"/>
   </g>
   <g id="patch_19">
    <path clip-path="url(#peec15170ff)" d="M 187.549359 266.112 
L 196.825203 266.112 
L 196.825203 29.609822 
L 187.549359 29.609822 
z
" style="fill:#1f77b4;"/>
   </g>
   <g id="patch_20">
    <path clip-path="url(#peec15170ff)" d="M 196.825203 266.112 
L 206.101047 266.112 
L 206.101047 26.473188 
L 196.825203 26.473188 
z
" style="fill:#1f77b4;"/>
   </g>
   <g id="patch_21">
    <path clip-path="url(#peec15170ff)" d="M 206.101047 266.112 
L 215.376891 266.112 
L 215.376891 12.672 
L 206.101047 12.672 
z
" style="fill:#1f77b4;"/>
   </g>
   <g id="patch_22">
    <path clip-path="url(#peec15170ff)" d="M 215.376891 266.112 
L 224.652735 266.112 
L 224.652735 45.29299 
L 215.376891 45.29299 
z
" style="fill:#1f77b4;"/>
   </g>
   <g id="patch_23">
    <path clip-path="url(#peec15170ff)" d="M 224.652735 266.112 
L 233.92858 266.112 
L 233.92858 65.367446 
L 224.652735 65.367446 
z
" style="fill:#1f77b4;"/>
   </g>
   <g id="patch_24">
    <path clip-path="url(#peec15170ff)" d="M 233.92858 266.112 
L 243.204424 266.112 
L 243.204424 87.323881 
L 233.92858 87.323881 
z
" style="fill:#1f77b4;"/>
   </g>
   <g id="patch_25">
    <path clip-path="url(#peec15170ff)" d="M 243.204424 266.112 
L 252.480268 266.112 
L 252.480268 111.162297 
L 243.204424 111.162297 
z
" style="fill:#1f77b4;"/>
   </g>
   <g id="patch_26">
    <path clip-path="url(#peec15170ff)" d="M 252.480268 266.112 
L 261.756112 266.112 
L 261.756112 138.764673 
L 252.480268 138.764673 
z
" style="fill:#1f77b4;"/>
   </g>
   <g id="patch_27">
    <path clip-path="url(#peec15170ff)" d="M 261.756112 266.112 
L 271.031956 266.112 
L 271.031956 175.149624 
L 261.756112 175.149624 
z
" style="fill:#1f77b4;"/>
   </g>
   <g id="patch_28">
    <path clip-path="url(#peec15170ff)" d="M 271.031956 266.112 
L 280.3078 266.112 
L 280.3078 178.913584 
L 271.031956 178.913584 
z
" style="fill:#1f77b4;"/>
   </g>
   <g id="patch_29">
    <path clip-path="url(#peec15170ff)" d="M 280.3078 266.112 
L 289.583644 266.112 
L 289.583644 222.199129 
L 280.3078 222.199129 
z
" style="fill:#1f77b4;"/>
   </g>
   <g id="patch_30">
    <path clip-path="url(#peec15170ff)" d="M 289.583644 266.112 
L 298.859489 266.112 
L 298.859489 227.217743 
L 289.583644 227.217743 
z
" style="fill:#1f77b4;"/>
   </g>
   <g id="patch_31">
    <path clip-path="url(#peec15170ff)" d="M 298.859489 266.112 
L 308.135333 266.112 
L 308.135333 241.018931 
L 298.859489 241.018931 
z
" style="fill:#1f77b4;"/>
   </g>
   <g id="patch_32">
    <path clip-path="url(#peec15170ff)" d="M 308.135333 266.112 
L 317.411177 266.112 
L 317.411177 247.919525 
L 308.135333 247.919525 
z
" style="fill:#1f77b4;"/>
   </g>
   <g id="patch_33">
    <path clip-path="url(#peec15170ff)" d="M 317.411177 266.112 
L 326.687021 266.112 
L 326.687021 260.466059 
L 317.411177 260.466059 
z
" style="fill:#1f77b4;"/>
   </g>
   <g id="patch_34">
    <path clip-path="url(#peec15170ff)" d="M 326.687021 266.112 
L 335.962865 266.112 
L 335.962865 262.975366 
L 326.687021 262.975366 
z
" style="fill:#1f77b4;"/>
   </g>
   <g id="patch_35">
    <path clip-path="url(#peec15170ff)" d="M 335.962865 266.112 
L 345.238709 266.112 
L 345.238709 261.720713 
L 335.962865 261.720713 
z
" style="fill:#1f77b4;"/>
   </g>
   <g id="patch_36">
    <path clip-path="url(#peec15170ff)" d="M 345.238709 266.112 
L 354.514554 266.112 
L 354.514554 265.484673 
L 345.238709 265.484673 
z
" style="fill:#1f77b4;"/>
   </g>
   <g id="patch_37">
    <path clip-path="url(#peec15170ff)" d="M 354.514554 266.112 
L 363.790398 266.112 
L 363.790398 265.484673 
L 354.514554 265.484673 
z
" style="fill:#1f77b4;"/>
   </g>
   <g id="matplotlib.axis_1">
    <g id="xtick_1">
     <g id="line2d_1">
      <defs>
       <path d="M 0 0 
L 0 3.5 
" id="mcd7654ca80" style="stroke:#000000;stroke-width:0.8;"/>
      </defs>
      <g>
       <use style="stroke:#000000;stroke-width:0.8;" x="29.132919" xlink:href="#mcd7654ca80" y="266.112"/>
      </g>
     </g>
     <g id="text_1">
      <!-- 63.0 -->
      <g transform="translate(18.000106 280.710438)scale(0.1 -0.1)">
       <defs>
        <path d="M 2113 2584 
Q 1688 2584 1439 2293 
Q 1191 2003 1191 1497 
Q 1191 994 1439 701 
Q 1688 409 2113 409 
Q 2538 409 2786 701 
Q 3034 994 3034 1497 
Q 3034 2003 2786 2293 
Q 2538 2584 2113 2584 
z
M 3366 4563 
L 3366 3988 
Q 3128 4100 2886 4159 
Q 2644 4219 2406 4219 
Q 1781 4219 1451 3797 
Q 1122 3375 1075 2522 
Q 1259 2794 1537 2939 
Q 1816 3084 2150 3084 
Q 2853 3084 3261 2657 
Q 3669 2231 3669 1497 
Q 3669 778 3244 343 
Q 2819 -91 2113 -91 
Q 1303 -91 875 529 
Q 447 1150 447 2328 
Q 447 3434 972 4092 
Q 1497 4750 2381 4750 
Q 2619 4750 2861 4703 
Q 3103 4656 3366 4563 
z
" id="DejaVuSans-36" transform="scale(0.015625)"/>
        <path d="M 2597 2516 
Q 3050 2419 3304 2112 
Q 3559 1806 3559 1356 
Q 3559 666 3084 287 
Q 2609 -91 1734 -91 
Q 1441 -91 1130 -33 
Q 819 25 488 141 
L 488 750 
Q 750 597 1062 519 
Q 1375 441 1716 441 
Q 2309 441 2620 675 
Q 2931 909 2931 1356 
Q 2931 1769 2642 2001 
Q 2353 2234 1838 2234 
L 1294 2234 
L 1294 2753 
L 1863 2753 
Q 2328 2753 2575 2939 
Q 2822 3125 2822 3475 
Q 2822 3834 2567 4026 
Q 2313 4219 1838 4219 
Q 1578 4219 1281 4162 
Q 984 4106 628 3988 
L 628 4550 
Q 988 4650 1302 4700 
Q 1616 4750 1894 4750 
Q 2613 4750 3031 4423 
Q 3450 4097 3450 3541 
Q 3450 3153 3228 2886 
Q 3006 2619 2597 2516 
z
" id="DejaVuSans-33" transform="scale(0.015625)"/>
        <path d="M 684 794 
L 1344 794 
L 1344 0 
L 684 0 
L 684 794 
z
" id="DejaVuSans-2e" transform="scale(0.015625)"/>
        <path d="M 2034 4250 
Q 1547 4250 1301 3770 
Q 1056 3291 1056 2328 
Q 1056 1369 1301 889 
Q 1547 409 2034 409 
Q 2525 409 2770 889 
Q 3016 1369 3016 2328 
Q 3016 3291 2770 3770 
Q 2525 4250 2034 4250 
z
M 2034 4750 
Q 2819 4750 3233 4129 
Q 3647 3509 3647 2328 
Q 3647 1150 3233 529 
Q 2819 -91 2034 -91 
Q 1250 -91 836 529 
Q 422 1150 422 2328 
Q 422 3509 836 4129 
Q 1250 4750 2034 4750 
z
" id="DejaVuSans-30" transform="scale(0.015625)"/>
       </defs>
       <use xlink:href="#DejaVuSans-36"/>
       <use x="63.623047" xlink:href="#DejaVuSans-33"/>
       <use x="127.246094" xlink:href="#DejaVuSans-2e"/>
       <use x="159.033203" xlink:href="#DejaVuSans-30"/>
      </g>
     </g>
    </g>
    <g id="xtick_2">
     <g id="line2d_2">
      <g>
       <use style="stroke:#000000;stroke-width:0.8;" x="83.338004" xlink:href="#mcd7654ca80" y="266.112"/>
      </g>
     </g>
     <g id="text_2">
      <!-- 63.5 -->
      <g transform="translate(72.205191 280.710438)scale(0.1 -0.1)">
       <defs>
        <path d="M 691 4666 
L 3169 4666 
L 3169 4134 
L 1269 4134 
L 1269 2991 
Q 1406 3038 1543 3061 
Q 1681 3084 1819 3084 
Q 2600 3084 3056 2656 
Q 3513 2228 3513 1497 
Q 3513 744 3044 326 
Q 2575 -91 1722 -91 
Q 1428 -91 1123 -41 
Q 819 9 494 109 
L 494 744 
Q 775 591 1075 516 
Q 1375 441 1709 441 
Q 2250 441 2565 725 
Q 2881 1009 2881 1497 
Q 2881 1984 2565 2268 
Q 2250 2553 1709 2553 
Q 1456 2553 1204 2497 
Q 953 2441 691 2322 
L 691 4666 
z
" id="DejaVuSans-35" transform="scale(0.015625)"/>
       </defs>
       <use xlink:href="#DejaVuSans-36"/>
       <use x="63.623047" xlink:href="#DejaVuSans-33"/>
       <use x="127.246094" xlink:href="#DejaVuSans-2e"/>
       <use x="159.033203" xlink:href="#DejaVuSans-35"/>
      </g>
     </g>
    </g>
    <g id="xtick_3">
     <g id="line2d_3">
      <g>
       <use style="stroke:#000000;stroke-width:0.8;" x="137.543088" xlink:href="#mcd7654ca80" y="266.112"/>
      </g>
     </g>
     <g id="text_3">
      <!-- 64.0 -->
      <g transform="translate(126.410276 280.710438)scale(0.1 -0.1)">
       <defs>
        <path d="M 2419 4116 
L 825 1625 
L 2419 1625 
L 2419 4116 
z
M 2253 4666 
L 3047 4666 
L 3047 1625 
L 3713 1625 
L 3713 1100 
L 3047 1100 
L 3047 0 
L 2419 0 
L 2419 1100 
L 313 1100 
L 313 1709 
L 2253 4666 
z
" id="DejaVuSans-34" transform="scale(0.015625)"/>
       </defs>
       <use xlink:href="#DejaVuSans-36"/>
       <use x="63.623047" xlink:href="#DejaVuSans-34"/>
       <use x="127.246094" xlink:href="#DejaVuSans-2e"/>
       <use x="159.033203" xlink:href="#DejaVuSans-30"/>
      </g>
     </g>
    </g>
    <g id="xtick_4">
     <g id="line2d_4">
      <g>
       <use style="stroke:#000000;stroke-width:0.8;" x="191.748173" xlink:href="#mcd7654ca80" y="266.112"/>
      </g>
     </g>
     <g id="text_4">
      <!-- 64.5 -->
      <g transform="translate(180.61536 280.710438)scale(0.1 -0.1)">
       <use xlink:href="#DejaVuSans-36"/>
       <use x="63.623047" xlink:href="#DejaVuSans-34"/>
       <use x="127.246094" xlink:href="#DejaVuSans-2e"/>
       <use x="159.033203" xlink:href="#DejaVuSans-35"/>
      </g>
     </g>
    </g>
    <g id="xtick_5">
     <g id="line2d_5">
      <g>
       <use style="stroke:#000000;stroke-width:0.8;" x="245.953257" xlink:href="#mcd7654ca80" y="266.112"/>
      </g>
     </g>
     <g id="text_5">
      <!-- 65.0 -->
      <g transform="translate(234.820445 280.710438)scale(0.1 -0.1)">
       <use xlink:href="#DejaVuSans-36"/>
       <use x="63.623047" xlink:href="#DejaVuSans-35"/>
       <use x="127.246094" xlink:href="#DejaVuSans-2e"/>
       <use x="159.033203" xlink:href="#DejaVuSans-30"/>
      </g>
     </g>
    </g>
    <g id="xtick_6">
     <g id="line2d_6">
      <g>
       <use style="stroke:#000000;stroke-width:0.8;" x="300.158342" xlink:href="#mcd7654ca80" y="266.112"/>
      </g>
     </g>
     <g id="text_6">
      <!-- 65.5 -->
      <g transform="translate(289.025529 280.710438)scale(0.1 -0.1)">
       <use xlink:href="#DejaVuSans-36"/>
       <use x="63.623047" xlink:href="#DejaVuSans-35"/>
       <use x="127.246094" xlink:href="#DejaVuSans-2e"/>
       <use x="159.033203" xlink:href="#DejaVuSans-35"/>
      </g>
     </g>
    </g>
    <g id="xtick_7">
     <g id="line2d_7">
      <g>
       <use style="stroke:#000000;stroke-width:0.8;" x="354.363426" xlink:href="#mcd7654ca80" y="266.112"/>
      </g>
     </g>
     <g id="text_7">
      <!-- 66.0 -->
      <g transform="translate(343.230614 280.710438)scale(0.1 -0.1)">
       <use xlink:href="#DejaVuSans-36"/>
       <use x="63.623047" xlink:href="#DejaVuSans-36"/>
       <use x="127.246094" xlink:href="#DejaVuSans-2e"/>
       <use x="159.033203" xlink:href="#DejaVuSans-30"/>
      </g>
     </g>
    </g>
   </g>
   <g id="matplotlib.axis_2">
    <g id="ytick_1">
     <g id="line2d_8">
      <defs>
       <path d="M 0 0 
L -3.5 0 
" id="m3158a86cac" style="stroke:#000000;stroke-width:0.8;"/>
      </defs>
      <g>
       <use style="stroke:#000000;stroke-width:0.8;" x="22.903125" xlink:href="#m3158a86cac" y="266.112"/>
      </g>
     </g>
     <g id="text_8">
      <!-- 0.0 -->
      <g transform="translate(0 269.911219)scale(0.1 -0.1)">
       <use xlink:href="#DejaVuSans-30"/>
       <use x="63.623047" xlink:href="#DejaVuSans-2e"/>
       <use x="95.410156" xlink:href="#DejaVuSans-30"/>
      </g>
     </g>
    </g>
    <g id="ytick_2">
     <g id="line2d_9">
      <g>
       <use style="stroke:#000000;stroke-width:0.8;" x="22.903125" xlink:href="#m3158a86cac" y="212.436362"/>
      </g>
     </g>
     <g id="text_9">
      <!-- 0.2 -->
      <g transform="translate(0 216.235581)scale(0.1 -0.1)">
       <defs>
        <path d="M 1228 531 
L 3431 531 
L 3431 0 
L 469 0 
L 469 531 
Q 828 903 1448 1529 
Q 2069 2156 2228 2338 
Q 2531 2678 2651 2914 
Q 2772 3150 2772 3378 
Q 2772 3750 2511 3984 
Q 2250 4219 1831 4219 
Q 1534 4219 1204 4116 
Q 875 4013 500 3803 
L 500 4441 
Q 881 4594 1212 4672 
Q 1544 4750 1819 4750 
Q 2544 4750 2975 4387 
Q 3406 4025 3406 3419 
Q 3406 3131 3298 2873 
Q 3191 2616 2906 2266 
Q 2828 2175 2409 1742 
Q 1991 1309 1228 531 
z
" id="DejaVuSans-32" transform="scale(0.015625)"/>
       </defs>
       <use xlink:href="#DejaVuSans-30"/>
       <use x="63.623047" xlink:href="#DejaVuSans-2e"/>
       <use x="95.410156" xlink:href="#DejaVuSans-32"/>
      </g>
     </g>
    </g>
    <g id="ytick_3">
     <g id="line2d_10">
      <g>
       <use style="stroke:#000000;stroke-width:0.8;" x="22.903125" xlink:href="#m3158a86cac" y="158.760724"/>
      </g>
     </g>
     <g id="text_10">
      <!-- 0.4 -->
      <g transform="translate(0 162.559943)scale(0.1 -0.1)">
       <use xlink:href="#DejaVuSans-30"/>
       <use x="63.623047" xlink:href="#DejaVuSans-2e"/>
       <use x="95.410156" xlink:href="#DejaVuSans-34"/>
      </g>
     </g>
    </g>
    <g id="ytick_4">
     <g id="line2d_11">
      <g>
       <use style="stroke:#000000;stroke-width:0.8;" x="22.903125" xlink:href="#m3158a86cac" y="105.085086"/>
      </g>
     </g>
     <g id="text_11">
      <!-- 0.6 -->
      <g transform="translate(0 108.884304)scale(0.1 -0.1)">
       <use xlink:href="#DejaVuSans-30"/>
       <use x="63.623047" xlink:href="#DejaVuSans-2e"/>
       <use x="95.410156" xlink:href="#DejaVuSans-36"/>
      </g>
     </g>
    </g>
    <g id="ytick_5">
     <g id="line2d_12">
      <g>
       <use style="stroke:#000000;stroke-width:0.8;" x="22.903125" xlink:href="#m3158a86cac" y="51.409448"/>
      </g>
     </g>
     <g id="text_12">
      <!-- 0.8 -->
      <g transform="translate(0 55.208666)scale(0.1 -0.1)">
       <defs>
        <path d="M 2034 2216 
Q 1584 2216 1326 1975 
Q 1069 1734 1069 1313 
Q 1069 891 1326 650 
Q 1584 409 2034 409 
Q 2484 409 2743 651 
Q 3003 894 3003 1313 
Q 3003 1734 2745 1975 
Q 2488 2216 2034 2216 
z
M 1403 2484 
Q 997 2584 770 2862 
Q 544 3141 544 3541 
Q 544 4100 942 4425 
Q 1341 4750 2034 4750 
Q 2731 4750 3128 4425 
Q 3525 4100 3525 3541 
Q 3525 3141 3298 2862 
Q 3072 2584 2669 2484 
Q 3125 2378 3379 2068 
Q 3634 1759 3634 1313 
Q 3634 634 3220 271 
Q 2806 -91 2034 -91 
Q 1263 -91 848 271 
Q 434 634 434 1313 
Q 434 1759 690 2068 
Q 947 2378 1403 2484 
z
M 1172 3481 
Q 1172 3119 1398 2916 
Q 1625 2713 2034 2713 
Q 2441 2713 2670 2916 
Q 2900 3119 2900 3481 
Q 2900 3844 2670 4047 
Q 2441 4250 2034 4250 
Q 1625 4250 1398 4047 
Q 1172 3844 1172 3481 
z
" id="DejaVuSans-38" transform="scale(0.015625)"/>
       </defs>
       <use xlink:href="#DejaVuSans-30"/>
       <use x="63.623047" xlink:href="#DejaVuSans-2e"/>
       <use x="95.410156" xlink:href="#DejaVuSans-38"/>
      </g>
     </g>
    </g>
   </g>
   <g id="line2d_13">
    <path clip-path="url(#peec15170ff)" d="M 96.893742 266.112 
L 96.893742 0 
" style="fill:none;stroke:#ff0000;stroke-dasharray:5.55,2.4;stroke-dashoffset:0;stroke-width:1.5;"/>
   </g>
   <g id="line2d_14">
    <path clip-path="url(#peec15170ff)" d="M 112.794365 266.112 
L 112.794365 0 
" style="fill:none;stroke:#dd6600;stroke-dasharray:5.55,2.4;stroke-dashoffset:0;stroke-width:1.5;"/>
   </g>
   <g id="line2d_15">
    <path clip-path="url(#peec15170ff)" d="M 124.757614 266.112 
L 124.757614 0 
" style="fill:none;stroke:#dddd00;stroke-dasharray:5.55,2.4;stroke-dashoffset:0;stroke-width:1.5;"/>
   </g>
   <g id="line2d_16">
    <path clip-path="url(#peec15170ff)" d="M 168.517422 266.112 
L 168.517422 0 
" style="fill:none;stroke:#00ff00;stroke-dasharray:5.55,2.4;stroke-dashoffset:0;stroke-width:1.5;"/>
   </g>
   <g id="line2d_17">
    <path clip-path="url(#peec15170ff)" d="M 203.018537 266.112 
L 203.018537 0 
" style="fill:none;stroke:#000000;stroke-dasharray:5.55,2.4;stroke-dashoffset:0;stroke-width:1.5;"/>
   </g>
   <g id="line2d_18">
    <path clip-path="url(#peec15170ff)" d="M 231.303234 266.112 
L 231.303234 0 
" style="fill:none;stroke:#00ff00;stroke-dasharray:5.55,2.4;stroke-dashoffset:0;stroke-width:1.5;"/>
   </g>
   <g id="line2d_19">
    <path clip-path="url(#peec15170ff)" d="M 275.325471 266.112 
L 275.325471 0 
" style="fill:none;stroke:#dddd00;stroke-dasharray:5.55,2.4;stroke-dashoffset:0;stroke-width:1.5;"/>
   </g>
   <g id="line2d_20">
    <path clip-path="url(#peec15170ff)" d="M 292.299612 266.112 
L 292.299612 0 
" style="fill:none;stroke:#dd6600;stroke-dasharray:5.55,2.4;stroke-dashoffset:0;stroke-width:1.5;"/>
   </g>
   <g id="line2d_21">
    <path clip-path="url(#peec15170ff)" d="M 309.485401 266.112 
L 309.485401 0 
" style="fill:none;stroke:#ff0000;stroke-dasharray:5.55,2.4;stroke-dashoffset:0;stroke-width:1.5;"/>
   </g>
   <g id="line2d_22">
    <path clip-path="url(#peec15170ff)" d="M 318.766058 266.112 
L 318.766058 0 
" style="fill:none;stroke:#ff00ff;stroke-dasharray:5.55,2.4;stroke-dashoffset:0;stroke-width:1.5;"/>
   </g>
   <g id="patch_38">
    <path d="M 22.903125 266.112 
L 22.903125 0 
" style="fill:none;stroke:#000000;stroke-linecap:square;stroke-linejoin:miter;stroke-width:0.8;"/>
   </g>
   <g id="patch_39">
    <path d="M 380.023125 266.112 
L 380.023125 0 
" style="fill:none;stroke:#000000;stroke-linecap:square;stroke-linejoin:miter;stroke-width:0.8;"/>
   </g>
   <g id="patch_40">
    <path d="M 22.903125 266.112 
L 380.023125 266.112 
" style="fill:none;stroke:#000000;stroke-linecap:square;stroke-linejoin:miter;stroke-width:0.8;"/>
   </g>
   <g id="patch_41">
    <path d="M 22.903125 0 
L 380.023125 0 
" style="fill:none;stroke:#000000;stroke-linecap:square;stroke-linejoin:miter;stroke-width:0.8;"/>
   </g>
   <g id="legend_1">
    <g id="patch_42">
     <path d="M 29.903125 154.78125 
L 122.482813 154.78125 
Q 124.482813 154.78125 124.482813 152.78125 
L 124.482813 7 
Q 124.482813 5 122.482813 5 
L 29.903125 5 
Q 27.903125 5 27.903125 7 
L 27.903125 152.78125 
Q 27.903125 154.78125 29.903125 154.78125 
z
" style="fill:#ffffff;opacity:0.8;stroke:#cccccc;stroke-linejoin:miter;"/>
    </g>
    <g id="line2d_23">
     <path d="M 31.903125 13.098438 
L 51.903125 13.098438 
" style="fill:none;stroke:#ff0000;stroke-dasharray:5.55,2.4;stroke-dashoffset:0;stroke-width:1.5;"/>
    </g>
    <g id="line2d_24"/>
    <g id="text_13">
     <!-- 01.0%: 63.6 -->
     <g transform="translate(59.903125 16.598438)scale(0.1 -0.1)">
      <defs>
       <path d="M 794 531 
L 1825 531 
L 1825 4091 
L 703 3866 
L 703 4441 
L 1819 4666 
L 2450 4666 
L 2450 531 
L 3481 531 
L 3481 0 
L 794 0 
L 794 531 
z
" id="DejaVuSans-31" transform="scale(0.015625)"/>
       <path d="M 4653 2053 
Q 4381 2053 4226 1822 
Q 4072 1591 4072 1178 
Q 4072 772 4226 539 
Q 4381 306 4653 306 
Q 4919 306 5073 539 
Q 5228 772 5228 1178 
Q 5228 1588 5073 1820 
Q 4919 2053 4653 2053 
z
M 4653 2450 
Q 5147 2450 5437 2106 
Q 5728 1763 5728 1178 
Q 5728 594 5436 251 
Q 5144 -91 4653 -91 
Q 4153 -91 3862 251 
Q 3572 594 3572 1178 
Q 3572 1766 3864 2108 
Q 4156 2450 4653 2450 
z
M 1428 4353 
Q 1159 4353 1004 4120 
Q 850 3888 850 3481 
Q 850 3069 1003 2837 
Q 1156 2606 1428 2606 
Q 1700 2606 1854 2837 
Q 2009 3069 2009 3481 
Q 2009 3884 1853 4118 
Q 1697 4353 1428 4353 
z
M 4250 4750 
L 4750 4750 
L 1831 -91 
L 1331 -91 
L 4250 4750 
z
M 1428 4750 
Q 1922 4750 2215 4408 
Q 2509 4066 2509 3481 
Q 2509 2891 2217 2550 
Q 1925 2209 1428 2209 
Q 931 2209 642 2551 
Q 353 2894 353 3481 
Q 353 4063 643 4406 
Q 934 4750 1428 4750 
z
" id="DejaVuSans-25" transform="scale(0.015625)"/>
       <path d="M 750 794 
L 1409 794 
L 1409 0 
L 750 0 
L 750 794 
z
M 750 3309 
L 1409 3309 
L 1409 2516 
L 750 2516 
L 750 3309 
z
" id="DejaVuSans-3a" transform="scale(0.015625)"/>
       <path id="DejaVuSans-20" transform="scale(0.015625)"/>
      </defs>
      <use xlink:href="#DejaVuSans-30"/>
      <use x="63.623047" xlink:href="#DejaVuSans-31"/>
      <use x="127.246094" xlink:href="#DejaVuSans-2e"/>
      <use x="159.033203" xlink:href="#DejaVuSans-30"/>
      <use x="222.65625" xlink:href="#DejaVuSans-25"/>
      <use x="317.675781" xlink:href="#DejaVuSans-3a"/>
      <use x="351.367188" xlink:href="#DejaVuSans-20"/>
      <use x="383.154297" xlink:href="#DejaVuSans-36"/>
      <use x="446.777344" xlink:href="#DejaVuSans-33"/>
      <use x="510.400391" xlink:href="#DejaVuSans-2e"/>
      <use x="542.1875" xlink:href="#DejaVuSans-36"/>
     </g>
    </g>
    <g id="line2d_25">
     <path d="M 31.903125 27.776563 
L 51.903125 27.776563 
" style="fill:none;stroke:#dd6600;stroke-dasharray:5.55,2.4;stroke-dashoffset:0;stroke-width:1.5;"/>
    </g>
    <g id="line2d_26"/>
    <g id="text_14">
     <!-- 02.5%: 63.8 -->
     <g transform="translate(59.903125 31.276563)scale(0.1 -0.1)">
      <use xlink:href="#DejaVuSans-30"/>
      <use x="63.623047" xlink:href="#DejaVuSans-32"/>
      <use x="127.246094" xlink:href="#DejaVuSans-2e"/>
      <use x="159.033203" xlink:href="#DejaVuSans-35"/>
      <use x="222.65625" xlink:href="#DejaVuSans-25"/>
      <use x="317.675781" xlink:href="#DejaVuSans-3a"/>
      <use x="351.367188" xlink:href="#DejaVuSans-20"/>
      <use x="383.154297" xlink:href="#DejaVuSans-36"/>
      <use x="446.777344" xlink:href="#DejaVuSans-33"/>
      <use x="510.400391" xlink:href="#DejaVuSans-2e"/>
      <use x="542.1875" xlink:href="#DejaVuSans-38"/>
     </g>
    </g>
    <g id="line2d_27">
     <path d="M 31.903125 42.454688 
L 51.903125 42.454688 
" style="fill:none;stroke:#dddd00;stroke-dasharray:5.55,2.4;stroke-dashoffset:0;stroke-width:1.5;"/>
    </g>
    <g id="line2d_28"/>
    <g id="text_15">
     <!-- 05.0%: 63.9 -->
     <g transform="translate(59.903125 45.954688)scale(0.1 -0.1)">
      <defs>
       <path d="M 703 97 
L 703 672 
Q 941 559 1184 500 
Q 1428 441 1663 441 
Q 2288 441 2617 861 
Q 2947 1281 2994 2138 
Q 2813 1869 2534 1725 
Q 2256 1581 1919 1581 
Q 1219 1581 811 2004 
Q 403 2428 403 3163 
Q 403 3881 828 4315 
Q 1253 4750 1959 4750 
Q 2769 4750 3195 4129 
Q 3622 3509 3622 2328 
Q 3622 1225 3098 567 
Q 2575 -91 1691 -91 
Q 1453 -91 1209 -44 
Q 966 3 703 97 
z
M 1959 2075 
Q 2384 2075 2632 2365 
Q 2881 2656 2881 3163 
Q 2881 3666 2632 3958 
Q 2384 4250 1959 4250 
Q 1534 4250 1286 3958 
Q 1038 3666 1038 3163 
Q 1038 2656 1286 2365 
Q 1534 2075 1959 2075 
z
" id="DejaVuSans-39" transform="scale(0.015625)"/>
      </defs>
      <use xlink:href="#DejaVuSans-30"/>
      <use x="63.623047" xlink:href="#DejaVuSans-35"/>
      <use x="127.246094" xlink:href="#DejaVuSans-2e"/>
      <use x="159.033203" xlink:href="#DejaVuSans-30"/>
      <use x="222.65625" xlink:href="#DejaVuSans-25"/>
      <use x="317.675781" xlink:href="#DejaVuSans-3a"/>
      <use x="351.367188" xlink:href="#DejaVuSans-20"/>
      <use x="383.154297" xlink:href="#DejaVuSans-36"/>
      <use x="446.777344" xlink:href="#DejaVuSans-33"/>
      <use x="510.400391" xlink:href="#DejaVuSans-2e"/>
      <use x="542.1875" xlink:href="#DejaVuSans-39"/>
     </g>
    </g>
    <g id="line2d_29">
     <path d="M 31.903125 57.132813 
L 51.903125 57.132813 
" style="fill:none;stroke:#00ff00;stroke-dasharray:5.55,2.4;stroke-dashoffset:0;stroke-width:1.5;"/>
    </g>
    <g id="line2d_30"/>
    <g id="text_16">
     <!-- 25.0%: 64.3 -->
     <g transform="translate(59.903125 60.632813)scale(0.1 -0.1)">
      <use xlink:href="#DejaVuSans-32"/>
      <use x="63.623047" xlink:href="#DejaVuSans-35"/>
      <use x="127.246094" xlink:href="#DejaVuSans-2e"/>
      <use x="159.033203" xlink:href="#DejaVuSans-30"/>
      <use x="222.65625" xlink:href="#DejaVuSans-25"/>
      <use x="317.675781" xlink:href="#DejaVuSans-3a"/>
      <use x="351.367188" xlink:href="#DejaVuSans-20"/>
      <use x="383.154297" xlink:href="#DejaVuSans-36"/>
      <use x="446.777344" xlink:href="#DejaVuSans-34"/>
      <use x="510.400391" xlink:href="#DejaVuSans-2e"/>
      <use x="542.1875" xlink:href="#DejaVuSans-33"/>
     </g>
    </g>
    <g id="line2d_31">
     <path d="M 31.903125 71.810938 
L 51.903125 71.810938 
" style="fill:none;stroke:#000000;stroke-dasharray:5.55,2.4;stroke-dashoffset:0;stroke-width:1.5;"/>
    </g>
    <g id="line2d_32"/>
    <g id="text_17">
     <!-- 50.0%: 64.6 -->
     <g transform="translate(59.903125 75.310938)scale(0.1 -0.1)">
      <use xlink:href="#DejaVuSans-35"/>
      <use x="63.623047" xlink:href="#DejaVuSans-30"/>
      <use x="127.246094" xlink:href="#DejaVuSans-2e"/>
      <use x="159.033203" xlink:href="#DejaVuSans-30"/>
      <use x="222.65625" xlink:href="#DejaVuSans-25"/>
      <use x="317.675781" xlink:href="#DejaVuSans-3a"/>
      <use x="351.367188" xlink:href="#DejaVuSans-20"/>
      <use x="383.154297" xlink:href="#DejaVuSans-36"/>
      <use x="446.777344" xlink:href="#DejaVuSans-34"/>
      <use x="510.400391" xlink:href="#DejaVuSans-2e"/>
      <use x="542.1875" xlink:href="#DejaVuSans-36"/>
     </g>
    </g>
    <g id="line2d_33">
     <path d="M 31.903125 86.489063 
L 51.903125 86.489063 
" style="fill:none;stroke:#00ff00;stroke-dasharray:5.55,2.4;stroke-dashoffset:0;stroke-width:1.5;"/>
    </g>
    <g id="line2d_34"/>
    <g id="text_18">
     <!-- 75.0%: 64.9 -->
     <g transform="translate(59.903125 89.989063)scale(0.1 -0.1)">
      <defs>
       <path d="M 525 4666 
L 3525 4666 
L 3525 4397 
L 1831 0 
L 1172 0 
L 2766 4134 
L 525 4134 
L 525 4666 
z
" id="DejaVuSans-37" transform="scale(0.015625)"/>
      </defs>
      <use xlink:href="#DejaVuSans-37"/>
      <use x="63.623047" xlink:href="#DejaVuSans-35"/>
      <use x="127.246094" xlink:href="#DejaVuSans-2e"/>
      <use x="159.033203" xlink:href="#DejaVuSans-30"/>
      <use x="222.65625" xlink:href="#DejaVuSans-25"/>
      <use x="317.675781" xlink:href="#DejaVuSans-3a"/>
      <use x="351.367188" xlink:href="#DejaVuSans-20"/>
      <use x="383.154297" xlink:href="#DejaVuSans-36"/>
      <use x="446.777344" xlink:href="#DejaVuSans-34"/>
      <use x="510.400391" xlink:href="#DejaVuSans-2e"/>
      <use x="542.1875" xlink:href="#DejaVuSans-39"/>
     </g>
    </g>
    <g id="line2d_35">
     <path d="M 31.903125 101.167188 
L 51.903125 101.167188 
" style="fill:none;stroke:#dddd00;stroke-dasharray:5.55,2.4;stroke-dashoffset:0;stroke-width:1.5;"/>
    </g>
    <g id="line2d_36"/>
    <g id="text_19">
     <!-- 95.0%: 65.3 -->
     <g transform="translate(59.903125 104.667188)scale(0.1 -0.1)">
      <use xlink:href="#DejaVuSans-39"/>
      <use x="63.623047" xlink:href="#DejaVuSans-35"/>
      <use x="127.246094" xlink:href="#DejaVuSans-2e"/>
      <use x="159.033203" xlink:href="#DejaVuSans-30"/>
      <use x="222.65625" xlink:href="#DejaVuSans-25"/>
      <use x="317.675781" xlink:href="#DejaVuSans-3a"/>
      <use x="351.367188" xlink:href="#DejaVuSans-20"/>
      <use x="383.154297" xlink:href="#DejaVuSans-36"/>
      <use x="446.777344" xlink:href="#DejaVuSans-35"/>
      <use x="510.400391" xlink:href="#DejaVuSans-2e"/>
      <use x="542.1875" xlink:href="#DejaVuSans-33"/>
     </g>
    </g>
    <g id="line2d_37">
     <path d="M 31.903125 115.845313 
L 51.903125 115.845313 
" style="fill:none;stroke:#dd6600;stroke-dasharray:5.55,2.4;stroke-dashoffset:0;stroke-width:1.5;"/>
    </g>
    <g id="line2d_38"/>
    <g id="text_20">
     <!-- 97.5%: 65.4 -->
     <g transform="translate(59.903125 119.345313)scale(0.1 -0.1)">
      <use xlink:href="#DejaVuSans-39"/>
      <use x="63.623047" xlink:href="#DejaVuSans-37"/>
      <use x="127.246094" xlink:href="#DejaVuSans-2e"/>
      <use x="159.033203" xlink:href="#DejaVuSans-35"/>
      <use x="222.65625" xlink:href="#DejaVuSans-25"/>
      <use x="317.675781" xlink:href="#DejaVuSans-3a"/>
      <use x="351.367188" xlink:href="#DejaVuSans-20"/>
      <use x="383.154297" xlink:href="#DejaVuSans-36"/>
      <use x="446.777344" xlink:href="#DejaVuSans-35"/>
      <use x="510.400391" xlink:href="#DejaVuSans-2e"/>
      <use x="542.1875" xlink:href="#DejaVuSans-34"/>
     </g>
    </g>
    <g id="line2d_39">
     <path d="M 31.903125 130.523438 
L 51.903125 130.523438 
" style="fill:none;stroke:#ff0000;stroke-dasharray:5.55,2.4;stroke-dashoffset:0;stroke-width:1.5;"/>
    </g>
    <g id="line2d_40"/>
    <g id="text_21">
     <!-- 99.0%: 65.6 -->
     <g transform="translate(59.903125 134.023438)scale(0.1 -0.1)">
      <use xlink:href="#DejaVuSans-39"/>
      <use x="63.623047" xlink:href="#DejaVuSans-39"/>
      <use x="127.246094" xlink:href="#DejaVuSans-2e"/>
      <use x="159.033203" xlink:href="#DejaVuSans-30"/>
      <use x="222.65625" xlink:href="#DejaVuSans-25"/>
      <use x="317.675781" xlink:href="#DejaVuSans-3a"/>
      <use x="351.367188" xlink:href="#DejaVuSans-20"/>
      <use x="383.154297" xlink:href="#DejaVuSans-36"/>
      <use x="446.777344" xlink:href="#DejaVuSans-35"/>
      <use x="510.400391" xlink:href="#DejaVuSans-2e"/>
      <use x="542.1875" xlink:href="#DejaVuSans-36"/>
     </g>
    </g>
    <g id="line2d_41">
     <path d="M 31.903125 145.201563 
L 51.903125 145.201563 
" style="fill:none;stroke:#ff00ff;stroke-dasharray:5.55,2.4;stroke-dashoffset:0;stroke-width:1.5;"/>
    </g>
    <g id="line2d_42"/>
    <g id="text_22">
     <!-- 99.6%: 65.7 -->
     <g transform="translate(59.903125 148.701563)scale(0.1 -0.1)">
      <use xlink:href="#DejaVuSans-39"/>
      <use x="63.623047" xlink:href="#DejaVuSans-39"/>
      <use x="127.246094" xlink:href="#DejaVuSans-2e"/>
      <use x="159.033203" xlink:href="#DejaVuSans-36"/>
      <use x="222.65625" xlink:href="#DejaVuSans-25"/>
      <use x="317.675781" xlink:href="#DejaVuSans-3a"/>
      <use x="351.367188" xlink:href="#DejaVuSans-20"/>
      <use x="383.154297" xlink:href="#DejaVuSans-36"/>
      <use x="446.777344" xlink:href="#DejaVuSans-35"/>
      <use x="510.400391" xlink:href="#DejaVuSans-2e"/>
      <use x="542.1875" xlink:href="#DejaVuSans-37"/>
     </g>
    </g>
   </g>
  </g>
 </g>
 <defs>
  <clipPath id="peec15170ff">
   <rect height="266.112" width="357.12" x="22.903125" y="0"/>
  </clipPath>
 </defs>
</svg>
