<?xml version="1.0" encoding="UTF-8" standalone="no"?>
<!-- Created with Inkscape (http://www.inkscape.org/) -->

<svg
   xmlns:dc="http://purl.org/dc/elements/1.1/"
   xmlns:cc="http://creativecommons.org/ns#"
   xmlns:rdf="http://www.w3.org/1999/02/22-rdf-syntax-ns#"
   xmlns:svg="http://www.w3.org/2000/svg"
   xmlns="http://www.w3.org/2000/svg"
   xmlns:sodipodi="http://sodipodi.sourceforge.net/DTD/sodipodi-0.dtd"
   xmlns:inkscape="http://www.inkscape.org/namespaces/inkscape"
   width="128"
   height="44.799999"
   id="svg2759"
   sodipodi:version="0.32"
   inkscape:version="0.92.1 r15371"
   version="1.0"
   sodipodi:docname="by-nc-sa.eu.svg"
   inkscape:output_extension="org.inkscape.output.svg.inkscape">
  <defs
     id="defs2761" />
  <sodipodi:namedview
     id="base"
     pagecolor="#ffffff"
     bordercolor="#8b8b8b"
     borderopacity="1"
     gridtolerance="10000"
     guidetolerance="10"
     objecttolerance="10"
     inkscape:pageopacity="0.0"
     inkscape:pageshadow="2"
     inkscape:zoom="1.8760684"
     inkscape:cx="60"
     inkscape:cy="31"
     inkscape:document-units="px"
     inkscape:current-layer="layer1"
     width="120px"
     height="42px"
     inkscape:showpageshadow="false"
     inkscape:window-width="1920"
     inkscape:window-height="1053"
     inkscape:window-x="0"
     inkscape:window-y="0"
     showgrid="false"
     inkscape:window-maximized="1" />
  <metadata
     id="metadata2764">
    <rdf:RDF>
      <cc:Work
         rdf:about="">
        <dc:format>image/svg+xml</dc:format>
        <dc:type
           rdf:resource="http://purl.org/dc/dcmitype/StillImage" />
        <dc:title></dc:title>
      </cc:Work>
    </rdf:RDF>
  </metadata>
  <g
     inkscape:label="Layer 1"
     inkscape:groupmode="layer"
     id="layer1">
    <g
       id="g2630">
      <path
         id="path3817_5_"
         nodetypes="ccccccc"
         d="M 3.6355517,0.48286362 124.54659,0.69764464 c 1.68942,0 3.19873,-0.25048954 3.19873,3.37122686 L 127.59729,43.886554 H 0.58382313 V 3.9208544 c 0,-1.7860191 0.17287015,-3.43799078 3.05172857,-3.43799078 z"
         style="fill:#aab2ab;stroke-width:1.06666672"
         inkscape:connector-curvature="0" />
      <path
         d="M 125.60352,-1.5118421e-6 H 2.3974757 C 1.0755406,-1.5118421e-6 -2.1769267e-5,1.0754404 -2.1769267e-5,2.3967084 V 44.259177 c 0,0.29862 0.242238709267,0.540821 0.541401179267,0.540821 H 127.45857 c 0.29918,0 0.54141,-0.242211 0.54141,-0.540821 V 2.3967084 c 0,-1.321268 -1.07556,-2.3967099118421 -2.39646,-2.3967099118421 z M 2.3974757,1.0826902 H 125.60353 c 0.72462,0 1.31365,0.5894714 1.31365,1.3140287 0,0 0,16.8494251 0,29.0353331 H 38.856818 c -3.227715,5.83574 -9.447129,9.797996 -16.583716,9.797996 -7.138664,0 -13.3560002,-3.958631 -16.5816483,-9.797996 H 1.0827911 c 0,-12.185908 0,-29.0353331 0,-29.0353331 -1.05e-5,-0.7245573 0.5900461,-1.3140287 1.3146846,-1.3140287 z"
         id="path120"
         inkscape:connector-curvature="0"
         style="stroke-width:1.06666672" />
      <g
         id="g5908_5_"
         transform="matrix(0.8674921,0,0,0.8673951,-413.13037,72.395607)">
        <path
           id="path5906_5_"
           cx="296.35416"
           ry="22.939548"
           cy="264.3577"
           type="arc"
           rx="22.939548"
           d="m 518.68372,-59.420373 c 0.006,9.259509 -7.49641,16.7696 -16.75534,16.775552 -9.25885,0.006 -16.7696,-7.496384 -16.77552,-16.755307 0,-0.0071 0,-0.01309 0,-0.02024 -0.006,-9.25951 7.49636,-16.7696 16.75528,-16.775584 9.26009,-0.0053 16.77077,7.496352 16.77558,16.755274 0,0.0066 0,0.01373 0,0.02031 z"
           style="fill:#ffffff;stroke-width:1.06666672"
           inkscape:connector-curvature="0" />
        <g
           id="g5706_5_"
           transform="translate(-308.92341,105.66965)">
          <path
             id="path5708_5_"
             d="m 824.47109,-178.74571 c 3.71719,3.71777 5.5763,8.27025 5.5763,13.65567 0,5.38601 -1.82695,9.89017 -5.48086,13.51247 -3.87825,3.81442 -8.46055,5.72132 -13.74935,5.72132 -5.22435,0 -9.72786,-1.89081 -13.5082,-5.67418 -3.78281,-3.78161 -5.67304,-8.30127 -5.67304,-13.55961 0,-5.25716 1.89023,-9.80904 5.67304,-13.65567 3.6849,-3.71894 8.18842,-5.57812 13.5082,-5.57812 5.38542,0 9.93556,1.85918 13.65391,5.57812 z m -24.65976,2.50118 c -3.14323,3.1748 -4.71485,6.89375 -4.71485,11.15924 0,4.26549 1.55612,7.95286 4.66589,11.06263 3.1121,3.11094 6.81497,4.66641 11.1121,4.66641 4.29714,0 8.03216,-1.57099 11.20756,-4.71354 3.01432,-2.91888 4.52148,-6.58952 4.52148,-11.0155 0,-4.39199 -1.53216,-8.12045 -4.59545,-11.18314 -3.06198,-3.06198 -6.77317,-4.59362 -11.13359,-4.59362 -4.36041,0 -8.05012,1.53939 -11.06314,4.61752 z m 8.27084,9.2834 c -0.4797,-1.04714 -1.19805,-1.57103 -2.15756,-1.57103 -1.69453,0 -2.54179,1.14141 -2.54179,3.42305 0,2.28217 0.84726,3.4224 2.54179,3.4224 1.1194,0 1.91888,-0.55547 2.39857,-1.66888 l 2.34961,1.25123 c -1.12045,1.98984 -2.80065,2.98561 -5.04049,2.98561 -1.728,0 -3.11224,-0.52982 -4.15156,-1.58887 -1.04049,-1.05963 -1.56081,-2.52089 -1.56081,-4.38242 0,-1.82936 0.53698,-3.28164 1.60859,-4.35735 1.07149,-1.07578 2.40808,-1.61341 4.00833,-1.61341 2.36862,0 4.06315,0.93321 5.08945,2.79772 z m 11.05481,0 c -0.48086,-1.04714 -1.1862,-1.57103 -2.11458,-1.57103 -1.72903,0 -2.59427,1.14141 -2.59427,3.42305 0,2.28217 0.86524,3.4224 2.59427,3.4224 1.12175,0 1.9069,-0.55547 2.35443,-1.66888 l 2.40208,1.25123 c -1.1181,1.98984 -2.79583,2.98561 -5.03216,2.98561 -1.72552,0 -3.10612,-0.52982 -4.14557,-1.58887 -1.03698,-1.05963 -1.55729,-2.52089 -1.55729,-4.38242 0,-1.82936 0.52748,-3.28164 1.58242,-4.35735 1.05365,-1.07578 2.39493,-1.61341 4.02501,-1.61341 2.36393,0 4.05729,0.93321 5.07877,2.79772 z"
             inkscape:connector-curvature="0"
             style="stroke-width:1.06666672" />
        </g>
      </g>
      <g
         transform="matrix(0.9937808,0,0,0.9936696,-466.2649,-79.399375)"
         id="g126">
        <circle
           cx="524.74274"
           cy="96.247398"
           r="11.526561"
           id="circle128"
           style="fill:#ffffff;stroke-width:1.06666672" />
        <g
           id="g130">
          <path
             d="m 528.07865,92.911979 c 0,-0.444267 -0.36042,-0.804171 -0.80418,-0.804171 h -5.09062 c -0.44375,0 -0.80417,0.359893 -0.80417,0.804171 v 5.091146 h 1.41979 v 6.028655 h 3.85833 v -6.028655 h 1.42083 v -5.091146 z"
             id="path132"
             inkscape:connector-curvature="0"
             style="stroke-width:1.06666672" />
          <circle
             cx="524.72919"
             cy="89.696358"
             r="1.7411414"
             id="circle134"
             style="stroke-width:1.06666672" />
        </g>
        <path
           d="m 524.71302,83.54688 c -3.44688,0 -6.36562,1.203125 -8.75416,3.609376 -2.45104,2.489067 -3.67604,5.435413 -3.67604,8.836981 0,3.401568 1.225,6.327083 3.67604,8.775523 2.45104,2.44688 5.36979,3.67135 8.75416,3.67135 3.42709,0 6.39792,-1.23386 8.91146,-3.70313 2.36771,-2.34375 3.55104,-5.258335 3.55104,-8.743753 0,-3.485419 -1.20417,-6.430731 -3.61355,-8.836982 -2.40937,-2.40625 -5.35832,-3.609365 -8.84895,-3.609365 z m 0.0323,2.239573 c 2.82501,0 5.22292,0.996352 7.19583,2.988022 1.9948,1.970314 2.99167,4.377088 2.99167,7.218752 0,2.862496 -0.97604,5.238013 -2.92916,7.126033 -2.05625,2.03281 -4.47604,3.04896 -7.25834,3.04896 -2.78437,0 -5.18333,-1.00572 -7.19792,-3.01823 -2.01458,-2.01197 -3.02187,-4.397393 -3.02187,-7.156763 0,-2.759371 1.0177,-5.16511 3.05312,-7.218752 1.95314,-1.991659 4.34167,-2.988022 7.16667,-2.988022 z"
           id="path136"
           style="clip-rule:evenodd;fill-rule:evenodd;stroke-width:1.06666672"
           inkscape:connector-curvature="0" />
      </g>
      <g
         transform="matrix(0.9937808,0,0,0.9936696,-466.2649,-79.399375)"
         enable-background="new    "
         id="g138">
        <path
           d="m 521.13386,115.05834 c 0.33853,0 0.64791,0.0302 0.92708,0.0896 0.27917,0.0594 0.51875,0.15729 0.71875,0.29375 0.19896,0.13541 0.35312,0.31667 0.46354,0.54166 0.10938,0.22604 0.16459,0.50417 0.16459,0.83646 0,0.35833 -0.0813,0.65624 -0.24479,0.89479 -0.1625,0.23959 -0.40417,0.43438 -0.72291,0.5875 0.43958,0.12604 0.76771,0.34688 0.98437,0.6625 0.21666,0.31561 0.325,0.69583 0.325,1.14063 0,0.35833 -0.0698,0.66874 -0.20937,0.93125 -0.13959,0.26146 -0.32813,0.47604 -0.56459,0.64166 -0.23541,0.16667 -0.5052,0.28958 -0.8073,0.36875 -0.30312,0.0802 -0.61354,0.11979 -0.93333,0.11979 h -3.45208 v -7.10833 h 3.35104 z m -0.2,2.87499 c 0.27916,0 0.50833,-0.0667 0.68749,-0.19895 0.18022,-0.13229 0.2698,-0.34688 0.2698,-0.64479 0,-0.16562 -0.0302,-0.30208 -0.0896,-0.4073 -0.0604,-0.10624 -0.13959,-0.18854 -0.23959,-0.24896 -0.0999,-0.0594 -0.21458,-0.10101 -0.34375,-0.12395 -0.13021,-0.0229 -0.26459,-0.0344 -0.40417,-0.0344 h -1.46459 v 1.65834 z m 0.0916,3.01666 c 0.15312,0 0.29896,-0.0146 0.43854,-0.0448 0.13959,-0.0302 0.2625,-0.0802 0.36979,-0.14896 0.10624,-0.0698 0.19063,-0.16458 0.25417,-0.28437 0.0625,-0.11875 0.0948,-0.27187 0.0948,-0.45729 0,-0.36459 -0.10315,-0.625 -0.30938,-0.78125 -0.20625,-0.15521 -0.47917,-0.23333 -0.81771,-0.23333 h -1.70625 v 1.94999 z"
           id="path140"
           style="fill:#ffffff;stroke-width:1.06666672"
           inkscape:connector-curvature="0" />
        <path
           d="m 524.02553,115.05834 h 1.75208 l 1.66459,2.80729 1.65521,-2.80729 h 1.74271 l -2.63959,4.38021 v 2.72813 h -1.56666 v -2.76771 z"
           id="path142"
           style="fill:#ffffff;stroke-width:1.06666672"
           inkscape:connector-curvature="0" />
      </g>
      <g
         transform="matrix(0.9937808,0,0,0.9936696,-466.2649,-79.399375)"
         enable-background="new    "
         id="g144">
        <path
           d="m 574.84323,120.40938 c 0.0865,0.16562 0.2,0.3 0.34271,0.40312 0.14271,0.10315 0.30938,0.17917 0.50208,0.22916 0.19167,0.05 0.38958,0.075 0.59583,0.075 0.13854,0 0.2875,-0.0114 0.44688,-0.0354 0.15834,-0.0229 0.3073,-0.0677 0.44688,-0.13438 0.13854,-0.0656 0.25417,-0.15729 0.34792,-0.27396 0.0916,-0.11563 0.13853,-0.26355 0.13853,-0.44271 0,-0.19271 -0.0614,-0.34792 -0.18437,-0.46772 -0.12188,-0.11978 -0.28333,-0.21875 -0.48125,-0.29895 -0.19895,-0.0791 -0.425,-0.14896 -0.67604,-0.20938 -0.25209,-0.0594 -0.5073,-0.12603 -0.76562,-0.19895 -0.26562,-0.0667 -0.52396,-0.14792 -0.77604,-0.24376 -0.25104,-0.0958 -0.47709,-0.22083 -0.67605,-0.37396 -0.19792,-0.15208 -0.35937,-0.34271 -0.48124,-0.57187 -0.12292,-0.22916 -0.18438,-0.50625 -0.18438,-0.83125 0,-0.36562 0.0781,-0.6823 0.23334,-0.95104 0.15624,-0.26875 0.36041,-0.49271 0.61145,-0.67292 0.25209,-0.17917 0.53751,-0.31146 0.85625,-0.39792 0.3177,-0.0865 0.63646,-0.12916 0.95416,-0.12916 0.37187,0 0.72813,0.0417 1.06979,0.125 0.34063,0.0824 0.64479,0.21771 0.90938,0.40312 0.26562,0.18646 0.47604,0.42396 0.63229,0.71251 0.15521,0.28957 0.23333,0.63958 0.23333,1.05104 h -1.51667 c -0.0135,-0.21251 -0.0573,-0.38855 -0.13333,-0.52709 -0.0761,-0.13958 -0.17709,-0.24896 -0.30313,-0.32916 -0.125,-0.0791 -0.26875,-0.13646 -0.43021,-0.16875 -0.16146,-0.0333 -0.33854,-0.05 -0.53021,-0.05 -0.125,0 -0.25104,0.0135 -0.37604,0.0396 -0.12604,0.0271 -0.23958,0.073 -0.34166,0.13958 -0.10315,0.0667 -0.18646,0.14896 -0.25312,0.24896 -0.0656,0.1 -0.099,0.22604 -0.099,0.37813 0,0.13958 0.026,0.25312 0.0792,0.33854 0.0531,0.0865 0.15729,0.16666 0.31354,0.23958 0.15626,0.073 0.37084,0.14583 0.64584,0.21875 0.275,0.073 0.63541,0.16667 1.07917,0.27917 0.13229,0.026 0.31667,0.075 0.55104,0.14479 0.23541,0.0698 0.46979,0.18021 0.70104,0.33333 0.23229,0.15312 0.43229,0.35729 0.60208,0.6125 0.16875,0.25521 0.25312,0.5823 0.25312,0.98125 0,0.325 -0.0636,0.62708 -0.18958,0.90625 -0.12603,0.27917 -0.31354,0.51979 -0.56249,0.72188 -0.24896,0.20313 -0.55729,0.36042 -0.92604,0.47292 -0.36771,0.11354 -0.79375,0.16979 -1.27917,0.16979 -0.39167,0 -0.77083,-0.049 -1.13958,-0.14479 -0.36875,-0.0969 -0.69375,-0.24791 -0.975,-0.45417 -0.28229,-0.20625 -0.50625,-0.46979 -0.67292,-0.78854 -0.16562,-0.31875 -0.24583,-0.69687 -0.23853,-1.13541 h 1.51667 c -3e-5,0.23855 0.0427,0.44167 0.12914,0.60729 z"
           id="path146"
           style="fill:#ffffff;stroke-width:1.06666672"
           inkscape:connector-curvature="0" />
        <path
           d="m 583.65052,115.05834 2.65833,7.10833 h -1.62291 l -0.5375,-1.58334 h -2.65834 l -0.55833,1.58334 h -1.57292 l 2.68854,-7.10833 z m 0.0896,4.35832 -0.89583,-2.60625 h -0.0208 l -0.925,2.60625 z"
           id="path148"
           style="fill:#ffffff;stroke-width:1.06666672"
           inkscape:connector-curvature="0" />
      </g>
      <g
         transform="matrix(0.9937808,0,0,0.9936696,-466.2649,-79.399375)"
         enable-background="new    "
         id="g150">
        <path
           d="m 547.01927,115.05834 2.9698,4.76874 h 0.0166 v -4.76874 h 1.46666 v 7.10833 h -1.56354 l -2.95833,-4.75937 h -0.0198 v 4.75937 h -1.46667 v -7.10833 z"
           id="path152"
           style="fill:#ffffff;stroke-width:1.06666672"
           inkscape:connector-curvature="0" />
        <path
           d="m 557.40677,116.95209 c -0.0927,-0.15 -0.20937,-0.28125 -0.34896,-0.39375 -0.13958,-0.11251 -0.29687,-0.20105 -0.47291,-0.26355 -0.17605,-0.0636 -0.36042,-0.0948 -0.55209,-0.0948 -0.35208,0 -0.65104,0.0677 -0.89687,0.20417 -0.24584,0.13541 -0.44479,0.31771 -0.59688,0.54688 -0.15312,0.22916 -0.26459,0.48958 -0.33438,0.78125 -0.0698,0.29167 -0.10421,0.59375 -0.10421,0.9052 0,0.29896 0.0344,0.58958 0.10421,0.87084 0.0698,0.28229 0.18125,0.53646 0.33438,0.76146 0.15209,0.22604 0.35104,0.40625 0.59688,0.54271 0.24583,0.13646 0.54479,0.20417 0.89687,0.20417 0.47709,0 0.85104,-0.14583 1.11979,-0.43854 0.26874,-0.29167 0.43333,-0.67709 0.4927,-1.15521 h 1.51355 c -0.0396,0.44479 -0.14271,0.84688 -0.30833,1.20521 -0.16562,0.35937 -0.38542,0.66458 -0.65729,0.9177 -0.27188,0.25312 -0.59063,0.44584 -0.95625,0.57917 -0.36459,0.13333 -0.76667,0.2 -1.20417,0.2 -0.54479,0 -1.03438,-0.0948 -1.46979,-0.28437 -0.43438,-0.18855 -0.80208,-0.45001 -1.10105,-0.78125 -0.29895,-0.33229 -0.52916,-0.72291 -0.68854,-1.17084 -0.15937,-0.44896 -0.23958,-0.93125 -0.23958,-1.45 0,-0.53126 0.0802,-1.02396 0.23958,-1.47917 0.15937,-0.45521 0.38958,-0.85209 0.68854,-1.19062 0.29897,-0.33854 0.66667,-0.60418 1.10105,-0.79688 0.43541,-0.1927 0.925,-0.28854 1.46979,-0.28854 0.39167,0 0.76146,0.0562 1.10938,0.16979 0.34896,0.1125 0.66146,0.27709 0.93646,0.49375 0.27604,0.21562 0.50312,0.48333 0.68229,0.80208 0.17917,0.31875 0.29167,0.68437 0.33854,1.09583 h -1.51355 c -0.0271,-0.17917 -0.0865,-0.34375 -0.17916,-0.49271 z"
           id="path154"
           style="fill:#ffffff;stroke-width:1.06666672"
           inkscape:connector-curvature="0" />
      </g>
      <g
         id="g6332_1_"
         transform="matrix(0.621108,0,0,0.6210385,-304.82327,256.52221)">
        <path
           id="path6334_1_"
           cx="475.97119"
           ry="29.209877"
           cy="252.08646"
           type="arc"
           rx="29.209877"
           d="m 687.54818,-387.3234 c 0.009,10.03925 -8.12513,18.18431 -18.16511,18.19179 -10.0401,0.005 -18.18346,-8.12506 -18.19192,-18.16679 0,-0.007 0,-0.0175 0,-0.025 -0.006,-10.03925 8.12682,-18.18431 18.16523,-18.1918 10.04011,-0.007 18.18347,8.12591 18.1918,18.16432 0,0.01 0,0.0175 0,0.0275 z"
           style="fill:#ffffff;stroke-width:1.06666672"
           inkscape:connector-curvature="0" />
        <g
           id="g6336_1_"
           transform="translate(-25.548907,-95.711595)">
          <path
             id="path6338_1_"
             d="m 694.78854,-311.52699 c -5.51667,0 -10.18672,1.92585 -14.00677,5.77422 -3.92161,3.9834 -5.88333,8.69759 -5.88333,14.14095 0,5.44336 1.96172,10.12259 5.88333,14.04011 3.92005,3.91673 8.5901,5.87506 14.00677,5.87506 5.48347,0 10.23516,-1.97585 14.25677,-5.92422 3.78842,-3.7517 5.68347,-8.41511 5.68347,-13.99096 0,-5.57591 -1.92669,-10.2901 -5.78347,-14.14095 -3.85494,-3.84836 -8.57331,-5.77421 -14.15677,-5.77421 z m 0.05,3.58503 c 4.52005,0 8.35677,1.59251 11.5151,4.78007 3.19011,3.15247 4.78503,7.00084 4.78503,11.55007 0,4.58001 -1.56159,8.38008 -4.68672,11.4026 -3.28828,3.25169 -7.16172,4.87754 -11.61341,4.87754 -4.45339,0 -8.29167,-1.61003 -11.5151,-4.82923 -3.22331,-3.21999 -4.83503,-7.03587 -4.83503,-11.45091 0,-4.41504 1.62669,-8.26503 4.88502,-11.55007 3.12345,-3.18756 6.94506,-4.78007 11.46511,-4.78007 z"
             inkscape:connector-curvature="0"
             style="stroke-width:1.06666672" />
          <path
             id="path6340_1_"
             d="m 685.96185,-294.42185 c 0.79335,-5.01172 4.32005,-7.69003 8.74179,-7.69003 6.35664,0 10.23163,4.61334 10.23163,10.76503 0,6.00338 -4.1233,10.66511 -10.33177,10.66511 -4.27162,0 -8.09662,-2.62754 -8.79167,-7.78756 h 5.01666 c 0.15,2.67839 1.88842,3.62167 4.37174,3.62167 2.83008,0 4.66837,-2.62916 4.66837,-6.64753 0,-4.21835 -1.58828,-6.44921 -4.57005,-6.44921 -2.18502,0 -4.07174,0.79414 -4.47005,3.52252 l 1.45834,-0.01 -3.94831,3.95007 -3.94844,-3.95007 z"
             inkscape:connector-curvature="0"
             style="stroke-width:1.06666672" />
        </g>
      </g>
      <g
         transform="translate(5.3038155e-4,0.01026512)"
         id="g2366">
        <path
           id="path6372_1_"
           cx="475.97119"
           ry="29.209877"
           cy="252.08646"
           type="arc"
           rx="29.209877"
           d="m 93.654826,15.979969 c 0.0051,5.867293 -4.748377,10.626045 -10.616801,10.630724 -5.867429,0.0036 -10.627184,-4.748917 -10.631305,-10.615214 0,-0.0062 0,-0.01087 0,-0.01551 -0.0042,-5.867815 4.74941,-10.6265657 10.616801,-10.6312334 5.867392,-0.00364 10.627147,4.7489174 10.631305,10.6151774 0,0.0052 0,0.01087 0,0.01605 z"
           style="fill:#ffffff;stroke-width:1.06666672"
           inkscape:connector-curvature="0" />
        <path
           id="path45"
           d="M 91.808394,7.1952689 C 89.413599,4.8034908 86.482762,3.6083548 83.015135,3.6083548 c -3.426859,0 -6.326741,1.195136 -8.700395,3.5869141 -2.43632,2.4740715 -3.653354,5.4011331 -3.653354,8.7826881 0,3.380802 1.217034,6.288235 3.653354,8.720025 2.435563,2.433301 5.335446,3.649577 8.700395,3.649577 3.405717,0 6.357685,-1.226843 8.855157,-3.679774 2.35328,-2.329869 3.530294,-5.226729 3.530294,-8.689828 0,-3.463851 -1.197398,-6.3916673 -3.592192,-8.7826881 z m -1.54847,15.8644061 c -2.043733,2.020326 -4.448341,3.029736 -7.213834,3.029736 -2.766251,0 -5.150486,-0.999594 -7.152694,-2.999539 -2.002208,-1.999945 -3.003306,-4.370582 -3.003306,-7.111918 0,-1.15965 0.183082,-2.255884 0.545098,-3.289453 l 3.277739,1.450696 h -0.236309 v 1.469945 h 1.160032 c 0,0.207621 -0.02076,0.414487 -0.02076,0.621349 v 0.352576 h -1.139274 v 1.469945 h 1.346133 c 0.186475,1.097741 0.600587,1.987865 1.159648,2.692259 1.159648,1.53261 3.023317,2.360824 5.052715,2.360824 1.325738,0 2.526165,-0.393345 3.23056,-0.787444 l -0.497536,-2.29816 c -0.43487,0.228002 -1.407286,0.538302 -2.360075,0.538302 -1.035829,0 -2.008619,-0.310296 -2.671488,-1.056218 -0.310677,-0.351822 -0.538304,-0.828214 -0.68288,-1.449563 h 4.501941 l 6.39695,2.831557 c -0.443168,0.785188 -1.005622,1.510723 -1.692662,2.175106 z m -8.045066,-6.476601 -0.02718,-0.02076 0.0468,0.02076 z m 3.851146,-0.973924 h 0.184982 v -1.469946 h -3.506134 l -1.424266,-0.630408 c 0.122677,-0.275568 0.267637,-0.522071 0.436746,-0.714967 0.642112,-0.788199 1.553003,-1.118881 2.547307,-1.118881 0.911264,0 1.759861,0.268773 2.298165,0.496779 l 0.579819,-2.360824 c -0.74592,-0.3306826 -1.842912,-0.6205952 -3.105995,-0.6205952 -1.946336,0 -3.603136,0.7866912 -4.783552,2.1116812 -0.261973,0.302746 -0.489226,0.642489 -0.695338,1.001861 l -4.06784,-1.800254 c 0.394101,-0.5911506 0.857664,-1.1588956 1.394453,-1.7002162 1.941056,-1.9795584 4.313963,-2.9693386 7.121728,-2.9693386 2.807019,0 5.191253,0.9897802 7.152693,2.9693386 1.981067,1.9584212 2.971606,4.3494412 2.971606,7.1745822 0,0.930889 -0.105707,1.808934 -0.31408,2.636391 z"
           inkscape:connector-curvature="0"
           style="stroke-width:1.06666672" />
      </g>
    </g>
  </g>
</svg>
