<?xml version="1.0" encoding="UTF-8" standalone="no"?>
<!-- Created with Inkscape (http://www.inkscape.org/) -->

<svg
   xmlns:dc="http://purl.org/dc/elements/1.1/"
   xmlns:cc="http://creativecommons.org/ns#"
   xmlns:rdf="http://www.w3.org/1999/02/22-rdf-syntax-ns#"
   xmlns:svg="http://www.w3.org/2000/svg"
   xmlns="http://www.w3.org/2000/svg"
   xmlns:sodipodi="http://sodipodi.sourceforge.net/DTD/sodipodi-0.dtd"
   xmlns:inkscape="http://www.inkscape.org/namespaces/inkscape"
   width="2.1664mm"
   height="2.37432mm"
   viewBox="0 0 2.1664 2.37432"
   version="1.1"
   id="svg6564"
   inkscape:version="0.92.1 r15371"
   sodipodi:docname="calendar.svg">
  <defs
     id="defs6558" />
  <sodipodi:namedview
     id="base"
     pagecolor="#ffffff"
     bordercolor="#666666"
     borderopacity="1.0"
     inkscape:pageopacity="0.0"
     inkscape:pageshadow="2"
     inkscape:zoom="2.8"
     inkscape:cx="-21.930604"
     inkscape:cy="120.47126"
     inkscape:document-units="mm"
     inkscape:current-layer="layer1"
     showgrid="false"
     fit-margin-top="0"
     fit-margin-left="0"
     fit-margin-right="0"
     fit-margin-bottom="0"
     inkscape:window-width="1920"
     inkscape:window-height="1053"
     inkscape:window-x="0"
     inkscape:window-y="0"
     inkscape:window-maximized="1" />
  <metadata
     id="metadata6561">
    <rdf:RDF>
      <cc:Work
         rdf:about="">
        <dc:format>image/svg+xml</dc:format>
        <dc:type
           rdf:resource="http://purl.org/dc/dcmitype/StillImage" />
        <dc:title></dc:title>
      </cc:Work>
    </rdf:RDF>
  </metadata>
  <g
     inkscape:label="Layer 1"
     inkscape:groupmode="layer"
     id="layer1"
     transform="translate(119.01179,-199.05092)">
    <path
       inkscape:connector-curvature="0"
       id="path471"
       d="m -117.32637,199.06332 h 0.17226 c 0.007,0 0.0179,0 0.0248,0 0.0152,0 0.0386,0.01 0.0496,0.0207 0.004,0.004 0.0124,0.0124 0.0165,0.0165 0.011,0.011 0.0207,0.0345 0.0207,0.0496 0,0.007 0,0.0179 0,0.0248 v 0.073 c 0,0.007 0.006,0.0124 0.0124,0.0124 h 0.073 c 0.007,0 0.0179,0 0.0248,0 0.0152,0 0.0386,0.01 0.0496,0.0207 0.004,0.004 0.0124,0.0124 0.0165,0.0165 0.011,0.011 0.0207,0.0345 0.0207,0.0496 0,0.007 0,0.0179 0,0.0248 v 0.27009 c 0,0.007 -0.006,0.0124 -0.0124,0.0124 h -2.14148 c -0.007,0 -0.0124,-0.005 -0.0124,-0.0124 v -0.27009 c 0,-0.007 0,-0.0179 0,-0.0248 0,-0.0152 0.01,-0.0386 0.0207,-0.0496 0.004,-0.004 0.0124,-0.0124 0.0179,-0.0165 0.01,-0.011 0.0331,-0.0207 0.0482,-0.0207 0.007,0 0.0179,0 0.0248,0 h 0.073 c 0.007,0 0.0124,-0.006 0.0124,-0.0124 v -0.073 c 0,-0.007 0,-0.0179 0,-0.0248 0,-0.0152 0.01,-0.0386 0.0207,-0.0496 0.004,-0.004 0.0124,-0.0124 0.0165,-0.0165 0.011,-0.011 0.0345,-0.0207 0.0496,-0.0207 0.007,0 0.0179,0 0.0248,0 h 0.17225 c 0.007,0 0.0179,0 0.0234,0 0.0165,0 0.0386,0.01 0.0496,0.0207 0.004,0.004 0.0124,0.0124 0.0179,0.0165 0.01,0.011 0.0193,0.0345 0.0193,0.0496 0,0.007 0,0.0179 0,0.0248 v 0.073 c 0,0.007 0.006,0.0124 0.0124,0.0124 h 0.95912 c 0.007,0 0.0124,-0.006 0.0124,-0.0124 v -0.073 c 0,-0.007 0,-0.0179 0,-0.0248 0,-0.0152 0.01,-0.0386 0.0193,-0.0496 0.006,-0.004 0.0138,-0.0124 0.0179,-0.0165 0.011,-0.011 0.0345,-0.0207 0.0496,-0.0207 0.007,0 0.0124,-0.006 0.0124,-0.0124 0,0.007 0.006,0.0124 0.011,0.0124 z m 0.48094,0.80064 v 1.45108 c 0,0.007 0,0.0179 0,0.0248 0,0.0152 -0.01,0.0386 -0.0207,0.0482 -0.004,0.006 -0.0124,0.0124 -0.0165,0.0179 -0.011,0.01 -0.0345,0.0193 -0.0496,0.0193 -0.007,0 -0.0179,0 -0.0248,0 h -1.94303 c -0.007,0 -0.0179,0 -0.0248,0 -0.0152,0 -0.0386,-0.01 -0.0482,-0.0193 -0.006,-0.006 -0.0138,-0.0124 -0.0179,-0.0179 -0.011,-0.01 -0.0207,-0.0331 -0.0207,-0.0482 0,-0.007 0,-0.0179 0,-0.0248 v -1.45108 c 0,-0.007 0.006,-0.0124 0.0124,-0.0124 h 2.14147 c 0.007,0 0.0124,-0.006 0.0124,-0.0124 0,0.007 0,0.0179 0,0.0248 z m -1.96922,0.39274 v 0.17226 c 0,0.007 0.006,0.0124 0.0124,0.0124 h 0.17226 c 0.007,0 0.0124,-0.006 0.0124,-0.0124 v -0.17226 c 0,-0.007 -0.006,-0.0124 -0.0124,-0.0124 h -0.17226 c -0.007,0 -0.0124,-0.006 -0.0124,-0.0124 0,0.007 0,0.0179 0,0.0248 z m 0.39412,0 v 0.17226 c 0,0.007 0.006,0.0124 0.0124,0.0124 h 0.17226 c 0.007,0 0.0124,-0.006 0.0124,-0.0124 v -0.17226 c 0,-0.007 -0.006,-0.0124 -0.0124,-0.0124 h -0.17226 c -0.007,0 -0.0124,-0.006 -0.0124,-0.0124 0,0.007 0,0.0179 0,0.0248 z m 0.39412,0 v 0.17226 c 0,0.007 0.006,0.0124 0.0124,0.0124 h 0.17226 c 0.006,0 0.011,-0.006 0.011,-0.0124 v -0.17226 c 0,-0.007 -0.006,-0.0124 -0.011,-0.0124 h -0.17226 c -0.007,0 -0.0124,-0.006 -0.0124,-0.0124 0,0.007 0,0.0179 0,0.0248 z m 0.39274,0 v 0.17226 c 0,0.007 0.006,0.0124 0.0124,0.0124 h 0.17226 c 0.007,0 0.0124,-0.006 0.0124,-0.0124 v -0.17226 c 0,-0.007 -0.006,-0.0124 -0.0124,-0.0124 h -0.17226 c -0.007,0 -0.0124,-0.006 -0.0124,-0.0124 0,0.007 0,0.0179 0,0.0248 z m 0.39412,0 v 0.17226 c 0,0.007 0.006,0.0124 0.0124,0.0124 h 0.17225 c 0.007,0 0.0124,-0.006 0.0124,-0.0124 v -0.17226 c 0,-0.007 -0.006,-0.0124 -0.0124,-0.0124 h -0.17225 c -0.007,0 -0.0124,-0.006 -0.0124,-0.0124 0,0.007 0,0.0179 0,0.0248 z m -1.5751,0.39412 v 0.17226 c 0,0.007 0.006,0.0124 0.0124,0.0124 h 0.17226 c 0.007,0 0.0124,-0.005 0.0124,-0.0124 v -0.17226 c 0,-0.007 -0.006,-0.0124 -0.0124,-0.0124 h -0.17226 c -0.007,0 -0.0124,-0.005 -0.0124,-0.0124 0,0.007 0,0.0179 0,0.0248 z m 0.39412,0 v 0.17226 c 0,0.007 0.006,0.0124 0.0124,0.0124 h 0.17226 c 0.007,0 0.0124,-0.005 0.0124,-0.0124 v -0.17226 c 0,-0.007 -0.006,-0.0124 -0.0124,-0.0124 h -0.17226 c -0.007,0 -0.0124,-0.005 -0.0124,-0.0124 0,0.007 0,0.0179 0,0.0248 z m 0.39412,0 v 0.17226 c 0,0.007 0.006,0.0124 0.0124,0.0124 h 0.17226 c 0.006,0 0.011,-0.005 0.011,-0.0124 v -0.17226 c 0,-0.007 -0.006,-0.0124 -0.011,-0.0124 h -0.17226 c -0.007,0 -0.0124,-0.005 -0.0124,-0.0124 0,0.007 0,0.0179 0,0.0248 z m 0.39274,0 v 0.17226 c 0,0.007 0.006,0.0124 0.0124,0.0124 h 0.17226 c 0.007,0 0.0124,-0.005 0.0124,-0.0124 v -0.17226 c 0,-0.007 -0.006,-0.0124 -0.0124,-0.0124 h -0.17226 c -0.007,0 -0.0124,-0.005 -0.0124,-0.0124 0,0.007 0,0.0179 0,0.0248 z m 0.39412,0 v 0.17226 c 0,0.007 0.006,0.0124 0.0124,0.0124 h 0.17225 c 0.007,0 0.0124,-0.005 0.0124,-0.0124 v -0.17226 c 0,-0.007 -0.006,-0.0124 -0.0124,-0.0124 h -0.17225 c -0.007,0 -0.0124,-0.005 -0.0124,-0.0124 0,0.007 0,0.0179 0,0.0248 z m -1.5751,0.39412 v 0.17226 c 0,0.006 0.006,0.011 0.0124,0.011 h 0.17226 c 0.007,0 0.0124,-0.005 0.0124,-0.011 v -0.17226 c 0,-0.007 -0.006,-0.0124 -0.0124,-0.0124 h -0.17226 c -0.007,0 -0.0124,-0.006 -0.0124,-0.0124 0,0.007 0,0.0179 0,0.0248 z m 0.39412,0 v 0.17226 c 0,0.006 0.006,0.011 0.0124,0.011 h 0.17226 c 0.007,0 0.0124,-0.005 0.0124,-0.011 v -0.17226 c 0,-0.007 -0.006,-0.0124 -0.0124,-0.0124 h -0.17226 c -0.007,0 -0.0124,-0.006 -0.0124,-0.0124 0,0.007 0,0.0179 0,0.0248 z m 0.39412,0 v 0.17226 c 0,0.006 0.006,0.011 0.0124,0.011 h 0.17226 c 0.006,0 0.011,-0.005 0.011,-0.011 v -0.17226 c 0,-0.007 -0.006,-0.0124 -0.011,-0.0124 h -0.17226 c -0.007,0 -0.0124,-0.006 -0.0124,-0.0124 0,0.007 0,0.0179 0,0.0248 z m 0.39274,0 v 0.17226 c 0,0.006 0.006,0.011 0.0124,0.011 h 0.17226 c 0.007,0 0.0124,-0.005 0.0124,-0.011 v -0.17226 c 0,-0.007 -0.006,-0.0124 -0.0124,-0.0124 h -0.17226 c -0.007,0 -0.0124,-0.006 -0.0124,-0.0124 0,0.007 0,0.0179 0,0.0248 z m 0.39412,0 v 0.17226 c 0,0.006 0.006,0.011 0.0124,0.011 h 0.17225 c 0.007,0 0.0124,-0.005 0.0124,-0.011 v -0.17226 c 0,-0.007 -0.006,-0.0124 -0.0124,-0.0124 h -0.17225 c -0.007,0 -0.0124,-0.006 -0.0124,-0.0124 0,0.007 0,0.0179 0,0.0248 z m 0,0"
       style="fill:#000000;fill-opacity:1;fill-rule:nonzero;stroke:none;stroke-width:0.35277778" />
  </g>
</svg>
