<?xml version="1.0" encoding="utf-8"?>
<!-- Generator: Adobe Illustrator 27.0.1, SVG Export Plug-In . SVG Version: 6.00 Build 0)  -->
<svg version="1.1" xmlns="http://www.w3.org/2000/svg" xmlns:xlink="http://www.w3.org/1999/xlink" x="0px" y="0px"
	 viewBox="0 0 585.5 246.5" style="enable-background:new 0 0 585.5 246.5;" xml:space="preserve">
<style type="text/css">
	.st0{fill:#D22D40;}
	.st1{fill:#003657;}
	.st2{display:none;}
	.st3{display:inline;}
	.st4{fill:none;stroke:#C40D3C;stroke-width:9.955413e-02;stroke-miterlimit:10;}
	.st5{fill:none;stroke:#C40D3C;stroke-width:9.955413e-02;stroke-miterlimit:10;stroke-dasharray:6.0129,3.0065;}
	.st6{fill:none;stroke:#C40D3C;stroke-width:9.955413e-02;stroke-miterlimit:10;stroke-dasharray:5.8113,2.9056;}
	.st7{display:inline;opacity:0.1;fill:#C40D3C;}
	.st8{display:inline;opacity:0.7;}
	.st9{fill:none;stroke:#003E5B;stroke-width:0.1;stroke-miterlimit:10;}
	.st10{fill:none;stroke:#003E5B;stroke-width:0.1;stroke-miterlimit:10;stroke-dasharray:5.9352,2.9676;}
	.st11{fill:none;stroke:#003E5B;stroke-width:0.1;stroke-miterlimit:10;stroke-dasharray:6.0937,3.0468;}
	.st12{display:inline;fill:none;}
	.st13{display:inline;opacity:0.5;fill:#003E5B;}
	.st14{font-family:'Silka-Regular';}
	.st15{font-size:8px;}
</style>
<g id="LOGO_EN">
	<g>
		<path class="st0" d="M123.1,44.7c-43.4,0.1-78.5,35.3-78.4,78.7c0.1,43.4,35.3,78.5,78.7,78.4c43.4-0.1,78.5-35.3,78.4-78.7
			C201.7,79.7,166.5,44.6,123.1,44.7 M123.5,200.7c-42.7,0.1-77.4-34.4-77.5-77.1C46,80.9,80.5,46.2,123.2,46.1
			c42.7-0.1,77.4,34.4,77.5,77.1C200.7,165.3,166.1,200.6,123.5,200.7"/>
		<path class="st0" d="M121.1,53.5c0.3,0.1,0.7,0.3,0.6,1c0,1.1-0.1,2.3-0.4,3.2c1.1,0,1.6,0.1,2.7-0.1c-0.4-1-0.6-2.5-0.7-3.1
			c-0.1-0.8,0.3-1.1,0.7-1.1c0.2,0,2.1,0,2.8,0.5l0-2.5c-1,0.5-1.8,0.7-2.8,0.6c-0.5,0-0.9-0.2-0.9-0.7c-0.2-1.1-0.1-2.6,0.3-3.5
			c-0.9-0.1-1.4-0.2-2.3,0.1c0.6,1,0.6,2.8,0.6,3.3c0,0.4-0.3,0.9-0.8,0.9c-1,0-1.9-0.2-2.8-0.5l0,2.4
			C118.9,53.6,120.2,53.4,121.1,53.5"/>
		<path class="st0" d="M101.9,52.5c0.7-0.2,1.1-0.5,1.3,0.2c0.7,2.1,1.1,3.5,1.6,5.8c0.3,1.1-0.6,0.9-1,1.1c-0.6,0.3-0.3,1.2,0.2,1
			c1.8-0.6,3.2-0.9,5.2-1.2c0.5-0.1,0.9-0.4,1.1-0.8c0.3-0.3,0.7-0.1,1.2,0.2c0.7,0.3,3.8,1,4.6-1.4c0.6-1.6-1.1-3.1-2.7-4
			c0.7-1.3,2-3.5,2.6-4.3c0.2-0.3-0.5-1-0.8-0.6c-0.2,0.2-0.5,0.6-0.7,0.8c-0.3,0.3-0.5,0.5-1.3,0.1c-1.3-0.9-4-0.7-4.7,1.3
			c-0.4,1.2,0.3,2.5,2.2,3.6c0.3,0.2,0.2,0.4,0.1,0.7c-0.5,1.2-1,1.8-1.7,3c-0.2,0.3-2,1-2.4-0.4c-0.7-2.3-0.9-3-1.5-5.4
			c-0.2-0.8,1.1-0.9,1.6-1c0.6-0.2,0.4-1.1-0.1-1.1c-1.8,0.4-3.3,0.7-5.1,1.4C101.1,51.7,101.3,52.6,101.9,52.5 M110.8,50.6
			c0.4-0.6,1.7-0.4,2.4,0.3c0.3,0.3,0.2,0.6,0,0.9l-0.7,1.3C110.5,51.9,110.2,51.5,110.8,50.6 M111.5,56.5c0.2-0.4,0.2-0.7,0.6-1.4
			c0.7,0.4,2.6,1.1,1.8,2.6c-0.4,0.6-1.5,0.2-2,0C111.3,57.3,111.3,57,111.5,56.5"/>
		<path class="st0" d="M134.4,59.1c0.5-0.3,0.8-0.8,1.7,0c2.4,2,4.5,0.9,5.3-0.2c0.6-0.9,0.5-2.5-1.2-4.1l4.1-3.3
			c0.4-0.3-0.2-1-0.5-0.8c-0.7,0.4-1.4,0.6-1.8,0.2c-4.1-3.7-7.3,0.6-4.7,3.7l-3.4,3.6C133.3,58.7,134.1,59.4,134.4,59.1
			 M138.7,51.3c0.5-0.4,1.2-0.3,1.7,0.1c0.3,0.2,0.1,0.1,0.4,0.3c0.4,0.3,0.5,0.8,0.2,1c-0.3,0.3-0.5,0.4-0.7,0.6
			c-0.3,0.2-0.7,0.8-1.1,0.3l-0.5-0.5C138.2,52.8,138.2,51.8,138.7,51.3 M136.7,57c0.2-0.2,0.4-0.5,0.7-0.7c0.4-0.3,0.8-0.6,1.1-0.3
			c0.6,0.6,1.9,1.7,0.8,2.7c-0.8,0.6-1.8,0.1-2.4-0.6C136.5,57.6,136.3,57.4,136.7,57"/>
		<path class="st0" d="M96,58.4c-0.2,1.5-0.6,3.4-1,5c-0.2,0.7,0.8,0.8,1,0.2c0.2-0.5,0.4-0.9,0.6-1.3c2.2,0.5,5.2,0.3,5.5-2.6
			c0.3-2.4-1.9-2.8-2.8-3.2c0.1-1.4,0.5-3.4,1-4.8c0.1-0.5-0.6-0.7-1-0.2c-0.2,0.3-0.3,0.7-0.5,1.3c-3.9-0.4-5.6,0.8-5.8,2.3
			C92.9,56.7,93.7,57.9,96,58.4 M99.9,60.1c-0.2,1.5-2.4,1-2.7,0.9C97,61,97,60.9,97,60.5c0-0.4,0.2-1.9,0.2-1.9
			C98.6,58.7,100.1,58.9,99.9,60.1 M95.3,54.9c0.1-1,3.3-1.1,3.2,0c-0.1,0.5-0.2,1.1-0.3,1.4C97.3,56.2,95.1,56.6,95.3,54.9"/>
		<path class="st0" d="M142.8,59.8c-0.5,0-0.7,0.7-0.3,0.8c1.8,0.5,3,0.9,4.9,1.7c0.5,0.2,0.7-0.7,0.3-0.9c-0.5-0.3-1.4-0.8-1-2
			c0.5-1.9,0.9-3.2,1.7-5.1c0.3-0.7,1-0.3,1.5-0.3c0.4,0.1,0.7-0.7,0.2-0.8c-1-0.4-3.7-1.3-4.7-1.6c-0.5-0.2-0.8,0.6-0.2,0.9
			c0.3,0.2,1.3,0.3,1.2,1.2c-0.6,2.1-1,3.6-1.8,5.6C144.3,60.1,143.3,59.8,142.8,59.8"/>
		<path class="st0" d="M151.4,64.5c0.9,0.4,2.3,0.9,3.7,0.1c1.3-0.6,2.9-3.4,0.9-4.4c-0.5-0.3-1.6-0.8-2.5-1.1
			c-0.5-0.2-0.9,0.6-0.4,0.9c2.8,1.1,1.1,4.1-1.2,3.4c-0.5-0.2-0.9-0.5-0.8-1.2c0.2-1.1,1.4-4.3,2.2-5.1c1.6-1.2,3.3,0,3.6,1.1
			c0.1,0.5,0,0.6-0.4,0.9c-0.3,0.2,0,1,0.4,0.8c1.3-0.7,2.1-1.1,3.3-1.6c0.3-0.2,0-0.9-0.4-0.8c-0.5,0.2-1.7,0.6-2.3-0.4
			c-1.2-2.4-5.2-3.7-7.6,1.2C148.3,62.2,150.4,64,151.4,64.5"/>
		<path class="st0" d="M77.1,72.6c1.1,0.8,2.3,1.4,3.6,0.8c1.1-0.6,2.1-1.9,2.6-3c0,0,0.9-0.1,1.7-0.5c0.5-0.3,3.6-2.3,5.5-3.5
			c0.4-0.2,0-1-0.4-0.9c-0.6,0.2-1.2,0.5-1.6,0.1c-0.4-0.5-2.2-3.5-3.3-5.6c-0.3-0.4,0.4-0.7,1.1-1.2c0.6-0.4,1.6-0.6,1.9,0
			c1.4,2.9,2.7,5.9,3.4,6.1c0.7,0.2,1.8-0.2,2.2-0.9c0.4-0.7-0.3-1.2-0.7-0.9c-0.5,0.3-0.8,0.3-1.1-0.1c-0.9-1.2,0.1-3.2-0.5-4.4
			c-0.3-0.7-3-2.1-3.6-2c-0.9,0.2-3.7,1.8-6.6,3.9c-0.4,0.3,0,1,0.4,0.9c0.5-0.2,1.1-0.7,1.4-0.1l3.3,5.2c0.3,0.6-0.5,1.2-1.2,1.7
			c-1.7,1.1-2.7-0.5-3.8-1.9c-1.5-2-1.6-3.3-1.2-3.9c0.3-0.5,0.1-0.8-0.4-0.7c-0.6,0.1-1.1,0.8-1.2,1.5c-0.1,0.4-0.3,0.5-0.8,0.6
			c-1.8,0.5-3.8,1.1-3.9,2.8C74,69,75.2,71.1,77.1,72.6 M80.5,68c0.5,0.5,0.8,1,1.2,1.5c0.2,0.3,0.3,0.6,0.1,1
			c-0.2,0.3-1.3,2.8-3.6-0.2c-0.2-0.3-0.3-0.5,0.1-0.9c0.4-0.5,1-0.9,1.4-1.3C80,67.7,80.3,67.8,80.5,68 M76.2,65.8
			c1.9-1.4,2.6,0.1,2.9,0.5c0.3,0.4,0.4,0.5,0,0.9c-0.5,0.4-0.9,0.7-1.3,1.1c-0.4,0.3-0.8,0.7-1.1,0.4
			C76.3,68.2,75.1,66.6,76.2,65.8"/>
		<path class="st0" d="M161.6,61.1c-1,1.9-1.6,3.1-2.7,4.8c-0.6,0.8-1.1,0.3-2.1-0.1c-0.5-0.2-0.9,0.6-0.4,0.8
			c0.8,0.5,2.8,1.9,4.5,2.9c0.4,0.3,0.9-0.3,0.6-0.8c-0.3-0.3-1.1-0.6-0.7-1.6c1.1-2.1,1.6-3.1,2.8-4.9c0.5-0.7,1.3-0.3,1.7-0.1
			c0.5,0.2,0.9-0.6,0.5-0.8c-1.5-0.7-2.9-1.7-4.2-2.6c-0.5-0.4-1.1,0.3-0.6,0.7C161.4,60.1,161.9,60.4,161.6,61.1"/>
		<path class="st0" d="M167.2,65c-1.4,2.1-1.9,2.8-3.6,5c-0.4,0.4-0.8-0.1-1-0.2c-0.4-0.1-0.8,0.6-0.4,0.9c0.7,0.4,4.1,3.1,5.8,4.8
			c0.3,0.4,0.9,0,0.6-0.6c-0.2-0.4-0.8-1.1-0.1-1.8c1.5-1.5,2.6-2.1,4.4-3.2c0.7-0.4,1,0,1.3-0.1c0.4-0.1,0.5-0.7,0.1-0.9
			c-2.1-1.3-5.7,1.7-7.9,3c-0.7,0.4-1.5-0.2-1-0.9c1.3-1.7,2.1-2.9,3.5-4.6c0.6-0.7,1.1-0.1,1.5,0c0.3,0.2,0.9-0.4,0.6-0.7
			c-1.4-1.2-2-1.7-3.5-2.9c-0.5-0.4-1,0.3-0.7,0.7C167,63.7,167.9,64,167.2,65"/>
		<path class="st0" d="M75.2,79.2c1.4-1.4,2.2-3.4,0.7-5.2c-1.5-1.8-3.8-0.6-4.6,0.8c-0.4,0.8,0,1.2,0.5,0.9
			c0.9-0.5,1.5-0.9,2.3,0.2c0.8,1.1,1.1,1.6,0.4,2.3c-0.7,0.6-1.7,0.5-2.5,0.2c-1.1-0.5-2.6-1.7-3.6-3.3c-0.6-0.8-0.3-2.1,0.4-2.6
			c2.2-1.8,2.5,0.1,4.8-0.2c0.5,0,0.7-0.6,0.4-0.8c-1.7-1-2-1.7-2.4-3c-0.2-0.7-0.9-0.3-0.9,0.2c-0.1,0.6,0.2,1.1-0.5,1.5
			c-1.6,1-2.1,1.3-3.1,2.3c-1.4,1.6-0.7,4.1,1.3,6.1C70.3,80.7,72.8,81.5,75.2,79.2"/>
		<path class="st0" d="M175.2,71.8c-1.4,1.6-2.3,2.5-4.2,4.2c-0.4,0.3-0.7,0.1-0.9,0c-0.5-0.2-0.9,0.3-0.6,0.7
			c1.6,1.9,3.8,4.1,5.1,5.8c0.3,0.4,1-0.1,0.7-0.6c-0.3-0.8-0.8-1,0-1.8c1.1-1.2,2.5-1.8,4.4-2.9c1.2-0.5,1.9,1.1,1.4,2
			c-1.4,2.6-2.4,4-3.7,6.7c-0.1,0.2,0.2,0.5,0.3,0.6c4.1,0.3,7.6-0.9,8.9-0.1c0.5,0.5,1.2,0,1-0.4c-0.8-1.5-1.1-1.8-2.1-3.4
			c-0.3-0.5-0.9-0.2-0.9,0.3c0,0.6,0.3,0.6-0.3,1c-1.7,0.9-2.9,1.2-5,1.6c-0.4,0.1-0.6,0-0.3-0.4c1.3-1.5,2.4-2.9,3.8-3.9
			c0.3-0.3,0.6-0.1,0.8,0.1c0.3,0.3,1-0.2,0.7-0.6c-1-1.6-1.6-2.5-2.8-4.1c-1.3-1.9-5.6,0.8-7.8,1.7c-0.9,0.4-1.7-0.3-0.9-1.1
			c1.5-1.6,2.1-2.2,3.7-3.7c0.7-0.6,1.1,0.1,1.4,0.3c0.5,0.4,1.1-0.4,0.7-0.8c0,0-2.5-2.3-2.8-2.8c-0.3-0.4-1,0-0.8,0.5
			C175.3,71.2,175.6,71.3,175.2,71.8"/>
		<path class="st0" d="M59.2,86.2c0.5-0.9,0.7-1.4,1.1-1.9c0.3-0.4,0.4,0.1,0.4,0.1c0,0.2,0,2.1,0.6,2.8c0.9,1,2.8,0.2,3.4,1
			c0.4,0.5,0.6,1.1,0.5,1.6c-0.4,1.2,1.2,1.8,1.6,0.4c0.4-1.8-1.1-2.4-1.9-3.7c-0.2-0.3-0.2-0.4,0.1-0.8c0.2-0.3,1.2-1.8,1.5-2.2
			c0.8,0.5,0.8,0.5,1.4,1c0.7,0.8-0.4,1.8-0.6,2.4c-0.2,0.5,0.7,1.1,1,0.7c1.1-1.9,2.6-4,3.5-5.3c0.4-0.6-0.4-1.1-0.9-0.7
			c-0.6,0.5-1.1,1.4-1.9,0.9c-1.8-1.2-2.9-1.9-4.7-3.3c-0.6-0.5,0.3-1.4,0.6-2.2c0.2-0.4-0.5-0.9-0.8-0.6c-2.2,2.9-4.2,5.9-6,9.1
			C57.9,86.1,58.9,86.8,59.2,86.2 M62,81.8c0.2-0.4,0.8-1,1.1-0.7c0.3,0.3,1.6,1.1,2,1.4c0.4,0.3-0.2,0.9-0.4,1.1
			c0,0-0.7,0.9-0.9,1.2c-0.2,0.2-0.4,0.5-0.6,0.3c-0.6-0.5-0.8-0.8-1.3-1.5C61.7,83,61.6,82.5,62,81.8"/>
		<path class="st0" d="M53.6,96.7c0.3-0.4,0.4-0.8,1.1-0.6c2.4,0.7,5.5,2.1,5.5,2.1c1,0.4,0.8,0.8,0.4,2.1c-0.2,0.5,0.8,0.9,0.9,0.4
			c0.6-1.9,2.1-5.1,2.1-5.1c0.2-0.4-0.7-0.9-0.9-0.4c-0.2,0.4-0.6,1.3-1.2,1.1l-2.6-1.1C60,92,62.2,94.6,64,94
			c1-0.3,1.5-1.2,1.2-2.4c-0.2-0.7-1-0.6-1-0.2c0,0.6-0.5,0.7-0.8,0.7c-0.6,0-1.3-0.8-1.9-1c-0.6-0.2-1.3-0.1-1.5,0.4
			c-0.2,0.4-0.5,0.3-0.5,0c0.2-1.3-0.3-2.3-1.3-2.6c-0.7-0.2-2.1-0.1-2.9,1.5c0,0-1.8,3.8-2.8,5.9C52.5,96.7,53.3,97.1,53.6,96.7
			 M55.8,92.7c0.4-0.7,0.9-1.8,1.8-1.4c1.6,0.7,0.4,2.8,0.1,3.5c0,0-1.6-0.5-2-0.7C55.4,93.9,55.6,93,55.8,92.7"/>
		<path class="st0" d="M185.2,87.1c-1.4,0.5-2.4,3.3-3.5,3.5c-0.8,0.1-0.7-1.9-1.6-1.1c-0.8,0.9,0.6,3.2,2.6,2.1
			c2-1,2.6-1.3,4.6-2.2c0.4-0.2,1.1-0.6,1.3,0c0.3,0.7-0.4,1.1-1,1.4c-1.3,0.7-2.5,1.3-3.7,1.9c-0.4,0.2-0.7,0.5-1.2,0.2
			c-0.3-0.2-0.7,0.2-0.6,0.5c0.3,0.6,0.5,1,0.7,1.5c0.1,0.3,0.7,0.2,0.7-0.2c0-0.3,0.2-0.2,0.5-0.4c2-1.1,2.4-1.3,4.5-2.2
			c1.1-0.4,2.3,0.5,0.8,1.1c-2.1,1-3,1.4-5.1,2.4c-1.5,0.8-0.6,3.2,0.2,3c1-0.3,0.1-1.7,0.8-2.1c0.5-0.3,3.5,0,4.3-0.2
			c0.8-0.2,2.1-3.5,1.9-4c-0.1-0.4-1.5-1.4-1.6-1.7c-0.1-0.3,0-1.9-0.2-2.2C189.6,87.7,186.4,86.7,185.2,87.1"/>
		<path class="st0" d="M51,105.9c0.2-0.6,0.5-1.1,1-1c2.5,0.6,3.4,1,5.7,1.7c0.9,0.2,0.5,1.4,0.3,2.3c-0.1,0.5,0.9,0.8,1,0.2
			c0.1-0.7,1.2-4.6,1.8-6.1c0.3-0.6-0.7-0.8-1-0.3c-0.4,0.8-0.7,2.2-1.6,2c-0.7-0.2-0.9-0.2-1.7-0.5c0.3-1.7,1.6-5-1.6-5.7
			c-1.6-0.3-2.7,0.1-3.1,1c-1,2.1-1.4,4.5-1.8,6.4C49.9,106.1,50.8,106.3,51,105.9 M52.1,102c0.4-1.4,0.5-1.9,2.2-1.5
			c1.7,0.4,1.4,1.7,1.2,2.6c-0.1,0.4-0.2,0.8-0.5,0.6c-1.2-0.3-1.6-0.5-2.8-0.8C51.9,102.8,52,102.4,52.1,102"/>
		<path class="st0" d="M190.8,98.4c-0.6,0.2-0.8,0.9-0.6,1.6c0.3,0.6,0.9,0.7,1.4,0.5c0.4-0.1,0.9-0.7,0.7-1.4
			C192,98.5,191.3,98.2,190.8,98.4"/>
		<path class="st0" d="M186.8,100c-0.6,0.3-0.7,1-0.4,1.6c0.4,0.6,1.1,0.6,1.5,0.4c0.4-0.3,0.8-0.8,0.4-1.6
			C188,99.7,187.3,99.8,186.8,100"/>
		<path class="st0" d="M197.3,122.2c0,0.6-0.1,1.7-1,1.7c0,0-4.6,0.1-5.6,0.1c-0.6,0-0.9-0.4-0.9-1c-0.1-1.6,0.2-2.7,1.1-2.8
			c1.9-0.2,2.4,1.1,3.6,1.2c0.9,0,3.7-1.6,3.7-3.2c-0.3-3.3-0.5-6.9-1.4-9.9c-0.1-0.4-0.3-0.5-0.8-0.4c-2.1,0.4-3.6,0.4-5.8,0.2
			c-0.9-0.1-0.7-0.3-0.3-0.6c1.7-1.3,3-1.9,4.5-2.5c1.7-0.6,1.7-0.1,1.4-1.1c-0.4-1.6-0.5-2-0.9-2.9c-0.2-0.5-0.9-0.3-0.9,0.1
			c0.1,2.2-3.7,4.3-6.2,6.7c-0.4,0.4-0.2,0.7,0.2,0.8c3.2,1,4.6,0.6,7.6,2.1c0.6,0.3,0.8,0.7,0.9,1.6c0.1,0.5,0.3,0.9-0.6,1
			c-2,0.2-3.3,0.3-5.7,0.4c-0.9,0-0.9-1.1-1.2-2.3c-0.1-0.5-1-0.3-1,0.1c0,0.4,0.7,6.5,0.7,6.5c0.1,0.5,0.9,0.4,0.9,0
			c0.1-0.7-0.3-2,0.7-2.1c2.1-0.2,3.3-0.4,5.6-0.4c1,0,0.9,0.3,0.9,0.9c0,0.3,0,0.4,0,0.6c0,0.7-0.4,1.2-1,1.2
			c-0.7,0-4.8,0.3-4.8,0.3c-3.8,0.5-1.8,3.8-2.6,9.9c-0.1,0.8,1,0.8,1.1,0c0.1-0.9,0.3-2.3,1.2-2.4c0.6-0.1,4.7-0.1,5.5-0.1
			c0.6,0,0.7,0.6,0.7,1.2c0,0.3,0,0.6-0.1,1.2c-0.1,0.4-0.1,0.7-0.6,0.9c-2.6,0.9-7.9,2.2-8,3c-0.1,0.8,4.4,3.3,6.5,5.5
			c0.6,0.5,0.6,1.3,0.7,1.7c0.1,0.4,0.8,0.5,1-0.1c0.5-2,0.8-3.9,0.8-4.5c0-0.6-0.8-0.5-0.9-0.1c-0.1,0.4-0.1,0.8-0.9,0.5
			c-1.1-0.4-4.7-1.9-5.4-2.4c-0.4-0.3-0.4-0.4,0.1-0.5c2.4-0.3,5.9-0.4,6.8-0.2c0.3,0.1,0.5,0.7,0.7-0.7c0.5-3.6,0.5-8.6,0.5-9.3
			C198.3,121.5,197.4,121.6,197.3,122.2"/>
		<path class="st0" d="M51.3,109.1c-0.3,0.6-0.3,1.2,0.2,1.6c0.5,0.4,1.4,0.3,1.7-0.1c0.4-0.4,0.3-1.6-0.3-1.8
			C52.3,108.4,51.6,108.7,51.3,109.1"/>
		<path class="st0" d="M49.3,117.7c0-0.6,0.2-1.7,0.3-2c0.6,0.4,0.8,1.8,2,2c1,0.1,2.4-1.2,3.7-1c1.3,0.1,1.4,1.3,1.6,2
			c0.1,0.4,0.7,0.3,0.8,0c0.3-0.8,0.4-2.4-0.6-3.1c-1.3-0.8-2.5-0.4-4.9-0.6c-1.6-0.1-2.4-1.3-2.4-2.7c0-0.5-0.8-0.6-0.9-0.1
			c-0.1,0.5-0.6,4.3-0.5,5.5C48.3,118.1,49.3,118.1,49.3,117.7"/>
		<path class="st0" d="M55.3,109.8c-0.6,0.3-0.8,0.9-0.6,1.5c0.2,0.6,0.9,0.8,1.6,0.5c0.5-0.3,0.7-0.9,0.4-1.5
			C56.5,109.8,55.9,109.6,55.3,109.8"/>
		<path class="st0" d="M49.3,124.8c0.2-0.8,0-1.3,0.6-1.3c2.2-0.1,3.4-0.1,5.7,0c0.6,0,0.5,0.9,0.7,1.7c0.1,0.4,1,0.5,1-0.1
			c0-1.2,0.1-3.8,0.1-4.9c0.1-0.7-1-0.7-1.1,0c-0.1,0.5,0.1,1.3-0.8,1.3c-1.6,0-4-0.1-5.6-0.2c-0.8-0.1-0.5-1.1-0.8-1.7
			c-0.2-0.5-1-0.5-1,0.1c-0.1,0.9,0.1,3.6,0,5.2C48.3,125.3,49.1,125.3,49.3,124.8"/>
		<path class="st0" d="M52.4,145.7c0.5-2.6,4.5-4.1,6.9-6.5c0.2-0.1,0.1-0.6-0.2-0.7c-3.2-1.1-6.2-1.3-7.6-1.9
			c-1.2-0.5-1.2-1.3-1.3-2.1c0-0.3-0.1-0.9,0.5-0.9c2-0.3,3.7-0.3,5.7-0.4c1,0,0.8,0.4,1.1,1.7c0.1,0.5,1,0.4,0.9-0.1
			c-0.4-3.7-0.3-5.3-1.1-6.9c-1.3-2.3-8.3-2.4-8.7,0.8c-0.3,1.8,0.5,6.2,1.3,10.9c0.1,0.4,0.9,0.4,0.9-0.1c0.1-1,0.6-0.8,0.9-0.8
			c1.2,0,3.6,0.1,5.3,0.3c0.6,0,0.7,0.2,0.1,0.5c-1.9,1.2-3.1,1.9-5.2,2.4c-0.4,0.1-0.4,0.1-0.8-0.3c-0.3-0.3-0.9,0.1-0.8,0.5
			c0.5,1.6,0.7,2,1,3.7C51.5,146.2,52.2,146.3,52.4,145.7 M49.9,131.5c-0.1-0.6-0.1-1.3-0.1-1.8c0-0.4,0.1-0.9,0.7-1
			c1.9-0.2,3.2-0.3,5.1-0.3c0.6,0,1,0.7,1.1,1c0.1,0.4,0.1,0.8,0.2,1.5C54.4,131.2,52.1,131.5,49.9,131.5"/>
		<path class="st0" d="M58.2,152.9c-0.7-0.1-0.9-0.2-1.8-0.3c-0.4,0-0.8,0-1-0.6c-0.3-0.7,0.3-0.9,0.7-1.1c1-0.5,3.2-1.4,4.3-1.8
			c1-0.4,1.1,0.6,2,1.7c0.3,0.4,1.3-0.1,1-0.5c-1.3-2.1-2-3.9-2.9-6.1c-0.2-0.6-1.2-0.2-1,0.4c0.4,1.8,0.9,2.4,0.1,2.7
			c-1.8,0.6-3.8,1.6-4.4,1.9c-0.5,0.2-1,0.4-1.3-0.2c-0.3-0.7,0-0.8,0.3-1.2c0.4-0.6,1.1-1,1.3-1.4c0.2-0.3-0.1-0.9-0.6-0.7
			c-0.7,0.3-1.8,0.7-3.1,1.4c1,2.8,2,4.9,3.2,7.6c1.4-0.3,1.9-0.4,3.3-0.8C58.9,153.7,58.8,153,58.2,152.9"/>
		<path class="st0" d="M195.3,140.6c-1.8-2.6-5.5-3.8-7.7-2.4c-2,1.1-1,4.5-1.6,5.5c-0.9,1.4-1.6,3.5-2.4,5.5
			c-0.2,0.6,0.5,0.9,0.8,0.5c0.3-0.4,0.6-0.5,1-0.3c0.7,0.3,1.5,0.6,2.3,0.9c-0.7,2.1-1.7,2.1-3,1.5c-1.2-0.6-3.7,0.3-3.2,3.4
			c0.2,1.1-0.4,1.1-0.9,1.3c-0.5,0.2-3.4,1.6-1.8,4.4c0.8,1.4,2.1,1.6,3.7,0.9c0.5,1.1,1,1.8,1.4,3.1c0.1,0.4-0.1,1-0.6,1.5
			c-0.4,0.5-1.2,1.4-1.8,1.1l-4.1-3.1c-0.7-0.5,0-1.1,0.4-2.3c0.2-0.5-0.5-1-0.8-0.5c-1.4,1.9-2.1,2.9-3.7,4.7
			c-0.4,0.5,0.3,1,0.7,0.7c1.3-0.9,1.4-1.7,2.3-0.9l3.8,2.8c0.7,0.5-0.1,1.5-0.4,2.2c-0.2,0.4,0.4,1.2,1,0.5c1.5-1.8,3-3.7,4.5-5.6
			c0-0.5-0.1-0.7-0.1-1.1c-0.1-0.9,0.7-0.9,1.5-1.2c1-0.4,2.9-2,1.9-4.3c-0.7-1.7-2.8-1.4-4.1-0.8c-0.7-1.3-2.3-3.7-1.3-4.6
			c0.8-0.7,2.3,1,3.4,0.1c0.7-0.6,0.8-0.6,0.8,0.4c-0.1,1,0.5,1.8,1.3,2c1.1,0.3,2.4-0.1,3.3-1.9c0.7-1.4,1.2-2.6,2.1-5.2
			c0.2-0.6-0.4-0.9-0.8-0.3c-0.4,0.5-1.1,0.8-1.7,0.5c-2.1-0.8-2.6-1-4.7-1.9c-0.6-0.3-0.8-0.8-0.2-1.9c0.5-1,1.2-1.7,4.4-0.5
			c3.1,1.1,2.4,1.2,2.9,2.4c0.2,0.6,1.1,0.5,1-0.2C194.2,143.7,197.2,143.3,195.3,140.6 M186.8,161c0.1,0.4-0.4,1.5-1.3,1.7
			c-1.3,0.4-1.7-0.4-2-1.4C184.2,161,186.3,159.4,186.8,161 M183.1,159.1c-1.4,0.8-2.6,1.2-3,0.2c-0.2-0.5,0-1.5,1.1-1.9
			C181.8,157.2,182.4,157.3,183.1,159.1 M188.8,150.7l2.6,1C190.4,155.9,186.7,154.2,188.8,150.7 M190.2,143.5
			c-1-0.1-1.8-0.5-2.8-0.8c-0.6-2.8,1.4-2.9,3.5-2.3C190.8,141.2,190.4,142.8,190.2,143.5 M193.9,144.5c-0.9,0.1-1.7-0.3-2.5-0.6
			c0.1-0.7,0.6-2.4,0.8-3.2C194,141.3,195.4,142.6,193.9,144.5"/>
		<path class="st0" d="M67.6,158.9c-2.8-0.1-0.2-4.3-3.7-5c-1.5-0.3-2.5,0.2-3.1,1.3c-1.7,0.1-3.2-0.1-4.8,0c-0.4,0-0.6,0-0.6,0.4
			c0,0.4,0.2,0.7,0.5,0.7c2.3,0-0.4,4.1,3,5.2c1.9,0.4,2.9-0.9,3.3-1.7c2.1-0.1,3.7,0.2,5.6,0.2C68.3,160,68.2,158.9,67.6,158.9
			 M58.9,159.1c-0.6-0.1-0.9-1.2-0.8-2.1c0.1-0.5,0.8-0.8,2.4-0.5C60.4,157.7,60.6,159.3,58.9,159.1 M64,158.6
			c-1.3,0-1.7,0.1-1.6-0.8c0.2-1,0.4-1.6,1.3-1.7c0.9,0,1.2,0.7,1.4,1.6C65.2,158.7,64.8,158.5,64,158.6"/>
		<path class="st0" d="M65.1,163.8c0.5-0.2,0.8-0.9,0.5-1.4c-0.3-0.8-1-0.9-1.6-0.6c-0.5,0.2-0.7,1-0.5,1.5
			C63.8,163.9,64.7,164,65.1,163.8"/>
		<path class="st0" d="M72.1,169.6c0.2-1.3,1.6-0.7,1.9-0.6c0.3,0.1,1.1,0,0.5-1.1c-0.3-0.6-1.1-0.7-1.9-0.3c-2,1-3.4,3.4-4.3,4.2
			c-0.6,0.6-1.2,0-1.4-0.2c-0.4-0.4,0-0.5,0.2-0.7c1.6-1.3,2.7-2.6,4.3-3.9c0.2-0.1,0.3-0.2,0.4-0.2c0.3,0.2,0.6-0.2,0.4-0.5
			c-0.1-0.2-0.4-0.6-0.7-0.9c-0.4-0.6-0.8-0.2-0.7,0c0.1,0.2,0,0.4-0.2,0.5c-1.4,1.4-2.7,2.5-4.3,3.9c-0.3,0.3-0.4,0.4-0.7,0.1
			c-0.3-0.5-0.3-0.9,0.1-1.2c1.5-1.6,2.9-2.1,4.4-3.7c0.3-0.3,0.7-1.2-0.2-2c-0.9-1-1.6,0.5-1.1,0.8c0.3,0.2,0.6,0.4,0.2,0.7
			c-1.2,1-2.9,0.4-3.7,0.8c-0.7,0.4-1.3,2.4-1.2,4c0.1,0.8,0.8,1.6,1.4,2.3c0.7,0.8,1.1,1.6,1.9,1.6c1.1,0.1,3.6-0.2,4-0.7
			C72,172.2,71.8,171.2,72.1,169.6"/>
		<path class="st0" d="M89.4,188.1l2.3-4.6c0.3-0.4,0.6-0.7,1.4-0.5c0.4,0.2,0.7-0.5,0.4-0.7c-0.8-0.7-2.2-1.5-3-1.9
			c-0.6-0.4-1.1,0.3-0.7,0.7c0.3,0.3,0.6,0.7,0.3,1.2l-1.1,2.2c-3.3-1.8-0.1-3.6-1-5.3c-0.5-0.8-1.3-0.7-3.2-2.2
			c-1.4-1-2.5-1.9-3.2-2.6c-0.4-0.4-0.9,0.4-0.6,0.7c0.4,0.5,1.4,1.4,0.8,2.3c-0.6,1.1-1.2,1.9-1.8,2.8c-0.6,0.9-1.2,1.7-2.3,0.8
			c-0.8-0.7-0.7-0.8-0.4-2c0.5-1.6,1-3.6,1.7-6.7c0.1-0.3-0.4-0.6-0.6-0.5c-2.7,0.9-4.9,1.7-5.8,2.1c-0.9,0.4-2,0.6-2.8,0.3
			c-0.4-0.2-1,0.4-0.6,0.8c1,1.1,1.8,1.7,2.5,2.4c0.3,0.3,0.9-0.1,0.7-0.4c-0.2-0.4,0.2-0.6,0.4-0.8c1.2-1.2,2.4-1.8,4.4-2.8
			c0.4-0.2,0.5-0.2,0.3,0.3c-0.7,2.2-1.6,4.2-3.5,5.8c2.1,2.1,6,5,6.7,5.5c0.4,0.2,0.9-0.4,0.6-0.8c-0.4-0.5-0.9-1-0.6-1.6l2.4-3.7
			c0.5-0.8,1.2-0.5,2,0.1c2.4,1.7-1.5,2.2,0.3,4.3c0.4,0.4,0.1,0.5-0.2,0.3c-0.5-0.2-1.5-0.2-2.1,0.5c-2.1,2.8,5.5,6,6.3,6.4
			c0.3,0.2,0.7-0.6,0.5-0.9C89.5,189,89.1,188.8,89.4,188.1 M87.6,187.4c-0.1,0.2-0.7,0.2-0.9,0c-0.5-0.3-2.2-1-1.3-2.2
			c0.8-1,2.6,0,3.1,0.3C88,186.5,88,186.6,87.6,187.4"/>
		<path class="st0" d="M176.3,170.6c0.1,0.5,0.3,0.7,0.7,1.8c0.3,0.8,0.4,0.8-0.1,1.4c-0.6,0.6-0.9,0.4-1.7-0.3
			c-1.3-1.3-1.8-1.7-3.1-3.1c-0.4-0.4,0.4-1.3,0.8-1.9c0.2-0.4-0.1-1.2-0.7-0.6c-1.5,1.4-2.7,2.4-4.2,3.7c-0.4,0.3,0,0.9,0.6,0.7
			c1.5-0.4,1.6-0.9,2.1-0.4c0,0,2.6,2.6,3,3c0.7,0.7,1,1,0.5,1.3c-0.6,0.4-0.8,0.2-1.6,0c-0.6-0.1-0.7-0.2-1.8-0.4
			c-0.2-0.1-0.7,0.5-0.3,0.8c1.3,0.9,1.6,1.1,3,1.8c2.2-1.6,3.5-3.1,5.6-5c-0.8-1.3-1.8-2.8-2.1-3.1
			C176.6,169.9,176.2,170.1,176.3,170.6"/>
		<path class="st0" d="M171.7,178.8c-1,0.6-1.5,1.2-2.4,1.6c-0.1-0.9,0.7-2,0.2-2.7c-0.4-0.7-3.7-1.4-2.5-3.9
			c0.4-0.7-0.1-1.2-0.9-0.6c-1.4,1-0.5,2.2-0.1,3.6c-0.5,0.6-1.5,1.7-2.4,2.5c-0.6-0.9-1.2-1.8-1.8-2.7c-0.7,0.5-2.5,1.7-2.8,1.9
			c-0.5,0.3-0.1,0.9,0.4,0.7c0.6-0.3,1.2-0.8,1.6-0.2c1.3,1.9,1.9,3,3.1,4.9c0.3,0.4,0.1,0.8-0.3,1.1c-0.3,0.3,0.2,1.1,0.6,0.8
			c0.4-0.2,8-6.2,8-6.2C172.9,179.2,172.2,178.5,171.7,178.8 M167.2,182c-0.3,0.6-1.1,1.2-1.5,0.5c-0.4-0.6-0.8-1.3-1.5-2.3l2.4-2.4
			C167.3,179,168,180.1,167.2,182"/>
		<path class="st0" d="M109.8,188c-2.4-0.6-3.7-1-6-1.8c-0.6-0.3-1,0.6-0.7,0.8s0.4,0.6,0.3,0.8c-0.9,1.9-1.3,2.7-2.8,4.5
			c-0.7,0.8-2,0.1-3.1-0.2c-0.3-0.1-0.3-0.3-0.1-0.4c0.6-0.2,1.3-0.2,2-1.1c0.7-0.9,0-2.9,0.8-3.8c0.6-0.6,1.8,0.2,2-0.7
			c0.2-0.6-0.6-0.9-0.9-1c-1.8-0.5-2.6,1.7-3.2,2.5c-0.7-0.3-1.8-0.6-1.8-0.6c-0.5-0.2-0.8-0.3-0.5-1c0.4-0.7,0.8-1.5,1-2.2
			c-1-0.4-1.4-0.7-2.2-1.2c-0.5-0.3-0.8,0.3-0.6,0.5c0.4,0.6,0.4,0.9,0.2,1.5c-0.7,1.6-1.9,4-2.3,4.7c-0.3,0.6-0.4,0.4-1,0.4
			c-0.4,0-0.6,0.6-0.2,0.9c2.8,1.5,7.1,2.9,8.5,3.3c1.9,0.5,4.6-2.5,6.2-5.2c0.3-0.5,1.2-0.1,1.1,0.3c-0.4,2.1-0.5,2.9-0.9,4.9
			c-0.2,0.8-0.7,0.7-1.5,0.6c-0.5-0.1-0.7,0.9-0.2,1c1.8,0.5,3.1,0.9,4.9,1.1c0.4,0.1,0.6-0.8,0.2-1c-1.1-0.4-1.5-0.4-1.4-1.4
			c0.1-0.9,0.9-4.6,0.9-4.6c0.2-0.8,0.7-0.6,1.1-0.6C110.2,189,110.4,188.2,109.8,188 M94.5,190.9c-1-0.4-0.6-1.2,0.3-2.7
			c0.1-0.2,0.5-0.2,0.9-0.1l1.7,0.6C97.1,189.3,96.2,191.7,94.5,190.9"/>
		<path class="st0" d="M153.4,190.8c-1.2,0.3-1.4,0.8-1.8-0.2c-1.1-2.1-0.9-1.8-1.8-4.1c-0.6-1.6,0.4-1.7,1.2-2.3
			c0.5-0.3,0.1-1.3-0.5-0.9c-1.1,0.7-3,1.3-4.2,1.9c-0.8,0.3-1.1,0.4-1.4,1.1c-0.3,0.8-0.6,0.6-2.1,0c-1.1-0.5-3.2-0.1-3.7,1.4
			c-0.5,1.6,0.3,2.7,2,3.6c-0.4,1.6-1.2,3.6-1.6,5.1c-0.1,0.6,0.6,0.8,0.9,0.2c0.6-1.2,0.7-1.2,2.1-0.9c1.3,0.3,3.2,0,3.8-1.9
			c0.4-1.4-0.5-2.1-1.6-2.8c0.3-1.3,0.8-2.5,1.2-3.7c0.3-1,1.5-1.5,2-0.5c0.8,1.8,1.1,2.6,1.8,4.4c0.6,1.4-0.7,1.4-1.1,1.8
			c-0.5,0.4-0.1,1.3,0.5,0.9c2-0.8,4.3-1.9,5-2.2C154.4,191.7,154.2,190.6,153.4,190.8 M143.8,194.2c-0.2,0.9-1,0.7-1.7,0.6
			c-1-0.1-0.9-0.3-0.7-1.2c0.4-1.3,0.5-1.5,1.2-1.2C143.5,192.8,144.1,193.2,143.8,194.2 M143.9,189.3c-0.1,0.9-0.4,1.3-0.9,1
			c-1.3-0.8-2.1-1.1-1.7-2.2C141.8,187,144.3,187.7,143.9,189.3"/>
		<path class="st0" d="M114.5,188.6c-3.3-0.2-3.7,1.7-4.1,4.1c-0.2,1.8-0.4,4.7,3.1,5.2c3.3,0.3,4.1-1.8,4.2-4.5
			C117.7,191.6,117.8,188.9,114.5,188.6 M115.3,196.1c-0.1,0.7-0.6,0.9-1.5,0.8c-0.6,0-1.2-0.2-1.3-1c-0.2-2.1-0.1-3.3,0.3-5.2
			c0.2-0.8,0.5-0.9,1.4-0.9c1,0.1,1.3,0.4,1.3,1.2C115.7,193.1,115.6,194.1,115.3,196.1"/>
		<path class="st0" d="M134.2,188.3c-0.9,0.9-0.8,1-2.2,0.5c-1.6-0.7-3.3-0.3-3.9,0.9c-0.8,1.5-0.4,2.5,0.9,3.7
			c-0.1,0.9-1.9,4-2.2,4.7c-0.3,0.6,0.6,1,1,0.5c0.4-0.7,1-1.3,1.8-0.9c1.8,1.1,3.2,0.8,4.3-0.6c1-1.6,0.1-3.2-1.1-4
			c0.6-1.6,1.3-2.9,2.1-4.1C135.4,188.4,134.6,187.9,134.2,188.3 M132.1,196.1c-0.3,1-1.6,0.8-2.5,0.4c-0.6-0.4,0.3-2.1,0.5-2.5
			C131.6,194.7,132.3,195.2,132.1,196.1 M132.6,191.1c-0.4,0.5-0.7,1.5-1.3,1.1c-0.7-0.4-1.5-0.9-1-1.8c0.5-0.9,1.6-0.7,2-0.4
			C132.7,190.4,132.9,190.5,132.6,191.1"/>
		<path class="st0" d="M121.9,189.5c-0.9,0.4-1.3,0.7-3-0.3c-0.4-0.3-1,0.5-0.5,0.8c0.7,0.5,1,0.8,1,1.7c0,1.4,0.1,2.4,0,3.8
			c-0.1,0.8-0.5,1.2-1.3,1.7c-0.5,0.3-0.2,1,0.4,0.8c1.2-0.4,1.8-0.3,2.6,0.1c3.9,1.5,5.4-0.6,5.4-4.5
			C126.4,189,124,188.6,121.9,189.5 M121.9,197.1c-0.6,0-0.9-0.1-0.8-1.2c0-1.9,0-2.3,0-3.9c0-0.9,0.3-1.1,1-1.3
			c1.3-0.3,2.1-0.7,2.2,3.1C124.3,197.5,122.9,197.2,121.9,197.1"/>
		<path class="st0" d="M136.3,192.3c-0.5,0.2-0.8,0.8-0.5,1.5c0.2,0.5,0.7,0.6,1.2,0.5c0.5-0.2,0.8-0.7,0.6-1.4
			C137.6,192.4,137,192.1,136.3,192.3"/>
		<path class="st0" d="M162.6,185.3c-0.6-0.4-1-0.3-1.3-0.1c-0.4,0.3-0.8,0.4-0.9,0c-0.4-2.7-1.7-6-5.5-4.2c-3.8,1.8-2.9,6.8,0,6.2
			c1.7-0.3,0.8-0.9,0.2-1.4c-0.8-0.6-1.2-3.2,0.6-3.7c1.6-0.5,2.4,2.5,2.6,3.8c0.3,1.3,0.3,2-0.7,2.7c-0.8,0.6-1.2,0.3-2.4,0.9
			c-0.8,0.4-0.9,1.1-0.2,1.2c0.6,0.1,3.1-0.2,3.9-0.7c1.5-0.8,2.1-3.9,3.9-3.5C163.2,186.6,163.6,185.9,162.6,185.3"/>
		<path class="st0" d="M167.6,78.3c-10.1-10.1-23-16.3-36.9-18c0.4-2,1.3-4.3,1.9-6.3c-0.5-2.1-1.1-4.2-1.6-6.4l-0.5,0
			c-0.8,2.2-1.6,3.9-2.6,6c0.4,2.7,1.2,4.5,1.3,6.6c0,0-4.3-0.3-6.5-0.3C88,60,59.6,88.4,59.7,123.3c0,16.9,6.6,32.9,18.5,44.8
			c12,11.9,28,18.4,44.9,18.6c17,0.2,32.8-6.9,44.7-18.9c12-12.1,18.6-27.9,18.5-44.8C186.3,106.1,179.6,90.2,167.6,78.3
			 M180.6,98.2l-8.8-6.5l0-0.2l3.7-2.7C177.3,91.6,179.2,95.1,180.6,98.2 M159.5,162.5c0,0-1.9-4.9-2.1-5.4
			c-0.5-1.1-0.7-1.4-2.1-1.9v-1l11.6,0L159.5,162.5z M167.7,154.6l0.2,6.1c-0.6-0.6-1.6-0.7-2.6,0c-0.2-0.7-1.1-1.4-2.2-0.9
			L167.7,154.6z M161.5,163.7c-0.7,0.4-1.3,1.4-1.2,2.3c-0.2-0.1-0.7-0.3-1.1-0.3c0-0.9-0.2-1.7-0.9-2.1l1.6,0l1.7-2
			C161.4,162,161.4,162.9,161.5,163.7 M156.9,172.5c-1.7,0-1.6-1.9-1.6-2.6c-0.7,0-2.3,0.1-2.3-1.8c0-1.9,1.7-1.9,2.4-1.9
			c0-0.5-0.1-2.2,1.5-2.3c1.5-0.1,1.5,1.7,1.5,2.4c0,0,2.1-0.1,2.3,1.5c0.2,1.7-1.4,1.9-2.1,1.9
			C158.5,170.7,158.6,172.6,156.9,172.5 M109.1,67.2c-0.3,0.2-2.1-1.5-2.7-2.3c0.7-0.2,1.4-0.4,2.1-0.6
			C107.6,65.2,109.6,66.9,109.1,67.2 M129.5,79.9c0.4,0.5,0.6-0.8,1-0.2c0.6,0.9-1.2,1.4-0.7,2c0.3,0.2,0.6-0.7,0.9-0.2
			c0.4,0.6-0.7,1-0.5,1.4c0.3,0.6,0.6-0.4,0.9,0.1c0.3,0.6-1,1.9-2,2.5c-1.4,0.9-3.8-0.1-2.9-3.4c0.6-1.8,1.7-3,3-4
			c0.6-0.4,1.4-0.1,0.8,0.6C129.8,79.1,129.2,79.5,129.5,79.9 M176.2,120.2c-1.8,1.5-2.8,2.4-2.9,4.3c-0.1,2.9,2.6,3.5,1.2,4.5
			c-0.9,0.5-1.3-0.8-2.2-1c0.1-1.6-1.4-3.2-1.2-5.2l0.8,0c-0.3-1.7-0.7-4.5,0.2-4.8l0.7,0.9c2.3-1.4,2.3-4,2.3-4l0.3,0.5
			C175.4,117,175.5,118.7,176.2,120.2 M175.7,114.1c0-0.5,0.3-1.1,0.6-1c0.3,0,0.5,0.5,0.5,1c0,0.5-0.3,1-0.6,1
			C176,115,175.7,114.6,175.7,114.1 M176.6,121.1c0,0,3.1,4.5-0.9,6.4C174,126.4,173.1,123.2,176.6,121.1 M172.3,133.2
			c-0.1,0.6-0.5,1.3-0.8,1.8c-0.9-0.4-0.2-0.7-0.2-1.7c-0.3-3.3-4.2-5.2-0.5-7.8C172.6,128.6,170.2,130.3,172.3,133.2 M94.6,162.9
			c0.2-2.1-2.2-1.9-2.5-3.3c8.3,0.5,12.1,3.1,13.9-1.4c2.2,0.5,5.3-0.4,5.6-3.5l10.5-0.1c0,0-3.4,1.8-5.4,3c1.3,1.5,3.1,0.7,4,1.4
			c0.8,0.6,0.9,2.1,3.2,3c4.9,1.8,6.2-0.5,8.1-1.4c0.8,0.2,3.3,1.6,6.4,1.8l2.4-1.9c2.4,0.7,4.5,1.1,8,0.7c1.9,0.9,4.4,0.5,3.1-2
			l4.9,3.8L94.6,162.9z M155.5,163.6c-0.6,0.6-0.8,1.2-0.8,1.9c-0.9,0-1.6,0.2-2.1,1.2c-0.5-0.8-0.9-1-1.7-0.9c0-1.2-0.4-1.7-1-2.2
			L155.5,163.6z M146.3,165.6c-1,0-1.5,0.5-2.1,1.1c-0.3-0.4-0.7-0.8-1.6-0.8c-0.1-1.1-0.5-1.8-1.1-2.4l5.7,0
			C146.5,164,146.3,164.9,146.3,165.6 M140.3,172.7c-1.9,0.1-1.8-2.3-1.9-2.8c-0.5,0-1.7,0.2-1.8-1.6c-0.1-1.7,1.4-1.6,2.1-1.7
			c0-0.7-0.4-2.4,1.4-2.5c1.8-0.1,1.6,1.9,1.7,2.5c0.8,0,2.1-0.1,2.1,1.7c0.1,1.8-1.5,1.7-2.1,1.8
			C141.8,170.7,142.2,172.6,140.3,172.7 M130.7,166.6c0-0.7-0.2-2.5,1.4-2.5c1.8-0.1,1.5,2,1.6,2.4c0.5,0,2.2-0.1,2.2,1.7
			c0,1.9-2.1,1.6-2.1,1.6c0,0.8,0.3,3.2-1.6,2.9c-1.7-0.3-1.4-1.9-1.6-2.7c-0.7-0.1-2.1,0.2-2.1-1.8
			C128.4,166.5,130.1,166.6,130.7,166.6 M128.1,166.6c-0.5-0.4-0.9-0.7-1.6-0.5c0-1.3-0.3-1.7-1.1-2.4l5.6,0
			c-0.8,0.5-1.1,1.3-1.1,2.3C129.4,165.8,128.7,165.9,128.1,166.6 M138,165.8c-0.6,0-1.4,0.3-1.7,0.8c-0.6-0.6-0.9-0.8-1.7-0.7
			c0.1-1.1-0.4-1.6-0.9-2.2l5.1,0C138.2,164.1,137.9,165.1,138,165.8 M134.8,170.6c0.7,0,1.1-0.4,1.5-0.9c0.4,0.6,0.8,0.9,1.5,0.9
			c0,1.2,0.5,2.2,1.6,2.7l-6,0C134.5,172.9,134.8,171.7,134.8,170.6 M121.9,165.8c-1,0-1.5,0.5-2,0.9c-0.5-0.6-0.9-0.8-1.9-0.8
			c0-1-0.3-1.6-1-2.3l5.9,0C122.3,164.1,121.9,164.8,121.9,165.8 M109.4,170.9c1-0.1,1.6-0.4,1.8-1c0.3,0.6,1.1,1.2,2,1.1
			c0,1.3,0.3,2.1,1.5,2.5l-6.7,0.1C109,173.2,109.6,171.9,109.4,170.9 M109.5,166.1c0-1.5-0.4-1.9-1-2.4l5.6,0
			c-0.9,0.4-1.1,1.2-1.1,2.2c-0.8,0-1.4,0.5-1.9,1C110.6,166.3,110.4,166,109.5,166.1 M113.9,170.4c-0.8-0.1-2.1-0.2-2.3-1.9
			c-0.1-1.7,1.4-1.9,2.2-2c0-0.6-0.2-2.5,1.6-2.5c1.9-0.1,1.8,2,1.8,2.5c0.7,0,2.2,0,2.3,1.5c0.2,2.5-1.6,2-2.3,2
			c0,1,0.4,2.8-1.4,2.9C114,173.1,113.9,171,113.9,170.4 M118.2,170.8c1.1,0.1,1.4-0.1,1.9-0.8c0.4,0.9,1.1,1.1,1.9,1
			c0,1,0.4,2,1.7,2.6l-6.7,0C118.1,172.9,118.2,171.6,118.2,170.8 M104.7,165.8c0,0-1.1,0.1-1.9,0.9c-0.3-0.5-0.8-0.8-1.7-0.8
			c0-1.4-0.6-2-1.5-2.2l6.1,0C104.7,164.1,104.7,165.8,104.7,165.8 M91.6,163.7l6.3-0.1c-1.3,0.3-1.3,1.1-1.4,2.3
			c-0.4,0-1.7,0.1-2.2,0.8c-0.2-0.6-0.7-0.9-1.7-0.9C92.7,165,92.3,164,91.6,163.7 M74.2,123.4c-0.9-0.5-1.7-2.5-1.7-3.6
			c0-0.8,0.2-2.2,0.8-3.3c-1.3,0.4-2.2-0.2-3.3-0.8c-0.4,2.8-0.4,6.4-2.8,6.3c0.8-1.5,1.3-3.7,1.6-6.9l-0.6-0.4
			c-0.1,1-0.3,2.5-0.6,3.7c-0.2,0.7-0.9,0.7-1.4,0.7c0.6-1.6,0.8-3.6,0.8-5.8l-0.6-0.5c-0.1,0.8-0.3,1.4-1.2,1.8
			c0.3-1,0.2-2.9,0.2-4.4c0-1.1,0.6-1.5,1.2-1.4c0.6,0.1,1.1,0.6,1.1,1.3c0,0.7-0.3,1.1-1.2,1.3c1.8,2.5,4.5,4,7.3,4.3
			c0.3-0.8,0.2-0.8,0.4-1.7l1.6,0c-0.1,2.9,0.9,2.7,1.2,5.3C77,121.3,75.2,124,74.2,123.4 M74.4,135.9c0,0-2.1-1.5-2.8-2.3
			c0.8-0.6,1.8-1.5,2.2-2.5C73.9,132.4,74.1,134.6,74.4,135.9 M71.9,117.3c0,1.5-0.5,2.7-2.1,2.8c0.2-0.9,0.4-2.1,0.5-3.4
			C70.7,116.9,71.4,117.1,71.9,117.3 M72.4,108.6c0.6,0.3,1.1,0.9,1.7,1.5c0.3-0.2,0.6-0.5,1.2-0.2c1.4,0.9,1,3.3-0.3,3.3
			C74,113.2,73,110.6,72.4,108.6 M82.4,111.3c0-0.6,0.6-1.1,1.3-1c1.1,0.1,1.1,1.3,1.1,2.3c0,1-0.2,2.1,0,4c-0.8,0-1.2-0.4-1.2-1.5
			l0-1.7l-0.6,0.4c0,2.1,0.1,4.1,0.6,5.9c-2.1-0.1-1.7-2.7-1.8-5c-1.5,1-3.1,1.8-4.8,2.2l-0.4-1c2.3-0.7,4.5-1.7,6.4-3.5
			C82.4,112.1,82.3,111.8,82.4,111.3 M81.9,122.9c-0.7,0-2.1-0.1-2.2-2.8c0-0.9-0.1-1.8-0.1-3.3c0.5-0.2,0.9-0.5,1.4-0.7
			C81.1,118.2,81.1,121.2,81.9,122.9 M78.9,120.5c-0.7-0.1-1.2-0.4-1.4-1.5c-0.1-0.5-0.1-0.7-0.2-1.4c0.5-0.1,1.1-0.3,1.5-0.5
			L78.9,120.5z M74.8,126.9c0-1.4,0.7-2.9,2-4.4l0.7,2.5c-0.3,0-1,0.1-1,0.1l0,1.4c1.5-2.1,4.1,0.8,3.7,4c-0.6,0.8-1.7,2-2.5,2.8
			c-0.3-0.3-1.3-2.1-1.6-2.6c1.2,0,2.3-0.4,2-2.2c-0.8,1.2-3.4,2-3.4-0.4c0.3,0,1.1,0.1,1.1-0.7C75.8,126.9,75.3,126.9,74.8,126.9
			 M108,82c0,0,0.5,1.3,0.7,1.9c0.2,0.4,0.3,0.4,0.5,0.1l0.3-0.7c0,0,1.2,1,1.2,1l0,0.2l-8.6,6l-8.3-6.6c0-0.1,0-0.2,0-0.2l8.3-5.9
			c0,0,0.3,0.1,0.5,0L108,82z M103,77.4l0-0.2l2.8-2.1c0.8,2,1.7,4.5,2.2,6.2L103,77.4z M120.1,78.5c0.1,0.1,0.3,0.1,0.5,0l4.5,3.6
			c-0.8,2-1.4,3.1-2.1,6.1l-3.1,2.2c-0.2-0.1-0.4,0-0.4,0l-7.5-5.9l0-0.2l1.1-0.8l0.4,1c0.1,0.4,0.4,0.5,0.6,0
			c0.5-0.8,0.6-1.5,1.3-2.5L120.1,78.5z M115.6,81.1c0.6-1.4,1.9-3.3,2.9-4.2l1.3,1l0,0.2L115.6,81.1z M132.1,100.3
			c-0.3,1-0.8,3.6-1.1,4.7l-0.6,0.6l-0.8,4.7c0,0,0.3,0.6,0.4,0.8c-3,13.6-1.8,29-1.7,36.7c0.1,3.5-0.4,3.4-2.4,4.5l2.6-50.7
			C129.6,101.4,131,101.1,132.1,100.3 M128.6,100.4l0.3-6.4l1-0.6c0.2,2,0.3,6.5,0.3,6.5C129.6,100.1,129.2,100.3,128.6,100.4
			 M135.4,90.1c0,0,0.6-0.2,1-0.5c0.4,1.3,1.2,2,2.2,2.3c-0.1,1.9-1.7,2.6-3.3,1.6C135.4,92.5,135.5,91.3,135.4,90.1 M147.1,86.6
			c0.4,0.5,1,1,1.5,1.4c-1.3,1-2.7,2.4-3.7,3.5c0-0.4-0.1-0.7-0.3-1.3C146.2,89.8,147.2,88.9,147.1,86.6 M154.4,94.2
			c-0.6,2-1.3,4.5-1.9,5.9c-2,0.1-5.7-1.2-5.7-3.9c1.7,0.1,2.1-1.3,1.9-2.4c-0.3-1.7-1.8-2.1-3.3-1.7c2.3-2.6,4.8-4.6,8.5-6.7
			C151.5,90.4,155.4,90.6,154.4,94.2 M155.4,123.5l-2.4,3.1c-0.3-0.9-0.6-1.5-0.9-2.4c1.2,0,2.3-0.2,3.3-1.6L155.4,123.5z
			 M155.3,132.9c-0.8-2-1.3-3.4-1.9-5.5l2-2.6C155.5,125.5,155.6,130.5,155.3,132.9 M151.7,123.1c-0.3-0.9-1-2.7-1.5-4.3l4.6-1v-0.7
			l-1.1,0.2c0.3-1.2,0.6-2.6,1.1-4.4l0.5,0.2c0,1.6,0,5.9,0,5.9c-0.5,0-1.1,0.2-1.1,0.7c0,0.5,0.5,0.6,1.1,0.5
			C155.3,122,154.3,123.1,151.7,123.1 M151.5,109.5c0,0,1,0.1,1.5-0.7c0,0,0.5,1.8,0.7,3.3c0.2,1.5-0.3,3.1-0.8,5.2l-1.1-2.3
			l-0.6,0.3c0,0,0.6,1.2,0.8,1.6l-2.9-1.4C151.2,114.7,151.7,113,151.5,109.5 M152.1,117.7l-2.2,0.5c-0.4-1-0.7-1.8-0.7-1.8
			C149.9,116.6,151.7,117.5,152.1,117.7 M155.3,112.1l-0.8-0.4c-0.3-1.6-0.8-3.9-0.8-3.9l-0.7-4l-0.9,0l0.5,3.6
			c0.2,1.1-0.8,1.2-1.2,1.3c-0.1-2.1-0.4-4.9-0.4-4.9l-0.9-0.8l0.5,6.2c0.1,2.7,0.1,4.9-2,5.6l-1.2-3.7c2.2-0.6,2.2-2.6,1.9-5.5
			l-0.3-3.1l-0.9-0.9l0.4,3.9c0.2,1.8,0.6,4.4-1.3,4.9l-0.8-2.8c1.1-0.5,1.3-1.2,1-3.6l-0.3-2.5l-1-1.1l0.5,3.7
			c0.2,2.2,0.2,2.3-0.5,2.7c-1.4-4.3-1.7-7.4-1.7-7.4c-0.3-5.5,0.7-6.3,2-6.3c0.8,0,1.5,0.7,1.4,1.5c-0.2,1.4-1.9,1-1.9,1
			s-0.2,1.7,0.7,2.9c1.3,1.8,4,2.7,6.5,2.6c1.1-3.3,1.5-4.5,1.8-5.5C155.2,102.7,155.3,112.1,155.3,112.1 M153,140.8l-2.2,5.8
			c-0.7,1.8-1.2,3.3-1.1,5.3l0.9-0.2c-0.1-0.8,0-3.1,0.6-4.2c0.2,2.9,1.5,5.5,3.1,7.4c0,0-3.2-1.1-4.3-1.5c-1.5-0.6-1.6-0.9-1.4-2.9
			l2.3-16.5C152.8,137.5,153.6,139.2,153,140.8 M154.1,141.1l0.1,12.2c-1.6-2.1-2.4-4.3-2.3-7.6
			C152.4,144.5,153.3,142.4,154.1,141.1 M145.6,154.1c0.6,1.4,2.1,1.5,3.8,3c0.6,0.6,1.1,1.6,1.8,2.4c0.6,0.6-0.2,1.3-1.2,0.9
			c-1-0.6-1.4-0.2-2.3-0.7c-0.9-0.5-1.5-1.4-2.3-2c-1.3-0.9-3.2,0.7-2.8-3.4c0-0.7,0.6-3.1-0.8-6.7c-0.5-1.6-0.3-3.5,0.5-4.8
			c1.5-0.1,3.2,0.4,4,1.7C147.8,147.2,144.6,151.6,145.6,154.1 M111.2,149.1c-0.1-1.1-0.2-2.7-0.4-3.8l5.5-3.8c0,0,0.2,0.1,0.5,0
			l7.7,5.6l-7.9,5.6L111.2,149.1z M116.4,153.3l-4.9-0.1l-0.3-3.4L116.4,153.3z M106,154.9c-0.1-2.3,1.3-2.5,4.2-1.8
			c0.9,4.1-2.7,4.1-4,3.8C106.3,156,106.1,155.8,106,154.9 M100.5,157.7l0.1-0.5c1.6-0.4,3-0.8,4.3-2c0.4,0.5,0.3,1.9-0.1,2.4
			C103.5,158.4,101.8,158.1,100.5,157.7 M104.4,158.7c-0.8,1.3-2.9,1-4.3,0.8l0.3-1.1C101.9,158.7,103.2,158.8,104.4,158.7
			 M100.7,156.3l0.1-2.2c1.7-0.3,3.1-1,4,0.4C103.7,155.4,102.1,156.1,100.7,156.3 M92.1,154.1l0-3.4c8.8,1,10.8-1.1,18-1l0.2,2.3
			C104.1,150.9,104.4,153.5,92.1,154.1 M100.1,154.2c-0.1,1.9-0.2,3.7-0.8,5.3l-1.2-0.1c0.3-1.8,0.5-3.6,0.6-5.1L100.1,154.2z
			 M105.8,90.5c-0.9,0-1.7,0.2-2.5,0.7l-0.6-0.4l8.4-5.9c0,0,0.4,0.1,0.6,0l7.4,5.9l0,0.2l-8.3,5.9c-0.3-0.1-0.5,0-0.5,0l-4.3-3.4
			C106.2,92.5,106.3,91.4,105.8,90.5 M122.3,93.3c0,2.8,0.1,5.6,1.3,7.2l-3.1,2.1l-3-0.1l-6.4-5.1c0,0,0-0.1,0-0.2l8.3-5.9
			c0.2,0.1,0.5,0,0.5,0L122.3,93.3z M120.1,90.8l2.7-1.9c0,0-0.3,1.7-0.5,3.8l-2.2-1.7L120.1,90.8z M125.4,135l-1.3-0.9
			c1.9-1.6,0.9-3.5,0-4c-0.4-0.2-0.7-0.2-0.7-0.7c0-0.5,0.3-4.3,0.4-6.5l0.7,0l0.8-20.2l-4,0l2.5-1.8c0.9,0.9,1.7,0.8,3.3,0.8
			L125.4,135z M92.1,139.6c0-1.3,0.3-5.3,0.3-5.3c1,0.6,2.4,1.3,2.4,1.3l0,4.9C93.8,140.3,93,140.1,92.1,139.6 M93.6,141.1l0,3.7
			l-1.6-0.6l0.1-3.7L93.6,141.1z M93.5,125.6c0.4,0.1,1-0.1,1.7-0.6c0.1,0.8,0.6,1.6,1.4,1.8c0.2,1.6-1.5,2.6-3.2,0.8
			C93.5,126.8,93.5,126.4,93.5,125.6 M101.2,117.1c0.9,0.7,1.8,1.6,2.6,2.2c1.2,0.9,1.8,0.7,2.7-0.2c0,0,2.4-2.9,4-4.2
			c0,0,1.4,1.7,2,2.5c-1.3,3-2,4.7-3.5,6.9c-1.6,2.7-3.8,1.6-4.7,1.3c-1.8-0.6-3.6-1.5-5.1-2.5L101.2,117.1z M100.8,115.2
			c1,0.1,2.2-0.1,3-0.3c-0.1,0.5-0.4,1.7-0.4,2.9L100.8,115.2z M116.4,111.2c0.1,0.2,1.2-0.8,1.5-1.2c0.5-0.9,0.9-1.8,1.4-2.6
			c0.3-0.5,0.7-0.2,0.6,0.3c-0.1,0.5-1.2,2.8-1.4,3.2c-0.2,0.3-0.6,0.5-1.1,0.9l0.4,0.5l1.3-1.1l0.6-1.7c0.1-0.3,0.6-0.6,0.6,0.1
			c0,0.8-0.2,1.6-0.4,2.1c0,0-0.6,0.7-1.1,1c-0.4,0.3-0.6,0.3-0.4,0.5c0.2,0.3,0.4,0.1,0.7,0c0.5-0.2,1,0.5,0.1,0.9
			c-0.5,0.2-0.7,0.1-0.6,0.4c0.1,0.3,0.2,0.2,0.4,0.2c0.5,0,0.6,0.7-0.1,0.9c-1.7,0.4-3.9-0.1-5,0.3c-1.7,0.6-2.5-0.8-2.9-1.4
			c0.6-0.8,1.5-1.4,2.4-1.9c1.6-0.9,2.6-2.5,3.4-3.8C117.4,109.4,116.3,111,116.4,111.2 M122.3,130.4c1.1-0.1,1.8,0.7,1.7,1.4
			c0,0.9-0.5,1.6-1.4,1.7c-0.9,0.1-1.6-0.4-1.6-1.5C121,131.3,121.7,130.5,122.3,130.4 M120.4,131.4l-3-2.2l0-0.1l5.4-3.8
			c0,0,0,2.5-0.2,3.9c-0.1,0.5-0.2,0.6-0.5,0.6C121.5,129.9,120.6,130.7,120.4,131.4 M122.8,124.7l-5.6,4c0,0-0.2-0.1-0.5,0
			l-3.7-2.8l1.8-1.2l0-0.9c1.3,0.6,2.6,0.9,4.4,1.2c2.9,0.5,3.2-0.5,3.4-2l0.4,0L122.8,124.7z M116.1,120.8c0.4,0,0.6-0.1,0.7,0.5
			c0.1,0.5,0.7,0.5,0.6,0c0-0.4-0.1-0.6-0.2-0.8c-0.2-0.7,0.5-0.7,0.6-0.2c0.1,0.4,0.1,0.6,0.2,1c0,0.4,0.5,0.5,0.5,0
			c0-0.4-0.1-0.7-0.2-1.2c-0.1-0.7,0.6-0.6,0.7-0.1c0.1,0.3,0.1,0.9,0.2,1.4c0,0.4,0.5,0.4,0.5,0c0-0.5-0.1-0.9-0.1-1.5
			c0-0.6,0.7-0.6,0.7,0c0,0.5,0,1.1,0,1.5c-0.1,0.4,0.5,0.5,0.5,0c0-0.5,0-1.1,0.1-1.9c0.1-0.5,0.2-0.9,1-0.9
			c-0.2,1.8-0.3,3-0.5,4.5c-0.1,1.2-0.9,1.1-2.2,0.9c-1.1-0.1-4.4-0.7-5.5-1.8l0,1.4c-1.4,1.2-4.6,3.1-5.3,3.5l3-5.8
			C113.4,121.1,114.3,121,116.1,120.8 M112.3,120.2c0.9-1.8,1.4-3.8,4.6-3.6c0,0.8,0.1,2,0,2.9C116,120.2,114,120.1,112.3,120.2
			 M122.6,121.7c0,0,0.3-2.6,0.4-3.7c-0.5-0.3-1.9-0.1-2.1,1c-0.3-0.3-1-0.3-1.3,0.3c-0.5-0.3-1.1-0.3-1.3,0.3
			c-0.2,0-0.3-0.1-0.5-0.2c0-0.4,0-2.1,0-2.7c1.2-0.1,3-0.8,2.1-2.2c0.9-0.4,0.8-1.4,0.3-1.6c0.6-0.5,0.6-0.8,0.7-1.4
			c0.1-0.5,0.2-0.9,0.1-1.6c0-1.1-0.2-1.1-0.7-1.3c0.7-2.3-0.2-3.1-1.3-1.5c-0.3,0.4-1.2,1.9-1.2,1.9l0-5.4l6.5,0l-0.7,18.2
			L122.6,121.7z M116.9,107.3c-1.9,2.4-2.1,3.2-4.6,4.7l-2-1.5l0-0.2l6.6-4.6L116.9,107.3z M111.9,112.4c-1.6,1.2-2.8,2.3-4.2,3.6
			c-0.5-1-1.4-1.8-2-2.4l3.8-2.6c0,0,0.3,0.1,0.5,0L111.9,112.4z M105.9,118.5c-0.7,0.9-1.3,0.3-1.4-0.1c-0.4-1.5-0.3-2.8,0.5-4.1
			C106.4,115.9,107.4,116.3,105.9,118.5 M106,129.3c-1.4-0.2-1.3-1.6-1.2-2.5c0.6,0.3,2.1,0.4,2.8,0.4
			C107.6,128.2,107.4,129.5,106,129.3 M100,124.8c0.8,0.4,1.9,0.9,3.2,1.4C103.1,128,99.1,127.1,100,124.8 M100.5,127.4
			c0,1.4-0.5,2.3-1.8,2c-1.1-0.3-1.6-1.3-1.3-2.6c1.1,0.1,1.3-0.1,1.8-0.6C99.3,126.3,99.6,127.3,100.5,127.4 M101.1,127.8
			c0.9,0.1,2.3,0.1,2.9-1.3c0.2,1,0.3,3-1.4,3.3C100.9,130.1,101,128.5,101.1,127.8 M99.1,120.5l-2.6-2.3l0.4-1.9l3,2.3L99.1,120.5z
			 M99.3,124.4c0,1.6-1.3,1.9-2.3,1.6c-1-0.3-1.4-1.3-1-3.5C96.7,123,98.5,124,99.3,124.4 M96.8,128.6c0.8,2,2.8,2.2,4.3,2.3
			c1,0,2.7-0.5,3.5-1.6c0.6,0.8,1.9,1,2.9,0.4l0.3,2.2c-0.7,0.1-1.3-0.2-2.1-0.5l-0.5-0.3l-0.4,0.2c-2.4,1.6-6,1.1-7.6-0.8
			c-0.1-0.1-0.2-0.2-0.2-0.3c0,0-0.2,0.1-0.4,0.2c-1,0.4-2.9,0.1-3.7-0.9l0.4-1.4C93.8,128.8,95.6,130,96.8,128.6 M108.3,132.7
			c0.1,1.1,0.3,2.3,0.4,3.3c-7.8,0.1-12.3,0.1-16.5-3.1l0.6-2.6C96.7,133.2,102,133.4,108.3,132.7 M109.1,140.9
			c-0.7-0.2-1-0.3-1.8-0.3l-0.4-3.6l1.7-0.1L109.1,140.9z M94.3,141.2c0.8,0.2,1.8,0.3,2.6,0.3L97,146c0,0-1.7-0.5-2.8-1L94.3,141.2
			z M95.5,140.5l-0.1-4.7c1.1,0.5,2.9,0.8,2.9,0.8l0.2,4C97.5,140.7,96.6,140.7,95.5,140.5 M100.8,141.5l0.3,4.9
			c-1.6,0-3.2-0.4-3.2-0.4l-0.2-4.6C98.7,141.6,99.5,141.6,100.8,141.5 M99.4,140.7l-0.3-3.9c1.1,0.2,3.2,0.2,3.2,0.2l0.2,3.7
			C101.3,140.6,100.4,140.7,99.4,140.7 M105,141.3l0.4,4.6c0,0-1.9,0.6-3.4,0.5l-0.4-4.9C102.5,141.4,104.2,141.3,105,141.3
			 M103.5,140.5l-0.3-3.6l3,0l0.3,3.5C105.4,140.4,104.6,140.5,103.5,140.5 M109.2,141.8l0.5,3.8c0,0-1.9-0.1-3.4,0.1l-0.5-4.4
			C106.9,141.3,108,141.4,109.2,141.8 M109.4,132.2l-0.5-0.3l-0.3-3.1l3.8-2.6l3.9,2.9l0,0.2l-6.7,4.8L109.4,132.2z M116.6,129.6
			c0,0,0.3,0.2,0.6,0l3.2,2.3c-0.2,1.9,1.3,3.1,3.3,2.4l0.9,0.7l-7.8,5.5c0,0-0.2-0.1-0.5,0l-6.4-4.7l-0.2-1.3L116.6,129.6z
			 M117,140.9l8.3-5.9l-0.6,11.7L117,141V140.9z M106.6,94.6l3.3,2.7l0,0.2l-7.2,5.2c-0.2-2.7,0.5-4.8,1.2-6.4
			C105.1,97.1,107,96.4,106.6,94.6 M110.3,97.9c0,0,0.2,0.1,0.4,0l6.1,4.8l0.1,2.5l-6.8,4.8c-0.2-0.1-0.5-0.1-0.6,0l-6.7-5.2
			c0-0.4,0-1.3,0-1.3L110.3,97.9z M102.9,105.4l6.3,4.9l0,0.3l-3.8,2.6c-1.7-1.4-3.4-3.3-3.4-5.9
			C102.4,107.1,103.3,106.9,102.9,105.4 M102.1,98.9c-0.2,0.2-0.3,0.6-0.3,1c0,0.8,0.1,2,0.1,2.7l-1.6-0.1c-0.3-0.3,0.3-0.2,0.4-1.2
			c0-0.3,0-0.8,0-1.4c0-0.4,0.1-0.7-0.8-1.1c-0.7-0.2-1.8-0.2-2.5-0.1c0.1-0.7,0.5-1,1.3-1.2c0.9-0.2,2.2-0.1,2.7,0.1
			c0.7,0.3,0.8,0.3,0.9,0.8C102.3,98.6,102.3,98.8,102.1,98.9 M99.8,100.3c-0.4,0.5-1.4,0.7-2.4,0C97.8,99.5,99.6,99.2,99.8,100.3
			 M99.9,100.8c-0.2,1.5-1.9,4.2-1.9,4.2c0.5,0.1,1.9-1.1,2.3-1.5l1.2,0c0.1,0.2,0.5,0.8-0.7,0.9c1.9,2.1-0.7,2.4-3,1.4
			c-0.5-0.2-0.8-0.5-1-1c-0.3-0.8-0.5-2.2-0.2-2.7C97.3,100.4,98.9,101.9,99.9,100.8 M97.5,106.8c1.2,0.6,2.3,0.8,3.4,0.7
			c0.2,3.2,1.8,4.6,3.3,6.2c-1,0.9-2.7,1.1-3.9,0.7c-2.2-0.7-4.4-3.7-6.7-4.9c-0.5-1.6-1-3.5,2-4.3
			C95.8,105.6,96.4,106.2,97.5,106.8 M100.5,116.1l-0.6,1.7l-3.2-2.4c-0.1-1.1-0.6-2.5-1.3-3.7L100.5,116.1z M98.9,121.4l-0.6,1.4
			l-4.5-2.8c1.1-0.1,1.6-0.5,2.1-1.2L98.9,121.4z M95.2,122c0.2,3.1-1.7,2.7-1.7,2.7c-0.1-1.2-0.8-3.5-1.3-4.7
			C92.9,120.5,94.6,121.6,95.2,122 M90.4,133.3l-6.9-5.4l8.1-5.6C93.1,126.5,91.6,130.3,90.4,133.3 M109.8,146.4l0.2,2.4
			c-6.3-0.1-11.3,2.4-17.9,0.9l-0.1-4.6C102.5,149.7,103.6,145.9,109.8,146.4 M109.7,136.3l6.2,4.6l0,0.2l-5.2,3.6
			C110.5,142.2,110.1,139,109.7,136.3 M124.8,147.5l-0.3,5.7l-7.7,0.1L124.8,147.5z M127.9,152.3c0.1,0.8-3.3,6.3-4.4,8.3
			c-0.5-0.2-1.2-1.1-1.8-2.3c-0.2-0.4-0.5-0.7-1.1-0.6c-0.8,0.1-1.3,0-1.7-0.1C121.8,155.8,124.6,154.6,127.9,152.3 M128.7,153.1
			c0.5-0.9,0.8-2.4,0.8-3.9c0.1-3.2-0.4-13.4-0.4-13.4l0.6,0.4c0,0,0.7,6.3,0.7,6.2c-0.3,4.6,0.1,6.1,0.6,9.1c0.1,2,0.4,3.2-0.9,4.1
			c-3.8,2.7-2,2.7-5.1,4.2L128.7,153.1z M136.6,140.4l0,1.2c-2,0.2-3.6,0-5.4-0.4l-0.3-2C132.4,140.2,134.4,140.7,136.6,140.4
			 M133,134.2l1.2-0.2c0.4,2,0.5,3.8,0.1,5.5c-0.5,0-1.3-0.2-1.7-0.5C132.6,137.7,132.7,136,133,134.2 M135,134.1
			c0.7,0.1,1.6,0.8,2.3,1.6c0.1,1.1,0,2.3-0.4,3.5l-1.8,0.3C135.6,137.8,135.5,136.1,135,134.1 M132,138.8c-0.5-0.4-0.9-0.7-1.3-1.1
			c-0.1-0.5-0.3-2.1-0.3-2.6c0.6-0.6,1.1-0.7,1.9-0.9C131.8,136,131.8,136.6,132,138.8 M126.2,159.9c2.1-1.1,2-1.7,3-2.6
			c1-0.9,2.3-1.4,2.6-2.5c0.5-2.2-0.7-7-0.7-10.1c0.1-2.9,1.3-2.9,3.6-2.1c2.6,0.9,2.4,3.9,0.9,6.8c-0.7,1.4-1.1,3.6-1.1,5.1
			c0,1.3,1.1,3.2-1,3.9c-3.6,0.9-2.5,3.1-6.9,3.2C124.9,161.6,124.3,160.7,126.2,159.9 M135.5,158c0.4-1.3-0.5-2,0.1-4.9
			c0.2-1.2,0.6-2.6,1.4-3.8c0.3,8.4-0.4,6.6-0.7,8.4c-0.1,1.2,0.6,2.1,1.3,3.2c-1.8-0.1-3.3-0.9-4.5-1.3
			C133.9,159.1,135.1,159.1,135.5,158 M137.3,159c-0.2-0.7,0.1-1,0.9-0.7c0.8,0.3,1.8,1.3,1.8,1.3c-0.4,0.7-0.9,1-1.6,1.4
			C138.1,160.7,137.4,159.5,137.3,159 M137.6,157.2c0.9-2,0.4-2.8-0.1-14.8c0-0.5,0.1-1.4,0.2-2.4c0.6-1.3,0.8-2.9,0.8-3.9l2-0.7
			c-0.2,2.7,0.5,5,0.7,7c-0.3,1.1-0.5,2.2-0.6,3c0,2.8,2,4,1.2,10c-0.4,3.7,3.1,2.1,4.2,3.9c0.2,0.3,0.8,0.7,1.1,0.9
			C140.6,160.5,140.8,158,137.6,157.2 M143.1,139.9c-0.6-0.2-0.9-0.4-1.4-0.6c-0.2-1.3-0.6-2.9-0.3-4.3c0.6-0.3,0.7-0.5,1.4-0.6
			C142.7,136,142.6,138.4,143.1,139.9 M143,141.9l-1.3,0l0-1.7c1.4,1,3.6,0.1,5.4,0.5l-0.2,2C145.5,143.2,144.8,141.8,143,141.9
			 M143.5,134.3c0.4,0,1.2,0,1.5,0.1c0.3,1.1,0.1,4.5,0.1,5.5c-0.7,0.1-1.4,0.1-1.4,0.1C143.6,138.5,143.4,135.9,143.5,134.3
			 M147,139.8l-1.1,0.1c0.3-1.8,0.4-3.7,0.1-5.4c0.6,0.2,1.3,0.4,1.9,0.9C147.8,136.5,148,138.2,147,139.8 M138.6,134.4
			c-2.5-0.1-3.6-2.7-9.4,0.3l0-3.9c5.1-0.6,6.9,1.2,11.2,1c2.9-0.1,6.1-1.1,9.9,0.1L150,134C141.8,132.6,141.6,134.4,138.6,134.4
			 M135,130.3c-2-0.5-4.5-0.4-5.8-0.6c0,0,0-3.4,0.2-5.9c1.6,0.9,5.5,3.1,9.1,3.7c3.1,0.5,7.1-0.8,10.1-0.4l1.3,3.5
			C144.8,129.8,140.7,131.7,135,130.3 M144,108.1c0.5-0.1,1.1-0.3,1.5-0.7c0.1,0.5,0.3,1.1,0.5,1.6c-1.9,0.4-3.5,1.1-5.4,2
			c-0.2-0.6-0.5-1.5-0.6-2.2c1-0.1,1.9,0,3-0.5c-0.6-2.1-1.2-3.9-1.5-6.1c1.5-0.2,2.5,0.9,3,2.4C145.1,107,143.6,106.9,144,108.1
			 M143.4,98.1c-0.4,0-1.7-0.3-1.6-3.2c0.5,0.1,1.5-0.2,2-0.8C143.6,95.2,143.4,96.6,143.4,98.1 M143.4,99.5
			c0.2,0.8-0.3,1.6-1.3,1.9c-1.7,0.4-2.2-0.2-2.4-1c-0.2-0.8,0.2-1.8,1.3-2.1C141.9,98.1,143.1,98.3,143.4,99.5 M138.7,105
			c-1.8-0.3-2.4-1.8-2.2-3.3c0.8,0.1,2.1,0.1,2.6-0.9c0.1,1,1,1.3,1.7,1.4C140.8,102.8,141.1,105.2,138.7,105 M139.1,98
			c-2.5-0.1-2.2-2.6-2.3-3.3c1.1-0.1,1.6-0.5,2.2-1.3c0.3,0.9,1.2,1.5,2.2,1.5C141.2,95.8,141.6,98,139.1,98 M139,98.7
			c0,1.1-0.9,2.6-2.9,2.2c-2.1-0.4-2.3-1.9-2.2-2.9c0.9,0,1.7-0.5,2.3-1.5C136.4,97.6,137.5,98.7,139,98.7 M135.7,101.5
			c0,1.1-1.6,2.1-3,0.7l0.8-2.9C133.7,100.6,134.7,101.4,135.7,101.5 M130.9,99.6l-0.1-3l3.6-2.5C133.8,96.7,132.9,98.7,130.9,99.6
			 M134,103.6c0.8,0.1,1.3-0.2,1.6-0.5c0.1,0.5,0.9,2.3,2.5,2.7c1.6,0.3,2.2-0.2,2.9-0.8l0.5,2.1c0,0-0.4,0.2-1.2,0.3
			c-1.5,0.1-4.3-0.7-6-3.1c-0.6,0.2-1.8,0.5-2.2,0.2l0.4-1.7C132.9,103.2,133.3,103.6,134,103.6 M137,110.5
			c-1.9-0.5-1.2-2.7-1.1-3.7c0.9,0.6,2,1.1,3.4,1.3C139.4,109.5,139.3,111,137,110.5 M134.2,105.2c0.4,0.7,0.6,0.8,1.3,1.3
			c-0.3,2.1-1.7,2.1-2.6,1.3c-0.9-0.7-1-1.6-0.8-2.7C132.5,105.4,133.6,105.5,134.2,105.2 M142.9,111.4c0.2,0.4,0.9,2.4,1.2,3.3
			c-4.7,0.9-9.6,0.5-13.4-4.8l0.6-3.1C134.1,111,138.5,112.7,142.9,111.4 M139.1,120.1l0.2-4.3c0,0,1.5,0.2,2.7,0l0.1,4.5
			C141.1,120.2,139.8,120.2,139.1,120.1 M144.1,121.1l0.4,5.3c-1.8,0.3-3.6,0.3-3.6,0.3l-0.1-5.7C142,121,143,121,144.1,121.1
			 M133.1,119.3c0.8,0.4,2,1,3,1.2l-0.5,5.4c-1.7-0.5-3-1.5-3-1.5L133.1,119.3z M132,117.8l0.7-4.5c0,0,1.4,1.2,2.3,1.6
			c0,0.1-0.6,4.3-0.6,4.3C133.2,118.7,132.6,118.3,132,117.8 M135.2,119.4l0.6-4.3c0,0,1.4,0.6,2.7,0.7l-0.3,4.3
			C137.4,120,136.1,119.7,135.2,119.4 M136.8,120.7c1.1,0.2,1.9,0.3,3.2,0.3l-0.1,5.7c-2.3,0-3.5-0.6-3.5-0.6L136.8,120.7z
			 M130.9,111.7l1.2,1.2l-0.7,4.5c-0.6-0.3-0.8-0.5-1.3-0.9C130.3,114.4,130.9,111.7,130.9,111.7 M132.3,118.9l-0.6,5.2l-2.2-1.4
			c0,0,0.1-2.9,0.4-5.3C130.7,117.9,131.7,118.5,132.3,118.9 M145.4,126.4l-0.5-5.2c0,0,0.8-0.1,1.5,0.1l1.9,5
			C148.2,126.3,147.1,126.2,145.4,126.4 M143,120.3l-0.3-4.6l1.7-0.2l1.7,4.9L143,120.3z M143.4,110.4c2.8-0.3,3,0.5,4,3.3l-2.5,0.9
			L143.4,110.4z M144.8,89.4c-1.8,0.4-2.3-1.2-2.5-2c1.4-0.4,2.6-1.1,3.5-2.3C146.8,86.3,146.4,88.9,144.8,89.4 M142.9,93.8
			c-0.8,0.6-3.4,1-3.4-1.9c2.6-0.1,2.8-2.6,2.8-2.6C143.5,89.6,145.3,92,142.9,93.8 M138.5,90.9c-1.7-0.4-1.7-2.7-1-3.5
			c1.3,0.5,2.2,0.5,3.9,0.2C141.8,89.5,141,91.5,138.5,90.9 M136.1,94.5c0.1,0.8-0.8,2.7-1.9,2.6c0.3-0.9,0.7-2.2,0.9-3.1
			C135.5,94.3,135.8,94.4,136.1,94.5 M134.6,93.1c-1.5,1-2.2,1.6-3.8,2.6l-0.2-2.8l4.1-2.7C134.8,91.2,134.6,92.4,134.6,93.1
			 M128,87.6c-0.2,3.1-0.8,11.9-0.8,11.7c-0.2,2.2-4.5,2.6-3.7-6.9c0.2-2.7,0.9-5.5,1.8-8c0.6,1.1,1.2,1.6,2.4,2.1
			C128.2,86.7,128,87,128,87.6 M125.2,81.6l-4.4-3.5V78l2.8-1.9c1.5,0.2,2.8,0.2,4.9,0.1l-0.1,1.4C127,78.6,126,80.1,125.2,81.6
			 M111.6,83.9c-0.1-0.1-0.4-0.1-0.5,0l-1.3-1l1.5-2.9c0.2-0.3,0.4-0.2,0.5,0.1l1.1,3.1L111.6,83.9z M93.6,83.2c0,0-0.3-0.1-0.5,0
			l-3.4-2.7c1.4-2.5,5.9-6.5,7.3-7.2l4.8,3.8l0,0.2L93.6,83.2z M93.6,84.2l8.2,6.5l-0.7,0.5c-0.3-0.6-0.9-1.1-1.8-1.2
			c-0.2-1.2-1.1-1.9-1.9-2.4C97,87.9,96,88.8,95.9,90c-0.9,0.1-1.4,0.6-1.8,1.2c-0.8-0.7-1.7-0.6-2.3-0.4c-0.9-0.8-1.8-1-2.6-1
			c-0.5,0.9-0.6,1.8-0.3,2.9l-0.5,0.5l-3.6-2.9c0.1-0.1,0-0.3,0-0.3l8.3-5.9C93,84.2,93.4,84.3,93.6,84.2 M89.9,93
			c-0.2-0.4-0.6-1.5-0.2-2.2c0.6-0.1,1.3,0.5,1.7,1.3c1-0.8,1.8-0.8,2.2-0.1c0.5,0.9-0.2,1.9-1.4,1.6c1,1.9,4.4,1.4,4.5-0.8
			c-1.6,0.6-2-0.1-2-0.8c0-0.7,0.9-1.4,1.9-1.2c0-0.7,0.1-1.5,0.7-1.9c0.5,0.2,1,1,0.9,1.9c1-0.2,1.8,0.1,1.9,0.8c0.1,0.8-0.5,2-2,1
			c0.2,1.6,1.1,2.1,2.2,2.2c1.5,0,2.1-0.5,2.3-0.9c-0.8,0.4-2-0.3-1.7-1.3c0.4-1.3,1.7-1,2.3-0.3c0.3-0.4,1-1.1,2-0.9
			c0.1,0.8-0.1,1.5-0.4,2c1.2,0.4,1.1,1.6,0.8,1.9c-0.8,0.7-1.7,0.2-2-0.4c-0.6,0.8-0.8,1.2-1.1,2.2c-3.5-0.6-7.6-0.1-11,0.3
			c0-1.1,0.1-1.7-0.4-2.7c-0.2,0.6-1.3,1.1-2.1,0.3C88.4,94,89.4,93.3,89.9,93 M91,103.5c0.1,0.8-0.8,2.5-2.5,3.1
			c-1.2-0.9-2.3-1.8-3.9-3.1l0-0.1l5.5-4C90.1,101.1,91,102.7,91,103.5 M89.3,107.8c5.6-5.7,0.9-5.2,2.2-9.8l0.7-0.1
			c-0.1,0.4-0.2,1.1-0.2,1.1c0.3-0.4,0.5-0.6,1-1.2l0.9-0.1c-0.6,1-1,1.8-1.1,3.2l0.4-0.1c0.6-2.1,1.5-2.9,3.2-3.4
			c0.9-0.2,1.1,0,0.6,0.7c-0.8,1.1-1.1,2.4-1.1,3.4c0,1.3,0.5,2,0.1,2.4c-0.6,0.7-1.7,0.6-2.7,1.3c-1,0.7-0.7,2.1-0.4,4.7
			c0,0,2.5,1,3.1,4.9c0.6,3.9-3.2,6.2-5.7,1.8c-1.3-2.1-0.3-6.3,1.3-6.9c0-0.9,0-1.4,0-2.7c-2.8,3.5-3.6,6.6-2.8,9.1
			c0.7,2.3,1.3,2,2.8,5.4l-4.3-3.4c0.5-2.8,1-7.1,1-10.6c-2.7-0.1-5.9-0.4-8.7-0.7l4.3-3.1c0.2,0.1,0.5,0,0.5,0L89.3,107.8z
			 M91.1,122l-7.4,5.2c1.2-2.3,2.5-5.1,3.3-8.4L91.1,122z M82.9,126.7c-0.9-0.5-2.2-0.9-3.1-1.2c0.8-0.1,2.9-0.3,3.8-0.2
			C83.3,125.8,83.1,126.2,82.9,126.7 M82.4,127.5c0,0-0.7,1.2-1.2,1.7c-0.3-1-1.1-2.1-1.7-3.1C80.4,126.4,81.6,126.8,82.4,127.5
			 M74.9,131c0.4,0.6,1.3,2,2.4,2.7l-2.5,2.2C74.9,134.5,75.1,132.6,74.9,131 M83.2,128.3l7,5.5l-0.3,0.7l-7.5,5.4
			c0,0-0.3-0.1-0.6,0l-5.4-4.2C79,133.7,81.1,131.4,83.2,128.3 M82.7,140.3l6.8-4.9c-1.5,3.8-2.9,8.1-2.9,8.1l-3.9-3L82.7,140.3z
			 M91.4,133.9c0,0-0.3,3.8-0.4,5.1c-1.2,3.4-2.9,8.6-4.7,13.2c-0.5,1.4-1,1.2-0.8-0.2C86,148.6,89.1,138.9,91.4,133.9 M90.9,153.1
			c-1.2,0-2.6-0.9-3.8-0.4c0.8-2,3.6-10.2,3.8-10.7C90.8,147.5,90.9,151,90.9,153.1 M91,154.2c-1.5,0.2-3.5,0.2-4.3,0.1
			c-0.1-0.6,0.3-0.8,1.1-0.8C89.1,153.6,90.5,154.1,91,154.2 M86.2,155.1c3.4,0.4,9.6-0.3,11.7-0.5c0,0.8-0.1,3.1-0.6,4.5
			c-2.7-0.3-7.5-0.6-7.5-0.6c1.1,1,1.8,2.5,2.8,2.9c1.3,0.5,1.2,1.6,0.8,1.6c-5.7-0.1-4.1-1.7-6.8-3.3
			C83.3,157.8,83.3,154.7,86.2,155.1 M148,155.2c-1.4-0.9-2-1.8-1.5-4c1.3-4.7,1.2-5.8,1.1-7.9c0.1-0.5,0.3-2.2,0.4-3.2
			c0.4-1.1,0.7-1.1,1-4.4c-0.1,0,0.9-0.5,0.9-0.5l-1.8,15.8c-0.2,1.6,0.1,2.1,1.3,2.7l4.8,2.1c1.3,0.6,1.9,0.9,2.4,2l1.2,3
			c0,0,0.5,1.3,0.7,1.9C158.5,162.8,153.5,158.6,148,155.2 M155.4,145.9l5.5,4.4l0,0.2l-3.7,2.6l-1.9,0L155.4,145.9z M145.2,115.2
			c1.6-0.3,2.6,0.4,3.3,2.3c3.2,8.5,8,21,9.6,26.9c0.5,1.5-0.6,1.9-1.2,0.5C154.5,139.9,149,126.2,145.2,115.2 M155.9,94.7l5.1,3.7
			l0,0.2l-4.8,3.4C156.2,99.5,156.2,97.6,155.9,94.7 M156.5,133.1l4.6,3.6l0,0.2l-3.4,2.3C157.2,137.6,156.4,134.9,156.5,133.1
			 M158.8,123.8l-2.3,1.6c-0.1-6-0.1-11.3-0.2-17l0.8,0.5C157.1,115.5,157.3,119.5,158.8,123.8 M158.9,119c0.7-0.1,1.1-0.2,1.6-0.2
			l2.8,2l0.9,0c0.1,0.8,0.4,1.4,0.7,2c0.3-0.1,1-0.4,1-0.4c0.5,0.9,1.1,1.6,1.6,2.3c-0.5,0.3-1.5,0.5-1.6,1.6
			c-0.1,1.4,1.7,3,0.8,3.4c-0.4-0.3-0.6-0.4-1-0.7c0,0,0-1.4-1.4-1.9c-0.1,0.7,0,1,0,1.2c-1.1-0.3-1.5-0.1-2,0.3
			c0.6,0.7,1,0.8,1.6,1c-0.4,0.2-0.6,0.4-0.7,0.8c-2.7-4.1-4.2-8.3-4.8-13.3c0.4,0.2,0.3,0.3,0.7,0.5c0.5,0.1,0.8-0.1,0.9,0.2
			C159.5,117.8,158.8,118.1,158.9,119 M164.2,119.9l-0.9,0l-2.7-1.7c0,0-0.1-0.6-0.3-1.1c0.9,0.3,2.4,1.5,2.4,1.5l1.6,0
			C164.1,119,164.2,119.9,164.2,119.9 M164,113.9c0.6,0.8,0.9,1.2,1.2,2.2l0.7,0.4c-0.4,0.3-1,0.9-1,0.9
			C164.5,115.9,163,115.6,164,113.9 M167.1,131.4c-0.7-0.5-1.5-1.5-3.1-1.1c0.3-0.5,0.9-0.7,1.3-0.8c0.5,0.2,1,0.7,1.4,1
			c0.6-0.4,0.9-1.1,0.7-1.7c-0.2-0.9-2.2-3.3,0.6-3.3c0.3,0.3,0.5,0.6,0.7,1C167.6,128.6,170.3,128.9,167.1,131.4 M166.5,121.9
			l0.7-0.5c0.9,0.5,2.2,1.1,3.1,1.3c0,0.8,0.1,1.4,0.3,2.1l-1.2,1C168.4,124.5,167.3,123.2,166.5,121.9 M156.5,132.5l0.1-6.5
			l2.4-1.7c1.5,3.7,2.9,6.4,6.1,9.8l-3.2,2.2c-0.1-0.1-0.2-0.1-0.4,0L156.5,132.5z M163.8,131.1c0.2-0.2,1.6-1,3.3,1.3
			c0.5-0.7,1.5-1.5,2.1-2c2.2,2.9,1,3.9,1,3.9c-1.1-0.7-1.8-0.2-2.1,0.3c0.3,0.3,1.2,0.5,1.2,0.5c-0.5,0.2-0.9,0.4-1.4,0.4
			C167,134.7,165,132.6,163.8,131.1 M170.7,135.6c1.2,0.4-0.7,1.3,0.7,2.1l-0.4,0.4c-0.7-0.5-1.5-1.1-2.1-1.6
			C169.4,136.6,170.2,136.7,170.7,135.6 M173.1,117.8l-0.7-0.9c-1.2,0.6-1.8,1.5-1.3,4.9c-1.2,0.1-2.7-0.7-3.8-1.3
			c-0.6,0.3-1.1,0.6-1.9,1c-0.9-2,0-3.8,0.9-4.4c2.5-1.6,4.5,0,5.4-2c0,0,0.1-0.3,0.1-0.7c0.1-1.4-0.5-2.3-3.2-2.3l0-0.7l1.6,0
			l0.7-0.6l1.9-0.1l0.7-0.7C173.6,110,175.9,115.5,173.1,117.8 M172.7,110.1l-0.6-0.9l-0.5,1l-0.9-0.9l0,1l-0.6,0.6l-1.5,0
			c-0.3,0-0.6,0.1-0.6,0.5l0,1.3c1.4,0,3.4-0.1,3.2,1.7l-0.3,0c-0.6-2.1-3.5-0.6-4.3-1.4l0,0.6c0.4,0.4,0.7,0.3,1.3,0.2
			c0.9,0,2.1-0.3,2.3,0.6l-1.4-0.1l0,0.7c0,0,1.5,0.1,2.2,0.2c-0.6,0.9-2.2,0.3-4.4,0.9l-0.8-0.5c-0.2-0.9-1.2-2.1-1.2-2.1
			c0.4-0.6,0.4-1.1-0.5-2c-0.1,0.6-0.2,0.8-0.4,1c-0.6-0.8-1.2-0.8-2-0.4c0.3,0.5,0.3,0.8,0.5,1.1c0.3,0.3,1.2,0.5,1,0.8
			c-0.4-0.2-1.2-0.1-1.7,0.6c0.8,0.1,0.7,0.5,1.6,0.4c0.1,1.6,1.1,1.1,1.3,2.7l-1.4,0c-1.2-1-1.8-1.2-1.8-1.2
			c-0.1-1-0.5-1.4-1.4-1.6c0,0,0.1,0.8,0.2,1.1c-0.3-0.1-0.7-0.4-1.4,0.2c-0.2-2.4-0.2-7-0.2-7l15.2-0.2L172.7,110.1z M157.3,108.3
			l-1-0.5l0-5.2l5.1-3.6c0.1,0,0.3,0.1,0.4,0l8.3,6.1c0,0,0,0,0,0.1l-3.9,2.9L157.3,108.3z M161.3,98l-5.4-4l-0.3-3.2l6.9-5
			c0.1,0,0.3,0,0.4,0l7.8,5.7l0,0.1l-8.8,6.3C161.7,97.9,161.5,97.9,161.3,98 M155.5,90.2c-0.2-2.3-0.6-6.4-0.6-6.4
			c-1.8,0.7-4,2.1-5.5,3.2c0,0-1.2-0.6-2.3-2l7.1-5.1c0.1,0.1,0.4,0.1,0.5,0l7.3,5.4l0,0.1C162.1,85.5,155.5,90.2,155.5,90.2
			 M154,79.4l-7.2,5.1c-0.2-0.3-0.9-1.3-1.2-2.2c2.4-1.2,4-2.7,4.8-5.7L154,79.4L154,79.4z M145.3,81.3c-0.1-0.6-0.2-1-0.3-1.8
			c0.6-0.4,1.2-0.9,1.6-1.5c0.2-0.4,0.2-0.5-0.4-0.9c-0.7-0.5-0.1-0.7-0.1-0.7c1.2-0.8,1.2-1,1-2.5c-0.2-0.7-0.3-1.3-0.4-1.8
			c0.5-1.1-0.4-1.3-0.3-1.9c0.1-1.9-0.4-2.5-0.8-2.8c-1.2-0.9-2.4-0.5-3.7-0.7c-0.2-2.1-3.4-2.1-4-0.2c-0.8,0.1-1.3,0.1-2.8,0.6
			c-0.8,0.3-1.5,0.8-1.7,1.9c-0.3,1.8-0.4,1.6-0.7,2c-0.3,0.7-0.1,1.4,0.6,1.6c0,2.3-0.4,2.6,0.6,3.8c-0.5,0.6-1,0.9,0.1,1.8
			c0.8,0.5,1.6,0.4,2.3,0.3c0.2,0.3,0.3,1,0.6,1.4c0.7,0.8,2.6,1.9,5.1,0.3c-1.4,2.5-5,1.2-5.9,0.5l-0.3,0.7
			c-3.3-1.7-4.9-5.4-4.4-9.6c0.5-4.2,4.4-7.3,8.6-7.4c6-0.2,9.8,4.9,9.8,9.2C149.8,79.1,146.8,80.6,145.3,81.3 M143,72.9
			c-0.4-0.3-0.1-0.6,0.3-0.5c0.6,0,1.5-0.1,2.7,0c0.1,0.3,1.1,2.8-0.3,3.4c0,0-0.4,0.2-0.7,0.3c-0.3,0.1-0.8,0.3-0.1,0.9
			c0.2,0.2,0.7,0.6,0.9,0.8c-0.5,0.7-1.5,1.1-2.5,1c0.1-1,0.3-2.6,0.7-2.9C145,75.2,143.4,73.2,143,72.9 M134.1,72.6
			c0.4,0.1,1,0.1,1.3,0.2c-0.2,0.9-0.7,2.2,0,3.6c0.3,0.5,0.4,0.4,0.6,0.2c-0.1-0.3-0.5-1.6,0.7-1.6c1.6,0,2.1-0.2,2.1-0.2
			c0,0.1,0-0.7-0.1-1.1c-0.3-0.7-1.6-0.8-2.6-0.8c0-0.8,0.8-1,1.6-1.1c0.9-0.1,4.1,0,4.1,0.9c-1.4,0.2-2,0.6-2,1.5
			c0,0.9,0,1.4,0.1,2.3c-0.4,0-1.6,0-1.6,0c-0.2,0.5-0.1,1.9-1.2,1.8c-0.4-0.1-0.5-0.4-0.8-0.8c-0.5,0-1.2,0.2-1.6,0.1
			c-0.5-0.1-0.8-0.6-0.5-0.9c0.1-0.1,0.3-0.2,0.5-0.4C134,75.5,133.8,75.6,134.1,72.6 M133.8,69.8c0.1-2.5,2.5-2.5,4.7-2.6
			c-0.1-0.9,0.5-1.4,1.4-1.4c1.3,0,1.3,1.2,1.3,1.6c1.4,0.2,3.5-0.4,4.2,1c0.4,0.8-0.1,2,0.3,2.5c0.4,0.4,0.3,0.9-0.2,0.9
			c-1,0-0.5-0.3-3.5-0.3c-2.2,0-2.8-0.3-4.5-0.3c-1.3,0-2.2,0.6-3.2,0.5l-0.8-0.1c0-0.2,0-0.3,0-0.5
			C133.9,71.2,133.8,70.4,133.8,69.8 M142.6,74c-0.4,0.7-1.9,0.8-2.2,0.2C140.5,73.6,142,73.3,142.6,74 M136,74.3
			c0.5-1,2-0.7,2.1-0.1C138.1,74.8,136.5,74.9,136,74.3 M140.1,77.7l-1.6,0c0.1-0.5,0.1-0.7,0.9-0.6
			C139.7,77.2,140.1,77.3,140.1,77.7 M138.5,78.3c0.4,0,1.2,0,1.7,0c0.2,0.4,0.4,0.3,0.5,0.6c0.1,0.4-0.1,0.6-0.4,0.7
			c-0.5,0.1-1.3,0.1-1.7,0c-0.4-0.1-0.6-0.3-0.6-0.6C137.9,78.6,138.3,78.7,138.5,78.3 M140.5,76.5c-0.2-0.8-0.2-1.6,1.4-1.5
			c1,0,1.5,0.1,1.3,0.9c-0.3,1.2-0.4,1.6-0.8,2.1C141.7,78.6,140.9,78,140.5,76.5 M136.8,82c4.1,1.9,6-1,6.4-2.4l0.9,0
			c0.1,2,0.4,3.3,1.3,4.7c-1.5,2-5.9,4.1-10.1,1.1C135.7,84.6,136.2,83.4,136.8,82 M136.6,87.1c0,1-0.6,2.1-1.4,2.3
			c-0.2-1.1-0.5-1.9-1-2.9l0.6-0.6C135.4,86.5,136,86.8,136.6,87.1 M134.6,89.6c-1.2,0.5-2.8,0.7-3.6-1.1c0.8-0.4,2-1.2,2.5-1.5
			C133.9,87.4,134.3,88.5,134.6,89.6 M132.7,90.6l-3.8,2.4l0.1-3.3l1.3-0.7C130.8,90,131.6,90.6,132.7,90.6 M128.9,69.5l-0.3,5.1
			C127,73.9,126.8,69.9,128.9,69.5 M128.9,68.1c-2.1-0.4-1.9-4.4,0.2-4.6L128.9,68.1z M126.7,65.8c0,1.8,1,2.6,2,3
			c-1.1,0.3-2.1,1.8-2.1,3c0,1.4,0.4,2.8,1.8,3.3c-2.3,0.3-7.3-0.2-9.6-0.9c0.2-0.4,0.5-0.5,1.9-0.4c0.5,0,1,0,1.4,0.1
			c1,0.1,1.7,0.1,2-0.4c0.4-0.7-0.3-1.4-1.1-1.1c-0.6-0.6-0.9-1.4-1.1-1.7c-0.7-1.1,0.2-1.5,0.8-1.6c1.1,0,2.3,0.4,3.3,1.8
			c0.4-0.4,0.1-0.7-0.1-1.3c-0.3-0.9,0.4-0.6-0.3-1.7c-0.3-0.4-0.5-0.6-0.9-0.7c-1.2-0.2-0.6,0.5-1.9,0.6c-1,0.1-1.4-0.4-0.8-1.2
			c0.2-0.3,0.8-1.2,1.4-1.7c0.5,0.5,1.4,0.3,1.4-0.4c0.1-0.8-0.8-1-1.8-1.1c-0.8,0-1.6,0-2,0c-1.5,0-1.7-0.3-1.7-0.7
			c2.2-0.1,6.8-0.1,9.8,0.1C127.9,63.1,126.7,64.2,126.7,65.8 M112.1,71.4c0,0,2-1.9,4.7-2.1c1,0.1,3.3,0.2,3.3,0.2l0.4,0.8H117
			l0,0.6l3.9,0l0.4,0.8c-3.9,0-5.9-0.3-6.8,1.3c-1.1-0.3-2.7-0.8-4.5-1.4c-0.8-1.2-0.6-3.4,1-3.3c0,0,2.9,0.2,4.3,0.6
			c-1.9,0.6-3.4,2-3.4,2L112.1,71.4z M117.8,72.3l3.7,0l0.5,0.8c-3.4-0.1-3.9-0.3-4.5,0.6l-1.9-0.5
			C116.1,72.5,116.8,72.4,117.8,72.3 M122.7,64.1l-0.5,0.7c-3.3,0-5.7,0.2-6.1-1.7l1.8-0.1C118.1,64,118.8,64.1,122.7,64.1
			 M121.7,65.3l-0.5,0.6l-4.2,0l0,0.6l3.6,0l-0.6,0.7c0,0-1.2-0.1-3.1,0c-2.4-0.8-4.5-3-4.5-3l-0.4,0.6c0,0,1.2,1.5,3.3,2.6
			c-1.6,0.2-4.4-0.1-4.4-0.1c-1.9-0.2-2.1-2.4-1.2-3.3c2.5-0.6,4.5-0.8,5.1-0.9C115.9,65.7,117.7,65.3,121.7,65.3 M122.9,75.9
			l-2.3,1.6c0,0-0.2-0.1-0.4,0l-1.3-1c0.3-0.3,0.1-0.5-0.2-0.5c-1.4-0.2-1.7-0.1-3-0.5c0,0-0.5-0.3-0.4,0.5c0,2.5-0.2,3.8-1.1,5.8
			c-0.2,0.5-0.6,0.5-0.8-0.1c-0.6-2.2-0.9-4.2-0.8-6.6c0,0,0.1-0.6-0.5-0.4c-0.6,0.2-1.1,0.3-2,0.5c0.4,0.9,0.6,1.7,0.8,2.4
			c-0.4,1.4-0.7,2.2-1.2,3.3c-0.2,0.5-0.6,0.5-0.7,0c-1.5-6-0.8-6.8-0.3-7.1c0.4-0.3,0.3-0.6-0.1-0.6c-0.6,0.1-3-0.3-3.9-0.6
			c-0.5-0.2-0.6,0.2-0.3,0.5c0.6,0.5,0.8,0.9,1.1,1.6l-2.9,2.1c-0.2-0.1-0.5,0-0.5,0L97.5,73c2.6-1.5,5.5-2.7,9.6-1.4
			C116,74.5,117.9,75.2,122.9,75.9 M108.6,71.1c-0.7-0.2-1.4-0.4-2.1-0.6c0.8-0.9,2.3-2.4,2.6-2.3C109.5,68.5,107.9,70.3,108.6,71.1
			 M108.2,67.4c-0.2,0.2-3.9-0.3-4.5-0.3c-0.8,0-1.2,0.4-1.1,0.8c0,0.4,0.5,0.8,1.1,0.7c0.6-0.1,4.3-0.8,4.6-0.5
			c0.2,0.2-2.3,1.4-3,2c-2.5-0.7-5.2-1.2-7.4-1.3c2.6-1.6,5.2-2.5,7.5-3.4C105.7,66.1,108.4,67.2,108.2,67.4 M101.9,70.3
			c-4,0.9-7.7,3.3-12.1,8.3C91.7,73.4,92.9,68,101.9,70.3 M88.5,79.6l-3.7-3l7.1-4.9C90.4,73.7,89.3,77.4,88.5,79.6 M88.3,80.1
			c-0.8,2.8-1.4,4.6-2,7l1.2-1.1c0.6-1.8,1-3.2,2-5l3.4,2.7l0,0.1l-8.3,5.9c-0.3-0.2-0.6,0-0.6,0L75.5,83l8.9-6.1L88.3,80.1z
			 M84,90.7c0,0,0.2,0.1,0.4,0l3.7,2.9c-0.9,1.5,0.8,3.2,2.3,2.5c0,0,0.2,0.7-0.2,2.5l-5.8,4.2c-0.2-0.1-0.5,0-0.5,0l-7.9-6.3l0-0.2
			L84,90.7z M83.5,103.3l0,0.2l-4.8,3.4c-2.4-0.2-5.1-0.5-6.8-0.7l-4.5-3.6l0-0.1l7.7-5.5c0,0,0.2,0.1,0.5,0L83.5,103.3z M71,106.2
			c0,0-5-0.6-7.4-1l3-2.2c0.1,0,0.3,0,0.5,0L71,106.2z M64.3,106.3c7.3,1,15.3,1.8,22.8,2.4c-0.3,6.4-0.9,11.1-3.1,15.5
			c-0.6,0.4-4,0.5-5.7,0.6l-0.7-4.3c0.4,0.5,1,0.7,1.5,0.8c0.6,2.8,3.3,2.5,3.9,2.2c-0.6-1.1-0.9-2.5-1-3.6c0.6,0.5,1.8,0.7,2.4,0.6
			c-0.3-0.9-0.7-2.4-0.7-3.6c0.4,0.4,1.3,0.5,1.8,0.4c-0.2-2.5,0.2-3.8,0.1-6.2c0-0.7-0.6-1.6-1.8-1.7c-1.2-0.1-2,0.7-2.1,1.5
			c0,0.4,0,1.1,0.2,1.5c-1.4,1.3-3.7,2.4-5.1,2.7c-0.2-0.2-0.3-0.6-0.3-1l1.1,0c-0.2-0.3-0.4-0.7-0.6-1c0-2.3,0.1-3.1-1.8-4.1
			c-0.3-0.2-0.5,0-0.9,0.3c-0.7-0.8-2.3-2.7-3.4-0.7c0.4-0.1,0.7-0.2,1-0.1c0.3,1.9,1.7,3.8,1.6,4.3c-0.1,0.5-0.4,0.8-1,1.4
			c0.3,0,1,0,1,0c-0.1,0.5-0.1,0.6-0.2,1c-1.1,0-4.7-1.2-5.5-3.3c0.4-0.5,0.7-0.6,0.7-1.6c0-0.8-0.6-2-1.7-2.1c-1.1-0.1-2,0.6-2,1.7
			c-0.1,1.5,0.1,4.2-0.4,5.8c0.9,0.1,1.4-0.3,1.9-0.7c-0.1,1.8-0.2,3.6-1.3,5.3c0.9,0.1,1.6,0,2.2-0.1c-0.2,0.9-0.5,1.9-1.3,2.7
			c1.3,0.5,3.2-0.2,4-1.8c0.9-0.1,1.6-0.4,2-1c0.2,0.7-0.8,3.9-1.3,4.5c-1.8,0.1-3.7-0.6-5.6-1.4C63.6,118.8,62.9,113.7,64.3,106.3
			 M68.8,125c-0.5,0.1-2.3,0.5-2.9,0.6c-0.3-0.4-0.4-0.8-0.5-1.4C66.2,124.2,67.7,124.8,68.8,125 M69.1,125.5
			c-0.8,0.6-1.5,1.6-1.9,2.6c-0.3-0.5-0.6-1-0.9-1.6C67.2,125.9,68.2,125.7,69.1,125.5 M71.8,126.3c0-0.5,0-0.9,0.1-1.4l-0.7-0.2
			l1.3-2.4c0.9,1.2,1.5,3.1,1.4,4.5c-0.6,0-1.2,0.2-1.1,0.7c0,0.5,0.8,0.5,1.1,0.6c0.2,2.5-2.6,1.6-3.3,0.6c-0.5,1.5,1.2,2.1,2.2,2
			c-0.5,1-1.3,2.6-1.3,2.6c-0.7-0.7-2.5-2.7-3-3.4C67.7,125.2,71.2,125,71.8,126.3 M72.2,135.3c0.8,0.6,1.8,1.5,2.5,1.9
			c0.8-0.5,1.2-0.9,1.5-1.1l5.4,4.2l0,0.2l-8.9,6.5c0,0-0.4-0.2-0.6,0l-8.4-5.8L72.2,135.3z M72.9,147.4l9-6.5c0,0,0.3,0.1,0.5,0
			l4,3.1c-0.9,2.9-1.8,6-1.9,9.1l-3.5,0l-8-5.6L72.9,147.4z M83.8,154.4c-2.1,2.2-0.2,4.4,2.6,6.1c1.7,1,1.3,2,2.8,2.4l-2.3,0
			c-3.1-2.8-8.5-8.4-8.5-8.4L83.8,154.4z M84.8,162l1.8,1.7l2.2,0c-1.1,0.5-1.2,1.5-1.2,2.1c-0.3,0-0.6,0.2-1,0.3
			c0-1.5-1.1-2.3-1.8-2.6C84.9,163.1,84.9,162.7,84.8,162 M88.3,166.5c0-0.9-0.2-2.3,1.7-2.4c2-0.1,1.7,1.9,1.7,2.5
			c0.6,0,2.1-0.1,2.1,1.7c0.1,1.7-1.4,1.9-2.2,2c0,0.7,0.3,2.8-1.6,2.8c-1.9-0.1-1.7-1.9-1.7-2.7c-0.3,0-2.7,0.6-2.5-2.2
			C85.9,166.9,87.2,166.4,88.3,166.5 M92.6,171c0.9-0.1,1.3-0.5,1.7-1c0.6,0.5,1.1,0.8,1.9,0.8c0,1,0.2,2.3,1.4,2.8l-6,0
			C92.1,173.2,92.7,172.7,92.6,171 M96.9,170.2c-0.9-0.1-2.2-0.1-2.2-1.8c-0.1-1.8,1.9-1.8,2.5-1.8c0-0.8-0.2-2.6,1.7-2.5
			c1.7,0.1,1.6,2,1.5,2.5c0.7,0,2-0.1,2.2,1.5c0.2,1.8-1.4,2-2.3,2c0,0.8,0.3,2.6-1.5,2.8C97,173.2,96.9,171.3,96.9,170.2
			 M101.2,170.8c0.6,0,1.2-0.1,1.7-0.9c0.4,0.7,1,1.1,1.8,1c0,1.5,0.5,2.5,1.5,2.7h-6.6C100.7,173.2,101.3,172.2,101.2,170.8
			 M105.4,170.3c-0.7,0-2.1-0.1-2.1-1.9c0-1.8,1.8-1.8,2.3-1.9c0-0.5-0.4-2.2,1.4-2.3c2-0.1,1.7,1.9,1.7,2.5
			c0.6-0.1,2.2-0.1,2.3,1.7c0.1,1.8-1.8,1.8-2.4,1.9c0,1.1,0.1,2.6-1.5,2.7C105.3,173,105.4,171,105.4,170.3 M123.8,174.8l-8.3,5.9
			c-0.2-0.1-0.5,0-0.5,0l-7.2-5.8L123.8,174.8z M122.6,170.2c-0.7,0-2.2,0.2-2.3-1.7c-0.1-1.9,1.7-2,2.3-2c0-0.6-0.1-2.5,1.6-2.3
			c1.7,0.1,1.5,1.9,1.5,2.6c0.8,0,2,0,2.1,1.5c0.1,1.8-1.2,1.8-2,1.9c0,0.6,0.4,2.6-1.5,2.7C122.6,172.9,122.8,170.9,122.6,170.2
			 M126.8,170.9c0.8-0.1,1.1-0.2,1.5-0.8c0.5,0.7,0.9,0.9,1.8,0.8c-0.1,1.4,0.5,2.2,1.7,2.5l-6.3,0.1
			C126.5,173,126.9,171.9,126.8,170.9 M142.9,174.7l-8.2,6c-0.2-0.1-0.4-0.1-0.6,0l-7.7-6L142.9,174.7z M141.3,173.3
			c0.8-0.5,1.4-1.1,1.3-2.5c0.8,0,1.4-0.3,1.8-1c0.4,0.7,0.8,1,1.8,0.9c0,1,0.3,1.9,1.5,2.5L141.3,173.3z M146.8,170
			c-1.4-0.1-2.1-0.2-2.1-1.8c0-1.5,1.3-1.9,2.3-1.9c0-1,0.1-2.2,1.5-2.2c1.5,0,1.5,1.4,1.5,2.3c1-0.1,2.2,0.3,2.2,1.7
			c0,1.4-0.7,1.7-2.1,1.8c0,0.8,0.3,2.7-1.5,2.7C146.9,172.5,146.9,170.7,146.8,170 M150.9,170.6c0.9,0,1.5-0.5,1.7-1
			c0.2,0.5,1,1,2,1c0,1.3,0.4,2,1.3,2.5h-6.2C150.4,172.8,151,172,150.9,170.6 M158.1,153.1l3.1-2.2c0.2,0.1,0.2,0,0.4,0l2.7,2.1
			L158.1,153.1z M161.2,149.9c0,0-4.1-3.3-4.4-3.6c1.3,1,2.6,0,2.6-1c0-1-1.4-5.7-1.4-5.7l3.4-2.4c0.1,0.1,0.3,0.1,0.5,0l8.3,6.6
			l0,0.2l-8.4,6C161.6,149.9,161.3,149.9,161.2,149.9 M162.2,136.9l0-0.2l3.2-2.2c0.9,1.1,3.6,3.5,5.9,5.1c1.5-1.4,4.4-4.7,4.4-4.7
			l3.5,2.6l0,0.2l-8.1,5.7c-0.1-0.1-0.4-0.2-0.6,0C170.4,143.4,165,139.1,162.2,136.9 M172.5,136.9c-0.7-0.8,0.1-2.5,0.8-3.5
			c-0.8-1.1-1.3-2.4-0.9-4.1c0.7,0.1,1.2,1.1,2.5,0.6c0.6-0.2,1.2-0.5,1.9-0.6c-0.1-0.4-0.2-0.7-0.5-1.1c3.9-2.4,2-6.3,1.1-7.7
			c1.7-1.4,3.2-2.8,3.8-5.7c0,0,0.7,0,1-1.4C182,118.5,181.9,127.4,172.5,136.9 M180.3,113c0-0.6,0.3-1.1,0.6-1.1
			c0.2,0,0.6,0.5,0.5,1.2c0,0.6-0.5,1.1-0.7,1.1C180.5,114.1,180.3,113.6,180.3,113 M182.1,112.6c-0.2-0.8-0.5-1.3-1.1-1.8
			c-1.1,0.9-1.8,2.5-0.8,3.9c-0.1,1.1-0.5,2.6-3.2,5c-0.4-0.9-0.8-2.7-0.4-4c1.6-0.8,0.9-2.9,0.1-3.7c-0.7,0.3-1.2,1-1.4,1.9
			c0-1.5-0.6-3.4-1.1-4.9l7.9-0.1C182,109.5,182.1,111.6,182.1,112.6 M167.1,108.2l3.4-2.5c0.1,0.1,0.3,0.1,0.4,0l3.1,2.3
			L167.1,108.2z M170.4,104.6l-8.2-6.1l0-0.1l8.8-6.4c0.1,0.1,0.3,0.1,0.5,0l8.3,6.1l-8.7,6.4C170.9,104.5,170.5,104.5,170.4,104.6
			 M175.2,88.4c-0.6,0.4-3.8,2.7-3.8,2.7c-0.2-0.1-0.3-0.1-0.4,0l-7.8-5.7l0-0.1l6.1-4.4C171.5,83.2,173.4,85.7,175.2,88.4
			 M167.3,78.8c0.6,0.6,1.1,1.1,1.7,1.7l-6,4.3c-0.1,0-0.3-0.1-0.5,0l-7.4-5.4l0-0.1l7.1-5.1C163.9,75.6,165.6,77.2,167.3,78.8
			 M161.7,73.9l-7,5c-0.1-0.1-0.3-0.1-0.4,0l-3.8-2.8c0.3-2.2,0.2-4.1-0.6-6c0,0,2.9-2,2.9-2C156,69.7,159,71.6,161.7,73.9
			 M152.4,67.7l-2.7,1.8c-2.4-4.4-6.9-5.8-9.8-5.7c-4.7,0.2-9.2,3.4-9.3,9.3c0,3.9,1.3,7.1,4.7,9.2c-0.4,1.3-0.9,2.4-1.6,3.1
			c-1.4,1.4-3.3,2.4-4.7,3c0-0.8,0-1.3,0.3-1.8c1.2-1.3,3.4-2.9,2-4.5c0.3-0.6,0.4-1.1-0.2-1.4c0.6-1.1-0.1-1.7-0.3-1.9
			c0.4-1.4-0.6-1.8-1.1-1.7l0.1-1.1c0.3,0,0.7-0.2,0.7-0.7c0-0.4-0.3-0.6-0.6-0.6l0.3-5.4c0.3,0.1,0.7-0.2,0.7-0.6
			c0-0.5-0.3-0.7-0.6-0.7l0.3-4.7c0.4,0,0.7-0.1,0.7-0.6c0-0.4-0.2-0.7-0.6-0.7c0-0.3,0.1-1,0.1-1C138.4,61.8,145.7,64.2,152.4,67.7
			 M130.6,49.2l-0.6,9.6l-0.8-5.4L130.6,49.2z M78.5,79c11.8-11.9,27.4-18.5,44.4-18.5c2.2,0,6.4,0.3,6.4,0.3c0,0.3,0,0.7-0.1,1.1
			c-14.7-0.7-24.3,0.6-38.2,9.7l-16,11.1C76.2,81.4,77.3,80.2,78.5,79 M74.7,83.1l8.9,7l0,0.1L75.6,96c0,0-0.2-0.1-0.5,0l-6.1-4.8
			C70.7,88.4,72.7,85.6,74.7,83.1 M68.8,91.5l6,4.8l0,0.2l-7.7,5.4c-0.2-0.1-0.4-0.1-0.5-0.1l-2.1-1.7
			C65.8,97.2,67.2,94.3,68.8,91.5 M64.4,100.7l2,1.6c0,0-0.1,0.1,0,0.3l-2.8,2c-1.2,5.9-1.8,13.7,1.3,21.4l-4.4,2.9
			C59.8,120.9,60.6,109.9,64.4,100.7 M60.6,129.4l4.5-3c1.9,3.8,4.3,6.3,6.7,8.5l-8.9,6.2C62,138.5,60.9,133.8,60.6,129.4
			 M62.9,141.3l8.9,6.2l0,0.2l-5.1,3.7C65.4,148.6,64.1,145.6,62.9,141.3 M67,151.7l5.1-3.7c0,0,0.4,0,0.6,0l7.5,5.2l-3.3,0l0.1,5
			l-4,2.9C70.7,158.4,68.8,155.3,67,151.7 M73.2,161.6l3.7-2.7L77,166C75.7,164.7,74.3,163,73.2,161.6 M82.2,159.5
			c-1.1,0-1.6,0.5-1.9,1.3c-0.8-0.4-1.6-0.6-2.1,0l0-5.6L82.2,159.5z M78.8,167.1l-0.8-0.8l0-1.5c0,0,0.3,0.4,0.9,0.6
			C78.8,165.9,78.8,166.4,78.8,167.1 M79.9,165.1c-0.6-0.4-2.5-1.1-2.2-2.7c0.7-2.1,2.4-0.8,2.9-0.6c0.6-1.8,1.7-1.7,2.4-1.2
			c1.4,1,0.9,2.4,0.8,3.2c0.7,0.4,2.4,1.1,1.6,2.8c-0.9,1.9-2.5,0.7-2.8,0.5c-0.2,0.6-0.4,2.1-2.4,1.4
			C78.9,167.9,79.5,165.6,79.9,165.1 M81.7,169.4c0.8-0.1,1.1-0.4,1.4-1.2c0.7,0.5,1.2,0.4,1.9,0.1c0,1.2,0.4,3.1,2.6,2.8
			c-0.1,1.7,0.9,2.4,1.4,2.5l-2.1,0C85.7,172.9,81.7,169.4,81.7,169.4 M87.6,174.9l17.5,0l-7.9,5.4
			C93.9,178.9,90.6,177.2,87.6,174.9 M97.7,180.6l8.9-6.1l8.1,6.6c0,0,0,0.2,0,0.2l-4.8,3.4C106,183.9,102,182.5,97.7,180.6
			 M110.6,184.9l4.5-3.2c0,0,0.3,0.1,0.5,0l5.4,4.4C117.8,186,113.7,185.5,110.6,184.9 M121.9,186.1l-6-4.8c0,0,0-0.1,0-0.2l9.3-6.6
			l8.6,6.7c0,0,0,0.1,0,0.2l-6.4,4.7C125.5,186.2,123.6,186.2,121.9,186.1 M128.4,186l5.8-4.3c0.1,0.1,0.3,0.1,0.4,0l3.3,2.7
			C135.5,185,131.4,185.7,128.4,186 M138.5,184.2l-3.6-2.9c0.1-0.1,0-0.2,0-0.2l8.8-6.4l6.5,5.1C146,181.9,142.9,183,138.5,184.2
			 M150.8,179.6l-6.4-5l14.5,0C156.5,176.4,153.1,178.3,150.8,179.6 M159.5,173.2l-1.6,0c1.2-0.7,1.5-1.8,1.4-2.9c0.9,0,2-0.7,2-2
			c0.5,0.4,1.5,0.2,1.9,0c0.3,0.4,0.5,0.7,1,1C164.3,169.3,161.9,171.6,159.5,173.2 M165.8,168.5c-1.4,0.6-1.9-0.8-2.2-1.3
			c-0.6,0.7-2,0.9-2.4-0.7c-0.3-1.7,0.5-1.9,1.2-2.4c-0.2-1.1-0.3-2.6,0.8-3.4c1.2-0.8,1.8,0.6,2,1.3c1-1.1,2.7-1.1,2.8,0.2
			c0.2,1.6-1,2.4-1.6,2.9C166.5,165.7,167.2,167.9,165.8,168.5 M167.3,166.5c0,0,0.1-0.8-0.2-1.4c0.5-0.3,0.7-0.5,1-1l0,1.5
			L167.3,166.5z M169.1,153l-4.1,0l-3.1-2.3c0-0.1,0-0.3,0-0.3l8.6-6c0.1,0.1,0.4,0,0.4,0l8,6.2l-9.7,7L169.1,153z M169.5,165.2
			l-0.2-7.5l3.9,3.2C171.9,162.5,170.8,163.7,169.5,165.2 M173.4,160.5l-3.4-2.8l9.3-6.7C177.3,154.9,175.7,157.4,173.4,160.5
			 M179.5,150.5l-8.3-6.4l0-0.2l8.2-5.8c0.1,0,0.3,0.1,0.4,0l3.4,2.6C182.7,142.9,181.1,147.4,179.5,150.5 M183.5,140.1l-3.2-2.4
			l0-0.2l4.5-3.1C184.4,136.6,184.1,137.9,183.5,140.1 M184.9,133.7l-4.8,3.3c-0.3-0.1-0.4-0.1-0.7,0l-3.4-2.6
			c2.4-3.1,3.3-4.5,5.2-8.8l4.4,3.5C185.5,130.7,185.1,132.7,184.9,133.7 M181.4,125.2c1.3-4.3,2-6.5,1.5-17.4
			c-1.2,0.1-6,0.2-7.9,0.2c0,0-3.4-2.5-3.6-2.7c0.1-0.1,0-0.3,0-0.3l9.3-6.8c3.3,7.7,5.2,16.2,5.2,24.9c0,2.2,0,3.5-0.2,5.5
			L181.4,125.2z"/>
		<path class="st0" d="M90,169.6c0.6,0,1.1-0.5,1.1-1.1c0-0.6-0.5-1.1-1.1-1.1c-0.6,0-1.1,0.5-1.1,1.1
			C88.9,169.1,89.4,169.6,90,169.6"/>
		<path class="st0" d="M140.2,167.2c-0.6,0-1.1,0.5-1.1,1.1c0,0.6,0.5,1.1,1.1,1.1c0.6,0,1.1-0.5,1.1-1.1
			C141.3,167.7,140.8,167.2,140.2,167.2"/>
		<path class="st0" d="M132.3,169.4c0.6,0,1.1-0.5,1.1-1.1c0-0.6-0.5-1.1-1.1-1.1c-0.6,0-1.1,0.5-1.1,1.1
			C131.1,168.9,131.6,169.4,132.3,169.4"/>
		<path class="st0" d="M124.2,167.4c-0.6,0-1.1,0.5-1.1,1.1c0,0.6,0.5,1.1,1.1,1.1c0.6,0,1.1-0.5,1.1-1.1
			C125.3,167.8,124.8,167.3,124.2,167.4"/>
		<path class="st0" d="M115.4,169.6c0.6,0,1.1-0.5,1.1-1.1c0-0.6-0.5-1.1-1.1-1.1c-0.6,0-1.1,0.5-1.1,1.1
			C114.2,169.1,114.7,169.6,115.4,169.6"/>
		<path class="st0" d="M108.2,168.5c0-0.6-0.5-1.1-1.1-1.1c-0.6,0-1.1,0.5-1.1,1.1c0,0.6,0.5,1.1,1.1,1.1
			C107.7,169.6,108.2,169.1,108.2,168.5"/>
		<path class="st0" d="M99.7,168.6c0-0.6-0.5-1.1-1.1-1.1c-0.6,0-1.1,0.5-1.1,1.1c0,0.6,0.5,1.1,1.1,1.1
			C99.2,169.7,99.7,169.2,99.7,168.6"/>
		<path class="st0" d="M164.4,163.2c-0.5,0.1-0.9,0.7-0.9,1.2c0,0.8,0.6,1.2,1.2,1.1c0.6-0.1,0.8-0.6,0.8-1.1
			C165.5,163.6,165,163.1,164.4,163.2"/>
		<path class="st0" d="M82.8,164.6c0-0.5-0.5-1.1-1-1.1c-0.7,0-0.9,0.7-0.9,1.1c0,0.5,0.5,1.1,1,1.1
			C82.5,165.6,82.8,165.1,82.8,164.6"/>
		<path class="st0" d="M156.9,167.1c-0.6,0-1.1,0.5-1.1,1.1c0,0.6,0.5,1.1,1.1,1.1c0.6,0,1.1-0.5,1.1-1.1
			C158,167.6,157.5,167.1,156.9,167.1"/>
		<path class="st0" d="M149.5,168.2c0-0.6-0.5-1.1-1.1-1.1c-0.6,0-1.1,0.5-1.1,1.1c0,0.6,0.5,1.1,1.1,1.1
			C149,169.3,149.5,168.8,149.5,168.2"/>
		<path class="st0" d="M132.7,97c0,0.3-0.2,0.5-0.5,0.5c-0.3,0-0.5-0.2-0.5-0.5c0-0.3,0.2-0.5,0.5-0.5
			C132.5,96.5,132.7,96.7,132.7,97"/>
		<path class="st0" d="M130.6,90.7c0,0.3-0.2,0.5-0.5,0.5c-0.3,0-0.5-0.2-0.5-0.5c0-0.3,0.2-0.5,0.5-0.5
			C130.3,90.2,130.6,90.4,130.6,90.7"/>
		<path class="st0" d="M132.5,93.5c0,0.3-0.2,0.5-0.5,0.5c-0.3,0-0.5-0.2-0.5-0.5c0-0.3,0.2-0.5,0.5-0.5
			C132.2,92.9,132.5,93.2,132.5,93.5"/>
		<path class="st0" d="M98.8,118.6c0,0.3-0.2,0.5-0.5,0.5c-0.3,0-0.5-0.2-0.5-0.5c0-0.3,0.2-0.5,0.5-0.5
			C98.5,118.1,98.8,118.3,98.8,118.6"/>
		<path class="st0" d="M97.6,121c0,0.3-0.2,0.5-0.5,0.5c-0.3,0-0.5-0.2-0.5-0.5c0-0.3,0.2-0.5,0.5-0.5
			C97.4,120.4,97.6,120.7,97.6,121"/>
		<path class="st0" d="M99.7,116c0,0.3-0.2,0.5-0.5,0.5c-0.3,0-0.5-0.2-0.5-0.5c0-0.3,0.2-0.5,0.5-0.5
			C99.4,115.5,99.7,115.7,99.7,116"/>
		<path class="st0" d="M101.5,138.7c0,0.3-0.3,0.6-0.6,0.6c-0.3,0-0.6-0.3-0.6-0.6c0-0.3,0.3-0.6,0.6-0.6
			C101.2,138.1,101.5,138.4,101.5,138.7"/>
		<path class="st0" d="M97.6,138.5c0,0.3-0.3,0.6-0.6,0.6c-0.3,0-0.6-0.3-0.6-0.6c0-0.3,0.3-0.6,0.6-0.6
			C97.4,137.9,97.6,138.2,97.6,138.5"/>
		<path class="st0" d="M105.4,138.7c0,0.3-0.3,0.6-0.6,0.6c-0.3,0-0.6-0.3-0.6-0.6c0-0.3,0.3-0.6,0.6-0.6
			C105.2,138.1,105.4,138.4,105.4,138.7"/>
		<path class="st0" d="M96.2,143.4c0,0.3-0.3,0.6-0.6,0.6c-0.3,0-0.6-0.3-0.6-0.6c0-0.3,0.3-0.6,0.6-0.6
			C95.9,142.8,96.2,143,96.2,143.4"/>
		<path class="st0" d="M108.3,143.4c0,0.3-0.3,0.6-0.6,0.6c-0.3,0-0.6-0.3-0.6-0.6c0-0.3,0.3-0.6,0.6-0.6
			C108.1,142.8,108.3,143,108.3,143.4"/>
		<path class="st0" d="M104.1,143.6c0,0.3-0.3,0.6-0.6,0.6c-0.3,0-0.6-0.3-0.6-0.6c0-0.3,0.3-0.6,0.6-0.6
			C103.8,143,104.1,143.3,104.1,143.6"/>
		<path class="st0" d="M100,143.8c0,0.3-0.3,0.6-0.6,0.6c-0.3,0-0.6-0.3-0.6-0.6c0-0.3,0.3-0.6,0.6-0.6
			C99.7,143.2,100,143.5,100,143.8"/>
		<path class="st0" d="M93.9,137.6c0,0.3-0.3,0.6-0.6,0.6c-0.3,0-0.6-0.3-0.6-0.6c0-0.3,0.3-0.6,0.6-0.6
			C93.7,137,93.9,137.3,93.9,137.6"/>
		<path class="st0" d="M139,123.6c0,0.3-0.3,0.6-0.6,0.6c-0.3,0-0.6-0.3-0.6-0.6c0-0.3,0.3-0.6,0.6-0.6
			C138.7,123,139,123.2,139,123.6"/>
		<path class="st0" d="M135,122.4c0,0.3-0.3,0.6-0.6,0.6c-0.3,0-0.6-0.3-0.6-0.6c0-0.3,0.3-0.6,0.6-0.6
			C134.7,121.7,135,122,135,122.4"/>
		<path class="st0" d="M143.2,123.8c0,0.3-0.3,0.6-0.6,0.6c-0.3,0-0.6-0.3-0.6-0.6c0-0.3,0.3-0.6,0.6-0.6
			C142.9,123.1,143.2,123.4,143.2,123.8"/>
		<path class="st0" d="M141.2,117.9c0,0.3-0.3,0.6-0.6,0.6c-0.3,0-0.6-0.3-0.6-0.6s0.3-0.6,0.6-0.6
			C140.9,117.3,141.2,117.6,141.2,117.9"/>
		<path class="st0" d="M137.6,117.6c0,0.3-0.3,0.6-0.6,0.6c-0.3,0-0.6-0.3-0.6-0.6c0-0.3,0.3-0.6,0.6-0.6
			C137.3,117,137.6,117.3,137.6,117.6"/>
		<path class="st0" d="M134.2,116.4c0,0.3-0.3,0.6-0.6,0.6c-0.3,0-0.6-0.3-0.6-0.6c0-0.3,0.3-0.6,0.6-0.6
			C133.9,115.8,134.2,116.1,134.2,116.4"/>
		<path class="st0" d="M131.3,120.7c0,0.3-0.3,0.6-0.6,0.6c-0.3,0-0.6-0.3-0.6-0.6c0-0.3,0.3-0.6,0.6-0.6
			C131,120.1,131.3,120.3,131.3,120.7"/>
		<path class="st0" d="M144.8,117.9c0,0.3-0.3,0.6-0.6,0.6c-0.3,0-0.6-0.3-0.6-0.6s0.3-0.6,0.6-0.6
			C144.5,117.3,144.8,117.6,144.8,117.9"/>
		<path class="st0" d="M94.4,132.4c0,0.4-0.3,0.7-0.7,0.7c-0.4,0-0.7-0.3-0.7-0.7s0.3-0.7,0.7-0.7C94.1,131.7,94.4,132,94.4,132.4"
			/>
		<path class="st0" d="M96.7,133.5c0,0.4-0.3,0.7-0.7,0.7c-0.4,0-0.7-0.3-0.7-0.7s0.3-0.7,0.7-0.7C96.4,132.8,96.7,133.1,96.7,133.5
			"/>
		<path class="st0" d="M99.2,134.2c0,0.4-0.3,0.7-0.7,0.7c-0.4,0-0.7-0.3-0.7-0.7c0-0.4,0.3-0.7,0.7-0.7
			C98.9,133.5,99.2,133.8,99.2,134.2"/>
		<path class="st0" d="M101.9,134.5c0,0.4-0.3,0.7-0.7,0.7c-0.4,0-0.7-0.3-0.7-0.7c0-0.4,0.3-0.7,0.7-0.7
			C101.6,133.8,101.9,134.1,101.9,134.5"/>
		<path class="st0" d="M104.7,134.5c0,0.4-0.3,0.7-0.7,0.7s-0.7-0.3-0.7-0.7s0.3-0.7,0.7-0.7S104.7,134.2,104.7,134.5"/>
		<path class="st0" d="M107.4,134.4c0,0.4-0.3,0.7-0.7,0.7c-0.4,0-0.7-0.3-0.7-0.7s0.3-0.7,0.7-0.7
			C107.1,133.7,107.4,134,107.4,134.4"/>
		<path class="st0" d="M137.3,112.8c0,0.4-0.3,0.7-0.7,0.7c-0.4,0-0.7-0.3-0.7-0.7s0.3-0.7,0.7-0.7
			C137,112.1,137.3,112.4,137.3,112.8"/>
		<path class="st0" d="M134.9,111.5c0,0.4-0.3,0.7-0.7,0.7s-0.7-0.3-0.7-0.7s0.3-0.7,0.7-0.7S134.9,111.2,134.9,111.5"/>
		<path class="st0" d="M132.9,109.8c0,0.4-0.3,0.7-0.7,0.7c-0.4,0-0.7-0.3-0.7-0.7c0-0.4,0.3-0.7,0.7-0.7
			C132.6,109.1,132.9,109.4,132.9,109.8"/>
		<path class="st0" d="M140,113.4c0,0.4-0.3,0.7-0.7,0.7s-0.7-0.3-0.7-0.7s0.3-0.7,0.7-0.7S140,113,140,113.4"/>
		<path class="st0" d="M142.8,113.3c0,0.4-0.3,0.7-0.7,0.7s-0.7-0.3-0.7-0.7c0-0.4,0.3-0.7,0.7-0.7S142.8,113,142.8,113.3"/>
		<path class="st0" d="M146.1,112.4c0,0.4-0.3,0.7-0.7,0.7c-0.4,0-0.7-0.3-0.7-0.7c0-0.4,0.3-0.7,0.7-0.7
			C145.8,111.8,146.1,112,146.1,112.4"/>
		<path class="st0" d="M116.7,145.8c-0.7,0-1.3,0.6-1.3,1.3c0,0.7,0.6,1.3,1.3,1.3c0.7,0,1.3-0.6,1.3-1.3
			C117.9,146.4,117.4,145.8,116.7,145.8 M116.7,147.8c-0.4,0-0.7-0.3-0.7-0.7c0-0.4,0.3-0.7,0.7-0.7c0.4,0,0.7,0.3,0.7,0.7
			C117.4,147.4,117.1,147.8,116.7,147.8"/>
		<path class="st0" d="M72.2,153.2c-0.7,0-1.3,0.6-1.3,1.3c0,0.7,0.6,1.3,1.3,1.3c0.7,0,1.3-0.6,1.3-1.3
			C73.4,153.7,72.9,153.2,72.2,153.2 M72.2,155.1c-0.4,0-0.7-0.3-0.7-0.7c0-0.4,0.3-0.7,0.7-0.7s0.7,0.3,0.7,0.7
			C72.9,154.8,72.6,155.1,72.2,155.1"/>
		<path class="st0" d="M72.6,139.7c-0.7,0-1.3,0.6-1.3,1.3c0,0.7,0.6,1.3,1.3,1.3c0.7,0,1.3-0.6,1.3-1.3
			C73.8,140.2,73.3,139.7,72.6,139.7 M72.6,141.6c-0.4,0-0.7-0.3-0.7-0.7c0-0.4,0.3-0.7,0.7-0.7c0.4,0,0.7,0.3,0.7,0.7
			C73.3,141.3,73,141.6,72.6,141.6"/>
		<path class="st0" d="M82.5,132.7c-0.7,0-1.3,0.6-1.3,1.3c0,0.7,0.6,1.3,1.3,1.3c0.7,0,1.3-0.6,1.3-1.3
			C83.7,133.3,83.2,132.7,82.5,132.7 M82.5,134.7c-0.4,0-0.7-0.3-0.7-0.7c0-0.4,0.3-0.7,0.7-0.7s0.7,0.3,0.7,0.7
			C83.2,134.3,82.9,134.7,82.5,134.7"/>
		<path class="st0" d="M81.8,146.2c-0.7,0-1.3,0.6-1.3,1.3c0,0.7,0.6,1.3,1.3,1.3c0.7,0,1.3-0.6,1.3-1.3
			C83.1,146.7,82.5,146.2,81.8,146.2 M81.8,148.1c-0.4,0-0.7-0.3-0.7-0.7c0-0.4,0.3-0.7,0.7-0.7s0.7,0.3,0.7,0.7
			C82.5,147.8,82.2,148.1,81.8,148.1"/>
		<path class="st0" d="M106.1,179.8c-0.7,0-1.3,0.6-1.3,1.3c0,0.7,0.6,1.3,1.3,1.3c0.7,0,1.3-0.6,1.3-1.3
			C107.4,180.4,106.8,179.8,106.1,179.8 M106.1,181.8c-0.4,0-0.7-0.3-0.7-0.7c0-0.4,0.3-0.7,0.7-0.7s0.7,0.3,0.7,0.7
			C106.8,181.5,106.5,181.8,106.1,181.8"/>
		<path class="st0" d="M143.5,179.7c-0.7,0-1.3,0.6-1.3,1.3c0,0.7,0.6,1.3,1.3,1.3c0.7,0,1.3-0.6,1.3-1.3
			C144.8,180.3,144.2,179.7,143.5,179.7 M143.5,181.7c-0.4,0-0.7-0.3-0.7-0.7c0-0.4,0.3-0.7,0.7-0.7c0.4,0,0.7,0.3,0.7,0.7
			C144.2,181.4,143.9,181.7,143.5,181.7"/>
		<path class="st0" d="M124.8,179.9c-0.7,0-1.3,0.6-1.3,1.3c0,0.7,0.6,1.3,1.3,1.3c0.7,0,1.3-0.6,1.3-1.3
			C126.1,180.4,125.5,179.9,124.8,179.9 M124.8,181.8c-0.4,0-0.7-0.3-0.7-0.7c0-0.4,0.3-0.7,0.7-0.7c0.4,0,0.7,0.3,0.7,0.7
			C125.5,181.5,125.2,181.8,124.8,181.8"/>
		<path class="st0" d="M154.4,72c-0.7,0-1.3,0.6-1.3,1.3c0,0.7,0.6,1.3,1.3,1.3c0.7,0,1.3-0.6,1.3-1.3C155.6,72.6,155.1,72,154.4,72
			 M154.4,74c-0.4,0-0.7-0.3-0.7-0.7c0-0.4,0.3-0.7,0.7-0.7c0.4,0,0.7,0.3,0.7,0.7C155.1,73.6,154.8,74,154.4,74"/>
		<path class="st0" d="M162.6,78.1c-0.7,0-1.3,0.6-1.3,1.3c0,0.7,0.6,1.3,1.3,1.3c0.7,0,1.3-0.6,1.3-1.3
			C163.8,78.6,163.3,78.1,162.6,78.1 M162.6,80c-0.4,0-0.7-0.3-0.7-0.7c0-0.4,0.3-0.7,0.7-0.7c0.4,0,0.7,0.3,0.7,0.7
			C163.3,79.7,163,80,162.6,80"/>
		<path class="st0" d="M162.1,90.5c-0.7,0-1.3,0.6-1.3,1.3c0,0.7,0.6,1.3,1.3,1.3c0.7,0,1.3-0.6,1.3-1.3
			C163.3,91.1,162.8,90.5,162.1,90.5 M162.1,92.5c-0.4,0-0.7-0.3-0.7-0.7c0-0.4,0.3-0.7,0.7-0.7c0.4,0,0.7,0.3,0.7,0.7
			C162.8,92.2,162.5,92.5,162.1,92.5"/>
		<path class="st0" d="M171,84.3c-0.7,0-1.3,0.6-1.3,1.3c0,0.7,0.6,1.3,1.3,1.3c0.7,0,1.3-0.6,1.3-1.3
			C172.3,84.8,171.7,84.3,171,84.3 M171,86.2c-0.4,0-0.7-0.3-0.7-0.7c0-0.4,0.3-0.7,0.7-0.7c0.4,0,0.7,0.3,0.7,0.7
			C171.7,85.9,171.4,86.2,171,86.2"/>
		<path class="st0" d="M180.1,103.8c-0.7,0-1.3,0.6-1.3,1.3c0,0.7,0.6,1.3,1.3,1.3c0.7,0,1.3-0.6,1.3-1.3
			C181.4,104.4,180.8,103.8,180.1,103.8 M180.1,105.8c-0.4,0-0.7-0.3-0.7-0.7c0-0.4,0.3-0.7,0.7-0.7c0.4,0,0.7,0.3,0.7,0.7
			C180.8,105.5,180.5,105.8,180.1,105.8"/>
		<path class="st0" d="M170.9,97.3c-0.7,0-1.3,0.6-1.3,1.3c0,0.7,0.6,1.3,1.3,1.3c0.7,0,1.3-0.6,1.3-1.3
			C172.2,97.8,171.6,97.3,170.9,97.3 M170.9,99.2c-0.4,0-0.7-0.3-0.7-0.7c0-0.4,0.3-0.7,0.7-0.7c0.4,0,0.7,0.3,0.7,0.7
			C171.6,98.9,171.3,99.2,170.9,99.2"/>
		<path class="st0" d="M161.5,103.6c-0.7,0-1.3,0.6-1.3,1.3c0,0.7,0.6,1.3,1.3,1.3c0.7,0,1.3-0.6,1.3-1.3
			C162.8,104.1,162.2,103.6,161.5,103.6 M161.5,105.5c-0.4,0-0.7-0.3-0.7-0.7c0-0.4,0.3-0.7,0.7-0.7c0.4,0,0.7,0.3,0.7,0.7
			C162.2,105.2,161.9,105.5,161.5,105.5"/>
		<path class="st0" d="M180.4,130c-0.7,0-1.3,0.6-1.3,1.3c0,0.7,0.6,1.3,1.3,1.3c0.7,0,1.3-0.6,1.3-1.3
			C181.6,130.5,181.1,130,180.4,130 M180.4,131.9c-0.4,0-0.7-0.3-0.7-0.7c0-0.4,0.3-0.7,0.7-0.7c0.4,0,0.7,0.3,0.7,0.7
			C181.1,131.6,180.8,131.9,180.4,131.9"/>
		<path class="st0" d="M170.4,149.5c-0.7,0-1.3,0.6-1.3,1.3c0,0.7,0.6,1.3,1.3,1.3c0.7,0,1.3-0.6,1.3-1.3
			C171.6,150.1,171,149.5,170.4,149.5 M170.4,151.5c-0.4,0-0.7-0.3-0.7-0.7c0-0.4,0.3-0.7,0.7-0.7c0.4,0,0.7,0.3,0.7,0.7
			C171.1,151.1,170.8,151.5,170.4,151.5"/>
		<path class="st0" d="M161.6,142.2c-0.7,0-1.3,0.6-1.3,1.3c0,0.7,0.6,1.3,1.3,1.3c0.7,0,1.3-0.6,1.3-1.3
			C162.8,142.8,162.3,142.2,161.6,142.2 M161.6,144.2c-0.4,0-0.7-0.3-0.7-0.7c0-0.4,0.3-0.7,0.7-0.7c0.4,0,0.7,0.3,0.7,0.7
			C162.3,143.9,162,144.2,161.6,144.2"/>
		<path class="st0" d="M110.2,102.5c-0.7,0-1.3,0.6-1.3,1.3c0,0.7,0.6,1.3,1.3,1.3c0.7,0,1.3-0.6,1.3-1.3
			C111.4,103.1,110.8,102.5,110.2,102.5 M110.2,104.5c-0.4,0-0.7-0.3-0.7-0.7c0-0.4,0.3-0.7,0.7-0.7c0.4,0,0.7,0.3,0.7,0.7
			C110.9,104.2,110.5,104.5,110.2,104.5"/>
		<path class="st0" d="M75.1,101.5c-0.7,0-1.3,0.6-1.3,1.3c0,0.7,0.6,1.3,1.3,1.3c0.7,0,1.3-0.6,1.3-1.3
			C76.3,102,75.8,101.5,75.1,101.5 M75.1,103.4c-0.4,0-0.7-0.3-0.7-0.7c0-0.4,0.3-0.7,0.7-0.7c0.4,0,0.7,0.3,0.7,0.7
			C75.8,103.1,75.5,103.4,75.1,103.4"/>
		<path class="st0" d="M62.8,132.6c-0.7,0-1.3,0.6-1.3,1.3c0,0.7,0.6,1.3,1.3,1.3c0.7,0,1.3-0.6,1.3-1.3
			C64.1,133.2,63.5,132.6,62.8,132.6 M62.8,134.6c-0.4,0-0.7-0.3-0.7-0.7c0-0.4,0.3-0.7,0.7-0.7c0.4,0,0.7,0.3,0.7,0.7
			C63.5,134.3,63.2,134.6,62.8,134.6"/>
		<path class="st0" d="M116.6,133.8c-0.7,0-1.3,0.6-1.3,1.3c0,0.7,0.6,1.3,1.3,1.3c0.7,0,1.3-0.6,1.3-1.3
			C117.9,134.4,117.3,133.8,116.6,133.8 M116.6,135.8c-0.4,0-0.7-0.3-0.7-0.7c0-0.4,0.3-0.7,0.7-0.7s0.7,0.3,0.7,0.7
			C117.3,135.4,117,135.8,116.6,135.8"/>
		<path class="st0" d="M84,95.5c-0.7,0-1.3,0.6-1.3,1.3c0,0.7,0.6,1.3,1.3,1.3c0.7,0,1.3-0.6,1.3-1.3C85.2,96.1,84.7,95.5,84,95.5
			 M84,97.5c-0.4,0-0.7-0.3-0.7-0.7c0-0.4,0.3-0.7,0.7-0.7s0.7,0.3,0.7,0.7C84.7,97.2,84.4,97.5,84,97.5"/>
		<path class="st0" d="M102.3,82.8c-0.7,0-1.3,0.6-1.3,1.3c0,0.7,0.6,1.3,1.3,1.3c0.7,0,1.3-0.6,1.3-1.3
			C103.6,83.3,103,82.8,102.3,82.8 M102.3,84.7c-0.4,0-0.7-0.3-0.7-0.7c0-0.4,0.3-0.7,0.7-0.7s0.7,0.3,0.7,0.7
			C103,84.4,102.7,84.7,102.3,84.7"/>
		<path class="st0" d="M119.3,96.3c-0.7,0-1.3,0.6-1.3,1.3c0,0.7,0.6,1.3,1.3,1.3c0.7,0,1.3-0.6,1.3-1.3
			C120.6,96.8,120,96.3,119.3,96.3 M119.3,98.2c-0.4,0-0.7-0.3-0.7-0.7c0-0.4,0.3-0.7,0.7-0.7c0.4,0,0.7,0.3,0.7,0.7
			C120,97.9,119.7,98.2,119.3,98.2"/>
		<path class="st0" d="M120,82.9c-0.7,0-1.3,0.6-1.3,1.3c0,0.7,0.6,1.3,1.3,1.3c0.7,0,1.3-0.6,1.3-1.3
			C121.2,83.5,120.7,82.9,120,82.9 M120,84.9c-0.4,0-0.7-0.3-0.7-0.7c0-0.4,0.3-0.7,0.7-0.7s0.7,0.3,0.7,0.7
			C120.7,84.6,120.4,84.9,120,84.9"/>
		<path class="st0" d="M111,89.6c-0.7,0-1.3,0.6-1.3,1.3c0,0.7,0.6,1.3,1.3,1.3c0.7,0,1.3-0.6,1.3-1.3
			C112.2,90.2,111.7,89.6,111,89.6 M111,91.6c-0.4,0-0.7-0.3-0.7-0.7c0-0.4,0.3-0.7,0.7-0.7s0.7,0.3,0.7,0.7
			C111.7,91.3,111.4,91.6,111,91.6"/>
		<path class="st0" d="M75.1,88.6c-0.7,0-1.3,0.6-1.3,1.3c0,0.7,0.6,1.3,1.3,1.3c0.7,0,1.3-0.6,1.3-1.3
			C76.3,89.1,75.8,88.6,75.1,88.6 M75.1,90.5c-0.4,0-0.7-0.3-0.7-0.7c0-0.4,0.3-0.7,0.7-0.7s0.7,0.3,0.7,0.7
			C75.8,90.2,75.5,90.5,75.1,90.5"/>
		<path class="st0" d="M67.2,95.1c-0.7,0-1.3,0.6-1.3,1.3c0,0.7,0.6,1.3,1.3,1.3c0.7,0,1.3-0.6,1.3-1.3
			C68.4,95.7,67.9,95.1,67.2,95.1 M67.2,97.1c-0.4,0-0.7-0.3-0.7-0.7c0-0.4,0.3-0.7,0.7-0.7c0.4,0,0.7,0.3,0.7,0.7
			C67.9,96.7,67.6,97.1,67.2,97.1"/>
		<path class="st0" d="M84.2,82.1c-0.7,0-1.3,0.6-1.3,1.3c0,0.7,0.6,1.3,1.3,1.3c0.7,0,1.3-0.6,1.3-1.3
			C85.4,82.7,84.8,82.1,84.2,82.1 M84.2,84.1c-0.4,0-0.7-0.3-0.7-0.7c0-0.4,0.3-0.7,0.7-0.7s0.7,0.3,0.7,0.7
			C84.9,83.8,84.6,84.1,84.2,84.1"/>
		<path class="st0" d="M93.5,75.9c-0.7,0-1.3,0.6-1.3,1.3c0,0.7,0.6,1.3,1.3,1.3c0.7,0,1.3-0.6,1.3-1.3
			C94.7,76.4,94.2,75.9,93.5,75.9 M93.5,77.8c-0.4,0-0.7-0.3-0.7-0.7c0-0.4,0.3-0.7,0.7-0.7s0.7,0.3,0.7,0.7
			C94.2,77.5,93.9,77.8,93.5,77.8"/>
		<path class="st0" d="M179.5,142.6c-0.7,0-1.3,0.6-1.3,1.3c0,0.7,0.6,1.3,1.3,1.3c0.7,0,1.3-0.6,1.3-1.3
			C180.7,143.1,180.2,142.6,179.5,142.6 M179.5,144.5c-0.4,0-0.7-0.3-0.7-0.7c0-0.4,0.3-0.7,0.7-0.7c0.4,0,0.7,0.3,0.7,0.7
			C180.2,144.2,179.9,144.5,179.5,144.5"/>
	</g>
	<path class="st0" d="M364.4,64.9c-0.8-0.5-1.7-0.7-2.6-0.7c1.2-3.3,1.3-6.8,0.3-9.9c-3.2,0.8-6.2,2.6-8.4,5.4
		c-0.5-0.7-1.1-1.4-2-1.8c-2.8-1.6-6.3-0.6-7.9,2.3c-1.6,2.8-0.6,6.4,2.2,7.9c1.4,0.8,3.1,0.9,4.6,0.5c-2.6,2.8-6.3,4.5-10.3,4.5
		c-6.4,0-11.8-4.3-13.5-10.2c1.1,1.1,2.5,1.8,4.2,1.8c3.2,0,5.8-2.6,5.8-5.8c0-3.2-2.6-5.8-5.8-5.8c-0.9,0-1.8,0.2-2.6,0.6
		c-0.5-3.5-2.2-6.5-4.6-8.8c-2.5,2.3-4.1,5.3-4.6,8.8c-0.8-0.4-1.7-0.6-2.6-0.6c-3.2,0-5.8,2.6-5.8,5.8c0,3.2,2.6,5.8,5.8,5.8
		c1.6,0,3.1-0.7,4.2-1.8C318.8,68.7,313.4,73,307,73c-4.1,0-7.8-1.7-10.3-4.5c1.5,0.5,3.1,0.3,4.6-0.5c2.8-1.6,3.8-5.1,2.2-7.9
		c-1.6-2.8-5.1-3.8-7.9-2.3c-0.8,0.5-1.5,1.1-2,1.8c-2.1-2.8-5.1-4.6-8.4-5.4c-1,3.2-1,6.7,0.3,9.9c-0.9,0-1.8,0.3-2.6,0.7
		c-2.8,1.6-3.8,5.1-2.2,7.9c1.6,2.8,5.1,3.8,7.9,2.3c1-0.6,1.8-1.4,2.3-2.4c1.6,3.1,2.5,6.5,2.5,10.2c0,1.4-0.1,2.7-0.4,4
		c0,0.2,0.1,0.5,0.4,0.5c8.7,1.3,19.1,2,30.3,2s21.6-0.8,30.3-2c0.2,0,0.4-0.3,0.4-0.5c-0.2-1.3-0.4-2.6-0.4-4
		c0-3.7,0.9-7.2,2.5-10.2c0.5,1,1.3,1.8,2.3,2.4c2.8,1.6,6.3,0.6,7.9-2.3C368.2,70,367.2,66.4,364.4,64.9z"/>
	<g>
		<path class="st1" d="M293,132.7c0-10.8,7.3-17.8,17.3-17.8c3.6,0,7.7,0.8,12.2,1.9v10.5h-0.3c-2.7-4-6.7-10-10.8-10
			c-4.1,0-7.8,6.3-7.8,15.4c0,9.1,3.7,15.4,7.8,15.4c3.6,0,7.3-5,10.8-10.1h0.3v10.6c-4.6,1.1-8.4,1.9-12.6,1.9
			C300.3,150.5,293,143.5,293,132.7z"/>
		<path class="st1" d="M339.2,149.9h-12v-0.2c0-0.2,1.5-4.4,1.5-8v-18.6c0-3.6-1.6-7.6-1.6-7.8l0-0.2l1.5-0.2l9.2-1v15.3
			c1.5-2.2,4-4.1,7.6-4.1c4.5,0,8,2.9,8,8v8.6c0,3.6,1.5,7.8,1.5,8v0.2h-12v-0.2c0-0.2,1.5-4.4,1.5-8v-7.3c0-2.8-1.8-3.7-3.8-3.7
			c-0.9,0-1.9,0.2-2.8,0.5v10.6c0,3.6,1.5,7.8,1.5,8V149.9z"/>
		<path class="st1" d="M357.9,142.5c0-4.9,4.3-8,9.1-8c1.4,0,3.6,0.3,5.5,1.1V133c0-3.3,0-5.4-1.1-5.4c-2.7,0-11.2,6.8-11.2,6.8H360
			v-7.6c4.8-1.1,9.4-1.6,12-1.6c7.2,0,9.5,3.8,9.5,8.5v8.3c0,3.1,0.5,4.6,3,3.3l0.1,0.1c-0.2,2.8-2.3,5-5.9,5c-3,0-5-1.5-5.9-4.2
			c-1,1.9-3.4,4.2-7.3,4.2C360.5,150.4,357.9,146.2,357.9,142.5z M370.8,145.6c0.7,0,1.2-0.2,1.8-0.6c-0.1-0.5-0.1-1.1-0.1-1.7v-6
			c-0.5-0.1-1-0.2-1.4-0.2c-2.8,0-3.8,1.7-3.8,4C367.2,143.6,368.5,145.6,370.8,145.6z"/>
		<path class="st1" d="M399.4,149.9h-12v-0.2c0-0.2,1.5-4.4,1.5-8v-8.1c0-3.6-1.5-7.8-1.5-8v-0.2H398v5.2c1.7-3.9,4.7-7.2,10.4-5.3
			l-1.4,9.5h-0.2c-2-2.3-5.1-4.7-8.7-2.9v9.8c0,3.6,1.5,7.8,1.5,8V149.9z"/>
		<path class="st1" d="M422.7,149.9h-12v-0.2c0-0.2,1.5-4.4,1.5-8v-18.6c0-3.6-1.6-7.6-1.6-7.8l0-0.2l1.5-0.2l9.2-1v27.8
			c0,3.6,1.5,7.8,1.5,8V149.9z"/>
		<path class="st1" d="M425.2,137.8c0-8.1,5.3-12.6,13.1-12.6c9.1,0,11.8,6.7,11.8,12.2h-14.8c0.6,4.3,2.4,7.3,7,7.3
			c2.4,0,4.3-0.6,7.1-2.1l0.2,0.1c-1,3.1-4.8,7.8-11.4,7.8C432,150.5,425.2,146.8,425.2,137.8z M435.1,136.2l6.1-1.9
			c0-2.9-0.2-6.9-3.1-6.9c-2.8,0-3.2,3.9-3.1,6.9C435,134.9,435,135.5,435.1,136.2z"/>
		<path class="st1" d="M454.2,148.6v-7.9h0.2c3.2,3.1,6.8,7.3,10.4,7.3c1.5,0,2.8-0.7,2.8-2.2c0-2-2.4-2.7-6.3-4.1
			c-5.3-1.9-8.1-4.9-8.1-8.8c0-4.8,4.3-7.7,11-7.7c1.9,0,5.4,0.2,9.1,1.6v7.6h-0.2c-3-3.2-6.4-7-9.8-7c-1.3,0-2.6,0.5-2.6,2
			c0,2,2.6,2.9,6.3,4.2c6.3,2.2,7.7,5.2,7.7,8.4c0,6-5.3,8.4-10.5,8.4C462.2,150.5,458.6,150.1,454.2,148.6z"/>
	</g>
	<g>
		<path class="st1" d="M294.5,187.2v-11.8c0-3.6-1.5-7.8-1.5-8v-0.2h12.6v0.2c0,0.2-1.5,4.4-1.5,8v12.9c0,7.1,2.9,10.1,7.5,10.1
			c4.6,0,7.5-3.1,7.5-9.7v-9.2c0-5.5-3-11.7-3-12v-0.3h9.2v0.3c0,0.3-3,6.5-3,12v9.2c0,9.8-6,13.7-13.3,13.7
			C302.2,202.4,294.5,198.9,294.5,187.2z"/>
		<path class="st1" d="M338.7,201.8h-12v-0.2c0-0.2,1.5-4.4,1.5-8v-8.1c0-3.6-1.5-7.8-1.5-8v-0.2h10.5v4.1c1.2-2.2,3.8-4.4,7.7-4.4
			c4.5,0,8,2.9,8,8v8.6c0,3.6,1.5,7.8,1.5,8v0.2h-12v-0.2c0-0.2,1.5-4.4,1.5-8v-7.3c0-2.8-1.7-3.7-3.5-3.8c-1.1,0-2.2,0.3-3.2,0.7
			v10.4c0,3.6,1.5,7.8,1.5,8V201.8z"/>
		<path class="st1" d="M370.8,201.8h-12v-0.2c0-0.2,1.5-4.4,1.5-8v-8.1c0-3.6-1.5-7.8-1.5-8v-0.2h10.5v16.3c0,3.6,1.5,7.8,1.5,8
			V201.8z M359,169.9c0-3,2.4-5.3,5.4-5.3c3,0,5.4,2.4,5.4,5.3s-2.5,5.3-5.4,5.3C361.5,175.2,359,172.9,359,169.9z"/>
		<path class="st1" d="M401,189.6c0-8.1,5.3-12.6,13.1-12.6c9.1,0,11.8,6.7,11.8,12.2h-14.8c0.6,4.3,2.4,7.3,7,7.3
			c2.4,0,4.3-0.6,7.1-2.1l0.2,0.1c-1,3.1-4.8,7.8-11.4,7.8C407.9,202.4,401,198.6,401,189.6z M410.9,188l6.1-1.9
			c0-2.9-0.2-6.9-3.1-6.9c-2.8,0-3.2,3.9-3.1,6.9C410.8,186.8,410.9,187.4,410.9,188z"/>
		<path class="st1" d="M441,201.8h-12v-0.2c0-0.2,1.5-4.4,1.5-8v-8.1c0-3.6-1.5-7.8-1.5-8v-0.2h10.5v5.2c1.7-3.9,4.7-7.2,10.4-5.3
			l-1.4,9.5h-0.2c-2-2.3-5.1-4.7-8.7-2.9v9.8c0,3.6,1.5,7.8,1.5,8V201.8z"/>
		<path class="st1" d="M452.8,200.5v-7.9h0.2c3.2,3.1,6.8,7.3,10.4,7.3c1.5,0,2.8-0.7,2.8-2.2c0-2-2.4-2.7-6.3-4.1
			c-5.3-1.9-8.1-4.9-8.1-8.8c0-4.8,4.3-7.7,11-7.7c1.9,0,5.4,0.2,9.1,1.6v7.6h-0.2c-3-3.2-6.4-7-9.8-7c-1.3,0-2.6,0.5-2.6,2
			c0,2,2.6,2.9,6.3,4.2c6.3,2.2,7.7,5.2,7.7,8.4c0,6-5.3,8.4-10.5,8.4C460.8,202.3,457.3,202,452.8,200.5z"/>
		<path class="st1" d="M489.8,201.8h-12v-0.2c0-0.2,1.5-4.4,1.5-8v-8.1c0-3.6-1.5-7.8-1.5-8v-0.2h10.5v16.3c0,3.6,1.5,7.8,1.5,8
			V201.8z M477.9,169.9c0-3,2.4-5.3,5.4-5.3c3,0,5.4,2.4,5.4,5.3s-2.5,5.3-5.4,5.3C480.5,175.2,477.9,172.9,477.9,169.9z"/>
		<path class="st1" d="M495.4,193.9v-14.2h-3.5v-2.4c5.4-2.8,9.2-5.8,12.5-9.1v9.1h6.4v2.4h-6.4l0,13.4c0,2.4,1.3,3.4,3.1,3.4
			c1,0,2-0.3,3.1-0.7c-1.1,3.2-3.3,6.6-8.1,6.6C498.1,202.4,495.4,199.5,495.4,193.9z"/>
		<path class="st1" d="M516.4,202.1l0.1,0c3.7,4,7.7,5.9,9.6,1.4l0.2-0.6l-8.7-18.2c-1.6-3.3-4.2-7-4.3-7.2v-0.2h14.1v0.2
			c0,0.1-1.7,3.6-0.3,6.6l3.8,7.9l3.3-7.8c1.3-3-0.6-6.6-0.6-6.7v-0.2h7v0.2c-0.1,0.2-2.6,4.1-4.1,7.5l-8.6,20.3
			c-2.5,6.1-6.4,7.4-13.2,5L516.4,202.1z"/>
		<path class="st1" d="M372.9,177.5v-0.1h14.3v0.2c0,0.1-1.8,3.6-0.5,6.7l4.1,9.1l3.7-9.1c1.2-3-0.6-6.6-0.6-6.7v-0.2h7.4v0.2
			c0,0.2-2.6,4.1-4,7.5l-7.1,16.8h-5.5l-7.6-16.8C375.6,181.6,372.9,177.6,372.9,177.5z"/>
	</g>
	<rect x="246.5" y="44.7" class="st1" width="1.7" height="157.1"/>
</g>
<g id="SAFE_ZONE" class="st2">
	<g class="st3">
		<g>
			<polyline class="st4" points="540.8,198.8 540.8,201.8 537.8,201.8 			"/>
			<line class="st5" x1="534.8" y1="201.8" x2="49.2" y2="201.8"/>
			<polyline class="st4" points="47.7,201.8 44.7,201.8 44.7,198.8 			"/>
			<line class="st6" x1="44.7" y1="195.9" x2="44.7" y2="49.2"/>
			<polyline class="st4" points="44.7,47.7 44.7,44.7 47.7,44.7 			"/>
			<line class="st5" x1="50.7" y1="44.7" x2="536.3" y2="44.7"/>
			<polyline class="st4" points="537.8,44.7 540.8,44.7 540.8,47.7 			"/>
			<line class="st6" x1="540.8" y1="50.6" x2="540.8" y2="197.4"/>
		</g>
	</g>
	<path class="st7" d="M221.9,82.5c-0.5,0.8-0.7,1.7-0.7,2.6c-3.3-1.2-6.8-1.3-9.9-0.3c0.8,3.2,2.6,6.2,5.4,8.4
		c-0.7,0.5-1.4,1.1-1.8,2c-1.6,2.8-0.6,6.3,2.3,7.9c2.8,1.6,6.4,0.6,7.9-2.2c0.8-1.4,0.9-3.1,0.5-4.6c2.8,2.6,4.5,6.3,4.5,10.3
		c0,6.4-4.3,11.8-10.2,13.5c1.1-1.1,1.8-2.5,1.8-4.2c0-3.2-2.6-5.8-5.8-5.8c-3.2,0-5.8,2.6-5.8,5.8c0,0.9,0.2,1.8,0.6,2.6
		c-3.5,0.5-6.5,2.2-8.8,4.6c2.3,2.5,5.3,4.1,8.8,4.6c-0.4,0.8-0.6,1.7-0.6,2.6c0,3.2,2.6,5.8,5.8,5.8c3.2,0,5.8-2.6,5.8-5.8
		c0-1.6-0.7-3.1-1.8-4.2c5.9,1.7,10.2,7.1,10.2,13.5c0,4.1-1.7,7.8-4.5,10.3c0.5-1.5,0.3-3.1-0.5-4.6c-1.6-2.8-5.1-3.8-7.9-2.2
		c-2.8,1.6-3.8,5.1-2.3,7.9c0.5,0.8,1.1,1.5,1.8,2c-2.8,2.1-4.6,5.1-5.4,8.4c3.2,1,6.7,1,9.9-0.3c0,0.9,0.3,1.8,0.7,2.6
		c1.6,2.8,5.1,3.8,7.9,2.2c2.8-1.6,3.8-5.1,2.3-7.9c-0.6-1-1.4-1.8-2.4-2.3c3.1-1.6,6.5-2.5,10.2-2.5c1.4,0,2.7,0.1,4,0.4
		c0.2,0,0.5-0.1,0.5-0.4c1.3-8.7,2-19.1,2-30.3s-0.8-21.6-2-30.3c0-0.2-0.3-0.4-0.5-0.4c-1.3,0.2-2.6,0.4-4,0.4
		c-3.7,0-7.2-0.9-10.2-2.5c1-0.5,1.8-1.3,2.4-2.3c1.6-2.8,0.6-6.3-2.3-7.9C227.1,78.7,223.5,79.7,221.9,82.5z"/>
	<path class="st7" d="M20.2,87.3c-0.5,0.8-0.7,1.7-0.7,2.6c-3.3-1.2-6.8-1.3-9.9-0.3c0.8,3.2,2.6,6.2,5.4,8.4
		c-0.7,0.5-1.4,1.1-1.8,2c-1.6,2.8-0.6,6.3,2.3,7.9c2.8,1.6,6.4,0.6,7.9-2.2c0.8-1.4,0.9-3.1,0.5-4.6c2.8,2.6,4.5,6.3,4.5,10.3
		c0,6.4-4.3,11.8-10.2,13.5c1.1-1.1,1.8-2.5,1.8-4.2c0-3.2-2.6-5.8-5.8-5.8c-3.2,0-5.8,2.6-5.8,5.8c0,0.9,0.2,1.8,0.6,2.6
		c-3.5,0.5-6.5,2.2-8.8,4.6c2.3,2.5,5.3,4.1,8.8,4.6c-0.4,0.8-0.6,1.7-0.6,2.6c0,3.2,2.6,5.8,5.8,5.8c3.2,0,5.8-2.6,5.8-5.8
		c0-1.6-0.7-3.1-1.8-4.2c5.9,1.7,10.2,7.1,10.2,13.5c0,4.1-1.7,7.8-4.5,10.3c0.5-1.5,0.3-3.1-0.5-4.6c-1.6-2.8-5.1-3.8-7.9-2.2
		c-2.8,1.6-3.8,5.1-2.3,7.9c0.5,0.8,1.1,1.5,1.8,2c-2.8,2.1-4.6,5.1-5.4,8.4c3.2,1,6.7,1,9.9-0.3c0,0.9,0.3,1.8,0.7,2.6
		c1.6,2.8,5.1,3.8,7.9,2.2c2.8-1.6,3.8-5.1,2.3-7.9c-0.6-1-1.4-1.8-2.4-2.3c3.1-1.6,6.5-2.5,10.2-2.5c1.4,0,2.7,0.1,4,0.4
		c0.2,0,0.5-0.1,0.5-0.4c1.3-8.7,2-19.1,2-30.3s-0.8-21.6-2-30.3c0-0.2-0.3-0.4-0.5-0.4c-1.3,0.2-2.6,0.4-4,0.4
		c-3.7,0-7.2-0.9-10.2-2.5c1-0.5,1.8-1.3,2.4-2.3c1.6-2.8,0.6-6.3-2.3-7.9C25.3,83.5,21.7,84.5,20.2,87.3z"/>
	<path class="st7" d="M565.3,168.9c0.5-0.8,0.7-1.7,0.7-2.6c3.3,1.2,6.8,1.3,9.9,0.3c-0.8-3.2-2.6-6.2-5.4-8.4
		c0.7-0.5,1.4-1.1,1.8-2c1.6-2.8,0.6-6.3-2.3-7.9c-2.8-1.6-6.4-0.6-7.9,2.2c-0.8,1.4-0.9,3.1-0.5,4.6c-2.8-2.6-4.5-6.3-4.5-10.3
		c0-6.4,4.3-11.8,10.2-13.5c-1.1,1.1-1.8,2.5-1.8,4.2c0,3.2,2.6,5.8,5.8,5.8c3.2,0,5.8-2.6,5.8-5.8c0-0.9-0.2-1.8-0.6-2.6
		c3.5-0.5,6.5-2.2,8.8-4.6c-2.3-2.5-5.3-4.1-8.8-4.6c0.4-0.8,0.6-1.7,0.6-2.6c0-3.2-2.6-5.8-5.8-5.8c-3.2,0-5.8,2.6-5.8,5.8
		c0,1.6,0.7,3.1,1.8,4.2c-5.9-1.7-10.2-7.1-10.2-13.5c0-4.1,1.7-7.8,4.5-10.3c-0.5,1.5-0.3,3.1,0.5,4.6c1.6,2.8,5.1,3.8,7.9,2.2
		c2.8-1.6,3.8-5.1,2.3-7.9c-0.5-0.8-1.1-1.5-1.8-2c2.8-2.1,4.6-5.1,5.4-8.4c-3.2-1-6.7-1-9.9,0.3c0-0.9-0.3-1.8-0.7-2.6
		c-1.6-2.8-5.1-3.8-7.9-2.2c-2.8,1.6-3.8,5.1-2.3,7.9c0.6,1,1.4,1.8,2.4,2.3c-3.1,1.6-6.5,2.5-10.2,2.5c-1.4,0-2.7-0.1-4-0.4
		c-0.2,0-0.5,0.1-0.5,0.4c-1.3,8.7-2,19.1-2,30.3c0,11.2,0.8,21.6,2,30.3c0,0.2,0.3,0.4,0.5,0.4c1.3-0.2,2.6-0.4,4-0.4
		c3.7,0,7.2,0.9,10.2,2.5c-1,0.5-1.8,1.3-2.4,2.3c-1.6,2.8-0.6,6.3,2.3,7.9C560.2,172.6,563.8,171.6,565.3,168.9z"/>
	<path class="st7" d="M502.9,20.2c-0.8-0.5-1.7-0.7-2.6-0.7c1.2-3.3,1.3-6.8,0.3-9.9c-3.2,0.8-6.2,2.6-8.4,5.4
		c-0.5-0.7-1.1-1.4-2-1.8c-2.8-1.6-6.3-0.6-7.9,2.3c-1.6,2.8-0.6,6.4,2.2,7.9c1.4,0.8,3.1,0.9,4.6,0.5c-2.6,2.8-6.3,4.5-10.3,4.5
		c-6.4,0-11.8-4.3-13.5-10.2c1.1,1.1,2.5,1.8,4.2,1.8c3.2,0,5.8-2.6,5.8-5.8c0-3.2-2.6-5.8-5.8-5.8c-0.9,0-1.8,0.2-2.6,0.6
		c-0.5-3.5-2.2-6.5-4.6-8.8c-2.5,2.3-4.1,5.3-4.6,8.8c-0.8-0.4-1.7-0.6-2.6-0.6c-3.2,0-5.8,2.6-5.8,5.8c0,3.2,2.6,5.8,5.8,5.8
		c1.6,0,3.1-0.7,4.2-1.8c-1.7,5.9-7.1,10.2-13.5,10.2c-4.1,0-7.8-1.7-10.3-4.5c1.5,0.5,3.1,0.3,4.6-0.5c2.8-1.6,3.8-5.1,2.2-7.9
		c-1.6-2.8-5.1-3.8-7.9-2.3c-0.8,0.5-1.5,1.1-2,1.8c-2.1-2.8-5.1-4.6-8.4-5.4c-1,3.2-1,6.7,0.3,9.9c-0.9,0-1.8,0.3-2.6,0.7
		c-2.8,1.6-3.8,5.1-2.2,7.9c1.6,2.8,5.1,3.8,7.9,2.3c1-0.6,1.8-1.4,2.3-2.4c1.6,3.1,2.5,6.5,2.5,10.2c0,1.4-0.1,2.7-0.4,4
		c0,0.2,0.1,0.5,0.4,0.5c8.7,1.3,19.1,2,30.3,2s21.6-0.8,30.3-2c0.2,0,0.4-0.3,0.4-0.5c-0.2-1.3-0.4-2.6-0.4-4
		c0-3.7,0.9-7.2,2.5-10.2c0.5,1,1.3,1.8,2.3,2.4c2.8,1.6,6.3,0.6,7.9-2.3C506.7,25.3,505.7,21.7,502.9,20.2z"/>
	<path class="st7" d="M82.5,226.4c0.8,0.5,1.7,0.7,2.6,0.7c-1.2,3.3-1.3,6.8-0.3,9.9c3.2-0.8,6.2-2.6,8.4-5.4c0.5,0.7,1.1,1.4,2,1.8
		c2.8,1.6,6.3,0.6,7.9-2.3c1.6-2.8,0.6-6.4-2.2-7.9c-1.4-0.8-3.1-0.9-4.6-0.5c2.6-2.8,6.3-4.5,10.3-4.5c6.4,0,11.8,4.3,13.5,10.2
		c-1.1-1.1-2.5-1.8-4.2-1.8c-3.2,0-5.8,2.6-5.8,5.8c0,3.2,2.6,5.8,5.8,5.8c0.9,0,1.8-0.2,2.6-0.6c0.5,3.5,2.2,6.5,4.6,8.8
		c2.5-2.3,4.1-5.3,4.6-8.8c0.8,0.4,1.7,0.6,2.6,0.6c3.2,0,5.8-2.6,5.8-5.8c0-3.2-2.6-5.8-5.8-5.8c-1.6,0-3.1,0.7-4.2,1.8
		c1.7-5.9,7.1-10.2,13.5-10.2c4.1,0,7.8,1.7,10.3,4.5c-1.5-0.5-3.1-0.3-4.6,0.5c-2.8,1.6-3.8,5.1-2.2,7.9c1.6,2.8,5.1,3.8,7.9,2.3
		c0.8-0.5,1.5-1.1,2-1.8c2.1,2.8,5.1,4.6,8.4,5.4c1-3.2,1-6.7-0.3-9.9c0.9,0,1.8-0.3,2.6-0.7c2.8-1.6,3.8-5.1,2.2-7.9
		c-1.6-2.8-5.1-3.8-7.9-2.3c-1,0.6-1.8,1.4-2.3,2.4c-1.6-3.1-2.5-6.5-2.5-10.2c0-1.4,0.1-2.7,0.4-4c0-0.2-0.1-0.5-0.4-0.5
		c-8.7-1.3-19.1-2-30.3-2c-11.2,0-21.6,0.8-30.3,2c-0.2,0-0.4,0.3-0.4,0.5c0.2,1.3,0.4,2.6,0.4,4c0,3.7-0.9,7.2-2.5,10.2
		c-0.5-1-1.3-1.8-2.3-2.4c-2.8-1.6-6.3-0.6-7.9,2.3C78.7,221.2,79.7,224.8,82.5,226.4z"/>
	<path class="st7" d="M268.4,82.5c-0.5,0.8-0.7,1.7-0.7,2.6c-3.3-1.2-6.8-1.3-9.9-0.3c0.8,3.2,2.6,6.2,5.4,8.4
		c-0.7,0.5-1.4,1.1-1.8,2c-1.6,2.8-0.6,6.3,2.3,7.9c2.8,1.6,6.4,0.6,7.9-2.2c0.8-1.4,0.9-3.1,0.5-4.6c2.8,2.6,4.5,6.3,4.5,10.3
		c0,6.4-4.3,11.8-10.2,13.5c1.1-1.1,1.8-2.5,1.8-4.2c0-3.2-2.6-5.8-5.8-5.8c-3.2,0-5.8,2.6-5.8,5.8c0,0.9,0.2,1.8,0.6,2.6
		c-3.5,0.5-6.5,2.2-8.8,4.6c2.3,2.5,5.3,4.1,8.8,4.6c-0.4,0.8-0.6,1.7-0.6,2.6c0,3.2,2.6,5.8,5.8,5.8c3.2,0,5.8-2.6,5.8-5.8
		c0-1.6-0.7-3.1-1.8-4.2c5.9,1.7,10.2,7.1,10.2,13.5c0,4.1-1.7,7.8-4.5,10.3c0.5-1.5,0.3-3.1-0.5-4.6c-1.6-2.8-5.1-3.8-7.9-2.2
		c-2.8,1.6-3.8,5.1-2.3,7.9c0.5,0.8,1.1,1.5,1.8,2c-2.8,2.1-4.6,5.1-5.4,8.4c3.2,1,6.7,1,9.9-0.3c0,0.9,0.3,1.8,0.7,2.6
		c1.6,2.8,5.1,3.8,7.9,2.2c2.8-1.6,3.8-5.1,2.3-7.9c-0.6-1-1.4-1.8-2.4-2.3c3.1-1.6,6.5-2.5,10.2-2.5c1.4,0,2.7,0.1,4,0.4
		c0.2,0,0.5-0.1,0.5-0.4c1.3-8.7,2-19.1,2-30.3s-0.8-21.6-2-30.3c0-0.2-0.3-0.4-0.5-0.4c-1.3,0.2-2.6,0.4-4,0.4
		c-3.7,0-7.2-0.9-10.2-2.5c1-0.5,1.8-1.3,2.4-2.3c1.6-2.8,0.6-6.3-2.3-7.9C273.5,78.7,270,79.7,268.4,82.5z"/>
</g>
<g id="KOTY" class="st2">
	<g class="st8">
		<g>
			<line class="st9" x1="248.3" y1="201.8" x2="251.3" y2="201.8"/>
			<line class="st10" x1="254.3" y1="201.8" x2="511" y2="201.8"/>
			<line class="st9" x1="512.5" y1="201.8" x2="515.5" y2="201.8"/>
		</g>
	</g>
	<g class="st8">
		<g>
			<line class="st9" x1="248.3" y1="167.2" x2="251.3" y2="167.2"/>
			<line class="st11" x1="254.4" y1="167.2" x2="536.2" y2="167.2"/>
			<line class="st9" x1="537.8" y1="167.2" x2="540.8" y2="167.2"/>
		</g>
	</g>
	<g class="st8">
		<g>
			<line class="st9" x1="248.3" y1="149.9" x2="251.3" y2="149.9"/>
			<line class="st11" x1="254.4" y1="149.9" x2="536.2" y2="149.9"/>
			<line class="st9" x1="537.8" y1="149.9" x2="540.8" y2="149.9"/>
		</g>
	</g>
	<g class="st8">
		<g>
			<line class="st9" x1="248.3" y1="115.4" x2="251.3" y2="115.4"/>
			<line class="st11" x1="254.4" y1="115.4" x2="536.2" y2="115.4"/>
			<line class="st9" x1="537.8" y1="115.4" x2="540.8" y2="115.4"/>
		</g>
	</g>
	<g class="st8">
		<g>
			<line class="st9" x1="248.3" y1="89.4" x2="251.3" y2="89.4"/>
			<line class="st11" x1="254.4" y1="89.4" x2="536.2" y2="89.4"/>
			<line class="st9" x1="537.8" y1="89.4" x2="540.8" y2="89.4"/>
		</g>
	</g>
	<rect x="549.6" y="91.9" class="st12" width="34" height="26"/>
	<text transform="matrix(1 0 0 1 549.5639 107.9266)" class="st13 st14 st15">0.75 </text>
	<rect x="549.6" y="116.2" class="st12" width="34" height="34.6"/>
	<text transform="matrix(1 0 0 1 549.5639 136.441)" class="st13 st14 st15">1 </text>
	<rect x="549.6" y="169.3" class="st12" width="34" height="34.6"/>
	<text transform="matrix(1 0 0 1 549.5639 189.5693)" class="st13 st14 st15">1 </text>
	<rect x="549.6" y="148.5" class="st12" width="34" height="17.2"/>
	<text transform="matrix(1 0 0 1 549.5639 160.1031)" class="st13 st14 st15">0.5 </text>
</g>
</svg>
