<?xml version="1.0" encoding="UTF-8" standalone="no"?>
<svg
   role="img"
   viewBox="0 0 5.069663 4.9441957"
   version="1.1"
   id="svg1"
   sodipodi:docname="github.svg"
   width="5.069663"
   height="4.9441957"
   inkscape:version="1.4.2 (1:1.4.2+202505120738+ebf0e940d0)"
   xmlns:inkscape="http://www.inkscape.org/namespaces/inkscape"
   xmlns:sodipodi="http://sodipodi.sourceforge.net/DTD/sodipodi-0.dtd"
   xmlns="http://www.w3.org/2000/svg"
   xmlns:svg="http://www.w3.org/2000/svg">
  <defs
     id="defs1" />
  <sodipodi:namedview
     id="namedview1"
     pagecolor="#ffffff"
     bordercolor="#999999"
     borderopacity="1"
     inkscape:showpageshadow="0"
     inkscape:pageopacity="0"
     inkscape:pagecheckerboard="0"
     inkscape:deskcolor="#d1d1d1"
     inkscape:zoom="35.75"
     inkscape:cx="2.5314685"
     inkscape:cy="2.4615385"
     inkscape:window-width="1920"
     inkscape:window-height="1020"
     inkscape:window-x="0"
     inkscape:window-y="0"
     inkscape:window-maximized="1"
     inkscape:current-layer="svg1" />
  <title
     id="title1">GitHub</title>
  <path
     d="M 2.534864,0 C 1.134352,0 0,1.1349858 0,2.5348638 c 0,1.120199 0.726239,2.070139 1.733213,2.404952 0.126743,0.02387 0.173216,-0.0545 0.173216,-0.121884 0,-0.0602 -0.0021,-0.219688 -0.0032,-0.430927 C 1.198115,4.5399418 1.049403,4.0469108 1.049403,4.0469108 0.934066,3.7543448 0.767399,3.6761868 0.767399,3.6761868 c -0.229616,-0.157162 0.01774,-0.153993 0.01774,-0.153993 0.254543,0.01774 0.388257,0.261091 0.388257,0.261091 0.226025,0.387623 0.593369,0.275666 0.738279,0.210816 0.02281,-0.163921 0.08809,-0.275667 0.160541,-0.339038 -0.562951,-0.06337 -1.15463,-0.28137 -1.15463,-1.252645 0,-0.276723 0.09823,-0.502748 0.26088,-0.680189 -0.02852,-0.064 -0.114069,-0.321716 0.02218,-0.670894 0,0 0.212294,-0.06802 0.697087,0.259824 0.202789,-0.0564 0.418253,-0.08428 0.633716,-0.08555 0.215464,0.0013 0.430927,0.02915 0.633716,0.08555 0.481624,-0.327843 0.693919,-0.259824 0.693919,-0.259824 0.136249,0.349178 0.0507,0.606889 0.02535,0.670894 0.161597,0.177441 0.259823,0.403466 0.259823,0.680189 0,0.97381 -0.592524,1.188217 -1.156531,1.250533 0.08872,0.07604 0.171103,0.231517 0.171103,0.468949 0,0.33925 -0.0032,0.611748 -0.0032,0.694131 0,0.06654 0.04436,0.145754 0.174272,0.120406 1.014157,-0.33249 1.739762,-1.283064 1.739762,-2.401573 C 5.069663,1.1349858 3.934678,0 2.534799,0"
     id="path1"
     style="stroke-width:1" />
</svg>
