<?xml version='1.0' encoding='UTF-8'?>
<svg version="1.1" xmlns="http://www.w3.org/2000/svg" xmlns:xlink="http://www.w3.org/1999/xlink" xmlns:a="http://ns.adobe.com/AdobeSVGViewerExtensions/3.0/" x="0px" y="0px" width="301px" height="224px" viewBox="-0.518 -0.445 301 224" enable-background="new -0.518 -0.445 301 224" xml:space="preserve">
<defs>
</defs>
<path fill="#27E80D" d="M0,221.974v-42.832h7.002v36.826h18.135v6.006H0z"></path>
<path fill="#27E80D" d="M59.091,221.974l-4.277-11.895H38.438l-4.189,11.895h-7.383l16.025-43.008h7.617l16.025,43.008H59.091z   M52.969,204.044l-4.014-11.66c-0.293-0.781-0.699-2.012-1.217-3.691s-0.874-2.91-1.068-3.691c-0.527,2.402-1.3,5.029-2.314,7.881  l-3.867,11.162H52.969z"></path>
<path fill="#27E80D" d="M107.871,221.974h-8.584l-21.064-34.131h-0.234l0.146,1.904c0.273,3.633,0.41,6.953,0.41,9.961v22.266  h-6.357v-42.832h8.496l21.006,33.955h0.176c-0.039-0.449-0.117-2.085-0.234-4.907s-0.176-5.024-0.176-6.606v-22.441h6.416V221.974z"></path>
<path fill="#27E80D" d="M136.699,198.742h15.762v21.504c-2.578,0.84-5.055,1.436-7.428,1.787s-4.936,0.527-7.689,0.527  c-6.484,0-11.484-1.919-15-5.757s-5.273-9.253-5.273-16.245c0-6.895,1.982-12.29,5.947-16.187s9.424-5.845,16.377-5.845  c4.473,0,8.711,0.859,12.715,2.578l-2.461,5.83c-3.477-1.602-6.953-2.402-10.43-2.402c-4.57,0-8.184,1.436-10.84,4.307  s-3.984,6.797-3.984,11.777c0,5.234,1.195,9.214,3.588,11.938s5.836,4.087,10.328,4.087c2.266,0,4.688-0.283,7.266-0.85v-11.045  h-8.877V198.742z"></path>
<path fill="#006A2A" d="M176.162,221.974h-4.98v-38.408h-13.564v-4.424h32.109v4.424h-13.564V221.974z"></path>
<path fill="#006A2A" d="M220.048,221.974h-23.877v-42.832h23.877v4.424h-18.896v13.799h17.754v4.395h-17.754v15.762h18.896V221.974z  "></path>
<path fill="#006A2A" d="M247.88,182.98c-4.707,0-8.424,1.567-11.148,4.702s-4.086,7.427-4.086,12.876  c0,5.605,1.313,9.937,3.939,12.993s6.373,4.585,11.236,4.585c2.988,0,6.396-0.537,10.225-1.611v4.365  c-2.969,1.113-6.631,1.67-10.986,1.67c-6.309,0-11.178-1.914-14.605-5.742s-5.141-9.268-5.141-16.318  c0-4.414,0.824-8.281,2.475-11.602s4.033-5.879,7.148-7.676s6.783-2.695,11.002-2.695c4.492,0,8.418,0.82,11.777,2.461l-2.109,4.277  C254.365,183.742,251.123,182.98,247.88,182.98z"></path>
<path fill="#006A2A" d="M299.912,221.974h-4.98v-20.156h-22.559v20.156h-4.98v-42.832h4.98v18.223h22.559v-18.223h4.98V221.974z"></path>
<polygon fill="#27E80D" points="183.928,140 218.725,105.204 78.723,105.204 78.725,140 "></polygon>
<polygon fill="#27E80D" points="78.725,34.796 113.521,0 113.521,140 78.724,140 "></polygon>
<polygon fill="#006A2A" points="218.723,0.001 183.926,0.001 183.926,140 218.723,105.205 "></polygon>
<polygon fill="#006A2A" points="113.521,34.796 113.521,0 253.52,0 218.725,34.797 "></polygon>
<linearGradient id="SVGID_1_" gradientUnits="userSpaceOnUse" x1="113.521" y1="17.3989" x2="149.9556" y2="17.3989">
	<stop offset="0" style="stop-color:#1A171B"></stop>
	<stop offset="1" style="stop-color:#1A171B;stop-opacity:0"></stop>
</linearGradient>
<rect x="113.521" opacity="0.3" fill="url(#SVGID_1_)" width="36.435" height="34.797"></rect>
<linearGradient id="SVGID_2_" gradientUnits="userSpaceOnUse" x1="-175.897" y1="301.1528" x2="-139.3013" y2="301.1528" gradientTransform="matrix(-1 0 0 -1 8.0293 423.7549)">
	<stop offset="0" style="stop-color:#1A171B"></stop>
	<stop offset="1" style="stop-color:#1A171B;stop-opacity:0"></stop>
</linearGradient>
<rect x="147.331" y="105.204" opacity="0.3" fill="url(#SVGID_2_)" width="36.596" height="34.797"></rect>
</svg>