<?xml version="1.0" encoding="UTF-8" standalone="no"?>
<!-- Created with Inkscape (http://www.inkscape.org/) -->

<svg
   xmlns:dc="http://purl.org/dc/elements/1.1/"
   xmlns:cc="http://creativecommons.org/ns#"
   xmlns:rdf="http://www.w3.org/1999/02/22-rdf-syntax-ns#"
   xmlns:svg="http://www.w3.org/2000/svg"
   xmlns="http://www.w3.org/2000/svg"
   xmlns:sodipodi="http://sodipodi.sourceforge.net/DTD/sodipodi-0.dtd"
   xmlns:inkscape="http://www.inkscape.org/namespaces/inkscape"
   id="svg2"
   version="1.1"
   inkscape:version="0.92.1 r15371"
   xml:space="preserve"
   width="96.000008"
   height="60.080196"
   viewBox="0 0 90.000007 56.325185"
   sodipodi:docname="opvv.svg"><metadata
     id="metadata8"><rdf:RDF><cc:Work
         rdf:about=""><dc:format>image/svg+xml</dc:format><dc:type
           rdf:resource="http://purl.org/dc/dcmitype/StillImage" /><dc:title></dc:title></cc:Work></rdf:RDF></metadata><defs
     id="defs6"><clipPath
       clipPathUnits="userSpaceOnUse"
       id="clipPath20"><path
         d="M 0,779.528 H 1181.102 V 0 H 0 Z"
         id="path22"
         inkscape:connector-curvature="0" /></clipPath></defs><sodipodi:namedview
     pagecolor="#ffffff"
     bordercolor="#666666"
     borderopacity="1"
     objecttolerance="10"
     gridtolerance="10"
     guidetolerance="10"
     inkscape:pageopacity="0"
     inkscape:pageshadow="2"
     inkscape:window-width="1920"
     inkscape:window-height="1053"
     id="namedview4"
     showgrid="false"
     fit-margin-top="0"
     fit-margin-left="0"
     fit-margin-right="0"
     fit-margin-bottom="0"
     inkscape:zoom="5.1649747"
     inkscape:cx="47.034641"
     inkscape:cy="3.652234"
     inkscape:window-x="0"
     inkscape:window-y="0"
     inkscape:window-maximized="1"
     inkscape:current-layer="g10" /><g
     id="g10"
     inkscape:groupmode="layer"
     inkscape:label="EN_VE_B_C"
     transform="matrix(1.25,0,0,-1.25,-103.9375,160.77381)"><g
       id="g12"
       transform="matrix(0.07352928,0,0,0.07352928,84.009462,99.994751)"><path
         d="M 0,0 V 39.37 H 28.467 V 34.725 H 5.21 V 22.666 H 26.99 V 18.047 H 5.21 V 4.646 H 29.38 V 0 Z"
         style="fill:#040606;fill-opacity:1;fill-rule:nonzero;stroke:none"
         id="path14"
         inkscape:connector-curvature="0" /></g><g
       id="g16"
       transform="matrix(0.07352928,0,0,0.07352928,77.036041,77.414875)"><g
         id="g18"
         clip-path="url(#clipPath20)"><g
           id="g24"
           transform="translate(154.8416,346.457)"><path
             d="m 0,0 h 5.21 v -22.747 c 0,-3.956 -0.448,-7.099 -1.343,-9.426 -0.895,-2.327 -2.511,-4.221 -4.847,-5.68 -2.336,-1.46 -5.403,-2.189 -9.198,-2.189 -3.689,0 -6.705,0.636 -9.051,1.907 -2.345,1.272 -4.019,3.111 -5.021,5.519 -1.003,2.408 -1.504,5.698 -1.504,9.869 V 0 h 5.21 v -22.72 c 0,-3.42 0.317,-5.939 0.953,-7.559 0.635,-1.621 1.728,-2.869 3.277,-3.747 1.548,-0.877 3.441,-1.316 5.679,-1.316 3.831,0 6.562,0.868 8.191,2.605 C -0.815,-31 0,-27.661 0,-22.72 Z"
             style="fill:#040606;fill-opacity:1;fill-rule:nonzero;stroke:none"
             id="path26"
             inkscape:connector-curvature="0" /></g><g
           id="g28"
           transform="translate(173.3509,329.0811)"><path
             d="m 0,0 h 11.199 c 2.381,0 4.243,0.246 5.586,0.739 1.342,0.492 2.363,1.28 3.061,2.364 0.698,1.083 1.048,2.259 1.048,3.531 0,1.862 -0.676,3.392 -2.028,4.593 -1.352,1.199 -3.487,1.798 -6.405,1.798 H 0 Z m -5.21,-21.994 v 39.37 h 17.456 c 3.509,0 6.177,-0.354 8.003,-1.061 1.826,-0.708 3.285,-1.956 4.377,-3.747 1.092,-1.79 1.639,-3.768 1.639,-5.934 0,-2.793 -0.905,-5.148 -2.713,-7.064 -1.808,-1.915 -4.601,-3.133 -8.379,-3.652 1.379,-0.662 2.426,-1.315 3.142,-1.96 1.522,-1.396 2.963,-3.142 4.324,-5.237 l 6.848,-10.715 h -6.552 l -5.21,8.191 c -1.522,2.364 -2.776,4.171 -3.76,5.424 -0.985,1.254 -1.867,2.131 -2.645,2.633 -0.779,0.501 -1.571,0.85 -2.377,1.047 -0.591,0.125 -1.558,0.187 -2.901,0.187 H 0 v -17.482 z"
             style="fill:#040606;fill-opacity:1;fill-rule:nonzero;stroke:none"
             id="path30"
             inkscape:connector-curvature="0" /></g><g
           id="g32"
           transform="translate(209.8616,326.1807)"><path
             d="m 0,0 c 0,-4.744 1.276,-8.481 3.827,-11.212 2.551,-2.73 5.751,-4.095 9.601,-4.095 3.921,0 7.148,1.378 9.681,4.135 2.534,2.758 3.8,6.67 3.8,11.736 0,3.206 -0.541,6.002 -1.624,8.393 -1.084,2.39 -2.668,4.243 -4.754,5.559 -2.086,1.316 -4.427,1.974 -7.023,1.974 -3.688,0 -6.861,-1.267 -9.52,-3.801 C 1.33,10.156 0,5.927 0,0 m -5.371,0.081 c 0,6.535 1.754,11.65 5.264,15.348 3.508,3.697 8.038,5.546 13.588,5.546 3.635,0 6.911,-0.869 9.83,-2.606 2.918,-1.736 5.143,-4.158 6.673,-7.264 1.531,-3.106 2.296,-6.628 2.296,-10.568 0,-3.992 -0.805,-7.563 -2.417,-10.715 -1.611,-3.151 -3.894,-5.537 -6.848,-7.157 -2.954,-1.62 -6.141,-2.431 -9.56,-2.431 -3.706,0 -7.019,0.896 -9.937,2.686 -2.918,1.791 -5.129,4.234 -6.633,7.332 -1.504,3.098 -2.256,6.374 -2.256,9.829"
             style="fill:#040606;fill-opacity:1;fill-rule:nonzero;stroke:none"
             id="path34"
             inkscape:connector-curvature="0" /></g><g
           id="g36"
           transform="translate(253.5154,327.7393)"><path
             d="m 0,0 h 10.178 c 3.366,0 5.756,0.626 7.171,1.879 1.414,1.254 2.121,3.017 2.121,5.291 0,1.647 -0.416,3.057 -1.248,4.229 -0.833,1.173 -1.93,1.948 -3.29,2.324 -0.878,0.232 -2.498,0.349 -4.861,0.349 L 0,14.072 Z m -5.21,-20.652 v 39.37 H 9.641 c 2.614,0 4.61,-0.125 5.989,-0.376 1.933,-0.322 3.554,-0.936 4.861,-1.84 1.306,-0.904 2.359,-2.171 3.155,-3.8 0.797,-1.629 1.195,-3.42 1.195,-5.371 0,-3.348 -1.065,-6.182 -3.195,-8.5 -2.131,-2.318 -5.98,-3.477 -11.548,-3.477 H 0 v -16.006 z"
             style="fill:#040606;fill-opacity:1;fill-rule:nonzero;stroke:none"
             id="path38"
             inkscape:connector-curvature="0" /></g><g
           id="g40"
           transform="translate(283.4588,307.0869)"><path
             d="M 0,0 V 39.37 H 28.467 V 34.725 H 5.21 V 22.666 H 26.99 V 18.047 H 5.21 V 4.646 H 29.38 V 0 Z"
             style="fill:#040606;fill-opacity:1;fill-rule:nonzero;stroke:none"
             id="path42"
             inkscape:connector-curvature="0" /></g><g
           id="g44"
           transform="translate(327.5228,323.2539)"><path
             d="M 0,0 H 13.347 L 9.238,10.903 C 7.985,14.216 7.054,16.937 6.445,19.067 5.944,16.543 5.237,14.036 4.324,11.548 Z m -11.36,-16.167 15.12,39.37 h 5.613 l 16.113,-39.37 H 19.551 L 14.958,-4.243 H -1.504 l -4.324,-11.924 z"
             style="fill:#040606;fill-opacity:1;fill-rule:nonzero;stroke:none"
             id="path46"
             inkscape:connector-curvature="0" /></g><g
           id="g48"
           transform="translate(356.8919,307.0869)"><path
             d="M 0,0 V 39.37 H 5.344 L 26.023,8.459 V 39.37 h 4.995 V 0 H 25.674 L 4.995,30.937 V 0 Z"
             style="fill:#040606;fill-opacity:1;fill-rule:nonzero;stroke:none"
             id="path50"
             inkscape:connector-curvature="0" /></g><g
           id="g52"
           transform="translate(437.7806,346.457)"><path
             d="m 0,0 h 5.21 v -22.747 c 0,-3.956 -0.448,-7.099 -1.343,-9.426 -0.895,-2.327 -2.511,-4.221 -4.847,-5.68 -2.336,-1.46 -5.403,-2.189 -9.198,-2.189 -3.689,0 -6.705,0.636 -9.051,1.907 -2.345,1.272 -4.019,3.111 -5.021,5.519 -1.003,2.408 -1.504,5.698 -1.504,9.869 V 0 h 5.21 v -22.72 c 0,-3.42 0.317,-5.939 0.953,-7.559 0.635,-1.621 1.728,-2.869 3.277,-3.747 1.548,-0.877 3.441,-1.316 5.679,-1.316 3.831,0 6.562,0.868 8.191,2.605 C -0.815,-31 0,-27.661 0,-22.72 Z"
             style="fill:#040606;fill-opacity:1;fill-rule:nonzero;stroke:none"
             id="path54"
             inkscape:connector-curvature="0" /></g><g
           id="g56"
           transform="translate(451.0008,307.0869)"><path
             d="M 0,0 V 39.37 H 5.344 L 26.023,8.459 V 39.37 h 4.995 V 0 H 25.674 L 4.995,30.937 V 0 Z"
             style="fill:#040606;fill-opacity:1;fill-rule:nonzero;stroke:none"
             id="path58"
             inkscape:connector-curvature="0" /></g><path
           d="m 490.615,346.457 h 5.21 v -39.37 h -5.21 z"
           style="fill:#040606;fill-opacity:1;fill-rule:nonzero;stroke:none"
           id="path60"
           inkscape:connector-curvature="0" /><g
           id="g62"
           transform="translate(507.8558,326.1807)"><path
             d="m 0,0 c 0,-4.744 1.276,-8.481 3.827,-11.212 2.551,-2.73 5.751,-4.095 9.601,-4.095 3.921,0 7.148,1.378 9.681,4.135 2.534,2.758 3.8,6.67 3.8,11.736 0,3.206 -0.541,6.002 -1.624,8.393 -1.084,2.39 -2.668,4.243 -4.754,5.559 -2.086,1.316 -4.427,1.974 -7.023,1.974 -3.688,0 -6.861,-1.267 -9.52,-3.801 C 1.33,10.156 0,5.927 0,0 m -5.371,0.081 c 0,6.535 1.754,11.65 5.264,15.348 3.508,3.697 8.038,5.546 13.588,5.546 3.635,0 6.911,-0.869 9.83,-2.606 2.918,-1.736 5.143,-4.158 6.673,-7.264 1.531,-3.106 2.296,-6.628 2.296,-10.568 0,-3.992 -0.805,-7.563 -2.417,-10.715 -1.611,-3.151 -3.894,-5.537 -6.848,-7.157 -2.954,-1.62 -6.141,-2.431 -9.56,-2.431 -3.706,0 -7.019,0.896 -9.937,2.686 -2.918,1.791 -5.129,4.234 -6.633,7.332 -1.504,3.098 -2.256,6.374 -2.256,9.829"
             style="fill:#040606;fill-opacity:1;fill-rule:nonzero;stroke:none"
             id="path64"
             inkscape:connector-curvature="0" /></g><g
           id="g66"
           transform="translate(546.2737,307.0869)"><path
             d="M 0,0 V 39.37 H 5.344 L 26.023,8.459 V 39.37 h 4.995 V 0 H 25.674 L 4.995,30.937 V 0 Z"
             style="fill:#040606;fill-opacity:1;fill-rule:nonzero;stroke:none"
             id="path68"
             inkscape:connector-curvature="0" /></g><g
           id="g70"
           transform="translate(94.8387,236.2207)"><path
             d="M 0,0 V 39.37 H 28.467 V 34.725 H 5.21 V 22.666 H 26.99 V 18.047 H 5.21 V 4.646 H 29.38 V 0 Z"
             style="fill:#000000;fill-opacity:1;fill-rule:nonzero;stroke:none"
             id="path72"
             inkscape:connector-curvature="0" /></g><g
           id="g74"
           transform="translate(147.1522,236.2207)"><path
             d="m 0,0 v 4.189 c -2.22,-3.222 -5.237,-4.834 -9.05,-4.834 -1.683,0 -3.254,0.323 -4.713,0.967 -1.46,0.645 -2.543,1.454 -3.25,2.431 -0.707,0.976 -1.204,2.171 -1.49,3.585 -0.198,0.949 -0.296,2.453 -0.296,4.512 v 17.671 h 4.834 V 12.703 c 0,-2.525 0.098,-4.225 0.296,-5.103 0.304,-1.271 0.948,-2.269 1.933,-2.995 0.985,-0.724 2.202,-1.087 3.653,-1.087 1.45,0 2.81,0.372 4.082,1.115 1.271,0.742 2.17,1.754 2.699,3.034 0.528,1.28 0.792,3.138 0.792,5.573 V 28.521 H 4.324 L 4.324,0 Z"
             style="fill:#000000;fill-opacity:1;fill-rule:nonzero;stroke:none"
             id="path76"
             inkscape:connector-curvature="0" /></g><g
           id="g78"
           transform="translate(157.5106,236.2207)"><path
             d="m 0,0 v 28.521 h 4.351 v -4.324 c 1.109,2.023 2.135,3.357 3.074,4.001 0.941,0.645 1.974,0.967 3.102,0.967 1.629,0 3.286,-0.519 4.969,-1.558 L 13.831,23.123 C 12.649,23.82 11.467,24.17 10.286,24.17 9.229,24.17 8.28,23.852 7.439,23.217 6.597,22.581 5.998,21.699 5.64,20.571 5.103,18.853 4.834,16.973 4.834,14.932 V 0 Z"
             style="fill:#000000;fill-opacity:1;fill-rule:nonzero;stroke:none"
             id="path80"
             inkscape:connector-curvature="0" /></g><g
           id="g82"
           transform="translate(177.8548,250.4805)"><path
             d="m 0,0 c 0,-3.652 0.796,-6.387 2.39,-8.204 1.593,-1.817 3.599,-2.726 6.016,-2.726 2.399,0 4.395,0.913 5.989,2.74 1.593,1.826 2.39,4.61 2.39,8.352 0,3.526 -0.802,6.198 -2.404,8.016 -1.602,1.817 -3.594,2.726 -5.975,2.726 C 5.989,10.904 3.983,10 2.39,8.191 0.796,6.383 0,3.652 0,0 m -4.968,0 c 0,5.282 1.468,9.194 4.404,11.736 2.453,2.113 5.442,3.169 8.97,3.169 3.921,0 7.125,-1.285 9.614,-3.853 2.488,-2.57 3.733,-6.119 3.733,-10.649 0,-3.67 -0.55,-6.557 -1.652,-8.661 -1.101,-2.103 -2.703,-3.737 -4.807,-4.9 -2.104,-1.164 -4.4,-1.746 -6.888,-1.746 -3.993,0 -7.22,1.28 -9.682,3.84 -2.461,2.56 -3.692,6.249 -3.692,11.064"
             style="fill:#000000;fill-opacity:1;fill-rule:nonzero;stroke:none"
             id="path84"
             inkscape:connector-curvature="0" /></g><g
           id="g86"
           transform="translate(208.5076,250.3203)"><path
             d="m 0,0 c 0,-3.671 0.743,-6.383 2.229,-8.138 1.486,-1.755 3.285,-2.632 5.398,-2.632 2.148,0 3.988,0.909 5.519,2.726 1.531,1.817 2.296,4.633 2.296,8.446 0,3.635 -0.748,6.356 -2.243,8.164 -1.494,1.809 -3.281,2.713 -5.357,2.713 -2.059,0 -3.881,-0.963 -5.465,-2.887 C 0.792,6.467 0,3.67 0,0 m -4.377,-25.029 v 39.45 h 4.404 v -3.706 c 1.038,1.45 2.211,2.538 3.518,3.263 1.307,0.725 2.891,1.087 4.753,1.087 2.435,0 4.583,-0.627 6.446,-1.879 1.861,-1.253 3.267,-3.022 4.216,-5.304 0.949,-2.283 1.423,-4.785 1.423,-7.507 0,-2.918 -0.524,-5.545 -1.571,-7.882 -1.047,-2.336 -2.569,-4.127 -4.565,-5.371 -1.997,-1.244 -4.096,-1.866 -6.298,-1.866 -1.611,0 -3.057,0.34 -4.337,1.02 -1.28,0.681 -2.332,1.54 -3.155,2.578 v -13.883 z"
             style="fill:#000000;fill-opacity:1;fill-rule:nonzero;stroke:none"
             id="path88"
             inkscape:connector-curvature="0" /></g><g
           id="g90"
           transform="translate(237.2269,253.2207)"><path
             d="M 0,0 H 15.925 C 15.71,2.398 15.102,4.198 14.099,5.397 12.559,7.26 10.563,8.19 8.11,8.19 5.89,8.19 4.024,7.447 2.511,5.961 0.998,4.476 0.161,2.488 0,0 m 15.872,-7.815 4.995,-0.619 c -0.788,-2.918 -2.247,-5.182 -4.378,-6.794 -2.131,-1.611 -4.852,-2.417 -8.164,-2.417 -4.172,0 -7.479,1.285 -9.923,3.854 -2.444,2.569 -3.666,6.173 -3.666,10.81 0,4.797 1.236,8.522 3.706,11.171 2.471,2.65 5.676,3.975 9.615,3.975 3.813,0 6.928,-1.298 9.345,-3.894 2.417,-2.596 3.626,-6.249 3.626,-10.957 0,-0.287 -0.009,-0.716 -0.027,-1.289 h -21.27 c 0.179,-3.133 1.065,-5.533 2.659,-7.197 1.593,-1.666 3.581,-2.498 5.962,-2.498 1.773,0 3.285,0.466 4.539,1.397 1.253,0.93 2.246,2.417 2.981,4.458"
             style="fill:#000000;fill-opacity:1;fill-rule:nonzero;stroke:none"
             id="path92"
             inkscape:connector-curvature="0" /></g><g
           id="g94"
           transform="translate(281.0843,250.5351)"><path
             d="m 0,0 c -1.755,-0.717 -4.387,-1.325 -7.896,-1.826 -1.987,-0.287 -3.393,-0.61 -4.216,-0.967 -0.824,-0.358 -1.459,-0.883 -1.907,-1.571 -0.447,-0.69 -0.671,-1.455 -0.671,-2.296 0,-1.289 0.488,-2.363 1.464,-3.223 0.976,-0.859 2.403,-1.289 4.283,-1.289 1.862,0 3.518,0.406 4.968,1.222 1.451,0.814 2.516,1.929 3.196,3.343 C -0.26,-5.515 0,-3.903 0,-1.773 Z m 0.403,-10.797 c -1.791,-1.521 -3.514,-2.596 -5.17,-3.223 -1.656,-0.626 -3.433,-0.939 -5.331,-0.939 -3.133,0 -5.541,0.766 -7.224,2.296 -1.683,1.531 -2.524,3.487 -2.524,5.868 0,1.397 0.318,2.672 0.953,3.827 0.636,1.155 1.468,2.081 2.498,2.78 1.029,0.698 2.188,1.226 3.478,1.584 0.948,0.25 2.38,0.493 4.296,0.725 3.903,0.466 6.777,1.021 8.621,1.665 0.018,0.662 0.027,1.083 0.027,1.263 0,1.969 -0.457,3.356 -1.37,4.162 -1.235,1.092 -3.071,1.639 -5.505,1.639 -2.274,0 -3.952,-0.4 -5.035,-1.196 -1.084,-0.797 -1.885,-2.207 -2.404,-4.23 l -4.727,0.644 c 0.43,2.024 1.137,3.658 2.122,4.902 0.984,1.244 2.408,2.202 4.27,2.874 1.862,0.671 4.019,1.007 6.472,1.007 2.435,0 4.413,-0.287 5.935,-0.86 C 1.307,13.418 2.426,12.697 3.142,11.829 3.858,10.961 4.359,9.864 4.646,8.539 4.807,7.716 4.888,6.23 4.888,4.082 v -6.445 c 0,-4.494 0.103,-7.337 0.309,-8.528 0.205,-1.19 0.613,-2.332 1.221,-3.423 H 1.37 c -0.502,1.002 -0.824,2.175 -0.967,3.517"
             style="fill:#000000;fill-opacity:1;fill-rule:nonzero;stroke:none"
             id="path96"
             inkscape:connector-curvature="0" /></g><g
           id="g98"
           transform="translate(292.0511,236.2207)"><path
             d="m 0,0 v 28.521 h 4.351 v -4.056 c 2.094,3.134 5.12,4.7 9.077,4.7 1.718,0 3.299,-0.309 4.739,-0.927 1.442,-0.617 2.52,-1.427 3.237,-2.429 0.716,-1.003 1.217,-2.194 1.504,-3.573 0.178,-0.895 0.268,-2.462 0.268,-4.699 V 0 h -4.834 v 17.349 c 0,1.969 -0.188,3.441 -0.564,4.418 -0.376,0.975 -1.043,1.754 -2,2.336 -0.958,0.582 -2.082,0.873 -3.371,0.873 -2.059,0 -3.836,-0.654 -5.33,-1.96 C 5.582,21.708 4.834,19.229 4.834,15.576 V 0 Z"
             style="fill:#000000;fill-opacity:1;fill-rule:nonzero;stroke:none"
             id="path100"
             inkscape:connector-curvature="0" /></g><g
           id="g102"
           transform="translate(336.2151,248.8691)"><path
             d="M 0,0 4.915,0.43 C 5.147,-1.539 5.689,-3.155 6.539,-4.417 7.39,-5.68 8.71,-6.7 10.5,-7.479 c 1.791,-0.779 3.805,-1.167 6.043,-1.167 1.987,0 3.742,0.294 5.264,0.885 1.521,0.591 2.654,1.401 3.397,2.431 0.743,1.029 1.114,2.152 1.114,3.37 0,1.235 -0.358,2.314 -1.074,3.236 C 24.528,2.198 23.346,2.973 21.699,3.6 20.643,4.011 18.306,4.65 14.69,5.52 11.073,6.388 8.54,7.207 7.09,7.977 5.21,8.961 3.809,10.183 2.887,11.643 c -0.922,1.459 -1.383,3.092 -1.383,4.9 0,1.988 0.564,3.845 1.692,5.573 1.128,1.728 2.775,3.039 4.941,3.935 2.166,0.894 4.574,1.342 7.224,1.342 2.918,0 5.493,-0.47 7.721,-1.41 2.23,-0.94 3.943,-2.323 5.143,-4.149 1.199,-1.826 1.844,-3.895 1.934,-6.203 l -4.995,-0.377 c -0.269,2.489 -1.178,4.369 -2.727,5.641 -1.548,1.27 -3.835,1.906 -6.861,1.906 -3.151,0 -5.447,-0.577 -6.888,-1.733 -1.441,-1.154 -2.162,-2.547 -2.162,-4.175 0,-1.414 0.51,-2.579 1.531,-3.492 1.002,-0.913 3.621,-1.848 7.855,-2.806 C 20.146,9.637 23.051,8.8 24.626,8.084 26.918,7.027 28.61,5.689 29.702,4.069 30.794,2.448 31.34,0.582 31.34,-1.53 c 0,-2.095 -0.6,-4.069 -1.799,-5.922 -1.2,-1.853 -2.923,-3.294 -5.17,-4.323 -2.246,-1.03 -4.776,-1.545 -7.586,-1.545 -3.563,0 -6.549,0.519 -8.957,1.558 -2.408,1.038 -4.297,2.6 -5.666,4.686 C 0.792,-4.99 0.071,-2.631 0,0"
             style="fill:#000000;fill-opacity:1;fill-rule:nonzero;stroke:none"
             id="path104"
             inkscape:connector-curvature="0" /></g><g
           id="g106"
           transform="translate(383.3328,240.5449)"><path
             d="M 0,0 0.698,-4.271 C -0.663,-4.557 -1.88,-4.7 -2.954,-4.7 c -1.755,0 -3.115,0.277 -4.082,0.833 -0.967,0.554 -1.648,1.284 -2.041,2.188 -0.394,0.904 -0.591,2.806 -0.591,5.706 v 16.41 h -3.545 v 3.759 h 3.545 v 7.064 l 4.807,2.9 V 24.196 H 0 V 20.437 H -4.861 V 3.76 c 0,-1.379 0.085,-2.266 0.256,-2.659 0.169,-0.394 0.447,-0.707 0.832,-0.941 0.385,-0.232 0.935,-0.348 1.651,-0.348 0.538,0 1.245,0.062 2.122,0.188"
             style="fill:#000000;fill-opacity:1;fill-rule:nonzero;stroke:none"
             id="path108"
             inkscape:connector-curvature="0" /></g><g
           id="g110"
           transform="translate(386.994,236.2207)"><path
             d="m 0,0 v 28.521 h 4.351 v -4.324 c 1.109,2.023 2.135,3.357 3.074,4.001 0.941,0.645 1.974,0.967 3.102,0.967 1.629,0 3.286,-0.519 4.969,-1.558 L 13.831,23.123 C 12.649,23.82 11.467,24.17 10.286,24.17 9.229,24.17 8.28,23.852 7.439,23.217 6.597,22.581 5.998,21.699 5.64,20.571 5.103,18.853 4.834,16.973 4.834,14.932 V 0 Z"
             style="fill:#000000;fill-opacity:1;fill-rule:nonzero;stroke:none"
             id="path112"
             inkscape:connector-curvature="0" /></g><g
           id="g114"
           transform="translate(423.6859,236.2207)"><path
             d="m 0,0 v 4.189 c -2.22,-3.222 -5.237,-4.834 -9.05,-4.834 -1.683,0 -3.254,0.323 -4.713,0.967 -1.46,0.645 -2.543,1.454 -3.25,2.431 -0.707,0.976 -1.204,2.171 -1.49,3.585 -0.198,0.949 -0.296,2.453 -0.296,4.512 v 17.671 h 4.834 V 12.703 c 0,-2.525 0.098,-4.225 0.296,-5.103 0.304,-1.271 0.948,-2.269 1.933,-2.995 0.985,-0.724 2.202,-1.087 3.653,-1.087 1.45,0 2.81,0.372 4.082,1.115 1.271,0.742 2.17,1.754 2.699,3.034 0.528,1.28 0.792,3.138 0.792,5.573 V 28.521 H 4.324 L 4.324,0 Z"
             style="fill:#000000;fill-opacity:1;fill-rule:nonzero;stroke:none"
             id="path116"
             inkscape:connector-curvature="0" /></g><g
           id="g118"
           transform="translate(452.7855,246.668)"><path
             d="M 0,0 4.753,-0.618 C 4.234,-3.895 2.905,-6.459 0.766,-8.313 c -2.14,-1.852 -4.767,-2.779 -7.883,-2.779 -3.903,0 -7.04,1.276 -9.412,3.827 -2.373,2.551 -3.559,6.208 -3.559,10.97 0,3.08 0.51,5.775 1.531,8.084 1.02,2.31 2.574,4.042 4.66,5.196 2.085,1.156 4.354,1.733 6.807,1.733 3.097,0 5.631,-0.783 7.6,-2.35 1.969,-1.567 3.232,-3.791 3.787,-6.674 l -4.7,-0.725 c -0.448,1.916 -1.24,3.357 -2.376,4.324 -1.138,0.967 -2.512,1.45 -4.123,1.45 -2.435,0 -4.413,-0.873 -5.935,-2.618 -1.522,-1.746 -2.283,-4.508 -2.283,-8.285 0,-3.831 0.734,-6.615 2.203,-8.352 1.467,-1.737 3.383,-2.605 5.747,-2.605 1.897,0 3.482,0.582 4.753,1.746 C -1.146,-4.208 -0.34,-2.418 0,0"
             style="fill:#000000;fill-opacity:1;fill-rule:nonzero;stroke:none"
             id="path120"
             inkscape:connector-curvature="0" /></g><g
           id="g122"
           transform="translate(471.5027,240.5449)"><path
             d="M 0,0 0.698,-4.271 C -0.663,-4.557 -1.88,-4.7 -2.954,-4.7 c -1.755,0 -3.115,0.277 -4.082,0.833 -0.967,0.554 -1.648,1.284 -2.041,2.188 -0.394,0.904 -0.591,2.806 -0.591,5.706 v 16.41 h -3.545 v 3.759 h 3.545 v 7.064 l 4.807,2.9 V 24.196 H 0 V 20.437 H -4.861 V 3.76 c 0,-1.379 0.085,-2.266 0.256,-2.659 0.169,-0.394 0.447,-0.707 0.832,-0.941 0.385,-0.232 0.935,-0.348 1.651,-0.348 0.538,0 1.245,0.062 2.122,0.188"
             style="fill:#000000;fill-opacity:1;fill-rule:nonzero;stroke:none"
             id="path124"
             inkscape:connector-curvature="0" /></g><g
           id="g126"
           transform="translate(493.5516,236.2207)"><path
             d="m 0,0 v 4.189 c -2.22,-3.222 -5.237,-4.834 -9.05,-4.834 -1.683,0 -3.254,0.323 -4.713,0.967 -1.46,0.645 -2.543,1.454 -3.25,2.431 -0.707,0.976 -1.204,2.171 -1.49,3.585 -0.198,0.949 -0.296,2.453 -0.296,4.512 v 17.671 h 4.834 V 12.703 c 0,-2.525 0.098,-4.225 0.296,-5.103 0.304,-1.271 0.948,-2.269 1.933,-2.995 0.985,-0.724 2.202,-1.087 3.653,-1.087 1.45,0 2.81,0.372 4.082,1.115 1.271,0.742 2.17,1.754 2.699,3.034 0.528,1.28 0.792,3.138 0.792,5.573 V 28.521 H 4.324 L 4.324,0 Z"
             style="fill:#000000;fill-opacity:1;fill-rule:nonzero;stroke:none"
             id="path128"
             inkscape:connector-curvature="0" /></g><g
           id="g130"
           transform="translate(503.9095,236.2207)"><path
             d="m 0,0 v 28.521 h 4.351 v -4.324 c 1.109,2.023 2.135,3.357 3.074,4.001 0.941,0.645 1.974,0.967 3.102,0.967 1.629,0 3.286,-0.519 4.969,-1.558 L 13.831,23.123 C 12.649,23.82 11.467,24.17 10.286,24.17 9.229,24.17 8.28,23.852 7.439,23.217 6.597,22.581 5.998,21.699 5.64,20.571 5.103,18.853 4.834,16.973 4.834,14.932 V 0 Z"
             style="fill:#000000;fill-opacity:1;fill-rule:nonzero;stroke:none"
             id="path132"
             inkscape:connector-curvature="0" /></g><g
           id="g134"
           transform="translate(539.3484,250.5351)"><path
             d="m 0,0 c -1.755,-0.717 -4.387,-1.325 -7.896,-1.826 -1.987,-0.287 -3.393,-0.61 -4.216,-0.967 -0.824,-0.358 -1.459,-0.883 -1.907,-1.571 -0.447,-0.69 -0.671,-1.455 -0.671,-2.296 0,-1.289 0.488,-2.363 1.464,-3.223 0.976,-0.859 2.403,-1.289 4.283,-1.289 1.862,0 3.518,0.406 4.968,1.222 1.451,0.814 2.516,1.929 3.196,3.343 C -0.26,-5.515 0,-3.903 0,-1.773 Z m 0.403,-10.797 c -1.791,-1.521 -3.514,-2.596 -5.17,-3.223 -1.656,-0.626 -3.433,-0.939 -5.331,-0.939 -3.133,0 -5.541,0.766 -7.224,2.296 -1.683,1.531 -2.524,3.487 -2.524,5.868 0,1.397 0.318,2.672 0.953,3.827 0.636,1.155 1.468,2.081 2.498,2.78 1.029,0.698 2.188,1.226 3.478,1.584 0.948,0.25 2.38,0.493 4.296,0.725 3.903,0.466 6.777,1.021 8.621,1.665 0.018,0.662 0.027,1.083 0.027,1.263 0,1.969 -0.457,3.356 -1.37,4.162 -1.235,1.092 -3.071,1.639 -5.505,1.639 -2.274,0 -3.952,-0.4 -5.035,-1.196 -1.084,-0.797 -1.885,-2.207 -2.404,-4.23 l -4.727,0.644 c 0.43,2.024 1.137,3.658 2.122,4.902 0.984,1.244 2.408,2.202 4.27,2.874 1.862,0.671 4.019,1.007 6.472,1.007 2.435,0 4.413,-0.287 5.935,-0.86 C 1.307,13.418 2.426,12.697 3.142,11.829 3.858,10.961 4.359,9.864 4.646,8.539 4.807,7.716 4.888,6.23 4.888,4.082 v -6.445 c 0,-4.494 0.103,-7.337 0.309,-8.528 0.205,-1.19 0.613,-2.332 1.221,-3.423 H 1.37 c -0.502,1.002 -0.824,2.175 -0.967,3.517"
             style="fill:#000000;fill-opacity:1;fill-rule:nonzero;stroke:none"
             id="path136"
             inkscape:connector-curvature="0" /></g><path
           d="m 550.235,275.591 h 4.834 v -39.37 h -4.834 z"
           style="fill:#000000;fill-opacity:1;fill-rule:nonzero;stroke:none"
           id="path138"
           inkscape:connector-curvature="0" /><g
           id="g140"
           transform="translate(595.5008,250.5351)"><path
             d="m 0,0 c -1.755,-0.717 -4.387,-1.325 -7.896,-1.826 -1.987,-0.287 -3.393,-0.61 -4.216,-0.967 -0.824,-0.358 -1.459,-0.883 -1.907,-1.571 -0.447,-0.69 -0.671,-1.455 -0.671,-2.296 0,-1.289 0.488,-2.363 1.464,-3.223 0.976,-0.859 2.403,-1.289 4.283,-1.289 1.862,0 3.518,0.406 4.968,1.222 1.451,0.814 2.516,1.929 3.196,3.343 C -0.26,-5.515 0,-3.903 0,-1.773 Z m 0.403,-10.797 c -1.791,-1.521 -3.514,-2.596 -5.17,-3.223 -1.656,-0.626 -3.433,-0.939 -5.331,-0.939 -3.133,0 -5.541,0.766 -7.224,2.296 -1.683,1.531 -2.524,3.487 -2.524,5.868 0,1.397 0.318,2.672 0.953,3.827 0.636,1.155 1.468,2.081 2.498,2.78 1.029,0.698 2.188,1.226 3.478,1.584 0.948,0.25 2.38,0.493 4.296,0.725 3.903,0.466 6.777,1.021 8.621,1.665 0.018,0.662 0.027,1.083 0.027,1.263 0,1.969 -0.457,3.356 -1.37,4.162 -1.235,1.092 -3.071,1.639 -5.505,1.639 -2.274,0 -3.952,-0.4 -5.035,-1.196 -1.084,-0.797 -1.885,-2.207 -2.404,-4.23 l -4.727,0.644 c 0.43,2.024 1.137,3.658 2.122,4.902 0.984,1.244 2.408,2.202 4.27,2.874 1.862,0.671 4.019,1.007 6.472,1.007 2.435,0 4.413,-0.287 5.935,-0.86 C 1.307,13.418 2.426,12.697 3.142,11.829 3.858,10.961 4.359,9.864 4.646,8.539 4.807,7.716 4.888,6.23 4.888,4.082 v -6.445 c 0,-4.494 0.103,-7.337 0.309,-8.528 0.205,-1.19 0.613,-2.332 1.221,-3.423 H 1.37 c -0.502,1.002 -0.824,2.175 -0.967,3.517"
             style="fill:#000000;fill-opacity:1;fill-rule:nonzero;stroke:none"
             id="path142"
             inkscape:connector-curvature="0" /></g><g
           id="g144"
           transform="translate(606.4676,236.2207)"><path
             d="m 0,0 v 28.521 h 4.351 v -4.056 c 2.094,3.134 5.12,4.7 9.077,4.7 1.718,0 3.299,-0.309 4.739,-0.927 1.442,-0.617 2.52,-1.427 3.237,-2.429 0.716,-1.003 1.217,-2.194 1.504,-3.573 0.178,-0.895 0.268,-2.462 0.268,-4.699 V 0 h -4.834 v 17.349 c 0,1.969 -0.188,3.441 -0.564,4.418 -0.376,0.975 -1.043,1.754 -2,2.336 -0.958,0.582 -2.082,0.873 -3.371,0.873 -2.059,0 -3.836,-0.654 -5.33,-1.96 C 5.582,21.708 4.834,19.229 4.834,15.576 V 0 Z"
             style="fill:#000000;fill-opacity:1;fill-rule:nonzero;stroke:none"
             id="path146"
             inkscape:connector-curvature="0" /></g><g
           id="g148"
           transform="translate(639.0135,250.4541)"><path
             d="m 0,0 c 0,-3.652 0.77,-6.383 2.31,-8.19 1.539,-1.809 3.357,-2.713 5.451,-2.713 2.113,0 3.907,0.863 5.385,2.591 1.477,1.728 2.215,4.364 2.215,7.909 0,3.903 -0.752,6.767 -2.256,8.593 -1.503,1.827 -3.356,2.741 -5.559,2.741 -2.148,0 -3.943,-0.878 -5.384,-2.633 C 0.721,6.544 0,3.777 0,0 m 15.281,-14.233 v 3.598 c -1.809,-2.829 -4.468,-4.243 -7.976,-4.243 -2.274,0 -4.364,0.627 -6.271,1.88 -1.907,1.253 -3.384,3.003 -4.431,5.25 -1.048,2.247 -1.571,4.83 -1.571,7.748 0,2.847 0.474,5.429 1.423,7.748 0.949,2.318 2.372,4.095 4.27,5.331 1.898,1.234 4.019,1.853 6.365,1.853 1.719,0 3.249,-0.363 4.592,-1.088 1.343,-0.725 2.435,-1.669 3.276,-2.833 v 14.126 h 4.808 v -39.37 z"
             style="fill:#000000;fill-opacity:1;fill-rule:nonzero;stroke:none"
             id="path150"
             inkscape:connector-curvature="0" /></g><path
           d="m 682.614,275.591 h 5.21 v -39.37 h -5.21 z"
           style="fill:#000000;fill-opacity:1;fill-rule:nonzero;stroke:none"
           id="path152"
           inkscape:connector-curvature="0" /><g
           id="g154"
           transform="translate(694.9774,236.2207)"><path
             d="m 0,0 v 28.521 h 4.351 v -4.056 c 2.094,3.134 5.12,4.7 9.077,4.7 1.718,0 3.299,-0.309 4.739,-0.927 1.442,-0.617 2.52,-1.427 3.237,-2.429 0.716,-1.003 1.217,-2.194 1.504,-3.573 0.178,-0.895 0.268,-2.462 0.268,-4.699 V 0 h -4.834 v 17.349 c 0,1.969 -0.188,3.441 -0.564,4.418 -0.376,0.975 -1.043,1.754 -2,2.336 -0.958,0.582 -2.082,0.873 -3.371,0.873 -2.059,0 -3.836,-0.654 -5.33,-1.96 C 5.582,21.708 4.834,19.229 4.834,15.576 V 0 Z"
             style="fill:#000000;fill-opacity:1;fill-rule:nonzero;stroke:none"
             id="path156"
             inkscape:connector-curvature="0" /></g><g
           id="g158"
           transform="translate(731.0789,236.2207)"><path
             d="m 0,0 -10.85,28.521 h 5.103 L 0.376,11.44 C 1.038,9.597 1.647,7.681 2.202,5.693 c 0.43,1.504 1.029,3.313 1.799,5.425 l 6.338,17.403 h 4.969 L 4.512,0 Z"
             style="fill:#000000;fill-opacity:1;fill-rule:nonzero;stroke:none"
             id="path160"
             inkscape:connector-curvature="0" /></g><g
           id="g162"
           transform="translate(752.0872,253.2207)"><path
             d="M 0,0 H 15.925 C 15.71,2.398 15.102,4.198 14.099,5.397 12.559,7.26 10.563,8.19 8.11,8.19 5.89,8.19 4.024,7.447 2.511,5.961 0.998,4.476 0.161,2.488 0,0 m 15.872,-7.815 4.995,-0.619 c -0.788,-2.918 -2.247,-5.182 -4.378,-6.794 -2.131,-1.611 -4.852,-2.417 -8.164,-2.417 -4.172,0 -7.479,1.285 -9.923,3.854 -2.444,2.569 -3.666,6.173 -3.666,10.81 0,4.797 1.236,8.522 3.706,11.171 2.471,2.65 5.676,3.975 9.615,3.975 3.813,0 6.928,-1.298 9.345,-3.894 2.417,-2.596 3.626,-6.249 3.626,-10.957 0,-0.287 -0.009,-0.716 -0.027,-1.289 h -21.27 c 0.179,-3.133 1.065,-5.533 2.659,-7.197 1.593,-1.666 3.581,-2.498 5.962,-2.498 1.773,0 3.285,0.466 4.539,1.397 1.253,0.93 2.246,2.417 2.981,4.458"
             style="fill:#000000;fill-opacity:1;fill-rule:nonzero;stroke:none"
             id="path164"
             inkscape:connector-curvature="0" /></g><g
           id="g166"
           transform="translate(775.9788,244.7344)"><path
             d="m 0,0 4.78,0.752 c 0.269,-1.916 1.016,-3.385 2.243,-4.404 1.226,-1.022 2.94,-1.532 5.143,-1.532 2.219,0 3.867,0.453 4.941,1.357 1.074,0.903 1.611,1.965 1.611,3.182 0,1.092 -0.474,1.952 -1.423,2.579 -0.663,0.429 -2.31,0.975 -4.941,1.637 C 8.809,4.467 6.351,5.24 4.982,5.895 3.612,6.548 2.574,7.452 1.867,8.606 1.159,9.762 0.806,11.037 0.806,12.434 c 0,1.271 0.291,2.448 0.872,3.531 0.582,1.083 1.374,1.983 2.377,2.699 0.752,0.555 1.777,1.024 3.075,1.41 1.298,0.385 2.69,0.577 4.176,0.577 2.238,0 4.203,-0.322 5.895,-0.966 1.692,-0.645 2.941,-1.518 3.746,-2.619 0.806,-1.101 1.361,-2.574 1.666,-4.418 l -4.727,-0.644 c -0.215,1.468 -0.837,2.614 -1.867,3.437 -1.029,0.824 -2.484,1.236 -4.364,1.236 -2.22,0 -3.804,-0.367 -4.753,-1.101 -0.949,-0.734 -1.423,-1.594 -1.423,-2.578 0,-0.627 0.196,-1.191 0.59,-1.692 0.394,-0.52 1.012,-0.95 1.853,-1.289 0.484,-0.179 1.907,-0.591 4.27,-1.236 3.42,-0.913 5.806,-1.661 7.157,-2.242 1.352,-0.582 2.413,-1.428 3.183,-2.538 0.769,-1.11 1.155,-2.488 1.155,-4.136 0,-1.611 -0.471,-3.129 -1.41,-4.552 -0.941,-1.423 -2.297,-2.524 -4.069,-3.303 -1.772,-0.779 -3.778,-1.168 -6.016,-1.168 -3.706,0 -6.53,0.769 -8.473,2.309 C 1.777,-5.309 0.537,-3.026 0,0"
             style="fill:#000000;fill-opacity:1;fill-rule:nonzero;stroke:none"
             id="path168"
             inkscape:connector-curvature="0" /></g><g
           id="g170"
           transform="translate(814.3885,240.5449)"><path
             d="M 0,0 0.698,-4.271 C -0.662,-4.557 -1.88,-4.7 -2.954,-4.7 c -1.755,0 -3.115,0.277 -4.082,0.833 -0.967,0.554 -1.648,1.284 -2.041,2.188 -0.394,0.904 -0.591,2.806 -0.591,5.706 v 16.41 h -3.545 v 3.759 h 3.545 v 7.064 l 4.807,2.9 V 24.196 H 0 V 20.437 H -4.861 V 3.76 c 0,-1.379 0.085,-2.266 0.256,-2.659 0.169,-0.394 0.447,-0.707 0.832,-0.941 0.384,-0.232 0.935,-0.348 1.652,-0.348 0.537,0 1.244,0.062 2.121,0.188"
             style="fill:#000000;fill-opacity:1;fill-rule:nonzero;stroke:none"
             id="path172"
             inkscape:connector-curvature="0" /></g><g
           id="g174"
           transform="translate(818.075,236.2207)"><path
             d="M 0,0 V 28.521 H 4.324 V 24.52 c 0.896,1.396 2.086,2.519 3.572,3.37 1.486,0.849 3.178,1.275 5.076,1.275 2.112,0 3.844,-0.438 5.196,-1.315 1.352,-0.878 2.306,-2.105 2.86,-3.68 2.256,3.33 5.193,4.995 8.809,4.995 2.829,0 5.004,-0.783 6.526,-2.35 1.522,-1.567 2.283,-3.979 2.283,-7.237 V 0 h -4.808 v 17.967 c 0,1.933 -0.156,3.325 -0.47,4.176 -0.313,0.849 -0.882,1.535 -1.705,2.054 -0.823,0.519 -1.79,0.779 -2.9,0.779 -2.005,0 -3.67,-0.667 -4.995,-2.001 C 22.442,21.641 21.78,19.506 21.78,16.57 V 0 h -4.834 v 18.53 c 0,2.149 -0.393,3.76 -1.181,4.834 -0.788,1.074 -2.077,1.612 -3.868,1.612 -1.36,0 -2.618,-0.359 -3.773,-1.075 C 6.97,23.186 6.133,22.138 5.613,20.76 5.094,19.381 4.834,17.394 4.834,14.797 V 0 Z"
             style="fill:#000000;fill-opacity:1;fill-rule:nonzero;stroke:none"
             id="path176"
             inkscape:connector-curvature="0" /></g><g
           id="g178"
           transform="translate(866.3445,253.2207)"><path
             d="M 0,0 H 15.926 C 15.711,2.398 15.103,4.198 14.1,5.397 12.56,7.26 10.563,8.19 8.111,8.19 5.891,8.19 4.024,7.447 2.512,5.961 0.998,4.476 0.162,2.488 0,0 m 15.872,-7.815 4.995,-0.619 c -0.788,-2.918 -2.247,-5.182 -4.377,-6.794 -2.131,-1.611 -4.852,-2.417 -8.164,-2.417 -4.172,0 -7.479,1.285 -9.924,3.854 -2.443,2.569 -3.666,6.173 -3.666,10.81 0,4.797 1.237,8.522 3.707,11.171 2.471,2.65 5.675,3.975 9.614,3.975 3.814,0 6.929,-1.298 9.345,-3.894 2.418,-2.596 3.626,-6.249 3.626,-10.957 0,-0.287 -0.008,-0.716 -0.026,-1.289 h -21.27 c 0.179,-3.133 1.065,-5.533 2.659,-7.197 1.593,-1.666 3.581,-2.498 5.962,-2.498 1.772,0 3.285,0.466 4.538,1.397 1.254,0.93 2.247,2.417 2.981,4.458"
             style="fill:#000000;fill-opacity:1;fill-rule:nonzero;stroke:none"
             id="path180"
             inkscape:connector-curvature="0" /></g><g
           id="g182"
           transform="translate(891.9881,236.2207)"><path
             d="m 0,0 v 28.521 h 4.352 v -4.056 c 2.093,3.134 5.12,4.7 9.076,4.7 1.718,0 3.299,-0.309 4.74,-0.927 1.441,-0.617 2.52,-1.427 3.236,-2.429 0.716,-1.003 1.218,-2.194 1.504,-3.573 0.179,-0.895 0.269,-2.462 0.269,-4.699 V 0 h -4.834 v 17.349 c 0,1.969 -0.189,3.441 -0.564,4.418 -0.377,0.975 -1.044,1.754 -2.001,2.336 -0.958,0.582 -2.081,0.873 -3.37,0.873 -2.059,0 -3.837,-0.654 -5.331,-1.96 C 5.582,21.708 4.834,19.229 4.834,15.576 V 0 Z"
             style="fill:#000000;fill-opacity:1;fill-rule:nonzero;stroke:none"
             id="path184"
             inkscape:connector-curvature="0" /></g><g
           id="g186"
           transform="translate(931.2772,240.5449)"><path
             d="M 0,0 0.698,-4.271 C -0.662,-4.557 -1.88,-4.7 -2.954,-4.7 c -1.755,0 -3.115,0.277 -4.082,0.833 -0.967,0.554 -1.648,1.284 -2.041,2.188 -0.394,0.904 -0.591,2.806 -0.591,5.706 v 16.41 h -3.545 v 3.759 h 3.545 v 7.064 l 4.807,2.9 V 24.196 H 0 V 20.437 H -4.861 V 3.76 c 0,-1.379 0.085,-2.266 0.256,-2.659 0.169,-0.394 0.447,-0.707 0.832,-0.941 0.384,-0.232 0.935,-0.348 1.652,-0.348 0.537,0 1.244,0.062 2.121,0.188"
             style="fill:#000000;fill-opacity:1;fill-rule:nonzero;stroke:none"
             id="path188"
             inkscape:connector-curvature="0" /></g><g
           id="g190"
           transform="translate(951.6219,236.2207)"><path
             d="M 0,0 V 39.37 H 26.561 V 34.725 H 5.21 V 22.531 H 23.687 V 17.886 H 5.21 L 5.21,0 Z"
             style="fill:#000000;fill-opacity:1;fill-rule:nonzero;stroke:none"
             id="path192"
             inkscape:connector-curvature="0" /></g><g
           id="g194"
           transform="translate(999.6561,236.2207)"><path
             d="m 0,0 v 4.189 c -2.22,-3.222 -5.236,-4.834 -9.05,-4.834 -1.682,0 -3.254,0.323 -4.713,0.967 -1.46,0.645 -2.543,1.454 -3.25,2.431 -0.707,0.976 -1.204,2.171 -1.49,3.585 -0.197,0.949 -0.296,2.453 -0.296,4.512 v 17.671 h 4.834 V 12.703 c 0,-2.525 0.099,-4.225 0.296,-5.103 0.305,-1.271 0.949,-2.269 1.934,-2.995 0.984,-0.724 2.202,-1.087 3.652,-1.087 1.45,0 2.811,0.372 4.082,1.115 1.272,0.742 2.171,1.754 2.699,3.034 0.528,1.28 0.792,3.138 0.792,5.573 V 28.521 H 4.324 L 4.324,0 Z"
             style="fill:#000000;fill-opacity:1;fill-rule:nonzero;stroke:none"
             id="path196"
             inkscape:connector-curvature="0" /></g><g
           id="g198"
           transform="translate(1010.0399,236.2207)"><path
             d="m 0,0 v 28.521 h 4.352 v -4.056 c 2.093,3.134 5.12,4.7 9.076,4.7 1.719,0 3.299,-0.309 4.74,-0.927 1.441,-0.617 2.521,-1.427 3.236,-2.429 0.716,-1.003 1.218,-2.194 1.504,-3.573 0.179,-0.895 0.269,-2.462 0.269,-4.699 V 0 h -4.834 v 17.349 c 0,1.969 -0.189,3.441 -0.564,4.418 -0.377,0.975 -1.044,1.754 -2.001,2.336 -0.958,0.582 -2.081,0.873 -3.37,0.873 -2.059,0 -3.837,-0.654 -5.331,-1.96 C 5.582,21.708 4.834,19.229 4.834,15.576 V 0 Z"
             style="fill:#000000;fill-opacity:1;fill-rule:nonzero;stroke:none"
             id="path200"
             inkscape:connector-curvature="0" /></g><g
           id="g202"
           transform="translate(1042.5858,250.4541)"><path
             d="m 0,0 c 0,-3.652 0.771,-6.383 2.311,-8.19 1.539,-1.809 3.356,-2.713 5.451,-2.713 2.112,0 3.907,0.863 5.384,2.591 1.477,1.728 2.215,4.364 2.215,7.909 0,3.903 -0.752,6.767 -2.256,8.593 -1.503,1.827 -3.356,2.741 -5.558,2.741 -2.149,0 -3.943,-0.878 -5.385,-2.633 C 0.721,6.544 0,3.777 0,0 m 15.281,-14.233 v 3.598 c -1.808,-2.829 -4.467,-4.243 -7.976,-4.243 -2.274,0 -4.364,0.627 -6.271,1.88 -1.906,1.253 -3.384,3.003 -4.43,5.25 -1.048,2.247 -1.572,4.83 -1.572,7.748 0,2.847 0.475,5.429 1.423,7.748 0.949,2.318 2.373,4.095 4.271,5.331 1.897,1.234 4.019,1.853 6.364,1.853 1.719,0 3.25,-0.363 4.593,-1.088 1.342,-0.725 2.434,-1.669 3.276,-2.833 v 14.126 h 4.807 v -39.37 z"
             style="fill:#000000;fill-opacity:1;fill-rule:nonzero;stroke:none"
             id="path204"
             inkscape:connector-curvature="0" /></g><g
           id="g206"
           transform="translate(98.5179,184.4482)"><path
             d="m 0,0 c 0,-4.744 1.276,-8.481 3.827,-11.212 2.551,-2.73 5.751,-4.095 9.601,-4.095 3.921,0 7.148,1.378 9.681,4.135 2.534,2.758 3.8,6.67 3.8,11.736 0,3.206 -0.541,6.002 -1.624,8.393 -1.084,2.39 -2.668,4.243 -4.754,5.559 -2.086,1.316 -4.427,1.974 -7.023,1.974 -3.688,0 -6.861,-1.267 -9.52,-3.801 C 1.33,10.156 0,5.927 0,0 m -5.371,0.081 c 0,6.535 1.754,11.65 5.264,15.348 3.508,3.697 8.038,5.546 13.588,5.546 3.635,0 6.911,-0.869 9.83,-2.606 2.918,-1.736 5.143,-4.158 6.673,-7.264 1.531,-3.106 2.296,-6.628 2.296,-10.568 0,-3.992 -0.805,-7.563 -2.417,-10.715 -1.611,-3.151 -3.894,-5.537 -6.848,-7.157 -2.954,-1.62 -6.141,-2.431 -9.56,-2.431 -3.706,0 -7.019,0.896 -9.937,2.686 -2.918,1.791 -5.129,4.234 -6.633,7.332 -1.504,3.098 -2.256,6.374 -2.256,9.829"
             style="fill:#000000;fill-opacity:1;fill-rule:nonzero;stroke:none"
             id="path208"
             inkscape:connector-curvature="0" /></g><g
           id="g210"
           transform="translate(140.8099,179.4541)"><path
             d="m 0,0 c 0,-3.671 0.743,-6.383 2.229,-8.138 1.486,-1.755 3.285,-2.632 5.398,-2.632 2.148,0 3.988,0.909 5.519,2.726 1.531,1.817 2.296,4.633 2.296,8.446 0,3.635 -0.748,6.356 -2.243,8.164 -1.494,1.809 -3.281,2.713 -5.357,2.713 -2.059,0 -3.881,-0.963 -5.465,-2.887 C 0.792,6.467 0,3.67 0,0 m -4.377,-25.029 v 39.45 h 4.404 v -3.706 c 1.038,1.45 2.211,2.538 3.518,3.263 1.307,0.725 2.891,1.087 4.753,1.087 2.435,0 4.583,-0.627 6.446,-1.879 1.861,-1.253 3.267,-3.022 4.216,-5.304 0.949,-2.283 1.423,-4.785 1.423,-7.507 0,-2.918 -0.524,-5.545 -1.571,-7.882 -1.047,-2.336 -2.569,-4.127 -4.565,-5.371 -1.997,-1.244 -4.096,-1.866 -6.298,-1.866 -1.611,0 -3.057,0.34 -4.337,1.02 -1.28,0.681 -2.332,1.54 -3.155,2.578 v -13.883 z"
             style="fill:#000000;fill-opacity:1;fill-rule:nonzero;stroke:none"
             id="path212"
             inkscape:connector-curvature="0" /></g><g
           id="g214"
           transform="translate(169.804,182.3545)"><path
             d="M 0,0 H 15.925 C 15.71,2.398 15.102,4.198 14.099,5.397 12.559,7.26 10.563,8.19 8.11,8.19 5.89,8.19 4.024,7.447 2.511,5.961 0.998,4.476 0.161,2.488 0,0 m 15.872,-7.815 4.995,-0.619 c -0.788,-2.918 -2.247,-5.182 -4.378,-6.794 -2.131,-1.611 -4.852,-2.417 -8.164,-2.417 -4.172,0 -7.479,1.285 -9.923,3.854 -2.444,2.569 -3.666,6.173 -3.666,10.81 0,4.797 1.236,8.522 3.706,11.171 2.471,2.65 5.676,3.975 9.615,3.975 3.813,0 6.928,-1.298 9.345,-3.894 2.417,-2.596 3.626,-6.249 3.626,-10.957 0,-0.287 -0.009,-0.716 -0.027,-1.289 h -21.27 c 0.179,-3.133 1.065,-5.533 2.659,-7.197 1.593,-1.666 3.581,-2.498 5.962,-2.498 1.773,0 3.285,0.466 4.539,1.397 1.253,0.93 2.246,2.417 2.981,4.458"
             style="fill:#000000;fill-opacity:1;fill-rule:nonzero;stroke:none"
             id="path216"
             inkscape:connector-curvature="0" /></g><g
           id="g218"
           transform="translate(195.702,165.3545)"><path
             d="m 0,0 v 28.521 h 4.351 v -4.324 c 1.109,2.023 2.135,3.357 3.074,4.001 0.941,0.645 1.974,0.967 3.102,0.967 1.629,0 3.286,-0.519 4.969,-1.558 L 13.831,23.123 C 12.649,23.82 11.467,24.17 10.286,24.17 9.229,24.17 8.28,23.852 7.439,23.217 6.597,22.581 5.998,21.699 5.64,20.571 5.103,18.853 4.834,16.973 4.834,14.932 V 0 Z"
             style="fill:#000000;fill-opacity:1;fill-rule:nonzero;stroke:none"
             id="path220"
             inkscape:connector-curvature="0" /></g><g
           id="g222"
           transform="translate(231.4153,179.6689)"><path
             d="m 0,0 c -1.755,-0.717 -4.387,-1.325 -7.896,-1.826 -1.987,-0.287 -3.393,-0.61 -4.216,-0.967 -0.824,-0.358 -1.459,-0.883 -1.907,-1.571 -0.447,-0.69 -0.671,-1.455 -0.671,-2.296 0,-1.289 0.488,-2.363 1.464,-3.223 0.976,-0.859 2.403,-1.289 4.283,-1.289 1.862,0 3.518,0.406 4.968,1.222 1.451,0.814 2.516,1.929 3.196,3.343 C -0.26,-5.515 0,-3.903 0,-1.773 Z m 0.403,-10.797 c -1.791,-1.521 -3.514,-2.596 -5.17,-3.223 -1.656,-0.626 -3.433,-0.939 -5.331,-0.939 -3.133,0 -5.541,0.766 -7.224,2.296 -1.683,1.531 -2.524,3.487 -2.524,5.868 0,1.397 0.318,2.672 0.953,3.827 0.636,1.155 1.468,2.081 2.498,2.78 1.029,0.698 2.188,1.226 3.478,1.584 0.948,0.25 2.38,0.493 4.296,0.725 3.903,0.466 6.777,1.021 8.621,1.665 0.018,0.662 0.027,1.083 0.027,1.263 0,1.969 -0.457,3.356 -1.37,4.162 -1.235,1.092 -3.071,1.639 -5.505,1.639 -2.274,0 -3.952,-0.4 -5.035,-1.196 -1.084,-0.797 -1.885,-2.207 -2.404,-4.23 l -4.727,0.644 c 0.43,2.024 1.137,3.658 2.122,4.902 0.984,1.244 2.408,2.202 4.27,2.874 1.862,0.671 4.019,1.007 6.472,1.007 2.435,0 4.413,-0.287 5.935,-0.86 C 1.307,13.418 2.426,12.697 3.142,11.829 3.858,10.961 4.359,9.864 4.646,8.539 4.807,7.716 4.888,6.23 4.888,4.082 v -6.445 c 0,-4.494 0.103,-7.337 0.309,-8.528 0.205,-1.19 0.613,-2.332 1.221,-3.423 H 1.37 c -0.502,1.002 -0.824,2.175 -0.967,3.517"
             style="fill:#000000;fill-opacity:1;fill-rule:nonzero;stroke:none"
             id="path224"
             inkscape:connector-curvature="0" /></g><g
           id="g226"
           transform="translate(252.8983,169.6787)"><path
             d="M 0,0 0.698,-4.271 C -0.663,-4.557 -1.88,-4.7 -2.954,-4.7 c -1.755,0 -3.115,0.277 -4.082,0.833 -0.967,0.554 -1.648,1.284 -2.041,2.188 -0.394,0.904 -0.591,2.806 -0.591,5.706 v 16.41 h -3.545 v 3.759 h 3.545 v 7.064 l 4.807,2.9 V 24.196 H 0 V 20.437 H -4.861 V 3.76 c 0,-1.379 0.085,-2.266 0.256,-2.659 0.169,-0.394 0.447,-0.707 0.832,-0.941 0.385,-0.232 0.935,-0.348 1.651,-0.348 0.538,0 1.245,0.062 2.122,0.188"
             style="fill:#000000;fill-opacity:1;fill-rule:nonzero;stroke:none"
             id="path228"
             inkscape:connector-curvature="0" /></g><path
           d="m 256.854,193.875 h 4.834 v -28.521 h -4.834 z m 0,10.85 h 4.834 v -5.56 h -4.834 z"
           style="fill:#000000;fill-opacity:1;fill-rule:nonzero;stroke:none"
           id="path230"
           inkscape:connector-curvature="0" /><g
           id="g232"
           transform="translate(271.429,179.6142)"><path
             d="m 0,0 c 0,-3.652 0.796,-6.387 2.39,-8.204 1.593,-1.817 3.599,-2.726 6.016,-2.726 2.399,0 4.395,0.913 5.989,2.74 1.593,1.826 2.39,4.61 2.39,8.352 0,3.526 -0.802,6.198 -2.404,8.016 -1.602,1.817 -3.594,2.726 -5.975,2.726 C 5.989,10.904 3.983,10 2.39,8.191 0.796,6.383 0,3.652 0,0 m -4.968,0 c 0,5.282 1.468,9.194 4.404,11.736 2.453,2.113 5.442,3.169 8.97,3.169 3.921,0 7.125,-1.285 9.614,-3.853 2.488,-2.57 3.733,-6.119 3.733,-10.649 0,-3.67 -0.55,-6.557 -1.652,-8.661 -1.101,-2.103 -2.703,-3.737 -4.807,-4.9 -2.104,-1.164 -4.4,-1.746 -6.888,-1.746 -3.993,0 -7.22,1.28 -9.682,3.84 -2.461,2.56 -3.692,6.249 -3.692,11.064"
             style="fill:#000000;fill-opacity:1;fill-rule:nonzero;stroke:none"
             id="path234"
             inkscape:connector-curvature="0" /></g><g
           id="g236"
           transform="translate(297.9793,165.3545)"><path
             d="m 0,0 v 28.521 h 4.351 v -4.056 c 2.094,3.134 5.12,4.7 9.077,4.7 1.718,0 3.299,-0.309 4.739,-0.927 1.442,-0.617 2.52,-1.427 3.237,-2.429 0.716,-1.003 1.217,-2.194 1.504,-3.573 0.178,-0.895 0.268,-2.462 0.268,-4.699 V 0 h -4.834 v 17.349 c 0,1.969 -0.188,3.441 -0.564,4.418 -0.376,0.975 -1.043,1.754 -2,2.336 -0.958,0.582 -2.082,0.873 -3.371,0.873 -2.059,0 -3.836,-0.654 -5.33,-1.96 C 5.582,21.708 4.834,19.229 4.834,15.576 V 0 Z"
             style="fill:#000000;fill-opacity:1;fill-rule:nonzero;stroke:none"
             id="path238"
             inkscape:connector-curvature="0" /></g><g
           id="g240"
           transform="translate(345.6263,179.6689)"><path
             d="m 0,0 c -1.755,-0.717 -4.387,-1.325 -7.896,-1.826 -1.987,-0.287 -3.393,-0.61 -4.216,-0.967 -0.824,-0.358 -1.459,-0.883 -1.907,-1.571 -0.447,-0.69 -0.671,-1.455 -0.671,-2.296 0,-1.289 0.488,-2.363 1.464,-3.223 0.976,-0.859 2.403,-1.289 4.283,-1.289 1.862,0 3.518,0.406 4.968,1.222 1.451,0.814 2.516,1.929 3.196,3.343 C -0.26,-5.515 0,-3.903 0,-1.773 Z m 0.403,-10.797 c -1.791,-1.521 -3.514,-2.596 -5.17,-3.223 -1.656,-0.626 -3.433,-0.939 -5.331,-0.939 -3.133,0 -5.541,0.766 -7.224,2.296 -1.683,1.531 -2.524,3.487 -2.524,5.868 0,1.397 0.318,2.672 0.953,3.827 0.636,1.155 1.468,2.081 2.498,2.78 1.029,0.698 2.188,1.226 3.478,1.584 0.948,0.25 2.38,0.493 4.296,0.725 3.903,0.466 6.777,1.021 8.621,1.665 0.018,0.662 0.027,1.083 0.027,1.263 0,1.969 -0.457,3.356 -1.37,4.162 -1.235,1.092 -3.071,1.639 -5.505,1.639 -2.274,0 -3.952,-0.4 -5.035,-1.196 -1.084,-0.797 -1.885,-2.207 -2.404,-4.23 l -4.727,0.644 c 0.43,2.024 1.137,3.658 2.122,4.902 0.984,1.244 2.408,2.202 4.27,2.874 1.862,0.671 4.019,1.007 6.472,1.007 2.435,0 4.413,-0.287 5.935,-0.86 C 1.307,13.418 2.426,12.697 3.142,11.829 3.858,10.961 4.359,9.864 4.646,8.539 4.807,7.716 4.888,6.23 4.888,4.082 v -6.445 c 0,-4.494 0.103,-7.337 0.309,-8.528 0.205,-1.19 0.613,-2.332 1.221,-3.423 H 1.37 c -0.502,1.002 -0.824,2.175 -0.967,3.517"
             style="fill:#000000;fill-opacity:1;fill-rule:nonzero;stroke:none"
             id="path242"
             inkscape:connector-curvature="0" /></g><path
           d="m 356.788,204.725 h 4.834 v -39.37 h -4.834 z"
           style="fill:#000000;fill-opacity:1;fill-rule:nonzero;stroke:none"
           id="path244"
           inkscape:connector-curvature="0" /><g
           id="g246"
           transform="translate(390.223,186.0068)"><path
             d="m 0,0 h 10.178 c 3.366,0 5.756,0.626 7.171,1.879 1.414,1.254 2.121,3.017 2.121,5.291 0,1.647 -0.416,3.057 -1.248,4.229 -0.833,1.173 -1.93,1.948 -3.29,2.324 -0.878,0.232 -2.498,0.349 -4.861,0.349 L 0,14.072 Z m -5.21,-20.652 v 39.37 H 9.641 c 2.614,0 4.61,-0.125 5.989,-0.376 1.933,-0.322 3.554,-0.936 4.861,-1.84 1.306,-0.904 2.359,-2.171 3.155,-3.8 0.797,-1.629 1.195,-3.42 1.195,-5.371 0,-3.348 -1.065,-6.182 -3.195,-8.5 -2.131,-2.318 -5.98,-3.477 -11.548,-3.477 H 0 v -16.006 z"
             style="fill:#000000;fill-opacity:1;fill-rule:nonzero;stroke:none"
             id="path248"
             inkscape:connector-curvature="0" /></g><g
           id="g250"
           transform="translate(419.5247,165.3545)"><path
             d="m 0,0 v 28.521 h 4.351 v -4.324 c 1.109,2.023 2.135,3.357 3.074,4.001 0.941,0.645 1.974,0.967 3.102,0.967 1.629,0 3.286,-0.519 4.969,-1.558 L 13.831,23.123 C 12.649,23.82 11.467,24.17 10.286,24.17 9.229,24.17 8.28,23.852 7.439,23.217 6.597,22.581 5.998,21.699 5.64,20.571 5.103,18.853 4.834,16.973 4.834,14.932 V 0 Z"
             style="fill:#000000;fill-opacity:1;fill-rule:nonzero;stroke:none"
             id="path252"
             inkscape:connector-curvature="0" /></g><g
           id="g254"
           transform="translate(440.1443,179.6142)"><path
             d="m 0,0 c 0,-3.652 0.796,-6.387 2.39,-8.204 1.593,-1.817 3.599,-2.726 6.016,-2.726 2.399,0 4.395,0.913 5.989,2.74 1.593,1.826 2.39,4.61 2.39,8.352 0,3.526 -0.802,6.198 -2.404,8.016 -1.602,1.817 -3.594,2.726 -5.975,2.726 C 5.989,10.904 3.983,10 2.39,8.191 0.796,6.383 0,3.652 0,0 m -4.968,0 c 0,5.282 1.468,9.194 4.404,11.736 2.453,2.113 5.442,3.169 8.97,3.169 3.921,0 7.125,-1.285 9.614,-3.853 2.488,-2.57 3.733,-6.119 3.733,-10.649 0,-3.67 -0.55,-6.557 -1.652,-8.661 -1.101,-2.103 -2.703,-3.737 -4.807,-4.9 -2.104,-1.164 -4.4,-1.746 -6.888,-1.746 -3.993,0 -7.22,1.28 -9.682,3.84 -2.461,2.56 -3.692,6.249 -3.692,11.064"
             style="fill:#000000;fill-opacity:1;fill-rule:nonzero;stroke:none"
             id="path256"
             inkscape:connector-curvature="0" /></g><g
           id="g258"
           transform="translate(470.0193,180.125)"><path
             d="m 0,0 c 0,-3.742 0.743,-6.472 2.229,-8.19 1.486,-1.719 3.348,-2.579 5.586,-2.579 2.22,0 4.082,0.855 5.586,2.565 1.504,1.709 2.256,4.391 2.256,8.043 0,3.491 -0.775,6.123 -2.324,7.895 -1.548,1.773 -3.415,2.66 -5.599,2.66 C 5.586,10.394 3.76,9.521 2.256,7.774 0.752,6.029 0,3.438 0,0 m -4.001,-17.134 4.699,-0.698 c 0.197,-1.45 0.743,-2.507 1.638,-3.169 1.2,-0.895 2.838,-1.343 4.915,-1.343 2.238,0 3.965,0.448 5.183,1.343 1.217,0.896 2.041,2.148 2.471,3.76 0.25,0.984 0.366,3.053 0.349,6.203 -2.113,-2.488 -4.745,-3.733 -7.896,-3.733 -3.92,0 -6.955,1.415 -9.104,4.244 -2.148,2.829 -3.222,6.221 -3.222,10.178 0,2.721 0.492,5.232 1.477,7.533 0.984,2.3 2.412,4.078 4.283,5.331 1.871,1.253 4.069,1.88 6.593,1.88 3.366,0 6.141,-1.361 8.325,-4.082 v 3.437 h 4.458 v -24.653 c 0,-4.441 -0.452,-7.587 -1.356,-9.44 -0.904,-1.853 -2.336,-3.316 -4.297,-4.39 -1.96,-1.075 -4.373,-1.612 -7.237,-1.612 -3.402,0 -6.15,0.765 -8.245,2.296 -2.095,1.53 -3.106,3.836 -3.034,6.915"
             style="fill:#000000;fill-opacity:1;fill-rule:nonzero;stroke:none"
             id="path260"
             inkscape:connector-curvature="0" /></g><g
           id="g262"
           transform="translate(496.3773,165.3545)"><path
             d="m 0,0 v 28.521 h 4.351 v -4.324 c 1.109,2.023 2.135,3.357 3.074,4.001 0.941,0.645 1.974,0.967 3.102,0.967 1.629,0 3.286,-0.519 4.969,-1.558 L 13.831,23.123 C 12.649,23.82 11.467,24.17 10.286,24.17 9.229,24.17 8.28,23.852 7.439,23.217 6.597,22.581 5.998,21.699 5.64,20.571 5.103,18.853 4.834,16.973 4.834,14.932 V 0 Z"
             style="fill:#000000;fill-opacity:1;fill-rule:nonzero;stroke:none"
             id="path264"
             inkscape:connector-curvature="0" /></g><g
           id="g266"
           transform="translate(532.0906,179.6689)"><path
             d="m 0,0 c -1.755,-0.717 -4.387,-1.325 -7.896,-1.826 -1.987,-0.287 -3.393,-0.61 -4.216,-0.967 -0.824,-0.358 -1.459,-0.883 -1.907,-1.571 -0.447,-0.69 -0.671,-1.455 -0.671,-2.296 0,-1.289 0.488,-2.363 1.464,-3.223 0.976,-0.859 2.403,-1.289 4.283,-1.289 1.862,0 3.518,0.406 4.968,1.222 1.451,0.814 2.516,1.929 3.196,3.343 C -0.26,-5.515 0,-3.903 0,-1.773 Z m 0.403,-10.797 c -1.791,-1.521 -3.514,-2.596 -5.17,-3.223 -1.656,-0.626 -3.433,-0.939 -5.331,-0.939 -3.133,0 -5.541,0.766 -7.224,2.296 -1.683,1.531 -2.524,3.487 -2.524,5.868 0,1.397 0.318,2.672 0.953,3.827 0.636,1.155 1.468,2.081 2.498,2.78 1.029,0.698 2.188,1.226 3.478,1.584 0.948,0.25 2.38,0.493 4.296,0.725 3.903,0.466 6.777,1.021 8.621,1.665 0.018,0.662 0.027,1.083 0.027,1.263 0,1.969 -0.457,3.356 -1.37,4.162 -1.235,1.092 -3.071,1.639 -5.505,1.639 -2.274,0 -3.952,-0.4 -5.035,-1.196 -1.084,-0.797 -1.885,-2.207 -2.404,-4.23 l -4.727,0.644 c 0.43,2.024 1.137,3.658 2.122,4.902 0.984,1.244 2.408,2.202 4.27,2.874 1.862,0.671 4.019,1.007 6.472,1.007 2.435,0 4.413,-0.287 5.935,-0.86 C 1.307,13.418 2.426,12.697 3.142,11.829 3.858,10.961 4.359,9.864 4.646,8.539 4.807,7.716 4.888,6.23 4.888,4.082 v -6.445 c 0,-4.494 0.103,-7.337 0.309,-8.528 0.205,-1.19 0.613,-2.332 1.221,-3.423 H 1.37 c -0.502,1.002 -0.824,2.175 -0.967,3.517"
             style="fill:#000000;fill-opacity:1;fill-rule:nonzero;stroke:none"
             id="path268"
             inkscape:connector-curvature="0" /></g><g
           id="g270"
           transform="translate(543.3328,165.3545)"><path
             d="M 0,0 V 28.521 H 4.324 V 24.52 c 0.895,1.396 2.085,2.519 3.572,3.37 1.485,0.849 3.177,1.275 5.075,1.275 2.112,0 3.845,-0.438 5.196,-1.315 1.353,-0.878 2.306,-2.105 2.861,-3.68 2.256,3.33 5.192,4.995 8.808,4.995 2.829,0 5.004,-0.783 6.526,-2.35 1.522,-1.567 2.283,-3.979 2.283,-7.237 V 0 h -4.807 v 17.967 c 0,1.933 -0.157,3.325 -0.47,4.176 -0.313,0.849 -0.882,1.535 -1.705,2.054 -0.824,0.519 -1.791,0.779 -2.901,0.779 -2.005,0 -3.67,-0.667 -4.995,-2.001 C 22.442,21.641 21.78,19.506 21.78,16.57 V 0 h -4.834 v 18.53 c 0,2.149 -0.394,3.76 -1.182,4.834 -0.788,1.074 -2.077,1.612 -3.867,1.612 -1.361,0 -2.618,-0.359 -3.773,-1.075 C 6.969,23.186 6.132,22.138 5.613,20.76 5.093,19.381 4.834,17.394 4.834,14.797 V 0 Z"
             style="fill:#000000;fill-opacity:1;fill-rule:nonzero;stroke:none"
             id="path272"
             inkscape:connector-curvature="0" /></g><g
           id="g274"
           transform="translate(588.0975,165.3545)"><path
             d="M 0,0 V 28.521 H 4.324 V 24.52 c 0.895,1.396 2.085,2.519 3.572,3.37 1.485,0.849 3.177,1.275 5.075,1.275 2.112,0 3.845,-0.438 5.196,-1.315 1.353,-0.878 2.306,-2.105 2.861,-3.68 2.256,3.33 5.192,4.995 8.808,4.995 2.829,0 5.004,-0.783 6.526,-2.35 1.522,-1.567 2.283,-3.979 2.283,-7.237 V 0 h -4.807 v 17.967 c 0,1.933 -0.157,3.325 -0.47,4.176 -0.313,0.849 -0.882,1.535 -1.705,2.054 -0.824,0.519 -1.791,0.779 -2.901,0.779 -2.005,0 -3.67,-0.667 -4.995,-2.001 C 22.442,21.641 21.78,19.506 21.78,16.57 V 0 h -4.834 v 18.53 c 0,2.149 -0.394,3.76 -1.182,4.834 -0.788,1.074 -2.077,1.612 -3.867,1.612 -1.361,0 -2.618,-0.359 -3.773,-1.075 C 6.969,23.186 6.132,22.138 5.613,20.76 5.093,19.381 4.834,17.394 4.834,14.797 V 0 Z"
             style="fill:#000000;fill-opacity:1;fill-rule:nonzero;stroke:none"
             id="path276"
             inkscape:connector-curvature="0" /></g><g
           id="g278"
           transform="translate(636.6414,182.3545)"><path
             d="M 0,0 H 15.925 C 15.71,2.398 15.102,4.198 14.099,5.397 12.559,7.26 10.563,8.19 8.11,8.19 5.89,8.19 4.024,7.447 2.511,5.961 0.998,4.476 0.161,2.488 0,0 m 15.872,-7.815 4.995,-0.619 c -0.788,-2.918 -2.247,-5.182 -4.378,-6.794 -2.131,-1.611 -4.852,-2.417 -8.164,-2.417 -4.172,0 -7.479,1.285 -9.923,3.854 -2.444,2.569 -3.666,6.173 -3.666,10.81 0,4.797 1.236,8.522 3.706,11.171 2.471,2.65 5.676,3.975 9.615,3.975 3.813,0 6.928,-1.298 9.345,-3.894 2.417,-2.596 3.626,-6.249 3.626,-10.957 0,-0.287 -0.009,-0.716 -0.027,-1.289 h -21.27 c 0.179,-3.133 1.065,-5.533 2.659,-7.197 1.593,-1.666 3.581,-2.498 5.962,-2.498 1.773,0 3.285,0.466 4.539,1.397 1.253,0.93 2.246,2.417 2.981,4.458"
             style="fill:#000000;fill-opacity:1;fill-rule:nonzero;stroke:none"
             id="path280"
             inkscape:connector-curvature="0" /></g><g
           id="g282"
           transform="translate(684.7664,187.3486)"><path
             d="m 0,0 h 11.199 c 2.381,0 4.243,0.246 5.586,0.739 1.342,0.492 2.363,1.28 3.061,2.364 0.698,1.083 1.048,2.259 1.048,3.531 0,1.862 -0.676,3.392 -2.028,4.593 -1.352,1.199 -3.487,1.798 -6.405,1.798 H 0 Z m -5.21,-21.994 v 39.37 h 17.456 c 3.509,0 6.177,-0.354 8.003,-1.061 1.826,-0.708 3.285,-1.956 4.377,-3.747 1.092,-1.79 1.639,-3.768 1.639,-5.934 0,-2.793 -0.905,-5.148 -2.713,-7.064 -1.808,-1.915 -4.601,-3.133 -8.379,-3.652 1.379,-0.662 2.426,-1.315 3.142,-1.96 1.522,-1.396 2.963,-3.142 4.324,-5.237 l 6.848,-10.715 h -6.552 l -5.21,8.191 c -1.522,2.364 -2.776,4.171 -3.76,5.424 -0.985,1.254 -1.867,2.131 -2.645,2.633 -0.779,0.501 -1.571,0.85 -2.377,1.047 -0.591,0.125 -1.558,0.187 -2.901,0.187 H 0 v -17.482 z"
             style="fill:#000000;fill-opacity:1;fill-rule:nonzero;stroke:none"
             id="path284"
             inkscape:connector-curvature="0" /></g><g
           id="g286"
           transform="translate(720.4256,182.3545)"><path
             d="M 0,0 H 15.925 C 15.71,2.398 15.102,4.198 14.099,5.397 12.559,7.26 10.563,8.19 8.11,8.19 5.89,8.19 4.024,7.447 2.511,5.961 0.998,4.476 0.161,2.488 0,0 m 15.872,-7.815 4.995,-0.619 c -0.788,-2.918 -2.247,-5.182 -4.378,-6.794 -2.131,-1.611 -4.852,-2.417 -8.164,-2.417 -4.172,0 -7.479,1.285 -9.923,3.854 -2.444,2.569 -3.666,6.173 -3.666,10.81 0,4.797 1.236,8.522 3.706,11.171 2.471,2.65 5.676,3.975 9.615,3.975 3.813,0 6.928,-1.298 9.345,-3.894 2.417,-2.596 3.626,-6.249 3.626,-10.957 0,-0.287 -0.009,-0.716 -0.027,-1.289 h -21.27 c 0.179,-3.133 1.065,-5.533 2.659,-7.197 1.593,-1.666 3.581,-2.498 5.962,-2.498 1.773,0 3.285,0.466 4.539,1.397 1.253,0.93 2.246,2.417 2.981,4.458"
             style="fill:#000000;fill-opacity:1;fill-rule:nonzero;stroke:none"
             id="path288"
             inkscape:connector-curvature="0" /></g><g
           id="g290"
           transform="translate(744.5921,173.8681)"><path
             d="m 0,0 4.78,0.752 c 0.269,-1.916 1.016,-3.385 2.243,-4.404 1.226,-1.022 2.94,-1.532 5.143,-1.532 2.219,0 3.867,0.453 4.941,1.357 1.074,0.903 1.611,1.965 1.611,3.182 0,1.092 -0.474,1.952 -1.423,2.579 -0.663,0.429 -2.31,0.975 -4.941,1.637 C 8.809,4.467 6.351,5.24 4.982,5.895 3.612,6.548 2.574,7.452 1.867,8.606 1.159,9.762 0.806,11.037 0.806,12.434 c 0,1.271 0.291,2.448 0.872,3.531 0.582,1.083 1.374,1.983 2.377,2.699 0.752,0.555 1.777,1.024 3.075,1.41 1.298,0.385 2.69,0.577 4.176,0.577 2.238,0 4.203,-0.322 5.895,-0.966 1.692,-0.645 2.941,-1.518 3.746,-2.619 0.806,-1.101 1.361,-2.574 1.665,-4.418 l -4.726,-0.644 c -0.215,1.468 -0.837,2.614 -1.867,3.437 -1.029,0.824 -2.484,1.236 -4.364,1.236 -2.22,0 -3.804,-0.367 -4.753,-1.101 -0.949,-0.734 -1.423,-1.594 -1.423,-2.578 0,-0.627 0.196,-1.191 0.59,-1.692 0.394,-0.52 1.012,-0.95 1.853,-1.289 0.484,-0.179 1.907,-0.591 4.27,-1.236 3.42,-0.913 5.806,-1.661 7.157,-2.242 1.352,-0.582 2.413,-1.428 3.183,-2.538 0.769,-1.11 1.155,-2.488 1.155,-4.136 0,-1.611 -0.471,-3.129 -1.41,-4.552 -0.941,-1.423 -2.297,-2.524 -4.069,-3.303 -1.772,-0.779 -3.778,-1.168 -6.016,-1.168 -3.706,0 -6.53,0.769 -8.473,2.309 C 1.777,-5.309 0.537,-3.026 0,0"
             style="fill:#000000;fill-opacity:1;fill-rule:nonzero;stroke:none"
             id="path292"
             inkscape:connector-curvature="0" /></g><g
           id="g294"
           transform="translate(776.6717,182.3545)"><path
             d="M 0,0 H 15.925 C 15.71,2.398 15.102,4.198 14.099,5.397 12.559,7.26 10.563,8.19 8.11,8.19 5.89,8.19 4.024,7.447 2.511,5.961 0.998,4.476 0.161,2.488 0,0 m 15.872,-7.815 4.995,-0.619 c -0.789,-2.918 -2.248,-5.182 -4.378,-6.794 -2.131,-1.611 -4.852,-2.417 -8.164,-2.417 -4.172,0 -7.479,1.285 -9.923,3.854 -2.444,2.569 -3.666,6.173 -3.666,10.81 0,4.797 1.236,8.522 3.706,11.171 2.471,2.65 5.676,3.975 9.615,3.975 3.813,0 6.928,-1.298 9.345,-3.894 2.418,-2.596 3.625,-6.249 3.625,-10.957 0,-0.287 -0.007,-0.716 -0.025,-1.289 H -0.269 c 0.179,-3.133 1.065,-5.533 2.659,-7.197 1.593,-1.666 3.581,-2.498 5.962,-2.498 1.773,0 3.285,0.466 4.539,1.397 1.253,0.93 2.246,2.417 2.981,4.458"
             style="fill:#000000;fill-opacity:1;fill-rule:nonzero;stroke:none"
             id="path296"
             inkscape:connector-curvature="0" /></g><g
           id="g298"
           transform="translate(820.8045,179.6689)"><path
             d="m 0,0 c -1.755,-0.717 -4.387,-1.325 -7.896,-1.826 -1.987,-0.287 -3.393,-0.61 -4.216,-0.967 -0.824,-0.358 -1.459,-0.883 -1.908,-1.571 -0.447,-0.69 -0.67,-1.455 -0.67,-2.296 0,-1.289 0.487,-2.363 1.463,-3.223 0.976,-0.859 2.404,-1.289 4.284,-1.289 1.862,0 3.517,0.406 4.968,1.222 1.45,0.814 2.515,1.929 3.196,3.343 C -0.26,-5.515 0,-3.903 0,-1.773 Z m 0.402,-10.797 c -1.79,-1.521 -3.513,-2.596 -5.17,-3.223 -1.656,-0.626 -3.432,-0.939 -5.33,-0.939 -3.133,0 -5.542,0.766 -7.224,2.296 -1.683,1.531 -2.525,3.487 -2.525,5.868 0,1.397 0.318,2.672 0.953,3.827 0.636,1.155 1.468,2.081 2.498,2.78 1.03,0.698 2.189,1.226 3.478,1.584 0.949,0.25 2.381,0.493 4.297,0.725 3.903,0.466 6.776,1.021 8.621,1.665 0.018,0.662 0.026,1.083 0.026,1.263 0,1.969 -0.456,3.356 -1.37,4.162 -1.234,1.092 -3.07,1.639 -5.505,1.639 -2.273,0 -3.952,-0.4 -5.035,-1.196 -1.084,-0.797 -1.885,-2.207 -2.403,-4.23 l -4.727,0.644 c 0.43,2.024 1.137,3.658 2.121,4.902 0.985,1.244 2.409,2.202 4.27,2.874 1.862,0.671 4.019,1.007 6.473,1.007 2.434,0 4.413,-0.287 5.935,-0.86 C 1.307,13.418 2.426,12.697 3.142,11.829 3.857,10.961 4.359,9.864 4.646,8.539 4.807,7.716 4.887,6.23 4.887,4.082 v -6.445 c 0,-4.494 0.103,-7.337 0.309,-8.528 0.205,-1.19 0.614,-2.332 1.222,-3.423 H 1.369 c -0.501,1.002 -0.823,2.175 -0.967,3.517"
             style="fill:#000000;fill-opacity:1;fill-rule:nonzero;stroke:none"
             id="path300"
             inkscape:connector-curvature="0" /></g><g
           id="g302"
           transform="translate(832.0193,165.3545)"><path
             d="m 0,0 v 28.521 h 4.35 v -4.324 c 1.11,2.023 2.135,3.357 3.075,4.001 0.94,0.645 1.973,0.967 3.102,0.967 1.629,0 3.286,-0.519 4.968,-1.558 L 13.83,23.123 C 12.648,23.82 11.467,24.17 10.285,24.17 9.229,24.17 8.28,23.852 7.438,23.217 6.597,22.581 5.997,21.699 5.639,20.571 5.102,18.853 4.834,16.973 4.834,14.932 V 0 Z"
             style="fill:#000000;fill-opacity:1;fill-rule:nonzero;stroke:none"
             id="path304"
             inkscape:connector-curvature="0" /></g><g
           id="g306"
           transform="translate(867.9324,175.8017)"><path
             d="m 0,0 4.754,-0.618 c -0.52,-3.277 -1.85,-5.841 -3.988,-7.695 -2.14,-1.852 -4.768,-2.779 -7.883,-2.779 -3.903,0 -7.04,1.276 -9.412,3.827 -2.373,2.551 -3.559,6.208 -3.559,10.97 0,3.08 0.51,5.774 1.531,8.084 1.02,2.31 2.574,4.042 4.66,5.196 2.084,1.156 4.354,1.733 6.807,1.733 3.098,0 5.631,-0.783 7.6,-2.35 1.969,-1.567 3.232,-3.791 3.787,-6.674 L -0.402,8.969 c -0.449,1.916 -1.241,3.357 -2.377,4.324 -1.138,0.967 -2.512,1.45 -4.123,1.45 -2.435,0 -4.413,-0.873 -5.935,-2.618 -1.521,-1.746 -2.282,-4.508 -2.282,-8.285 0,-3.831 0.733,-6.615 2.201,-8.352 1.469,-1.737 3.385,-2.605 5.748,-2.605 1.898,0 3.482,0.582 4.753,1.746 C -1.146,-4.208 -0.34,-2.418 0,0"
             style="fill:#000000;fill-opacity:1;fill-rule:nonzero;stroke:none"
             id="path308"
             inkscape:connector-curvature="0" /></g><g
           id="g310"
           transform="translate(876.3533,165.3545)"><path
             d="M 0,0 V 39.37 H 4.834 V 25.244 c 2.256,2.614 5.104,3.921 8.541,3.921 2.112,0 3.947,-0.416 5.505,-1.249 1.557,-0.832 2.672,-1.982 3.344,-3.451 0.671,-1.468 1.006,-3.598 1.006,-6.391 V 0 h -4.834 v 18.074 c 0,2.416 -0.523,4.176 -1.571,5.277 -1.047,1.101 -2.528,1.651 -4.444,1.651 -1.433,0 -2.779,-0.371 -4.042,-1.114 C 7.077,23.145 6.178,22.138 5.641,20.867 5.104,19.596 4.834,17.841 4.834,15.604 V 0 Z"
             style="fill:#000000;fill-opacity:1;fill-rule:nonzero;stroke:none"
             id="path312"
             inkscape:connector-curvature="0" /></g><g
           id="g314"
           transform="translate(906.6209,165.3545)"><path
             d="M 0,0 V 5.506 H 5.505 V 0 c 0,-2.023 -0.358,-3.656 -1.074,-4.901 -0.716,-1.245 -1.853,-2.206 -3.41,-2.887 l -1.343,2.067 c 1.02,0.449 1.772,1.107 2.256,1.975 0.483,0.868 0.752,2.117 0.805,3.746 z"
             style="fill:#000000;fill-opacity:1;fill-rule:nonzero;stroke:none"
             id="path316"
             inkscape:connector-curvature="0" /></g><g
           id="g318"
           transform="translate(99.9408,99.1348)"><path
             d="m 0,0 h 8.406 c 2.595,0 4.632,0.241 6.11,0.725 1.476,0.483 2.653,1.164 3.531,2.041 1.235,1.235 2.198,2.895 2.887,4.981 0.689,2.086 1.034,4.615 1.034,7.587 0,4.118 -0.676,7.282 -2.028,9.493 -1.352,2.211 -2.994,3.693 -4.928,4.444 -1.396,0.538 -3.643,0.807 -6.741,0.807 l -8.271,0 z m -5.21,-4.646 v 39.37 H 8.352 c 3.062,0 5.398,-0.189 7.009,-0.564 2.256,-0.519 4.181,-1.46 5.774,-2.82 2.077,-1.755 3.63,-3.997 4.66,-6.728 1.029,-2.73 1.544,-5.849 1.544,-9.358 0,-2.99 -0.349,-5.641 -1.047,-7.949 C 25.593,4.994 24.698,3.083 23.606,1.57 22.514,0.058 21.319,-1.133 20.021,-2.001 18.723,-2.87 17.156,-3.527 15.321,-3.975 13.486,-4.423 11.377,-4.646 8.997,-4.646 Z"
             style="fill:#000000;fill-opacity:1;fill-rule:nonzero;stroke:none"
             id="path320"
             inkscape:connector-curvature="0" /></g><g
           id="g322"
           transform="translate(136.7313,111.4883)"><path
             d="M 0,0 H 15.925 C 15.71,2.398 15.102,4.198 14.099,5.397 12.559,7.26 10.563,8.19 8.11,8.19 5.89,8.19 4.024,7.447 2.511,5.961 0.998,4.476 0.161,2.488 0,0 m 15.872,-7.815 4.995,-0.619 c -0.788,-2.918 -2.247,-5.182 -4.378,-6.794 -2.131,-1.611 -4.852,-2.417 -8.164,-2.417 -4.172,0 -7.479,1.285 -9.923,3.854 -2.444,2.569 -3.666,6.173 -3.666,10.81 0,4.797 1.236,8.522 3.706,11.171 2.471,2.65 5.676,3.975 9.615,3.975 3.813,0 6.928,-1.298 9.345,-3.894 2.417,-2.596 3.626,-6.249 3.626,-10.957 0,-0.287 -0.009,-0.716 -0.027,-1.289 h -21.27 c 0.179,-3.133 1.065,-5.533 2.659,-7.197 1.593,-1.666 3.581,-2.498 5.962,-2.498 1.773,0 3.285,0.466 4.539,1.397 1.253,0.93 2.246,2.417 2.981,4.458"
             style="fill:#000000;fill-opacity:1;fill-rule:nonzero;stroke:none"
             id="path324"
             inkscape:connector-curvature="0" /></g><g
           id="g326"
           transform="translate(169.5106,94.4883)"><path
             d="m 0,0 -10.85,28.521 h 5.103 L 0.376,11.44 C 1.038,9.597 1.647,7.681 2.202,5.693 c 0.43,1.504 1.029,3.313 1.799,5.425 l 6.338,17.403 h 4.969 L 4.512,0 Z"
             style="fill:#000000;fill-opacity:1;fill-rule:nonzero;stroke:none"
             id="path328"
             inkscape:connector-curvature="0" /></g><g
           id="g330"
           transform="translate(190.7938,111.4883)"><path
             d="M 0,0 H 15.925 C 15.71,2.398 15.102,4.198 14.099,5.397 12.559,7.26 10.563,8.19 8.11,8.19 5.89,8.19 4.024,7.447 2.511,5.961 0.998,4.476 0.161,2.488 0,0 m 15.872,-7.815 4.995,-0.619 c -0.788,-2.918 -2.247,-5.182 -4.378,-6.794 -2.131,-1.611 -4.852,-2.417 -8.164,-2.417 -4.172,0 -7.479,1.285 -9.923,3.854 -2.444,2.569 -3.666,6.173 -3.666,10.81 0,4.797 1.236,8.522 3.706,11.171 2.471,2.65 5.676,3.975 9.615,3.975 3.813,0 6.928,-1.298 9.345,-3.894 2.417,-2.596 3.626,-6.249 3.626,-10.957 0,-0.287 -0.009,-0.716 -0.027,-1.289 h -21.27 c 0.179,-3.133 1.065,-5.533 2.659,-7.197 1.593,-1.666 3.581,-2.498 5.962,-2.498 1.773,0 3.285,0.466 4.539,1.397 1.253,0.93 2.246,2.417 2.981,4.458"
             style="fill:#000000;fill-opacity:1;fill-rule:nonzero;stroke:none"
             id="path332"
             inkscape:connector-curvature="0" /></g><path
           d="m 216.72,133.858 h 4.834 v -39.37 h -4.834 z"
           style="fill:#000000;fill-opacity:1;fill-rule:nonzero;stroke:none"
           id="path334"
           inkscape:connector-curvature="0" /><g
           id="g336"
           transform="translate(231.3411,108.748)"><path
             d="m 0,0 c 0,-3.652 0.796,-6.387 2.39,-8.204 1.593,-1.817 3.599,-2.726 6.016,-2.726 2.399,0 4.395,0.913 5.989,2.74 1.593,1.826 2.39,4.61 2.39,8.352 0,3.526 -0.802,6.198 -2.404,8.016 -1.602,1.817 -3.594,2.726 -5.975,2.726 C 5.989,10.904 3.983,10 2.39,8.191 0.796,6.383 0,3.652 0,0 m -4.968,0 c 0,5.282 1.468,9.194 4.404,11.736 2.453,2.113 5.442,3.169 8.97,3.169 3.921,0 7.125,-1.285 9.614,-3.853 2.488,-2.57 3.733,-6.119 3.733,-10.649 0,-3.67 -0.55,-6.557 -1.652,-8.661 -1.101,-2.103 -2.703,-3.737 -4.807,-4.9 -2.104,-1.164 -4.4,-1.746 -6.888,-1.746 -3.993,0 -7.22,1.28 -9.682,3.84 -2.461,2.56 -3.692,6.249 -3.692,11.064"
             style="fill:#000000;fill-opacity:1;fill-rule:nonzero;stroke:none"
             id="path338"
             inkscape:connector-curvature="0" /></g><g
           id="g340"
           transform="translate(262.2693,108.5879)"><path
             d="m 0,0 c 0,-3.671 0.743,-6.383 2.229,-8.138 1.486,-1.755 3.285,-2.632 5.398,-2.632 2.148,0 3.988,0.909 5.519,2.726 1.531,1.817 2.296,4.633 2.296,8.446 0,3.635 -0.748,6.356 -2.243,8.164 -1.494,1.809 -3.281,2.713 -5.357,2.713 -2.059,0 -3.881,-0.963 -5.465,-2.887 C 0.792,6.467 0,3.67 0,0 m -4.377,-25.029 v 39.45 h 4.404 v -3.706 c 1.038,1.45 2.211,2.538 3.518,3.263 1.307,0.725 2.891,1.087 4.753,1.087 2.435,0 4.583,-0.627 6.446,-1.879 1.861,-1.253 3.267,-3.022 4.216,-5.304 0.949,-2.283 1.423,-4.785 1.423,-7.507 0,-2.918 -0.524,-5.545 -1.571,-7.882 -1.047,-2.336 -2.569,-4.127 -4.565,-5.371 -1.997,-1.244 -4.096,-1.866 -6.298,-1.866 -1.611,0 -3.057,0.34 -4.337,1.02 -1.28,0.681 -2.332,1.54 -3.155,2.578 v -13.883 z"
             style="fill:#000000;fill-opacity:1;fill-rule:nonzero;stroke:none"
             id="path342"
             inkscape:connector-curvature="0" /></g><g
           id="g344"
           transform="translate(287.5233,94.4883)"><path
             d="M 0,0 V 28.521 H 4.324 V 24.52 c 0.895,1.396 2.085,2.519 3.572,3.37 1.485,0.849 3.177,1.275 5.075,1.275 2.112,0 3.845,-0.438 5.196,-1.315 1.353,-0.878 2.306,-2.105 2.861,-3.68 2.256,3.33 5.192,4.995 8.808,4.995 2.829,0 5.004,-0.783 6.526,-2.35 1.522,-1.567 2.283,-3.979 2.283,-7.237 V 0 h -4.807 v 17.967 c 0,1.933 -0.157,3.325 -0.47,4.176 -0.313,0.849 -0.882,1.535 -1.705,2.054 -0.824,0.519 -1.791,0.779 -2.901,0.779 -2.005,0 -3.67,-0.667 -4.995,-2.001 C 22.442,21.641 21.78,19.506 21.78,16.57 V 0 h -4.834 v 18.53 c 0,2.149 -0.394,3.76 -1.182,4.834 -0.788,1.074 -2.077,1.612 -3.867,1.612 -1.361,0 -2.618,-0.359 -3.773,-1.075 C 6.969,23.186 6.132,22.138 5.613,20.76 5.093,19.381 4.834,17.394 4.834,14.797 V 0 Z"
             style="fill:#000000;fill-opacity:1;fill-rule:nonzero;stroke:none"
             id="path346"
             inkscape:connector-curvature="0" /></g><g
           id="g348"
           transform="translate(336.0667,111.4883)"><path
             d="M 0,0 H 15.925 C 15.71,2.398 15.102,4.198 14.099,5.397 12.559,7.26 10.563,8.19 8.11,8.19 5.89,8.19 4.024,7.447 2.511,5.961 0.998,4.476 0.161,2.488 0,0 m 15.872,-7.815 4.995,-0.619 c -0.788,-2.918 -2.247,-5.182 -4.378,-6.794 -2.131,-1.611 -4.852,-2.417 -8.164,-2.417 -4.172,0 -7.479,1.285 -9.923,3.854 -2.444,2.569 -3.666,6.173 -3.666,10.81 0,4.797 1.236,8.522 3.706,11.171 2.471,2.65 5.676,3.975 9.615,3.975 3.813,0 6.928,-1.298 9.345,-3.894 2.417,-2.596 3.626,-6.249 3.626,-10.957 0,-0.287 -0.009,-0.716 -0.027,-1.289 h -21.27 c 0.179,-3.133 1.065,-5.533 2.659,-7.197 1.593,-1.666 3.581,-2.498 5.962,-2.498 1.773,0 3.285,0.466 4.539,1.397 1.253,0.93 2.246,2.417 2.981,4.458"
             style="fill:#000000;fill-opacity:1;fill-rule:nonzero;stroke:none"
             id="path350"
             inkscape:connector-curvature="0" /></g><g
           id="g352"
           transform="translate(361.9852,94.4883)"><path
             d="m 0,0 v 28.521 h 4.351 v -4.056 c 2.094,3.134 5.12,4.7 9.077,4.7 1.718,0 3.299,-0.309 4.739,-0.927 1.442,-0.617 2.52,-1.427 3.237,-2.429 0.716,-1.003 1.217,-2.194 1.504,-3.573 0.178,-0.895 0.268,-2.462 0.268,-4.699 V 0 h -4.834 v 17.349 c 0,1.969 -0.188,3.441 -0.564,4.418 -0.376,0.975 -1.043,1.754 -2,2.336 -0.958,0.582 -2.082,0.873 -3.371,0.873 -2.059,0 -3.836,-0.654 -5.33,-1.96 C 5.582,21.708 4.834,19.229 4.834,15.576 V 0 Z"
             style="fill:#000000;fill-opacity:1;fill-rule:nonzero;stroke:none"
             id="path354"
             inkscape:connector-curvature="0" /></g><g
           id="g356"
           transform="translate(401.5496,98.8125)"><path
             d="M 0,0 0.698,-4.271 C -0.663,-4.557 -1.88,-4.7 -2.954,-4.7 c -1.755,0 -3.115,0.277 -4.082,0.833 -0.967,0.554 -1.648,1.284 -2.041,2.188 -0.394,0.904 -0.591,2.806 -0.591,5.706 v 16.41 h -3.545 v 3.759 h 3.545 v 7.064 l 4.807,2.9 V 24.196 H 0 V 20.437 H -4.861 V 3.76 c 0,-1.379 0.085,-2.266 0.256,-2.659 0.169,-0.394 0.447,-0.707 0.832,-0.941 0.385,-0.232 0.935,-0.348 1.651,-0.348 0.538,0 1.245,0.062 2.122,0.188"
             style="fill:#000000;fill-opacity:1;fill-rule:nonzero;stroke:none"
             id="path358"
             inkscape:connector-curvature="0" /></g><g
           id="g360"
           transform="translate(439.765,108.8027)"><path
             d="m 0,0 c -1.755,-0.717 -4.387,-1.325 -7.896,-1.826 -1.987,-0.287 -3.393,-0.61 -4.216,-0.967 -0.824,-0.358 -1.459,-0.883 -1.907,-1.571 -0.447,-0.69 -0.671,-1.455 -0.671,-2.296 0,-1.289 0.488,-2.363 1.464,-3.223 0.976,-0.859 2.403,-1.289 4.283,-1.289 1.862,0 3.518,0.406 4.968,1.222 1.451,0.814 2.516,1.929 3.196,3.343 C -0.26,-5.515 0,-3.903 0,-1.773 Z m 0.403,-10.797 c -1.791,-1.521 -3.514,-2.596 -5.17,-3.223 -1.656,-0.626 -3.433,-0.939 -5.331,-0.939 -3.133,0 -5.541,0.766 -7.224,2.296 -1.683,1.531 -2.524,3.487 -2.524,5.868 0,1.397 0.318,2.672 0.953,3.827 0.636,1.155 1.468,2.081 2.498,2.78 1.029,0.698 2.188,1.226 3.478,1.584 0.948,0.25 2.38,0.493 4.296,0.725 3.903,0.466 6.777,1.021 8.621,1.665 0.018,0.662 0.027,1.083 0.027,1.263 0,1.969 -0.457,3.356 -1.37,4.162 -1.235,1.092 -3.071,1.639 -5.505,1.639 -2.274,0 -3.952,-0.4 -5.035,-1.196 -1.084,-0.797 -1.885,-2.207 -2.404,-4.23 l -4.727,0.644 c 0.43,2.024 1.137,3.658 2.122,4.902 0.984,1.244 2.408,2.202 4.27,2.874 1.862,0.671 4.019,1.007 6.472,1.007 2.435,0 4.413,-0.287 5.935,-0.86 C 1.307,13.418 2.426,12.697 3.142,11.829 3.858,10.961 4.359,9.864 4.646,8.539 4.807,7.716 4.888,6.23 4.888,4.082 v -6.445 c 0,-4.494 0.103,-7.337 0.309,-8.528 0.205,-1.19 0.613,-2.332 1.221,-3.423 H 1.37 c -0.502,1.002 -0.824,2.175 -0.967,3.517"
             style="fill:#000000;fill-opacity:1;fill-rule:nonzero;stroke:none"
             id="path362"
             inkscape:connector-curvature="0" /></g><g
           id="g364"
           transform="translate(451.0067,94.4883)"><path
             d="m 0,0 v 28.521 h 4.351 v -4.056 c 2.094,3.134 5.12,4.7 9.077,4.7 1.718,0 3.299,-0.309 4.739,-0.927 1.442,-0.617 2.52,-1.427 3.237,-2.429 0.716,-1.003 1.217,-2.194 1.504,-3.573 0.178,-0.895 0.268,-2.462 0.268,-4.699 V 0 h -4.834 v 17.349 c 0,1.969 -0.188,3.441 -0.564,4.418 -0.376,0.975 -1.043,1.754 -2,2.336 -0.958,0.582 -2.082,0.873 -3.371,0.873 -2.059,0 -3.836,-0.654 -5.33,-1.96 C 5.582,21.708 4.834,19.229 4.834,15.576 V 0 Z"
             style="fill:#000000;fill-opacity:1;fill-rule:nonzero;stroke:none"
             id="path366"
             inkscape:connector-curvature="0" /></g><g
           id="g368"
           transform="translate(483.8279,108.7217)"><path
             d="m 0,0 c 0,-3.652 0.77,-6.383 2.31,-8.19 1.539,-1.809 3.357,-2.713 5.451,-2.713 2.113,0 3.907,0.863 5.385,2.591 1.477,1.728 2.215,4.364 2.215,7.909 0,3.903 -0.752,6.767 -2.256,8.593 -1.503,1.827 -3.356,2.741 -5.559,2.741 -2.148,0 -3.943,-0.878 -5.384,-2.633 C 0.721,6.544 0,3.777 0,0 m 15.281,-14.233 v 3.598 c -1.809,-2.829 -4.468,-4.243 -7.976,-4.243 -2.274,0 -4.364,0.627 -6.271,1.88 -1.907,1.253 -3.384,3.003 -4.431,5.25 -1.048,2.247 -1.571,4.83 -1.571,7.748 0,2.847 0.474,5.429 1.423,7.748 0.949,2.318 2.372,4.095 4.27,5.331 1.898,1.234 4.019,1.853 6.365,1.853 1.719,0 3.249,-0.363 4.592,-1.088 1.343,-0.725 2.435,-1.669 3.276,-2.833 v 14.126 h 4.808 v -39.37 z"
             style="fill:#000000;fill-opacity:1;fill-rule:nonzero;stroke:none"
             id="path370"
             inkscape:connector-curvature="0" /></g><g
           id="g372"
           transform="translate(527.1995,94.4883)"><path
             d="M 0,0 V 39.37 H 28.467 V 34.725 H 5.21 V 22.666 H 26.99 V 18.047 H 5.21 V 4.646 H 29.38 V 0 Z"
             style="fill:#000000;fill-opacity:1;fill-rule:nonzero;stroke:none"
             id="path374"
             inkscape:connector-curvature="0" /></g><g
           id="g376"
           transform="translate(564.3792,108.7217)"><path
             d="m 0,0 c 0,-3.652 0.77,-6.383 2.31,-8.19 1.539,-1.809 3.357,-2.713 5.451,-2.713 2.113,0 3.907,0.863 5.385,2.591 1.477,1.728 2.215,4.364 2.215,7.909 0,3.903 -0.752,6.767 -2.256,8.593 -1.503,1.827 -3.356,2.741 -5.559,2.741 -2.148,0 -3.943,-0.878 -5.384,-2.633 C 0.721,6.544 0,3.777 0,0 m 15.281,-14.233 v 3.598 c -1.809,-2.829 -4.468,-4.243 -7.976,-4.243 -2.274,0 -4.364,0.627 -6.271,1.88 -1.907,1.253 -3.384,3.003 -4.431,5.25 -1.048,2.247 -1.571,4.83 -1.571,7.748 0,2.847 0.474,5.429 1.423,7.748 0.949,2.318 2.372,4.095 4.27,5.331 1.898,1.234 4.019,1.853 6.365,1.853 1.719,0 3.249,-0.363 4.592,-1.088 1.343,-0.725 2.435,-1.669 3.276,-2.833 v 14.126 h 4.808 v -39.37 z"
             style="fill:#000000;fill-opacity:1;fill-rule:nonzero;stroke:none"
             id="path378"
             inkscape:connector-curvature="0" /></g><g
           id="g380"
           transform="translate(609.1824,94.4883)"><path
             d="m 0,0 v 4.189 c -2.22,-3.222 -5.237,-4.834 -9.05,-4.834 -1.683,0 -3.254,0.323 -4.713,0.967 -1.46,0.645 -2.543,1.454 -3.25,2.431 -0.707,0.976 -1.204,2.171 -1.49,3.585 -0.198,0.949 -0.296,2.453 -0.296,4.512 v 17.671 h 4.834 V 12.703 c 0,-2.525 0.098,-4.225 0.296,-5.103 0.304,-1.271 0.948,-2.269 1.933,-2.995 0.985,-0.724 2.202,-1.087 3.653,-1.087 1.45,0 2.81,0.372 4.082,1.115 1.271,0.742 2.17,1.754 2.699,3.034 0.528,1.28 0.792,3.138 0.792,5.573 V 28.521 H 4.324 L 4.324,0 Z"
             style="fill:#000000;fill-opacity:1;fill-rule:nonzero;stroke:none"
             id="path382"
             inkscape:connector-curvature="0" /></g><g
           id="g384"
           transform="translate(638.5574,104.9355)"><path
             d="M 0,0 4.753,-0.618 C 4.234,-3.895 2.905,-6.459 0.766,-8.313 c -2.14,-1.852 -4.767,-2.779 -7.883,-2.779 -3.903,0 -7.04,1.276 -9.412,3.827 -2.373,2.551 -3.559,6.208 -3.559,10.97 0,3.08 0.51,5.774 1.531,8.084 1.02,2.31 2.574,4.042 4.66,5.196 2.085,1.156 4.354,1.733 6.807,1.733 3.097,0 5.631,-0.783 7.6,-2.35 1.969,-1.567 3.232,-3.791 3.787,-6.674 l -4.7,-0.725 c -0.448,1.916 -1.24,3.357 -2.376,4.324 -1.138,0.967 -2.512,1.45 -4.123,1.45 -2.435,0 -4.413,-0.873 -5.935,-2.618 -1.522,-1.746 -2.283,-4.508 -2.283,-8.285 0,-3.831 0.734,-6.615 2.203,-8.352 1.467,-1.737 3.383,-2.605 5.747,-2.605 1.897,0 3.482,0.582 4.753,1.746 C -1.146,-4.208 -0.34,-2.418 0,0"
             style="fill:#000000;fill-opacity:1;fill-rule:nonzero;stroke:none"
             id="path386"
             inkscape:connector-curvature="0" /></g><g
           id="g388"
           transform="translate(665.6492,108.8027)"><path
             d="m 0,0 c -1.755,-0.717 -4.387,-1.325 -7.896,-1.826 -1.987,-0.287 -3.393,-0.61 -4.216,-0.967 -0.824,-0.358 -1.459,-0.883 -1.907,-1.571 -0.447,-0.69 -0.671,-1.455 -0.671,-2.296 0,-1.289 0.488,-2.363 1.464,-3.223 0.976,-0.859 2.403,-1.289 4.283,-1.289 1.862,0 3.518,0.406 4.968,1.222 1.451,0.814 2.516,1.929 3.196,3.343 C -0.26,-5.515 0,-3.903 0,-1.773 Z m 0.403,-10.797 c -1.791,-1.521 -3.514,-2.596 -5.17,-3.223 -1.656,-0.626 -3.433,-0.939 -5.331,-0.939 -3.133,0 -5.541,0.766 -7.224,2.296 -1.683,1.531 -2.524,3.487 -2.524,5.868 0,1.397 0.318,2.672 0.953,3.827 0.636,1.155 1.468,2.081 2.498,2.78 1.029,0.698 2.188,1.226 3.478,1.584 0.948,0.25 2.38,0.493 4.296,0.725 3.903,0.466 6.777,1.021 8.621,1.665 0.018,0.662 0.027,1.083 0.027,1.263 0,1.969 -0.457,3.356 -1.37,4.162 -1.235,1.092 -3.071,1.639 -5.505,1.639 -2.274,0 -3.952,-0.4 -5.035,-1.196 -1.084,-0.797 -1.885,-2.207 -2.404,-4.23 l -4.727,0.644 c 0.43,2.024 1.137,3.658 2.122,4.902 0.984,1.244 2.408,2.202 4.27,2.874 1.862,0.671 4.019,1.007 6.472,1.007 2.435,0 4.413,-0.287 5.935,-0.86 C 1.307,13.418 2.426,12.697 3.142,11.829 3.858,10.961 4.359,9.864 4.646,8.539 4.807,7.716 4.888,6.23 4.888,4.082 v -6.445 c 0,-4.494 0.103,-7.337 0.309,-8.528 0.205,-1.19 0.613,-2.332 1.221,-3.423 H 1.37 c -0.502,1.002 -0.824,2.175 -0.967,3.517"
             style="fill:#000000;fill-opacity:1;fill-rule:nonzero;stroke:none"
             id="path390"
             inkscape:connector-curvature="0" /></g><g
           id="g392"
           transform="translate(687.1317,98.8125)"><path
             d="M 0,0 0.698,-4.271 C -0.663,-4.557 -1.88,-4.7 -2.954,-4.7 c -1.755,0 -3.115,0.277 -4.082,0.833 -0.967,0.554 -1.648,1.284 -2.041,2.188 -0.394,0.904 -0.591,2.806 -0.591,5.706 v 16.41 h -3.545 v 3.759 h 3.545 v 7.064 l 4.807,2.9 V 24.196 H 0 V 20.437 H -4.861 V 3.76 c 0,-1.379 0.085,-2.266 0.256,-2.659 0.169,-0.394 0.447,-0.707 0.832,-0.941 0.385,-0.232 0.935,-0.348 1.651,-0.348 0.538,0 1.245,0.062 2.122,0.188"
             style="fill:#000000;fill-opacity:1;fill-rule:nonzero;stroke:none"
             id="path394"
             inkscape:connector-curvature="0" /></g><path
           d="m 691.088,123.009 h 4.834 V 94.488 h -4.834 z m 0,10.849 h 4.834 v -5.56 h -4.834 z"
           style="fill:#000000;fill-opacity:1;fill-rule:nonzero;stroke:none"
           id="path396"
           inkscape:connector-curvature="0" /><g
           id="g398"
           transform="translate(705.6624,108.748)"><path
             d="m 0,0 c 0,-3.652 0.796,-6.387 2.39,-8.204 1.593,-1.817 3.599,-2.726 6.016,-2.726 2.399,0 4.395,0.913 5.989,2.74 1.593,1.826 2.39,4.61 2.39,8.352 0,3.526 -0.802,6.198 -2.404,8.016 -1.602,1.817 -3.594,2.726 -5.975,2.726 C 5.989,10.904 3.983,10 2.39,8.191 0.796,6.383 0,3.652 0,0 m -4.968,0 c 0,5.282 1.468,9.194 4.404,11.736 2.453,2.113 5.442,3.169 8.97,3.169 3.921,0 7.125,-1.285 9.614,-3.853 2.488,-2.57 3.733,-6.119 3.733,-10.649 0,-3.67 -0.55,-6.557 -1.652,-8.661 -1.101,-2.103 -2.703,-3.737 -4.807,-4.9 -2.104,-1.164 -4.4,-1.746 -6.888,-1.746 -3.993,0 -7.22,1.28 -9.682,3.84 -2.461,2.56 -3.692,6.249 -3.692,11.064"
             style="fill:#000000;fill-opacity:1;fill-rule:nonzero;stroke:none"
             id="path400"
             inkscape:connector-curvature="0" /></g><g
           id="g402"
           transform="translate(732.2127,94.4883)"><path
             d="m 0,0 v 28.521 h 4.351 v -4.056 c 2.094,3.134 5.12,4.7 9.077,4.7 1.718,0 3.299,-0.309 4.739,-0.927 1.442,-0.617 2.52,-1.427 3.237,-2.429 0.716,-1.003 1.217,-2.194 1.504,-3.573 0.178,-0.895 0.268,-2.462 0.268,-4.699 V 0 h -4.834 v 17.349 c 0,1.969 -0.188,3.441 -0.564,4.418 -0.376,0.975 -1.043,1.754 -2,2.336 -0.958,0.582 -2.082,0.873 -3.371,0.873 -2.059,0 -3.836,-0.654 -5.33,-1.96 C 5.582,21.708 4.834,19.229 4.834,15.576 V 0 Z"
             style="fill:#000000;fill-opacity:1;fill-rule:nonzero;stroke:none"
             id="path404"
             inkscape:connector-curvature="0" /></g><path
           d="M 531.024,390.236 H 83.15 v 306.142 h 447.874 z"
           style="fill:#ffffff;fill-opacity:1;fill-rule:nonzero;stroke:none"
           id="path406"
           inkscape:connector-curvature="0" /><path
           d="M 94.488,685.039 H 519.685 V 401.574 H 94.488 Z"
           style="fill:#254aa5;fill-opacity:1;fill-rule:nonzero;stroke:none"
           id="path408"
           inkscape:connector-curvature="0" /><g
           id="g410"
           transform="translate(307.0866,631.78)"><path
             d="M 0,0 9.256,-6.725 5.721,4.156 14.977,10.882 H 3.536 L 0,21.763 -3.536,10.882 H -14.977 L -5.721,4.156 -9.256,-6.725 Z"
             style="fill:#fff200;fill-opacity:1;fill-rule:nonzero;stroke:none"
             id="path412"
             inkscape:connector-curvature="0" /></g><g
           id="g414"
           transform="translate(259.8425,619.121)"><path
             d="M 0,0 9.256,-6.725 5.721,4.156 14.977,10.882 H 3.536 L 0,21.763 -3.536,10.882 H -14.977 L -5.721,4.156 -9.256,-6.725 Z"
             style="fill:#fff200;fill-opacity:1;fill-rule:nonzero;stroke:none"
             id="path416"
             inkscape:connector-curvature="0" /></g><g
           id="g418"
           transform="translate(225.2574,584.5359)"><path
             d="M 0,0 9.256,-6.725 5.721,4.156 14.977,10.882 H 3.536 L 0,21.763 -3.536,10.882 H -14.977 L -5.721,4.156 -9.256,-6.725 Z"
             style="fill:#fff200;fill-opacity:1;fill-rule:nonzero;stroke:none"
             id="path420"
             inkscape:connector-curvature="0" /></g><g
           id="g422"
           transform="translate(212.5984,537.2918)"><path
             d="M 0,0 9.256,-6.725 5.721,4.156 14.977,10.882 H 3.536 L 0,21.763 -3.536,10.882 H -14.977 L -5.721,4.156 -9.256,-6.725 Z"
             style="fill:#fff200;fill-opacity:1;fill-rule:nonzero;stroke:none"
             id="path424"
             inkscape:connector-curvature="0" /></g><g
           id="g426"
           transform="translate(401.5748,537.2918)"><path
             d="M 0,0 9.256,-6.725 5.721,4.156 14.977,10.882 H 3.536 L 0,21.763 -3.536,10.882 H -14.977 L -5.721,4.156 -9.256,-6.725 Z"
             style="fill:#fff200;fill-opacity:1;fill-rule:nonzero;stroke:none"
             id="path428"
             inkscape:connector-curvature="0" /></g><g
           id="g430"
           transform="translate(388.9158,584.5359)"><path
             d="M 0,0 9.256,-6.725 5.721,4.156 14.977,10.882 H 3.536 L 0,21.763 -3.536,10.882 H -14.977 L -5.721,4.156 -9.256,-6.725 Z"
             style="fill:#fff200;fill-opacity:1;fill-rule:nonzero;stroke:none"
             id="path432"
             inkscape:connector-curvature="0" /></g><g
           id="g434"
           transform="translate(354.3307,619.121)"><path
             d="M 0,0 9.256,-6.725 5.721,4.156 14.977,10.882 H 3.536 L 0,21.763 -3.536,10.882 H -14.977 L -5.721,4.156 -9.256,-6.725 Z"
             style="fill:#fff200;fill-opacity:1;fill-rule:nonzero;stroke:none"
             id="path436"
             inkscape:connector-curvature="0" /></g><g
           id="g438"
           transform="translate(388.9158,490.0477)"><path
             d="M 0,0 9.256,-6.725 5.721,4.156 14.977,10.882 H 3.536 L 0,21.763 -3.536,10.882 H -14.977 L -5.721,4.156 -9.256,-6.725 Z"
             style="fill:#fff200;fill-opacity:1;fill-rule:nonzero;stroke:none"
             id="path440"
             inkscape:connector-curvature="0" /></g><g
           id="g442"
           transform="translate(354.3307,455.4626)"><path
             d="M 0,0 9.256,-6.725 5.721,4.156 14.977,10.882 H 3.536 L 0,21.763 -3.536,10.882 H -14.977 L -5.721,4.156 -9.256,-6.725 Z"
             style="fill:#fff200;fill-opacity:1;fill-rule:nonzero;stroke:none"
             id="path444"
             inkscape:connector-curvature="0" /></g><g
           id="g446"
           transform="translate(307.0866,442.8036)"><path
             d="M 0,0 9.256,-6.725 5.721,4.156 14.977,10.882 H 3.536 L 0,21.763 -3.536,10.882 H -14.977 L -5.721,4.156 -9.256,-6.725 Z"
             style="fill:#fff200;fill-opacity:1;fill-rule:nonzero;stroke:none"
             id="path448"
             inkscape:connector-curvature="0" /></g><g
           id="g450"
           transform="translate(259.8425,455.4626)"><path
             d="M 0,0 9.256,-6.725 5.721,4.156 14.977,10.882 H 3.536 L 0,21.763 -3.536,10.882 H -14.977 L -5.721,4.156 -9.256,-6.725 Z"
             style="fill:#fff200;fill-opacity:1;fill-rule:nonzero;stroke:none"
             id="path452"
             inkscape:connector-curvature="0" /></g><g
           id="g454"
           transform="translate(225.2574,490.0477)"><path
             d="M 0,0 9.256,-6.725 5.721,4.156 14.977,10.882 H 3.536 L 0,21.763 -3.536,10.882 H -14.977 L -5.721,4.156 -9.256,-6.725 Z"
             style="fill:#fff200;fill-opacity:1;fill-rule:nonzero;stroke:none"
             id="path456"
             inkscape:connector-curvature="0" /></g></g></g></g></svg>