<?xml version="1.0" encoding="UTF-8" standalone="no"?>
<svg
   xmlns:dc="http://purl.org/dc/elements/1.1/"
   xmlns:cc="http://creativecommons.org/ns#"
   xmlns:rdf="http://www.w3.org/1999/02/22-rdf-syntax-ns#"
   xmlns:svg="http://www.w3.org/2000/svg"
   xmlns="http://www.w3.org/2000/svg"
   viewBox="0 0 383.9899 303.03732"
   height="303.03732"
   width="383.9899"
   xml:space="preserve"
   id="svg2"
   version="1.1"><metadata
     id="metadata8"><rdf:RDF><cc:Work
         rdf:about=""><dc:format>image/svg+xml</dc:format><dc:type
           rdf:resource="http://purl.org/dc/dcmitype/StillImage" /></cc:Work></rdf:RDF></metadata><defs
     id="defs6" /><g
     transform="matrix(1.3333333,0,0,-1.3333333,0,303.03731)"
     id="g10"><g
       id="g12"><path
         id="path14"
         style="fill:#e36646;fill-opacity:1;fill-rule:nonzero;stroke:none"
         d="m 84.184,178.735 v -18.723 l 137.679,-15.984 v 4.148 z" /><path
         id="path16"
         style="fill:#f47b20;fill-opacity:1;fill-rule:nonzero;stroke:none"
         d="m 84.184,178.735 v -18.723 l 137.679,-15.984 v 4.148 z" /><path
         id="path18"
         style="fill:#e36646;fill-opacity:1;fill-rule:nonzero;stroke:none"
         d="m 198.125,78.235 23.672,13.238 V 108.79 L 196.855,80.973 Z" /><path
         id="path20"
         style="fill:#f47b20;fill-opacity:1;fill-rule:nonzero;stroke:none"
         d="m 198.125,78.235 23.672,13.238 V 108.79 L 196.855,80.973 Z" /><path
         id="path22"
         style="fill:#e36646;fill-opacity:1;fill-rule:nonzero;stroke:none"
         d="m 148.844,107.989 72.953,11.234 v 15.914 l -72.953,-24.273 z" /><path
         id="path24"
         style="fill:#f47b20;fill-opacity:1;fill-rule:nonzero;stroke:none"
         d="m 148.844,107.989 72.953,11.234 v 15.914 l -72.953,-24.273 z" /><path
         id="path26"
         style="fill:#f47b20;fill-opacity:1;fill-rule:nonzero;stroke:none"
         d="m 61.984,209.223 v -64.39 l -0.132,-2.075 -0.403,-1.937 -0.601,-1.805 -0.868,-1.808 -1.07,-1.602 -1.203,-1.605 -1.406,-1.407 -1.539,-1.269 -1.672,-1.203 -1.738,-1.004 -1.872,-0.867 -1.937,-0.805 -1.941,-0.535 -2.004,-0.469 -1.942,-0.266 -2.004,-0.066 -1.941,0.066 -2.004,0.266 -1.941,0.469 -1.871,0.535 -1.872,0.805 -1.804,0.867 -1.672,1.004 -1.606,1.203 -1.472,1.269 -1.336,1.407 -1.203,1.605 -0.938,1.602 -0.867,1.808 -0.602,1.805 -0.335,1.937 -0.133,2.075 v 64.39 H 0 v -65.797 l 0.199,-3.41 0.672,-3.207 1,-3.011 1.34,-2.809 1.672,-2.606 2.004,-2.406 2.207,-2.207 2.472,-1.941 2.676,-1.739 2.875,-1.535 2.942,-1.273 3.144,-1.07 3.211,-0.868 3.207,-0.601 3.277,-0.336 3.278,-0.133 3.41,0.133 3.41,0.336 3.344,0.601 3.273,0.868 3.145,1.07 3.074,1.273 2.875,1.535 2.742,1.739 2.543,1.941 2.207,2.207 2.004,2.406 1.738,2.606 1.34,2.809 1,3.011 0.668,3.207 0.203,3.41 v 65.797 z" /><path
         id="path28"
         style="fill:#f47b20;fill-opacity:1;fill-rule:nonzero;stroke:none"
         d="M 87.727,140.688 V 47.876 h 17.988 v 40.855 h 38.246 v 11.77 h -38.246 v 28.484 h 48.746 v 11.703 z" /><path
         id="path30"
         style="fill:#f47b20;fill-opacity:1;fill-rule:nonzero;stroke:none"
         d="m 216.445,2.141 -31.359,90.133 v 0.668 H 166.363 V 92.274 L 133.664,2.141 v -2.14 h 11.77 v 0.734 l 11.168,31.16 h 30.625 l 10.363,-31.16 0.734,-0.734 h 18.789 z m -33.433,41.524 h -22.266 l 11.168,31.226 z" /><path
         id="path32"
         style="fill:#f47b20;fill-opacity:1;fill-rule:nonzero;stroke:none"
         d="m 249.812,85.989 v 80.309 H 231.691 V 73.485 h 56.301 v 12.504 z" /><path
         id="path34"
         style="fill:#f47b20;fill-opacity:1;fill-rule:nonzero;stroke:none"
         d="m 40.387,210.63 h -6.219 l 0.734,2.07 1.071,4.148 0.336,2.071 0.265,2.14 0.203,2.074 0.133,2.071 v 2.074 h 13.305 l -0.067,-1.137 -0.132,-1.136 -0.266,-1.137 -0.402,-1.137 -0.403,-1.07 -0.535,-1.137 -0.601,-1.07 -0.668,-1.004 -1.473,-2.07 -1.672,-2.008 z" /></g></g></svg>