<?xml version="1.0" encoding="UTF-8" standalone="no"?>
<svg
   version="1.0"
   viewBox="0 0 71.48999 92.16"
   id="svg78"
   width="71.489998"
   height="92.160004"
   xmlns:xlink="http://www.w3.org/1999/xlink"
   xmlns="http://www.w3.org/2000/svg"
   xmlns:svg="http://www.w3.org/2000/svg"
   xmlns:ns0="http://www.iki.fi/pav/software/textext/">
  <defs
     id="defs2">
    <marker
       id="c"
       overflow="visible"
       orient="auto">
      <path
         transform="matrix(0.3,0,0,0.3,-0.69,0)"
         d="M 8.7186,4.0337 -2.2074,0.016 8.7186,-4.0017 c -1.7455,2.3721 -1.7354,5.6175 0,8.0354 z"
         fill-rule="evenodd"
         stroke-linejoin="round"
         stroke-width="0.625"
         id="path1" />
    </marker>
    <marker
       id="d"
       overflow="visible"
       orient="auto">
      <path
         transform="matrix(-0.2,0,0,-0.2,-1.2,0)"
         d="M 0,0 5,-5 -12.5,0 5,5 Z"
         fill-rule="evenodd"
         stroke="#000000"
         stroke-width="1pt"
         id="path2" />
    </marker>
  </defs>
  <g
     id="g78"
     style="display:none">
    <path
       d="m 82.483,11.413826 c 0,23.516906 9.5139,42.581625 21.25,42.581625 11.7361,0 21.25,-19.064719 21.25,-42.581625 0,-3.7719174 -0.25011,-7.5272464 -0.74376,-11.16719778"
       fill="#b6b4b8"
       stroke="#cc002b"
       stroke-linecap="square"
       stroke-linejoin="round"
       stroke-opacity="0.5234"
       stroke-width="0.499994"
       id="path12" />
    <path
       d="m 105.89854,67.915959 c -2.98409,3.295743 -6.291963,4.587473 -7.38835,2.88521 -1.096387,-1.702264 0.433866,-5.753947 3.41795,-9.04969 2.98409,-3.295744 6.29196,-4.587474 7.38835,-2.88521 1.09639,1.702263 -0.43387,5.753947 -3.41795,9.04969 z"
       fill="none"
       stroke="#0000ff"
       stroke-opacity="0.5234"
       stroke-width="0.5"
       id="path13" />
    <path
       d="m 107.47759,70.246747 c -5.45711,6.027159 -11.506372,8.389456 -13.511407,5.276427 -2.005034,-3.11303 0.793374,-10.522614 6.250487,-16.549774 5.45712,-6.027159 11.50638,-8.389456 13.51141,-5.276426 2.00504,3.113029 -0.79337,10.522613 -6.25049,16.549773 z"
       fill="none"
       stroke="#3700d6"
       stroke-opacity="0.5234"
       stroke-width="0.500003"
       id="path14" />
    <path
       d="m 109.8836,73.749336 c -8.84598,9.769675 -18.651733,13.598931 -21.901795,8.55303 -3.250062,-5.045902 1.28623,-17.056295 10.132206,-26.82597 8.845979,-9.769675 18.651729,-13.598932 21.901799,-8.55303 3.25006,5.045901 -1.28624,17.056295 -10.13221,26.82597 z"
       fill="none"
       stroke="#5f00a1"
       stroke-opacity="0.5234"
       stroke-width="0.499996"
       id="path15" />
    <path
       d="M 111.87422,79.755926 C 99.418776,95.940963 85.611979,102.28435 81.035843,93.924524 76.459708,85.564696 82.847021,65.667159 95.302466,49.482122 107.75791,33.297085 121.56471,26.953696 126.14084,35.313524 c 4.57614,8.359828 -1.81117,28.257365 -14.26662,44.442402 z"
       fill="none"
       stroke="#960066"
       stroke-opacity="0.5234"
       stroke-width="0.50001"
       id="path16" />
    <path
       d="M 113.88352,83.745235 C 98.569995,104.74262 81.594943,112.97262 75.968644,102.12777 70.342344,91.282914 78.195235,65.469687 93.508763,44.4723 108.82229,23.474913 125.79734,15.244914 131.42364,26.089768 c 5.6263,10.844853 -2.22659,36.65808 -17.54012,57.655467 z"
       fill="none"
       stroke="#cc002b"
       stroke-opacity="0.5234"
       stroke-width="0.500001"
       id="path17" />
    <path
       d="m 109.157,52.72 c 0,0.69036 -0.55964,1.25 -1.25,1.25 -0.69036,0 -1.25,-0.55964 -1.25,-1.25 0,-0.69036 0.55964,-1.25 1.25,-1.25 0.69036,0 1.25,0.55964 1.25,1.25 z"
       id="path18" />
    <path
       d="m 76.98,52.75 c 5,-10 10,-12.5 10,-12.5"
       fill="none"
       marker-end="url(#d)"
       marker-mid="url(#c)"
       stroke="#050000"
       stroke-width="0.5"
       id="path19" />
    <g
       transform="matrix(0.51502,0,0,0.51502,-8.74,-18.66)"
       ns0:preamble=""
       ns0:text="$x^*$"
       id="g25">
      <defs
         id="defs23" />
      <g
         id="g24">
        <use
           x="223.43201"
           y="134.765"
           xlink:href="#b"
           id="use23" />
        <use
           x="229.12601"
           y="131.149"
           xlink:href="#a"
           id="use24" />
      </g>
    </g>
    <g
       transform="matrix(0.51502,0,0,0.51502,-21.29,-50.3)"
       ns0:preamble=""
       ns0:text="$g_i(x) &lt; 0 $"
       id="g38">
      <defs
         id="defs31">
        <symbol
           id="af"
           overflow="visible">
          <path
             d="m 4.6875,-3.7656 c 0.015625,-0.046875 0.03125,-0.10938 0.03125,-0.17188 0,-0.17188 -0.10938,-0.26562 -0.28125,-0.26562 -0.09375,0 -0.375,0.0625 -0.40625,0.42188 -0.1875,-0.35938 -0.53125,-0.625 -0.9375,-0.625 -1.125,0 -2.3594,1.3906 -2.3594,2.8281 0,0.98438 0.59375,1.5781 1.3125,1.5781 0.59375,0 1.0625,-0.46875 1.1562,-0.57812 l 0.015625,0.015625 c -0.20312,0.875 -0.32812,1.2969 -0.32812,1.3125 -0.046875,0.09375 -0.375,1.0781 -1.4375,1.0781 -0.1875,0 -0.51562,-0.015625 -0.79688,-0.10938 0.29688,-0.078125 0.40625,-0.34375 0.40625,-0.51562 0,-0.15625 -0.10938,-0.34375 -0.375,-0.34375 -0.21875,0 -0.53125,0.17188 -0.53125,0.57812 0,0.40624 0.35938,0.60938 1.3125,0.60938 1.25,0 1.9688,-0.78125 2.125,-1.375 z m -1.2812,2.4844 c -0.0625,0.26562 -0.29688,0.51562 -0.51562,0.70312 -0.20312,0.17188 -0.51562,0.35938 -0.8125,0.35938 -0.5,0 -0.64062,-0.51562 -0.64062,-0.92188 0,-0.46875 0.28125,-1.6562 0.5625,-2.1562 0.26562,-0.48438 0.6875,-0.89062 1.1094,-0.89062 0.65625,0 0.79688,0.8125 0.79688,0.85938 0,0.04688 -0.015625,0.10938 -0.03125,0.14062 z"
             id="path25" />
        </symbol>
        <symbol
           id="ad"
           overflow="visible">
          <path
             d="m 3.3281,-3.0156 c 0.0625,-0.25 0.29688,-1.1719 0.98438,-1.1719 0.046875,0 0.29688,0 0.5,0.125 C 4.53123,-4 4.34373,-3.76562 4.34373,-3.51562 c 0,0.15625 0.10938,0.34375 0.375,0.34375 0.21875,0 0.53125,-0.17188 0.53125,-0.57812 0,-0.51562 -0.57812,-0.65625 -0.92188,-0.65625 -0.57812,0 -0.92188,0.53125 -1.0469,0.75 -0.25,-0.65625 -0.78125,-0.75 -1.0781,-0.75 -1.0312,0 -1.6094,1.2812 -1.6094,1.5312 0,0.10938 0.10938,0.10938 0.125,0.10938 0.078125,0 0.10938,-0.03125 0.125,-0.10938 0.34375,-1.0625 1,-1.3125 1.3438,-1.3125 0.1875,0 0.53125,0.09375 0.53125,0.67188 0,0.3125 -0.17188,0.96875 -0.53125,2.375 -0.15625,0.60938 -0.51562,1.0312 -0.95312,1.0312 -0.0625,0 -0.28125,0 -0.5,-0.125 0.25,-0.0625 0.46875,-0.26562 0.46875,-0.54688 0,-0.26562 -0.21875,-0.34375 -0.35938,-0.34375 -0.3125,0 -0.54688,0.25 -0.54688,0.57812 0,0.45312 0.48438,0.65625 0.92188,0.65625 0.67188,0 1.0312,-0.70312 1.0469,-0.75 0.125,0.35938 0.48438,0.75 1.0781,0.75 1.0312,0 1.5938,-1.2812 1.5938,-1.5312 0,-0.10938 -0.078125,-0.10938 -0.10938,-0.10938 -0.09375,0 -0.10938,0.046875 -0.14062,0.10938 -0.32812,1.0781 -1,1.3125 -1.3125,1.3125 -0.39062,0 -0.54688,-0.3125 -0.54688,-0.65625 0,-0.21875 0.046875,-0.4375 0.15625,-0.875 z"
             id="path26" />
        </symbol>
        <symbol
           id="ab"
           overflow="visible">
          <path
             d="m 6.7344,-4.9688 c 0.10938,-0.0625 0.1875,-0.10938 0.1875,-0.21875 0,-0.10937 -0.09375,-0.20312 -0.20312,-0.20312 -0.03125,0 -0.046875,0 -0.17188,0.078125 l -5.5312,2.5938 c -0.10938,0.0625 -0.1875,0.10938 -0.1875,0.21875 0,0.125 0.078125,0.17188 0.1875,0.23438 l 5.5312,2.5938 c 0.125,0.078125 0.14062,0.078125 0.17188,0.078125 0.10938,0 0.20312,-0.09375 0.20312,-0.20312 0,-0.10937 -0.078125,-0.15625 -0.1875,-0.21875 L 1.5,-2.49996 Z"
             id="path27" />
        </symbol>
        <symbol
           id="z"
           overflow="visible">
          <path
             d="m 2.2656,-4.3594 c 0,-0.10938 -0.09375,-0.26562 -0.28125,-0.26562 -0.1875,0 -0.39062,0.1875 -0.39062,0.39062 0,0.10938 0.078125,0.26562 0.28125,0.26562 0.1875,0 0.39062,-0.20312 0.39062,-0.39062 z m -1.4219,3.5469 c -0.03125,0.09375 -0.0625,0.17188 -0.0625,0.29688 0,0.32812 0.26562,0.57812 0.65625,0.57812 0.6875,0 1,-0.95312 1,-1.0625 0,-0.09375 -0.09375,-0.09375 -0.10938,-0.09375 -0.09375,0 -0.10938,0.046875 -0.14062,0.125 -0.15625,0.5625 -0.45312,0.84375 -0.73438,0.84375 -0.14062,0 -0.17188,-0.09375 -0.17188,-0.25 0,-0.15625 0.046875,-0.28125 0.10938,-0.4375 C 1.468695,-1 1.54682,-1.1875 1.60932,-1.375 c 0.0625,-0.17188 0.32812,-0.79688 0.34375,-0.89062 0.03125,-0.0625 0.046875,-0.14062 0.046875,-0.21875 0,-0.32812 -0.28125,-0.59375 -0.65625,-0.59375 -0.70312,0 -1.0156,0.95312 -1.0156,1.0781 0,0.078125 0.09375,0.078125 0.125,0.078125 0.09375,0 0.09375,-0.03125 0.125,-0.10938 0.17188,-0.59375 0.48438,-0.84375 0.73438,-0.84375 0.10938,0 0.17188,0.046875 0.17188,0.23438 0,0.17188 -0.03125,0.26562 -0.20312,0.70312 z"
             id="path28" />
        </symbol>
        <symbol
           id="x"
           overflow="visible">
          <path
             d="m 3.2969,2.3906 c 0,-0.03125 0,-0.046875 -0.17188,-0.21875 -1.2344,-1.25 -1.5625,-3.1406 -1.5625,-4.6719 0,-1.7344 0.375,-3.4688 1.6094,-4.7031 0.125,-0.125 0.125,-0.14062 0.125,-0.17188 0,-0.078125 -0.03125,-0.10938 -0.09375,-0.10938 -0.10938,0 -1,0.6875 -1.5938,1.9531 -0.5,1.0938 -0.625,2.2031 -0.625,3.0312 0,0.78125 0.10938,1.9844 0.65625,3.125 0.60938,1.2188 1.4531,1.875 1.5625,1.875 0.0625,0 0.09375,-0.03125 0.09375,-0.10938 z"
             id="path29" />
        </symbol>
        <symbol
           id="v"
           overflow="visible">
          <path
             d="m 2.875,-2.5 c 0,-0.76562 -0.10938,-1.9688 -0.65625,-3.1094 -0.59375,-1.2188 -1.4531,-1.875 -1.5469,-1.875 -0.0625,0 -0.10938,0.046875 -0.10938,0.10938 0,0.03125 0,0.046875 0.1875,0.23438 0.98438,0.98438 1.5469,2.5625 1.5469,4.6406 0,1.7188 -0.35938,3.4688 -1.5938,4.7188 -0.14062,0.125 -0.14062,0.14062 -0.14062,0.17188 0,0.0625 0.046875,0.10938 0.10938,0.10938 0.09375,0 1,-0.6875 1.5781,-1.9531 0.51562,-1.0938 0.625,-2.2031 0.625,-3.0469 z"
             id="path30" />
        </symbol>
        <symbol
           id="t"
           overflow="visible">
          <path
             d="m 4.5781,-3.1875 c 0,-0.79688 -0.046875,-1.5938 -0.39062,-2.3281 -0.45312,-0.96875 -1.2812,-1.125 -1.6875,-1.125 -0.60938,0 -1.3281,0.26562 -1.75,1.1875 -0.3125,0.6875 -0.35938,1.4688 -0.35938,2.2656 0,0.75 0.03125,1.6406 0.45312,2.4062 0.42188,0.79688 1.1562,1 1.6406,1 0.53125,0 1.2969,-0.20312 1.7344,-1.1562 0.3125,-0.6875 0.35938,-1.4688 0.35938,-2.25 z M 2.4843,0 C 2.09368,0 1.49992,-0.25 1.3281,-1.2031 1.21872,-1.79685 1.21872,-2.7187 1.21872,-3.3125 c 0,-0.64062 0,-1.2969 0.078125,-1.8281 0.1875,-1.1875 0.9375,-1.2812 1.1875,-1.2812 0.32812,0 0.98438,0.1875 1.1719,1.1719 0.10938,0.5625 0.10938,1.3125 0.10938,1.9375 0,0.75 0,1.4219 -0.10938,2.0625 -0.15625,0.95312 -0.71875,1.25 -1.1719,1.25 z"
             id="path31" />
        </symbol>
      </defs>
      <g
         id="g37">
        <use
           x="223.43201"
           y="134.765"
           xlink:href="#af"
           id="use31" />
        <use
           x="228.18401"
           y="136.259"
           xlink:href="#z"
           id="use32" />
        <use
           x="231.50101"
           y="134.765"
           xlink:href="#x"
           id="use33" />
        <use
           x="235.375"
           y="134.765"
           xlink:href="#ad"
           id="use34" />
        <use
           x="241.069"
           y="134.765"
           xlink:href="#v"
           id="use35" />
        <use
           transform="matrix(-1,0,0,1,503.17,0)"
           x="247.711"
           y="134.765"
           width="100%"
           height="100%"
           xlink:href="#ab"
           id="use36" />
        <use
           x="258.22699"
           y="134.765"
           xlink:href="#t"
           id="use37" />
      </g>
    </g>
    <g
       transform="matrix(0.51502,0,0,0.51502,-48.15,-12.21)"
       ns0:preamble=""
       ns0:text="$g_i(x) = 0 $"
       id="g51">
      <defs
         id="defs44">
        <symbol
           id="r"
           overflow="visible">
          <path
             d="m 4.6875,-3.7656 c 0.015625,-0.046875 0.03125,-0.10938 0.03125,-0.17188 0,-0.17188 -0.10938,-0.26562 -0.28125,-0.26562 -0.09375,0 -0.375,0.0625 -0.40625,0.42188 -0.1875,-0.35938 -0.53125,-0.625 -0.9375,-0.625 -1.125,0 -2.3594,1.3906 -2.3594,2.8281 0,0.98438 0.59375,1.5781 1.3125,1.5781 0.59375,0 1.0625,-0.46875 1.1562,-0.57812 l 0.015625,0.015625 c -0.20312,0.875 -0.32812,1.2969 -0.32812,1.3125 -0.046875,0.09375 -0.375,1.0781 -1.4375,1.0781 -0.1875,0 -0.51562,-0.015625 -0.79688,-0.10938 0.29688,-0.078125 0.40625,-0.34375 0.40625,-0.51562 0,-0.15625 -0.10938,-0.34375 -0.375,-0.34375 -0.21875,0 -0.53125,0.17188 -0.53125,0.57812 0,0.40624 0.35938,0.60938 1.3125,0.60938 1.25,0 1.9688,-0.78125 2.125,-1.375 z m -1.2812,2.4844 c -0.0625,0.26562 -0.29688,0.51562 -0.51562,0.70312 -0.20312,0.17188 -0.51562,0.35938 -0.8125,0.35938 -0.5,0 -0.64062,-0.51562 -0.64062,-0.92188 0,-0.46875 0.28125,-1.6562 0.5625,-2.1562 0.26562,-0.48438 0.6875,-0.89062 1.1094,-0.89062 0.65625,0 0.79688,0.8125 0.79688,0.85938 0,0.04688 -0.015625,0.10938 -0.03125,0.14062 z"
             id="path38" />
        </symbol>
        <symbol
           id="p"
           overflow="visible">
          <path
             d="m 3.3281,-3.0156 c 0.0625,-0.25 0.29688,-1.1719 0.98438,-1.1719 0.046875,0 0.29688,0 0.5,0.125 C 4.53123,-4 4.34373,-3.76562 4.34373,-3.51562 c 0,0.15625 0.10938,0.34375 0.375,0.34375 0.21875,0 0.53125,-0.17188 0.53125,-0.57812 0,-0.51562 -0.57812,-0.65625 -0.92188,-0.65625 -0.57812,0 -0.92188,0.53125 -1.0469,0.75 -0.25,-0.65625 -0.78125,-0.75 -1.0781,-0.75 -1.0312,0 -1.6094,1.2812 -1.6094,1.5312 0,0.10938 0.10938,0.10938 0.125,0.10938 0.078125,0 0.10938,-0.03125 0.125,-0.10938 0.34375,-1.0625 1,-1.3125 1.3438,-1.3125 0.1875,0 0.53125,0.09375 0.53125,0.67188 0,0.3125 -0.17188,0.96875 -0.53125,2.375 -0.15625,0.60938 -0.51562,1.0312 -0.95312,1.0312 -0.0625,0 -0.28125,0 -0.5,-0.125 0.25,-0.0625 0.46875,-0.26562 0.46875,-0.54688 0,-0.26562 -0.21875,-0.34375 -0.35938,-0.34375 -0.3125,0 -0.54688,0.25 -0.54688,0.57812 0,0.45312 0.48438,0.65625 0.92188,0.65625 0.67188,0 1.0312,-0.70312 1.0469,-0.75 0.125,0.35938 0.48438,0.75 1.0781,0.75 1.0312,0 1.5938,-1.2812 1.5938,-1.5312 0,-0.10938 -0.078125,-0.10938 -0.10938,-0.10938 -0.09375,0 -0.10938,0.046875 -0.14062,0.10938 -0.32812,1.0781 -1,1.3125 -1.3125,1.3125 -0.39062,0 -0.54688,-0.3125 -0.54688,-0.65625 0,-0.21875 0.046875,-0.4375 0.15625,-0.875 z"
             id="path39" />
        </symbol>
        <symbol
           id="n"
           overflow="visible">
          <path
             d="m 2.2656,-4.3594 c 0,-0.10938 -0.09375,-0.26562 -0.28125,-0.26562 -0.1875,0 -0.39062,0.1875 -0.39062,0.39062 0,0.10938 0.078125,0.26562 0.28125,0.26562 0.1875,0 0.39062,-0.20312 0.39062,-0.39062 z m -1.4219,3.5469 c -0.03125,0.09375 -0.0625,0.17188 -0.0625,0.29688 0,0.32812 0.26562,0.57812 0.65625,0.57812 0.6875,0 1,-0.95312 1,-1.0625 0,-0.09375 -0.09375,-0.09375 -0.10938,-0.09375 -0.09375,0 -0.10938,0.046875 -0.14062,0.125 -0.15625,0.5625 -0.45312,0.84375 -0.73438,0.84375 -0.14062,0 -0.17188,-0.09375 -0.17188,-0.25 0,-0.15625 0.046875,-0.28125 0.10938,-0.4375 C 1.468695,-1 1.54682,-1.1875 1.60932,-1.375 c 0.0625,-0.17188 0.32812,-0.79688 0.34375,-0.89062 0.03125,-0.0625 0.046875,-0.14062 0.046875,-0.21875 0,-0.32812 -0.28125,-0.59375 -0.65625,-0.59375 -0.70312,0 -1.0156,0.95312 -1.0156,1.0781 0,0.078125 0.09375,0.078125 0.125,0.078125 0.09375,0 0.09375,-0.03125 0.125,-0.10938 0.17188,-0.59375 0.48438,-0.84375 0.73438,-0.84375 0.10938,0 0.17188,0.046875 0.17188,0.23438 0,0.17188 -0.03125,0.26562 -0.20312,0.70312 z"
             id="path40" />
        </symbol>
        <symbol
           id="l"
           overflow="visible">
          <path
             d="m 3.2969,2.3906 c 0,-0.03125 0,-0.046875 -0.17188,-0.21875 -1.2344,-1.25 -1.5625,-3.1406 -1.5625,-4.6719 0,-1.7344 0.375,-3.4688 1.6094,-4.7031 0.125,-0.125 0.125,-0.14062 0.125,-0.17188 0,-0.078125 -0.03125,-0.10938 -0.09375,-0.10938 -0.10938,0 -1,0.6875 -1.5938,1.9531 -0.5,1.0938 -0.625,2.2031 -0.625,3.0312 0,0.78125 0.10938,1.9844 0.65625,3.125 0.60938,1.2188 1.4531,1.875 1.5625,1.875 0.0625,0 0.09375,-0.03125 0.09375,-0.10938 z"
             id="path41" />
        </symbol>
        <symbol
           id="j"
           overflow="visible">
          <path
             d="m 2.875,-2.5 c 0,-0.76562 -0.10938,-1.9688 -0.65625,-3.1094 -0.59375,-1.2188 -1.4531,-1.875 -1.5469,-1.875 -0.0625,0 -0.10938,0.046875 -0.10938,0.10938 0,0.03125 0,0.046875 0.1875,0.23438 0.98438,0.98438 1.5469,2.5625 1.5469,4.6406 0,1.7188 -0.35938,3.4688 -1.5938,4.7188 -0.14062,0.125 -0.14062,0.14062 -0.14062,0.17188 0,0.0625 0.046875,0.10938 0.10938,0.10938 0.09375,0 1,-0.6875 1.5781,-1.9531 0.51562,-1.0938 0.625,-2.2031 0.625,-3.0469 z"
             id="path42" />
        </symbol>
        <symbol
           id="h"
           overflow="visible">
          <path
             d="m 6.8438,-3.2656 c 0.15625,0 0.34375,0 0.34375,-0.1875 0,-0.20312 -0.1875,-0.20312 -0.32812,-0.20312 h -5.9688 c -0.14062,0 -0.32812,0 -0.32812,0.20312 0,0.1875 0.1875,0.1875 0.32812,0.1875 z m 0.015625,1.9375 c 0.14062,0 0.32812,0 0.32812,-0.20312 0,-0.1875 -0.1875,-0.1875 -0.34375,-0.1875 h -5.9531 c -0.14062,0 -0.32812,0 -0.32812,0.1875 0,0.20312 0.1875,0.20312 0.32812,0.20312 z"
             id="path43" />
        </symbol>
        <symbol
           id="f"
           overflow="visible">
          <path
             d="m 4.5781,-3.1875 c 0,-0.79688 -0.046875,-1.5938 -0.39062,-2.3281 -0.45312,-0.96875 -1.2812,-1.125 -1.6875,-1.125 -0.60938,0 -1.3281,0.26562 -1.75,1.1875 -0.3125,0.6875 -0.35938,1.4688 -0.35938,2.2656 0,0.75 0.03125,1.6406 0.45312,2.4062 0.42188,0.79688 1.1562,1 1.6406,1 0.53125,0 1.2969,-0.20312 1.7344,-1.1562 0.3125,-0.6875 0.35938,-1.4688 0.35938,-2.25 z M 2.4843,0 C 2.09368,0 1.49992,-0.25 1.3281,-1.2031 1.21872,-1.79685 1.21872,-2.7187 1.21872,-3.3125 c 0,-0.64062 0,-1.2969 0.078125,-1.8281 0.1875,-1.1875 0.9375,-1.2812 1.1875,-1.2812 0.32812,0 0.98438,0.1875 1.1719,1.1719 0.10938,0.5625 0.10938,1.3125 0.10938,1.9375 0,0.75 0,1.4219 -0.10938,2.0625 -0.15625,0.95312 -0.71875,1.25 -1.1719,1.25 z"
             id="path44" />
        </symbol>
      </defs>
      <g
         id="g50">
        <use
           x="223.43201"
           y="134.765"
           xlink:href="#r"
           id="use44" />
        <use
           x="228.18401"
           y="136.259"
           xlink:href="#n"
           id="use45" />
        <use
           x="231.50101"
           y="134.765"
           xlink:href="#l"
           id="use46" />
        <use
           x="235.375"
           y="134.765"
           xlink:href="#p"
           id="use47" />
        <use
           x="241.069"
           y="134.765"
           xlink:href="#j"
           id="use48" />
        <use
           x="247.71306"
           y="134.765"
           xlink:href="#h"
           id="use49" />
        <use
           x="258.23157"
           y="134.765"
           xlink:href="#f"
           id="use50" />
      </g>
    </g>
  </g>
  <g
     id="g79">
    <path
       d="m 18.765908,13.025476 c 0,23.516906 9.5139,42.581625 21.25,42.581625 11.7361,0 21.25,-19.064719 21.25,-42.581625 0,-3.7719173 -0.25011,-7.5272463 -0.74376,-11.1671983"
       fill="#b6b4b8"
       stroke="#cc002b"
       stroke-linecap="square"
       stroke-linejoin="round"
       stroke-opacity="0.5234"
       stroke-width="0.499994"
       id="path3" />
    <path
       d="m 42.181444,49.527609 c -2.984088,3.295743 -6.291959,4.587473 -7.388346,2.88521 -1.096387,-1.702264 0.433866,-5.753947 3.417954,-9.04969 2.984087,-3.295744 6.291959,-4.587474 7.388346,-2.88521 1.096387,1.702263 -0.433866,5.753947 -3.417954,9.04969 z"
       fill="none"
       stroke="#0000ff"
       stroke-opacity="0.5234"
       stroke-width="0.5"
       id="path4" />
    <path
       d="m 43.7605,51.858397 c -5.457117,6.027159 -11.506374,8.389456 -13.511409,5.276427 -2.005034,-3.11303 0.793374,-10.522614 6.250491,-16.549774 5.457117,-6.027159 11.506375,-8.389456 13.511409,-5.276426 2.005035,3.113029 -0.793374,10.522613 -6.250491,16.549773 z"
       fill="none"
       stroke="#3700d6"
       stroke-opacity="0.5234"
       stroke-width="0.500003"
       id="path6" />
    <path
       d="m 46.166507,55.360986 c -8.845975,9.769675 -18.651732,13.598931 -21.901794,8.55303 -3.250062,-5.045902 1.28623,-17.056295 10.132206,-26.82597 8.845975,-9.769675 18.651732,-13.598932 21.901794,-8.55303 3.250062,5.045901 -1.28623,17.056295 -10.132206,26.82597 z"
       fill="none"
       stroke="#5f00a1"
       stroke-opacity="0.5234"
       stroke-width="0.499996"
       id="path7" />
    <path
       d="M 48.157129,61.367576 C 35.701684,77.552613 21.894887,83.896 17.318751,75.536174 12.742616,67.176346 19.129929,47.278809 31.585374,31.093772 44.040819,14.908735 57.847616,8.5653457 62.423751,16.925174 66.999887,25.285002 60.612574,45.182539 48.157129,61.367576 Z"
       fill="none"
       stroke="#960066"
       stroke-opacity="0.5234"
       stroke-width="0.50001"
       id="path8" />
    <path
       d="M 50.166432,65.356885 C 34.852903,86.35427 17.877851,94.58427 12.251552,83.73942 6.6252521,72.894564 14.478143,47.081337 29.791671,26.08395 45.1052,5.0865627 62.080252,-3.1434363 67.706552,7.7014177 73.332851,18.546271 65.47996,44.359498 50.166432,65.356885 Z"
       fill="none"
       stroke="#cc002b"
       stroke-opacity="0.5234"
       stroke-width="0.500001"
       id="path9" />
    <path
       d="m 41.439908,46.33165 c 0,0.69036 -0.55964,1.25 -1.25,1.25 -0.69036,0 -1.25,-0.55964 -1.25,-1.25 0,-0.69036 0.55964,-1.25 1.25,-1.25 0.69036,0 1.25,0.55964 1.25,1.25 z"
       id="path10" />
    <path
       d="m 11.262908,46.36165 c 5,-10 10,-12.5 10,-12.5"
       fill="none"
       marker-end="url(#d)"
       marker-mid="url(#c)"
       stroke="#050000"
       stroke-width="0.5"
       id="path11" />
    <g
       transform="matrix(0.51502,0,0,0.51502,-74.807092,-24.92835)"
       ns0:preamble=""
       ns0:text="$x^*$"
       id="g23">
      <defs
         id="defs21">
        <symbol
           id="b"
           overflow="visible">
          <path
             d="m 3.3281,-3.0156 c 0.0625,-0.25 0.29688,-1.1719 0.98438,-1.1719 0.046875,0 0.29688,0 0.5,0.125 C 4.53123,-4 4.34373,-3.76562 4.34373,-3.51562 c 0,0.15625 0.10938,0.34375 0.375,0.34375 0.21875,0 0.53125,-0.17188 0.53125,-0.57812 0,-0.51562 -0.57812,-0.65625 -0.92188,-0.65625 -0.57812,0 -0.92188,0.53125 -1.0469,0.75 -0.25,-0.65625 -0.78125,-0.75 -1.0781,-0.75 -1.0312,0 -1.6094,1.2812 -1.6094,1.5312 0,0.10938 0.10938,0.10938 0.125,0.10938 0.078125,0 0.10938,-0.03125 0.125,-0.10938 0.34375,-1.0625 1,-1.3125 1.3438,-1.3125 0.1875,0 0.53125,0.09375 0.53125,0.67188 0,0.3125 -0.17188,0.96875 -0.53125,2.375 -0.15625,0.60938 -0.51562,1.0312 -0.95312,1.0312 -0.0625,0 -0.28125,0 -0.5,-0.125 0.25,-0.0625 0.46875,-0.26562 0.46875,-0.54688 0,-0.26562 -0.21875,-0.34375 -0.35938,-0.34375 -0.3125,0 -0.54688,0.25 -0.54688,0.57812 0,0.45312 0.48438,0.65625 0.92188,0.65625 0.67188,0 1.0312,-0.70312 1.0469,-0.75 0.125,0.35938 0.48438,0.75 1.0781,0.75 1.0312,0 1.5938,-1.2812 1.5938,-1.5312 0,-0.10938 -0.078125,-0.10938 -0.10938,-0.10938 -0.09375,0 -0.10938,0.046875 -0.14062,0.10938 -0.32812,1.0781 -1,1.3125 -1.3125,1.3125 -0.39062,0 -0.54688,-0.3125 -0.54688,-0.65625 0,-0.21875 0.046875,-0.4375 0.15625,-0.875 z"
             id="path20" />
        </symbol>
        <symbol
           id="a"
           overflow="visible">
          <path
             d="m 2.25,-1.7344 c 0.57812,-0.25 0.82812,-0.34375 1,-0.4375 0.14062,-0.046875 0.20312,-0.078125 0.20312,-0.21875 0,-0.10938 -0.09375,-0.21875 -0.21875,-0.21875 -0.046875,0 -0.0625,0 -0.14062,0.0625 l -0.95312,0.64062 0.10938,-1.0312 c 0.015625,-0.125 0,-0.29688 -0.21875,-0.29688 -0.078125,0 -0.21875,0.046875 -0.21875,0.20312 0,0.0625 0.03125,0.26562 0.046875,0.34375 0.015625,0.10938 0.0625,0.625 0.078125,0.78125 L 0.98439,-2.54686 c -0.0625,-0.03125 -0.078125,-0.0625 -0.14062,-0.0625 -0.14062,0 -0.21875,0.10938 -0.21875,0.21875 0,0.14062 0.078125,0.1875 0.14062,0.20312 l 1.0469,0.45312 c -0.5625,0.25 -0.82812,0.34375 -1,0.42188 -0.125,0.0625 -0.1875,0.09375 -0.1875,0.21875 0,0.125 0.078125,0.21875 0.21875,0.21875 0.046875,0 0.0625,0 0.14062,-0.0625 l 0.95312,-0.625 -0.125,1.1094 c 0,0.15625 0.14062,0.21875 0.21875,0.21875 0.09375,0 0.21875,-0.0625 0.21875,-0.21875 0,-0.0625 -0.03125,-0.26562 -0.03125,-0.32812 -0.015625,-0.125 -0.0625,-0.625 -0.078125,-0.78125 l 0.82812,0.54688 c 0.1875,0.14062 0.20312,0.14062 0.26562,0.14062 0.125,0 0.21875,-0.09375 0.21875,-0.21875 0,-0.14062 -0.09375,-0.17188 -0.15625,-0.20312 z"
             id="path21" />
        </symbol>
      </defs>
      <g
         id="g22">
        <use
           x="223.43201"
           y="134.765"
           xlink:href="#b"
           id="use21" />
        <use
           x="229.12601"
           y="131.149"
           xlink:href="#a"
           id="use22" />
      </g>
    </g>
    <g
       transform="matrix(0.51502,0,0,0.51502,-81.587092,-42.46835)"
       ns0:preamble=""
       ns0:text="$g_i(x) &lt; 0 $"
       id="g64">
      <defs
         id="defs57">
        <symbol
           id="ae"
           overflow="visible">
          <path
             d="m 4.6875,-3.7656 c 0.015625,-0.046875 0.03125,-0.10938 0.03125,-0.17188 0,-0.17188 -0.10938,-0.26562 -0.28125,-0.26562 -0.09375,0 -0.375,0.0625 -0.40625,0.42188 -0.1875,-0.35938 -0.53125,-0.625 -0.9375,-0.625 -1.125,0 -2.3594,1.3906 -2.3594,2.8281 0,0.98438 0.59375,1.5781 1.3125,1.5781 0.59375,0 1.0625,-0.46875 1.1562,-0.57812 l 0.015625,0.015625 c -0.20312,0.875 -0.32812,1.2969 -0.32812,1.3125 -0.046875,0.09375 -0.375,1.0781 -1.4375,1.0781 -0.1875,0 -0.51562,-0.015625 -0.79688,-0.10938 0.29688,-0.078125 0.40625,-0.34375 0.40625,-0.51562 0,-0.15625 -0.10938,-0.34375 -0.375,-0.34375 -0.21875,0 -0.53125,0.17188 -0.53125,0.57812 0,0.40624 0.35938,0.60938 1.3125,0.60938 1.25,0 1.9688,-0.78125 2.125,-1.375 z m -1.2812,2.4844 c -0.0625,0.26562 -0.29688,0.51562 -0.51562,0.70312 -0.20312,0.17188 -0.51562,0.35938 -0.8125,0.35938 -0.5,0 -0.64062,-0.51562 -0.64062,-0.92188 0,-0.46875 0.28125,-1.6562 0.5625,-2.1562 0.26562,-0.48438 0.6875,-0.89062 1.1094,-0.89062 0.65625,0 0.79688,0.8125 0.79688,0.85938 0,0.04688 -0.015625,0.10938 -0.03125,0.14062 z"
             id="path51" />
        </symbol>
        <symbol
           id="ac"
           overflow="visible">
          <path
             d="m 3.3281,-3.0156 c 0.0625,-0.25 0.29688,-1.1719 0.98438,-1.1719 0.046875,0 0.29688,0 0.5,0.125 C 4.53123,-4 4.34373,-3.76562 4.34373,-3.51562 c 0,0.15625 0.10938,0.34375 0.375,0.34375 0.21875,0 0.53125,-0.17188 0.53125,-0.57812 0,-0.51562 -0.57812,-0.65625 -0.92188,-0.65625 -0.57812,0 -0.92188,0.53125 -1.0469,0.75 -0.25,-0.65625 -0.78125,-0.75 -1.0781,-0.75 -1.0312,0 -1.6094,1.2812 -1.6094,1.5312 0,0.10938 0.10938,0.10938 0.125,0.10938 0.078125,0 0.10938,-0.03125 0.125,-0.10938 0.34375,-1.0625 1,-1.3125 1.3438,-1.3125 0.1875,0 0.53125,0.09375 0.53125,0.67188 0,0.3125 -0.17188,0.96875 -0.53125,2.375 -0.15625,0.60938 -0.51562,1.0312 -0.95312,1.0312 -0.0625,0 -0.28125,0 -0.5,-0.125 0.25,-0.0625 0.46875,-0.26562 0.46875,-0.54688 0,-0.26562 -0.21875,-0.34375 -0.35938,-0.34375 -0.3125,0 -0.54688,0.25 -0.54688,0.57812 0,0.45312 0.48438,0.65625 0.92188,0.65625 0.67188,0 1.0312,-0.70312 1.0469,-0.75 0.125,0.35938 0.48438,0.75 1.0781,0.75 1.0312,0 1.5938,-1.2812 1.5938,-1.5312 0,-0.10938 -0.078125,-0.10938 -0.10938,-0.10938 -0.09375,0 -0.10938,0.046875 -0.14062,0.10938 -0.32812,1.0781 -1,1.3125 -1.3125,1.3125 -0.39062,0 -0.54688,-0.3125 -0.54688,-0.65625 0,-0.21875 0.046875,-0.4375 0.15625,-0.875 z"
             id="path52" />
        </symbol>
        <symbol
           id="aa"
           overflow="visible">
          <path
             d="m 6.7344,-4.9688 c 0.10938,-0.0625 0.1875,-0.10938 0.1875,-0.21875 0,-0.10937 -0.09375,-0.20312 -0.20312,-0.20312 -0.03125,0 -0.046875,0 -0.17188,0.078125 l -5.5312,2.5938 c -0.10938,0.0625 -0.1875,0.10938 -0.1875,0.21875 0,0.125 0.078125,0.17188 0.1875,0.23438 l 5.5312,2.5938 c 0.125,0.078125 0.14062,0.078125 0.17188,0.078125 0.10938,0 0.20312,-0.09375 0.20312,-0.20312 0,-0.10937 -0.078125,-0.15625 -0.1875,-0.21875 L 1.5,-2.49996 Z"
             id="path53" />
        </symbol>
        <symbol
           id="y"
           overflow="visible">
          <path
             d="m 2.2656,-4.3594 c 0,-0.10938 -0.09375,-0.26562 -0.28125,-0.26562 -0.1875,0 -0.39062,0.1875 -0.39062,0.39062 0,0.10938 0.078125,0.26562 0.28125,0.26562 0.1875,0 0.39062,-0.20312 0.39062,-0.39062 z m -1.4219,3.5469 c -0.03125,0.09375 -0.0625,0.17188 -0.0625,0.29688 0,0.32812 0.26562,0.57812 0.65625,0.57812 0.6875,0 1,-0.95312 1,-1.0625 0,-0.09375 -0.09375,-0.09375 -0.10938,-0.09375 -0.09375,0 -0.10938,0.046875 -0.14062,0.125 -0.15625,0.5625 -0.45312,0.84375 -0.73438,0.84375 -0.14062,0 -0.17188,-0.09375 -0.17188,-0.25 0,-0.15625 0.046875,-0.28125 0.10938,-0.4375 C 1.468695,-1 1.54682,-1.1875 1.60932,-1.375 c 0.0625,-0.17188 0.32812,-0.79688 0.34375,-0.89062 0.03125,-0.0625 0.046875,-0.14062 0.046875,-0.21875 0,-0.32812 -0.28125,-0.59375 -0.65625,-0.59375 -0.70312,0 -1.0156,0.95312 -1.0156,1.0781 0,0.078125 0.09375,0.078125 0.125,0.078125 0.09375,0 0.09375,-0.03125 0.125,-0.10938 0.17188,-0.59375 0.48438,-0.84375 0.73438,-0.84375 0.10938,0 0.17188,0.046875 0.17188,0.23438 0,0.17188 -0.03125,0.26562 -0.20312,0.70312 z"
             id="path54" />
        </symbol>
        <symbol
           id="w"
           overflow="visible">
          <path
             d="m 3.2969,2.3906 c 0,-0.03125 0,-0.046875 -0.17188,-0.21875 -1.2344,-1.25 -1.5625,-3.1406 -1.5625,-4.6719 0,-1.7344 0.375,-3.4688 1.6094,-4.7031 0.125,-0.125 0.125,-0.14062 0.125,-0.17188 0,-0.078125 -0.03125,-0.10938 -0.09375,-0.10938 -0.10938,0 -1,0.6875 -1.5938,1.9531 -0.5,1.0938 -0.625,2.2031 -0.625,3.0312 0,0.78125 0.10938,1.9844 0.65625,3.125 0.60938,1.2188 1.4531,1.875 1.5625,1.875 0.0625,0 0.09375,-0.03125 0.09375,-0.10938 z"
             id="path55" />
        </symbol>
        <symbol
           id="u"
           overflow="visible">
          <path
             d="m 2.875,-2.5 c 0,-0.76562 -0.10938,-1.9688 -0.65625,-3.1094 -0.59375,-1.2188 -1.4531,-1.875 -1.5469,-1.875 -0.0625,0 -0.10938,0.046875 -0.10938,0.10938 0,0.03125 0,0.046875 0.1875,0.23438 0.98438,0.98438 1.5469,2.5625 1.5469,4.6406 0,1.7188 -0.35938,3.4688 -1.5938,4.7188 -0.14062,0.125 -0.14062,0.14062 -0.14062,0.17188 0,0.0625 0.046875,0.10938 0.10938,0.10938 0.09375,0 1,-0.6875 1.5781,-1.9531 0.51562,-1.0938 0.625,-2.2031 0.625,-3.0469 z"
             id="path56" />
        </symbol>
        <symbol
           id="s"
           overflow="visible">
          <path
             d="m 4.5781,-3.1875 c 0,-0.79688 -0.046875,-1.5938 -0.39062,-2.3281 -0.45312,-0.96875 -1.2812,-1.125 -1.6875,-1.125 -0.60938,0 -1.3281,0.26562 -1.75,1.1875 -0.3125,0.6875 -0.35938,1.4688 -0.35938,2.2656 0,0.75 0.03125,1.6406 0.45312,2.4062 0.42188,0.79688 1.1562,1 1.6406,1 0.53125,0 1.2969,-0.20312 1.7344,-1.1562 0.3125,-0.6875 0.35938,-1.4688 0.35938,-2.25 z M 2.4843,0 C 2.09368,0 1.49992,-0.25 1.3281,-1.2031 1.21872,-1.79685 1.21872,-2.7187 1.21872,-3.3125 c 0,-0.64062 0,-1.2969 0.078125,-1.8281 0.1875,-1.1875 0.9375,-1.2812 1.1875,-1.2812 0.32812,0 0.98438,0.1875 1.1719,1.1719 0.10938,0.5625 0.10938,1.3125 0.10938,1.9375 0,0.75 0,1.4219 -0.10938,2.0625 -0.15625,0.95312 -0.71875,1.25 -1.1719,1.25 z"
             id="path57" />
        </symbol>
      </defs>
      <g
         id="g63">
        <use
           x="223.43201"
           y="134.765"
           width="744.09448"
           height="1052.3622"
           xlink:href="#ae"
           id="use57" />
        <use
           x="228.18401"
           y="136.259"
           width="744.09448"
           height="1052.3622"
           xlink:href="#y"
           id="use58" />
        <use
           x="231.50101"
           y="134.765"
           width="744.09448"
           height="1052.3622"
           xlink:href="#w"
           id="use59" />
        <use
           x="235.375"
           y="134.765"
           width="744.09448"
           height="1052.3622"
           xlink:href="#ac"
           id="use60" />
        <use
           x="241.069"
           y="134.765"
           width="744.09448"
           height="1052.3622"
           xlink:href="#u"
           id="use61" />
        <use
           transform="matrix(-1,0,0,1,503.17,0)"
           x="247.711"
           y="134.765"
           width="744.09448"
           height="1052.3622"
           xlink:href="#aa"
           id="use62" />
        <use
           x="258.22699"
           y="134.765"
           width="744.09448"
           height="1052.3622"
           xlink:href="#s"
           id="use63" />
      </g>
    </g>
    <g
       transform="matrix(0.51502,0,0,0.51502,-113.5471,-18.66835)"
       ns0:preamble=""
       ns0:text="$g_i(x) = 0 $"
       id="g77">
      <defs
         id="defs70">
        <symbol
           id="q"
           overflow="visible">
          <path
             d="m 4.6875,-3.7656 c 0.015625,-0.046875 0.03125,-0.10938 0.03125,-0.17188 0,-0.17188 -0.10938,-0.26562 -0.28125,-0.26562 -0.09375,0 -0.375,0.0625 -0.40625,0.42188 -0.1875,-0.35938 -0.53125,-0.625 -0.9375,-0.625 -1.125,0 -2.3594,1.3906 -2.3594,2.8281 0,0.98438 0.59375,1.5781 1.3125,1.5781 0.59375,0 1.0625,-0.46875 1.1562,-0.57812 l 0.015625,0.015625 c -0.20312,0.875 -0.32812,1.2969 -0.32812,1.3125 -0.046875,0.09375 -0.375,1.0781 -1.4375,1.0781 -0.1875,0 -0.51562,-0.015625 -0.79688,-0.10938 0.29688,-0.078125 0.40625,-0.34375 0.40625,-0.51562 0,-0.15625 -0.10938,-0.34375 -0.375,-0.34375 -0.21875,0 -0.53125,0.17188 -0.53125,0.57812 0,0.40624 0.35938,0.60938 1.3125,0.60938 1.25,0 1.9688,-0.78125 2.125,-1.375 z m -1.2812,2.4844 c -0.0625,0.26562 -0.29688,0.51562 -0.51562,0.70312 -0.20312,0.17188 -0.51562,0.35938 -0.8125,0.35938 -0.5,0 -0.64062,-0.51562 -0.64062,-0.92188 0,-0.46875 0.28125,-1.6562 0.5625,-2.1562 0.26562,-0.48438 0.6875,-0.89062 1.1094,-0.89062 0.65625,0 0.79688,0.8125 0.79688,0.85938 0,0.04688 -0.015625,0.10938 -0.03125,0.14062 z"
             id="path64" />
        </symbol>
        <symbol
           id="o"
           overflow="visible">
          <path
             d="m 3.3281,-3.0156 c 0.0625,-0.25 0.29688,-1.1719 0.98438,-1.1719 0.046875,0 0.29688,0 0.5,0.125 C 4.53123,-4 4.34373,-3.76562 4.34373,-3.51562 c 0,0.15625 0.10938,0.34375 0.375,0.34375 0.21875,0 0.53125,-0.17188 0.53125,-0.57812 0,-0.51562 -0.57812,-0.65625 -0.92188,-0.65625 -0.57812,0 -0.92188,0.53125 -1.0469,0.75 -0.25,-0.65625 -0.78125,-0.75 -1.0781,-0.75 -1.0312,0 -1.6094,1.2812 -1.6094,1.5312 0,0.10938 0.10938,0.10938 0.125,0.10938 0.078125,0 0.10938,-0.03125 0.125,-0.10938 0.34375,-1.0625 1,-1.3125 1.3438,-1.3125 0.1875,0 0.53125,0.09375 0.53125,0.67188 0,0.3125 -0.17188,0.96875 -0.53125,2.375 -0.15625,0.60938 -0.51562,1.0312 -0.95312,1.0312 -0.0625,0 -0.28125,0 -0.5,-0.125 0.25,-0.0625 0.46875,-0.26562 0.46875,-0.54688 0,-0.26562 -0.21875,-0.34375 -0.35938,-0.34375 -0.3125,0 -0.54688,0.25 -0.54688,0.57812 0,0.45312 0.48438,0.65625 0.92188,0.65625 0.67188,0 1.0312,-0.70312 1.0469,-0.75 0.125,0.35938 0.48438,0.75 1.0781,0.75 1.0312,0 1.5938,-1.2812 1.5938,-1.5312 0,-0.10938 -0.078125,-0.10938 -0.10938,-0.10938 -0.09375,0 -0.10938,0.046875 -0.14062,0.10938 -0.32812,1.0781 -1,1.3125 -1.3125,1.3125 -0.39062,0 -0.54688,-0.3125 -0.54688,-0.65625 0,-0.21875 0.046875,-0.4375 0.15625,-0.875 z"
             id="path65" />
        </symbol>
        <symbol
           id="m"
           overflow="visible">
          <path
             d="m 2.2656,-4.3594 c 0,-0.10938 -0.09375,-0.26562 -0.28125,-0.26562 -0.1875,0 -0.39062,0.1875 -0.39062,0.39062 0,0.10938 0.078125,0.26562 0.28125,0.26562 0.1875,0 0.39062,-0.20312 0.39062,-0.39062 z m -1.4219,3.5469 c -0.03125,0.09375 -0.0625,0.17188 -0.0625,0.29688 0,0.32812 0.26562,0.57812 0.65625,0.57812 0.6875,0 1,-0.95312 1,-1.0625 0,-0.09375 -0.09375,-0.09375 -0.10938,-0.09375 -0.09375,0 -0.10938,0.046875 -0.14062,0.125 -0.15625,0.5625 -0.45312,0.84375 -0.73438,0.84375 -0.14062,0 -0.17188,-0.09375 -0.17188,-0.25 0,-0.15625 0.046875,-0.28125 0.10938,-0.4375 C 1.468695,-1 1.54682,-1.1875 1.60932,-1.375 c 0.0625,-0.17188 0.32812,-0.79688 0.34375,-0.89062 0.03125,-0.0625 0.046875,-0.14062 0.046875,-0.21875 0,-0.32812 -0.28125,-0.59375 -0.65625,-0.59375 -0.70312,0 -1.0156,0.95312 -1.0156,1.0781 0,0.078125 0.09375,0.078125 0.125,0.078125 0.09375,0 0.09375,-0.03125 0.125,-0.10938 0.17188,-0.59375 0.48438,-0.84375 0.73438,-0.84375 0.10938,0 0.17188,0.046875 0.17188,0.23438 0,0.17188 -0.03125,0.26562 -0.20312,0.70312 z"
             id="path66" />
        </symbol>
        <symbol
           id="k"
           overflow="visible">
          <path
             d="m 3.2969,2.3906 c 0,-0.03125 0,-0.046875 -0.17188,-0.21875 -1.2344,-1.25 -1.5625,-3.1406 -1.5625,-4.6719 0,-1.7344 0.375,-3.4688 1.6094,-4.7031 0.125,-0.125 0.125,-0.14062 0.125,-0.17188 0,-0.078125 -0.03125,-0.10938 -0.09375,-0.10938 -0.10938,0 -1,0.6875 -1.5938,1.9531 -0.5,1.0938 -0.625,2.2031 -0.625,3.0312 0,0.78125 0.10938,1.9844 0.65625,3.125 0.60938,1.2188 1.4531,1.875 1.5625,1.875 0.0625,0 0.09375,-0.03125 0.09375,-0.10938 z"
             id="path67" />
        </symbol>
        <symbol
           id="i"
           overflow="visible">
          <path
             d="m 2.875,-2.5 c 0,-0.76562 -0.10938,-1.9688 -0.65625,-3.1094 -0.59375,-1.2188 -1.4531,-1.875 -1.5469,-1.875 -0.0625,0 -0.10938,0.046875 -0.10938,0.10938 0,0.03125 0,0.046875 0.1875,0.23438 0.98438,0.98438 1.5469,2.5625 1.5469,4.6406 0,1.7188 -0.35938,3.4688 -1.5938,4.7188 -0.14062,0.125 -0.14062,0.14062 -0.14062,0.17188 0,0.0625 0.046875,0.10938 0.10938,0.10938 0.09375,0 1,-0.6875 1.5781,-1.9531 0.51562,-1.0938 0.625,-2.2031 0.625,-3.0469 z"
             id="path68" />
        </symbol>
        <symbol
           id="g"
           overflow="visible">
          <path
             d="m 6.8438,-3.2656 c 0.15625,0 0.34375,0 0.34375,-0.1875 0,-0.20312 -0.1875,-0.20312 -0.32812,-0.20312 h -5.9688 c -0.14062,0 -0.32812,0 -0.32812,0.20312 0,0.1875 0.1875,0.1875 0.32812,0.1875 z m 0.015625,1.9375 c 0.14062,0 0.32812,0 0.32812,-0.20312 0,-0.1875 -0.1875,-0.1875 -0.34375,-0.1875 h -5.9531 c -0.14062,0 -0.32812,0 -0.32812,0.1875 0,0.20312 0.1875,0.20312 0.32812,0.20312 z"
             id="path69" />
        </symbol>
        <symbol
           id="e"
           overflow="visible">
          <path
             d="m 4.5781,-3.1875 c 0,-0.79688 -0.046875,-1.5938 -0.39062,-2.3281 -0.45312,-0.96875 -1.2812,-1.125 -1.6875,-1.125 -0.60938,0 -1.3281,0.26562 -1.75,1.1875 -0.3125,0.6875 -0.35938,1.4688 -0.35938,2.2656 0,0.75 0.03125,1.6406 0.45312,2.4062 0.42188,0.79688 1.1562,1 1.6406,1 0.53125,0 1.2969,-0.20312 1.7344,-1.1562 0.3125,-0.6875 0.35938,-1.4688 0.35938,-2.25 z M 2.4843,0 C 2.09368,0 1.49992,-0.25 1.3281,-1.2031 1.21872,-1.79685 1.21872,-2.7187 1.21872,-3.3125 c 0,-0.64062 0,-1.2969 0.078125,-1.8281 0.1875,-1.1875 0.9375,-1.2812 1.1875,-1.2812 0.32812,0 0.98438,0.1875 1.1719,1.1719 0.10938,0.5625 0.10938,1.3125 0.10938,1.9375 0,0.75 0,1.4219 -0.10938,2.0625 -0.15625,0.95312 -0.71875,1.25 -1.1719,1.25 z"
             id="path70" />
        </symbol>
      </defs>
      <g
         id="g76">
        <use
           x="223.43201"
           y="134.765"
           width="744.09448"
           height="1052.3622"
           xlink:href="#q"
           id="use70" />
        <use
           x="228.18401"
           y="136.259"
           width="744.09448"
           height="1052.3622"
           xlink:href="#m"
           id="use71" />
        <use
           x="231.50101"
           y="134.765"
           width="744.09448"
           height="1052.3622"
           xlink:href="#k"
           id="use72" />
        <use
           x="235.375"
           y="134.765"
           width="744.09448"
           height="1052.3622"
           xlink:href="#o"
           id="use73" />
        <use
           x="241.069"
           y="134.765"
           width="744.09448"
           height="1052.3622"
           xlink:href="#i"
           id="use74" />
        <use
           x="247.71306"
           y="134.765"
           width="744.09448"
           height="1052.3622"
           xlink:href="#g"
           id="use75" />
        <use
           x="258.23157"
           y="134.765"
           width="744.09448"
           height="1052.3622"
           xlink:href="#e"
           id="use76" />
      </g>
    </g>
  </g>
</svg>
