<?xml version="1.0" encoding="UTF-8" standalone="no"?>
<!DOCTYPE svg PUBLIC "-//W3C//DTD SVG 1.1//EN"
 "http://www.w3.org/Graphics/SVG/1.1/DTD/svg11.dtd">
<!-- Generated by graphviz version 2.38.0 (20140413.2041)
 -->
<!-- Title: G Pages: 1 -->
<svg width="244pt" height="262pt"
 viewBox="0.00 0.00 244.00 262.00" xmlns="http://www.w3.org/2000/svg" xmlns:xlink="http://www.w3.org/1999/xlink">
<g id="graph0" class="graph" transform="scale(1 1) rotate(0) translate(4 258)">
<title>G</title>
<polygon fill="none" stroke="none" points="-4,4 -4,-258 240,-258 240,4 -4,4"/>
<!-- x3 -->
<g id="node1" class="node"><title>x3</title>
<ellipse fill="none" stroke="black" cx="27" cy="-72" rx="27" ry="18"/>
<text text-anchor="start" x="21" y="-69.3" font-family="Times,serif" font-size="14.00">x</text>
<text text-anchor="start" x="28" y="-69.3" font-family="Times,serif" baseline-shift="sub" font-size="10.00">3</text>
</g>
<!-- h3 -->
<g id="node5" class="node"><title>h3</title>
<ellipse fill="none" stroke="black" cx="118" cy="-72" rx="27" ry="18"/>
<text text-anchor="start" x="112" y="-69.3" font-family="Times,serif" font-size="14.00">h</text>
<text text-anchor="start" x="119" y="-69.3" font-family="Times,serif" baseline-shift="sub" font-size="10.00">3</text>
</g>
<!-- x3&#45;&gt;h3 -->
<g id="edge1" class="edge"><title>x3&#45;&gt;h3</title>
<path fill="none" stroke="black" d="M54.2216,-72C62.5505,-72 71.9135,-72 80.8161,-72"/>
<polygon fill="black" stroke="black" points="80.9659,-75.5001 90.9659,-72 80.9658,-68.5001 80.9659,-75.5001"/>
</g>
<!-- h4 -->
<g id="node6" class="node"><title>h4</title>
<ellipse fill="none" stroke="black" cx="118" cy="-18" rx="27" ry="18"/>
<text text-anchor="start" x="112" y="-15.3" font-family="Times,serif" font-size="14.00">h</text>
<text text-anchor="start" x="119" y="-15.3" font-family="Times,serif" baseline-shift="sub" font-size="10.00">4</text>
</g>
<!-- x3&#45;&gt;h4 -->
<g id="edge2" class="edge"><title>x3&#45;&gt;h4</title>
<path fill="none" stroke="black" d="M47.752,-60.0156C59.7354,-52.7448 75.2296,-43.3438 88.5224,-35.2785"/>
<polygon fill="black" stroke="black" points="90.5694,-38.1305 97.3032,-29.9508 86.9383,-32.1459 90.5694,-38.1305"/>
</g>
<!-- h1 -->
<g id="node7" class="node"><title>h1</title>
<ellipse fill="none" stroke="black" cx="118" cy="-180" rx="27" ry="18"/>
<text text-anchor="start" x="112" y="-177.3" font-family="Times,serif" font-size="14.00">h</text>
<text text-anchor="start" x="119" y="-177.3" font-family="Times,serif" baseline-shift="sub" font-size="10.00">1</text>
</g>
<!-- x3&#45;&gt;h1 -->
<g id="edge3" class="edge"><title>x3&#45;&gt;h1</title>
<path fill="none" stroke="black" d="M41.1323,-87.9358C56.0726,-106.066 80.611,-135.843 97.7217,-156.606"/>
<polygon fill="black" stroke="black" points="95.0426,-158.859 104.103,-164.35 100.445,-154.407 95.0426,-158.859"/>
</g>
<!-- h2 -->
<g id="node8" class="node"><title>h2</title>
<ellipse fill="none" stroke="black" cx="118" cy="-126" rx="27" ry="18"/>
<text text-anchor="start" x="112" y="-123.3" font-family="Times,serif" font-size="14.00">h</text>
<text text-anchor="start" x="119" y="-123.3" font-family="Times,serif" baseline-shift="sub" font-size="10.00">2</text>
</g>
<!-- x3&#45;&gt;h2 -->
<g id="edge4" class="edge"><title>x3&#45;&gt;h2</title>
<path fill="none" stroke="black" d="M47.752,-83.9844C59.7354,-91.2552 75.2296,-100.656 88.5224,-108.721"/>
<polygon fill="black" stroke="black" points="86.9383,-111.854 97.3032,-114.049 90.5694,-105.87 86.9383,-111.854"/>
</g>
<!-- x4 -->
<g id="node2" class="node"><title>x4</title>
<ellipse fill="none" stroke="black" cx="27" cy="-18" rx="27" ry="18"/>
<text text-anchor="start" x="21" y="-15.3" font-family="Times,serif" font-size="14.00">x</text>
<text text-anchor="start" x="28" y="-15.3" font-family="Times,serif" baseline-shift="sub" font-size="10.00">4</text>
</g>
<!-- x4&#45;&gt;h3 -->
<g id="edge5" class="edge"><title>x4&#45;&gt;h3</title>
<path fill="none" stroke="black" d="M47.752,-29.9844C59.7354,-37.2552 75.2296,-46.6562 88.5224,-54.7215"/>
<polygon fill="black" stroke="black" points="86.9383,-57.8541 97.3032,-60.0492 90.5694,-51.8695 86.9383,-57.8541"/>
</g>
<!-- x4&#45;&gt;h4 -->
<g id="edge6" class="edge"><title>x4&#45;&gt;h4</title>
<path fill="none" stroke="black" d="M54.2216,-18C62.5505,-18 71.9135,-18 80.8161,-18"/>
<polygon fill="black" stroke="black" points="80.9659,-21.5001 90.9659,-18 80.9658,-14.5001 80.9659,-21.5001"/>
</g>
<!-- x4&#45;&gt;h1 -->
<g id="edge7" class="edge"><title>x4&#45;&gt;h1</title>
<path fill="none" stroke="black" d="M37.1893,-34.7267C52.7782,-63.102 84.5023,-120.847 102.912,-154.357"/>
<polygon fill="black" stroke="black" points="99.8447,-156.042 107.727,-163.122 105.98,-152.672 99.8447,-156.042"/>
</g>
<!-- x4&#45;&gt;h2 -->
<g id="edge8" class="edge"><title>x4&#45;&gt;h2</title>
<path fill="none" stroke="black" d="M41.1323,-33.9358C56.0726,-52.0657 80.611,-81.8426 97.7217,-102.606"/>
<polygon fill="black" stroke="black" points="95.0426,-104.859 104.103,-110.35 100.445,-100.407 95.0426,-104.859"/>
</g>
<!-- x1 -->
<g id="node3" class="node"><title>x1</title>
<ellipse fill="none" stroke="black" cx="27" cy="-180" rx="27" ry="18"/>
<text text-anchor="start" x="21" y="-177.3" font-family="Times,serif" font-size="14.00">x</text>
<text text-anchor="start" x="28" y="-177.3" font-family="Times,serif" baseline-shift="sub" font-size="10.00">1</text>
</g>
<!-- x1&#45;&gt;h3 -->
<g id="edge9" class="edge"><title>x1&#45;&gt;h3</title>
<path fill="none" stroke="black" d="M41.1323,-164.064C56.0726,-145.934 80.611,-116.157 97.7217,-95.3939"/>
<polygon fill="black" stroke="black" points="100.445,-97.5931 104.103,-87.65 95.0426,-93.1414 100.445,-97.5931"/>
</g>
<!-- x1&#45;&gt;h4 -->
<g id="edge10" class="edge"><title>x1&#45;&gt;h4</title>
<path fill="none" stroke="black" d="M37.1893,-163.273C52.7782,-134.898 84.5023,-77.1532 102.912,-43.6428"/>
<polygon fill="black" stroke="black" points="105.98,-45.3281 107.727,-34.8784 99.8447,-41.9576 105.98,-45.3281"/>
</g>
<!-- x1&#45;&gt;h1 -->
<g id="edge11" class="edge"><title>x1&#45;&gt;h1</title>
<path fill="none" stroke="black" d="M54.2216,-180C62.5505,-180 71.9135,-180 80.8161,-180"/>
<polygon fill="black" stroke="black" points="80.9659,-183.5 90.9659,-180 80.9658,-176.5 80.9659,-183.5"/>
</g>
<!-- x1&#45;&gt;h2 -->
<g id="edge12" class="edge"><title>x1&#45;&gt;h2</title>
<path fill="none" stroke="black" d="M47.752,-168.016C59.7354,-160.745 75.2296,-151.344 88.5224,-143.279"/>
<polygon fill="black" stroke="black" points="90.5694,-146.13 97.3032,-137.951 86.9383,-140.146 90.5694,-146.13"/>
</g>
<!-- x2 -->
<g id="node4" class="node"><title>x2</title>
<ellipse fill="none" stroke="black" cx="27" cy="-126" rx="27" ry="18"/>
<text text-anchor="start" x="21" y="-123.3" font-family="Times,serif" font-size="14.00">x</text>
<text text-anchor="start" x="28" y="-123.3" font-family="Times,serif" baseline-shift="sub" font-size="10.00">2</text>
</g>
<!-- x2&#45;&gt;h3 -->
<g id="edge13" class="edge"><title>x2&#45;&gt;h3</title>
<path fill="none" stroke="black" d="M47.752,-114.016C59.7354,-106.745 75.2296,-97.3438 88.5224,-89.2785"/>
<polygon fill="black" stroke="black" points="90.5694,-92.1305 97.3032,-83.9508 86.9383,-86.1459 90.5694,-92.1305"/>
</g>
<!-- x2&#45;&gt;h4 -->
<g id="edge14" class="edge"><title>x2&#45;&gt;h4</title>
<path fill="none" stroke="black" d="M41.1323,-110.064C56.0726,-91.9343 80.611,-62.1574 97.7217,-41.3939"/>
<polygon fill="black" stroke="black" points="100.445,-43.5931 104.103,-33.65 95.0426,-39.1414 100.445,-43.5931"/>
</g>
<!-- x2&#45;&gt;h1 -->
<g id="edge15" class="edge"><title>x2&#45;&gt;h1</title>
<path fill="none" stroke="black" d="M47.752,-137.984C59.7354,-145.255 75.2296,-154.656 88.5224,-162.721"/>
<polygon fill="black" stroke="black" points="86.9383,-165.854 97.3032,-168.049 90.5694,-159.87 86.9383,-165.854"/>
</g>
<!-- x2&#45;&gt;h2 -->
<g id="edge16" class="edge"><title>x2&#45;&gt;h2</title>
<path fill="none" stroke="black" d="M54.2216,-126C62.5505,-126 71.9135,-126 80.8161,-126"/>
<polygon fill="black" stroke="black" points="80.9659,-129.5 90.9659,-126 80.9658,-122.5 80.9659,-129.5"/>
</g>
<!-- o1 -->
<g id="node9" class="node"><title>o1</title>
<ellipse fill="none" stroke="black" cx="209" cy="-126" rx="27" ry="18"/>
<text text-anchor="start" x="203" y="-123.3" font-family="Times,serif" font-size="14.00">o</text>
<text text-anchor="start" x="210" y="-123.3" font-family="Times,serif" baseline-shift="sub" font-size="10.00">1</text>
</g>
<!-- h3&#45;&gt;o1 -->
<g id="edge17" class="edge"><title>h3&#45;&gt;o1</title>
<path fill="none" stroke="black" d="M138.752,-83.9844C150.735,-91.2552 166.23,-100.656 179.522,-108.721"/>
<polygon fill="black" stroke="black" points="177.938,-111.854 188.303,-114.049 181.569,-105.87 177.938,-111.854"/>
</g>
<!-- o2 -->
<g id="node10" class="node"><title>o2</title>
<ellipse fill="none" stroke="black" cx="209" cy="-72" rx="27" ry="18"/>
<text text-anchor="start" x="203" y="-69.3" font-family="Times,serif" font-size="14.00">o</text>
<text text-anchor="start" x="210" y="-69.3" font-family="Times,serif" baseline-shift="sub" font-size="10.00">2</text>
</g>
<!-- h3&#45;&gt;o2 -->
<g id="edge18" class="edge"><title>h3&#45;&gt;o2</title>
<path fill="none" stroke="black" d="M145.222,-72C153.551,-72 162.914,-72 171.816,-72"/>
<polygon fill="black" stroke="black" points="171.966,-75.5001 181.966,-72 171.966,-68.5001 171.966,-75.5001"/>
</g>
<!-- h4&#45;&gt;o1 -->
<g id="edge19" class="edge"><title>h4&#45;&gt;o1</title>
<path fill="none" stroke="black" d="M132.132,-33.9358C147.073,-52.0657 171.611,-81.8426 188.722,-102.606"/>
<polygon fill="black" stroke="black" points="186.043,-104.859 195.103,-110.35 191.445,-100.407 186.043,-104.859"/>
</g>
<!-- h4&#45;&gt;o2 -->
<g id="edge20" class="edge"><title>h4&#45;&gt;o2</title>
<path fill="none" stroke="black" d="M138.752,-29.9844C150.735,-37.2552 166.23,-46.6562 179.522,-54.7215"/>
<polygon fill="black" stroke="black" points="177.938,-57.8541 188.303,-60.0492 181.569,-51.8695 177.938,-57.8541"/>
</g>
<!-- h1&#45;&gt;o1 -->
<g id="edge21" class="edge"><title>h1&#45;&gt;o1</title>
<path fill="none" stroke="black" d="M138.752,-168.016C150.735,-160.745 166.23,-151.344 179.522,-143.279"/>
<polygon fill="black" stroke="black" points="181.569,-146.13 188.303,-137.951 177.938,-140.146 181.569,-146.13"/>
</g>
<!-- h1&#45;&gt;o2 -->
<g id="edge22" class="edge"><title>h1&#45;&gt;o2</title>
<path fill="none" stroke="black" d="M132.132,-164.064C147.073,-145.934 171.611,-116.157 188.722,-95.3939"/>
<polygon fill="black" stroke="black" points="191.445,-97.5931 195.103,-87.65 186.043,-93.1414 191.445,-97.5931"/>
</g>
<!-- h2&#45;&gt;o1 -->
<g id="edge23" class="edge"><title>h2&#45;&gt;o1</title>
<path fill="none" stroke="black" d="M145.222,-126C153.551,-126 162.914,-126 171.816,-126"/>
<polygon fill="black" stroke="black" points="171.966,-129.5 181.966,-126 171.966,-122.5 171.966,-129.5"/>
</g>
<!-- h2&#45;&gt;o2 -->
<g id="edge24" class="edge"><title>h2&#45;&gt;o2</title>
<path fill="none" stroke="black" d="M138.752,-114.016C150.735,-106.745 166.23,-97.3438 179.522,-89.2785"/>
<polygon fill="black" stroke="black" points="181.569,-92.1305 188.303,-83.9508 177.938,-86.1459 181.569,-92.1305"/>
</g>
<!-- lx -->
<g id="node11" class="node"><title>lx</title>
<text text-anchor="start" x="12.5" y="-238.8" font-family="Times,serif" font-size="14.00">Input</text>
<text text-anchor="start" x="13" y="-223.8" font-family="Times,serif" font-size="14.00">layer</text>
</g>
<!-- la -->
<g id="node12" class="node"><title>la</title>
<text text-anchor="start" x="98" y="-238.8" font-family="Times,serif" font-size="14.00">Hidden</text>
<text text-anchor="start" x="104" y="-223.8" font-family="Times,serif" font-size="14.00">layer</text>
</g>
<!-- lx&#45;&gt;la -->
<!-- lo -->
<g id="node13" class="node"><title>lo</title>
<text text-anchor="start" x="190" y="-238.8" font-family="Times,serif" font-size="14.00">Output</text>
<text text-anchor="start" x="195" y="-223.8" font-family="Times,serif" font-size="14.00">layer</text>
</g>
<!-- la&#45;&gt;lo -->
</g>
</svg>
