<?xml version="1.0" encoding="UTF-8" standalone="no"?>
<!DOCTYPE svg PUBLIC "-//W3C//DTD SVG 1.1//EN" "http://www.w3.org/Graphics/SVG/1.1/DTD/svg11.dtd">
<svg width="405pt" height="373pt" viewBox="0.0 0.0 405.0 373.0" xmlns="http://www.w3.org/2000/svg" xmlns:xlink="http://www.w3.org/1999/xlink">
<g class="graph" transform="scale(1 1) rotate(0) translate(4 369)">
<title>Tree</title>
<polygon fill="none" stroke="none" points="-4,4 -4,-369 401,-369 401,4 -4,4"/>
<g class="node"><title>0</title>
<polygon fill="none" stroke="black" points="206.5,-365 54.5,-365 54.5,-297 206.5,-297 206.5,-365"/>
<text text-anchor="middle" x="130.5" y="-349.8" font-family="Times,serif" font-size="14.0">color_intensity &lt;= 3.8</text>
<text text-anchor="middle" x="130.5" y="-334.8" font-family="Times,serif" font-size="14.0">c_gini = 89.6</text>
<text text-anchor="middle" x="130.5" y="-319.8" font-family="Times,serif" font-size="14.0">instances = 136</text>
<text text-anchor="middle" x="130.5" y="-304.8" font-family="Times,serif" font-size="14.0">counts = [45, 54, 37]</text>
<title>1</title>
<polygon fill="none" stroke="black" points="119,-253.5 0,-253.5 0,-200.5 119,-200.5 119,-253.5"/>
<text text-anchor="middle" x="59.5" y="-238.3" font-family="Times,serif" font-size="14.0">c_gini = 3.8</text>
<text text-anchor="middle" x="59.5" y="-223.3" font-family="Times,serif" font-size="14.0">instances = 49</text>
<text text-anchor="middle" x="59.5" y="-208.3" font-family="Times,serif" font-size="14.0">counts = [2, 47, 0]</text>
</g>
<g class="edge"><title>0&#45;&gt;1</title>
<path fill="none" stroke="black" d="M107.4,-296.9C99.6,-285.7 90.9,-273.1 83.1,-261.9"/>
<polygon fill="black" stroke="black" points="85.8,-259.7 77.3,-253.5 80.1,-263.7 85.8,-259.7"/>
</g>
<g class="node"><title>2</title>
<polygon fill="none" stroke="black" points="265.5,-261 137.5,-261 137.5,-193 265.5,-193 265.5,-261"/>
<text text-anchor="middle" x="201.5" y="-245.8" font-family="Times,serif" font-size="14.0">flavanoids &lt;= 1.6</text>
<text text-anchor="middle" x="201.5" y="-230.8" font-family="Times,serif" font-size="14.0">c_gini = 49.5</text>
<text text-anchor="middle" x="201.5" y="-215.8" font-family="Times,serif" font-size="14.0">instances = 87</text>
<text text-anchor="middle" x="201.5" y="-200.8" font-family="Times,serif" font-size="14.0">counts = [43, 7, 37]</text>
</g>
<g class="edge"><title>0&#45;&gt;2</title>
<path fill="none" stroke="black" d="M153.6,-296.9C159.6,-288.2 166.3,-278.6 172.6,-269.5"/>
<polygon fill="black" stroke="black" points="175.5,-271.5 178.3,-261.3 169.7,-267.5 175.5,-271.5"/>
</g>
<g class="node"><title>3</title>
<polygon fill="none" stroke="black" points="191,-149.5 72,-149.5 72,-96.5 191,-96.5 191,-149.5"/>
<text text-anchor="middle" x="131.5" y="-134.3" font-family="Times,serif" font-size="14.0">c_gini = 1.9</text>
<text text-anchor="middle" x="131.5" y="-119.3" font-family="Times,serif" font-size="14.0">instances = 38</text>
<text text-anchor="middle" x="131.5" y="-104.3" font-family="Times,serif" font-size="14.0">counts = [0, 1, 37]</text>
</g>
<g class="edge"><title>2&#45;&gt;3</title>
<path fill="none" stroke="black" d="M178.8,-192.9C171.1,-181.7 162.5,-169.1 154.7,-157.9"/>
<polygon fill="black" stroke="black" points="157.6,-155.8 149.0,-149.5 151.8,-159.7 157.6,-155.8"/>
</g>
<g class="node"><title>4</title>
<polygon fill="none" stroke="black" points="332,-157 209,-157 209,-89 332,-89 332,-157"/>
<text text-anchor="middle" x="270.5" y="-141.8" font-family="Times,serif" font-size="14.0">proline &lt;= 724.5</text>
<text text-anchor="middle" x="270.5" y="-126.8" font-family="Times,serif" font-size="14.0">c_gini = 10.5</text>
<text text-anchor="middle" x="270.5" y="-111.8" font-family="Times,serif" font-size="14.0">instances = 49</text>
<text text-anchor="middle" x="270.5" y="-96.8" font-family="Times,serif" font-size="14.0">counts = [43, 6, 0]</text>
</g>
<g class="edge"><title>2&#45;&gt;4</title>
<path fill="none" stroke="black" d="M223.9,-192.9C229.7,-184.2 236.1,-174.8 242.2,-165.8"/>
<polygon fill="black" stroke="black" points="245.3,-167.5 248.0,-157.3 239.5,-163.6 245.3,-167.5"/>
</g>
<g class="node"><title>5</title>
<polygon fill="none" stroke="black" points="259.5,-53 147.5,-53 147.5,-0 259.5,-0 259.5,-53"/>
<text text-anchor="middle" x="203.5" y="-37.8" font-family="Times,serif" font-size="14.0">c_gini = 1.7</text>
<text text-anchor="middle" x="203.5" y="-22.8" font-family="Times,serif" font-size="14.0">instances = 7</text>
<text text-anchor="middle" x="203.5" y="-7.8" font-family="Times,serif" font-size="14.0">counts = [1, 6, 0]</text>
</g>
<g class="edge"><title>4&#45;&gt;5</title>
<path fill="none" stroke="black" d="M247.1,-88.9C240.8,-80.1 234.0,-70.5 227.6,-61.5"/>
<polygon fill="black" stroke="black" points="230.4,-59.4 221.7,-53.2 224.7,-63.4 230.4,-59.4"/>
</g>
<g class="node"><title>6</title>
<polygon fill="none" stroke="black" points="397,-53 278,-53 278,-0 397,-0 397,-53"/>
<text text-anchor="middle" x="337.5" y="-37.8" font-family="Times,serif" font-size="14.0">c_gini = 0.0</text>
<text text-anchor="middle" x="337.5" y="-22.8" font-family="Times,serif" font-size="14.0">instances = 42</text>
<text text-anchor="middle" x="337.5" y="-7.8" font-family="Times,serif" font-size="14.0">counts = [42, 0, 0]</text>
</g>
<g class="edge"><title>4&#45;&gt;6</title>
<path fill="none" stroke="black" d="M293.9,-88.9C300.2,-80.1 307.0,-70.5 313.4,-61.5"/>
<polygon fill="black" stroke="black" points="316.3,-63.4 319.3,-53.2 310.6,-59.4 316.3,-63.4"/>
</g>
</g>
</svg>
