<?xml version="1.0" encoding="UTF-8" standalone="no"?>
<!DOCTYPE svg PUBLIC "-//W3C//DTD SVG 1.1//EN" "http://www.w3.org/Graphics/SVG/1.1/DTD/svg11.dtd">
<svg width="605pt" height="373pt" viewBox="0.0 0.0 605.0 373.0" xmlns="http://www.w3.org/2000/svg" xmlns:xlink="http://www.w3.org/1999/xlink">
<g class="graph" transform="scale(1 1) rotate(0) translate(4 369)">
<title>Tree</title>
<polygon fill="none" stroke="none" points="-4,4 -4,-369 601,-369 601,4 -4,4"/>
<g class="node"><title>0</title>
<polygon fill="none" stroke="black" points="338.5,-365 186.5,-365 186.5,-297 338.5,-297 338.5,-365"/>
<text text-anchor="middle" x="262.5" y="-349.8" font-family="Times,serif" font-size="14.0">color_intensity &lt;= 3.8</text>
<text text-anchor="middle" x="262.5" y="-334.8" font-family="Times,serif" font-size="14.0">c_gini = 89.6</text>
<text text-anchor="middle" x="262.5" y="-319.8" font-family="Times,serif" font-size="14.0">instances = 136</text>
<text text-anchor="middle" x="262.5" y="-304.8" font-family="Times,serif" font-size="14.0">counts = [45, 54, 37]</text>
<title>1</title>
<polygon fill="none" stroke="black" points="251,-261 132,-261 132,-193 251,-193 251,-261"/>
<text text-anchor="middle" x="191.5" y="-245.8" font-family="Times,serif" font-size="14.0">ash &lt;= 3.0</text>
<text text-anchor="middle" x="191.5" y="-230.8" font-family="Times,serif" font-size="14.0">c_gini = 3.8</text>
<text text-anchor="middle" x="191.5" y="-215.8" font-family="Times,serif" font-size="14.0">instances = 49</text>
<text text-anchor="middle" x="191.5" y="-200.8" font-family="Times,serif" font-size="14.0">counts = [2, 47, 0]</text>
</g>
<g class="edge"><title>0&#45;&gt;1</title>
<path fill="none" stroke="black" d="M239.4,-296.9C233.4,-288.2 226.7,-278.6 220.4,-269.5"/>
<polygon fill="black" stroke="black" points="223.3,-267.5 214.7,-261.3 217.5,-271.5 223.3,-267.5"/>
</g>
<g class="node"><title>5</title>
<polygon fill="none" stroke="black" points="397.5,-261 269.5,-261 269.5,-193 397.5,-193 397.5,-261"/>
<text text-anchor="middle" x="333.5" y="-245.8" font-family="Times,serif" font-size="14.0">flavanoids &lt;= 1.6</text>
<text text-anchor="middle" x="333.5" y="-230.8" font-family="Times,serif" font-size="14.0">c_gini = 49.5</text>
<text text-anchor="middle" x="333.5" y="-215.8" font-family="Times,serif" font-size="14.0">instances = 87</text>
<text text-anchor="middle" x="333.5" y="-200.8" font-family="Times,serif" font-size="14.0">counts = [43, 7, 37]</text>
</g>
<g class="edge"><title>0&#45;&gt;5</title>
<path fill="none" stroke="black" d="M285.6,-296.9C291.6,-288.2 298.3,-278.6 304.6,-269.5"/>
<polygon fill="black" stroke="black" points="307.5,-271.5 310.3,-261.3 301.7,-267.5 307.5,-271.5"/>
</g>
<g class="node"><title>2</title>
<polygon fill="none" stroke="black" points="119,-149.5 0,-149.5 0,-96.5 119,-96.5 119,-149.5"/>
<text text-anchor="middle" x="59.5" y="-134.3" font-family="Times,serif" font-size="14.0">c_gini = 2.0</text>
<text text-anchor="middle" x="59.5" y="-119.3" font-family="Times,serif" font-size="14.0">instances = 48</text>
<text text-anchor="middle" x="59.5" y="-104.3" font-family="Times,serif" font-size="14.0">counts = [1, 47, 0]</text>
</g>
<g class="edge"><title>1&#45;&gt;2</title>
<path fill="none" stroke="black" d="M148.6,-192.9C133.3,-181.0 116.0,-167.6 100.8,-155.9"/>
<polygon fill="black" stroke="black" points="102.6,-152.9 92.5,-149.5 98.3,-158.4 102.6,-152.9"/>
</g>
<g class="node"><title>3</title>
<polygon fill="none" stroke="black" points="249.5,-149.5 137.5,-149.5 137.5,-96.5 249.5,-96.5 249.5,-149.5"/>
<text text-anchor="middle" x="193.5" y="-134.3" font-family="Times,serif" font-size="14.0">c_gini = 0.0</text>
<text text-anchor="middle" x="193.5" y="-119.3" font-family="Times,serif" font-size="14.0">instances = 1</text>
<text text-anchor="middle" x="193.5" y="-104.3" font-family="Times,serif" font-size="14.0">counts = [1, 0, 0]</text>
</g>
<g class="edge"><title>1&#45;&gt;3</title>
<path fill="none" stroke="black" d="M192.1,-192.9C192.4,-182.2 192.6,-170.4 192.8,-159.5"/>
<polygon fill="black" stroke="black" points="196.3,-159.6 193,-149.5 189.3,-159.4 196.3,-159.6"/>
</g>
<g class="node"><title>6</title>
<polygon fill="none" stroke="black" points="391,-149.5 272,-149.5 272,-96.5 391,-96.5 391,-149.5"/>
<text text-anchor="middle" x="331.5" y="-134.3" font-family="Times,serif" font-size="14.0">c_gini = 1.9</text>
<text text-anchor="middle" x="331.5" y="-119.3" font-family="Times,serif" font-size="14.0">instances = 38</text>
<text text-anchor="middle" x="331.5" y="-104.3" font-family="Times,serif" font-size="14.0">counts = [0, 1, 37]</text>
</g>
<g class="edge"><title>5&#45;&gt;6</title>
<path fill="none" stroke="black" d="M332.9,-192.9C332.6,-182.2 332.4,-170.4 332.2,-159.5"/>
<polygon fill="black" stroke="black" points="335.7,-159.4 332,-149.5 328.7,-159.6 335.7,-159.4"/>
</g>
<g class="node"><title>7</title>
<polygon fill="none" stroke="black" points="532,-157 409,-157 409,-89 532,-89 532,-157"/>
<text text-anchor="middle" x="470.5" y="-141.8" font-family="Times,serif" font-size="14.0">proline &lt;= 724.5</text>
<text text-anchor="middle" x="470.5" y="-126.8" font-family="Times,serif" font-size="14.0">c_gini = 10.5</text>
<text text-anchor="middle" x="470.5" y="-111.8" font-family="Times,serif" font-size="14.0">instances = 49</text>
<text text-anchor="middle" x="470.5" y="-96.8" font-family="Times,serif" font-size="14.0">counts = [43, 6, 0]</text>
</g>
<g class="edge"><title>5&#45;&gt;7</title>
<path fill="none" stroke="black" d="M378.0,-192.9C390.7,-183.4 404.6,-173.1 417.7,-163.3"/>
<polygon fill="black" stroke="black" points="419.8,-166.1 425.8,-157.3 415.7,-160.5 419.8,-166.1"/>
</g>
<g class="node"><title>8</title>
<polygon fill="none" stroke="black" points="459.5,-53 347.5,-53 347.5,-0 459.5,-0 459.5,-53"/>
<text text-anchor="middle" x="403.5" y="-37.8" font-family="Times,serif" font-size="14.0">c_gini = 1.7</text>
<text text-anchor="middle" x="403.5" y="-22.8" font-family="Times,serif" font-size="14.0">instances = 7</text>
<text text-anchor="middle" x="403.5" y="-7.8" font-family="Times,serif" font-size="14.0">counts = [1, 6, 0]</text>
</g>
<g class="edge"><title>7&#45;&gt;8</title>
<path fill="none" stroke="black" d="M447.1,-88.9C440.8,-80.1 434.0,-70.5 427.6,-61.5"/>
<polygon fill="black" stroke="black" points="430.4,-59.4 421.7,-53.2 424.7,-63.4 430.4,-59.4"/>
</g>
<g class="node"><title>9</title>
<polygon fill="none" stroke="black" points="597,-53 478,-53 478,-0 597,-0 597,-53"/>
<text text-anchor="middle" x="537.5" y="-37.8" font-family="Times,serif" font-size="14.0">c_gini = 0.0</text>
<text text-anchor="middle" x="537.5" y="-22.8" font-family="Times,serif" font-size="14.0">instances = 42</text>
<text text-anchor="middle" x="537.5" y="-7.8" font-family="Times,serif" font-size="14.0">counts = [42, 0, 0]</text>
</g>
<g class="edge"><title>7&#45;&gt;9</title>
<path fill="none" stroke="black" d="M493.9,-88.9C500.2,-80.1 507.0,-70.5 513.4,-61.5"/>
<polygon fill="black" stroke="black" points="516.3,-63.4 519.3,-53.2 510.6,-59.4 516.3,-63.4"/>
</g>
</g>
</svg>
