<?xml version="1.0" encoding="UTF-8" standalone="no"?>
<!DOCTYPE svg PUBLIC "-//W3C//DTD SVG 1.1//EN" "http://www.w3.org/Graphics/SVG/1.1/DTD/svg11.dtd">
<svg width="631pt" height="373pt" viewBox="0.0 0.0 630.5 373.0" xmlns="http://www.w3.org/2000/svg" xmlns:xlink="http://www.w3.org/1999/xlink">
<g class="graph" transform="scale(1 1) rotate(0) translate(4 369)">
<title>Tree</title>
<polygon fill="none" stroke="none" points="-4,4 -4,-369 626.5,-369 626.5,4 -4,4"/>
<g class="node"><title>0</title>
<polygon fill="none" stroke="black" points="331.5,-365 199.5,-365 199.5,-297 331.5,-297 331.5,-365"/>
<text text-anchor="middle" x="265.5" y="-349.8" font-family="Times,serif" font-size="14.0">flavanoids &lt;= 1.6</text>
<text text-anchor="middle" x="265.5" y="-334.8" font-family="Times,serif" font-size="14.0">c_entropy = 147.8</text>
<text text-anchor="middle" x="265.5" y="-319.8" font-family="Times,serif" font-size="14.0">instances = 136</text>
<text text-anchor="middle" x="265.5" y="-304.8" font-family="Times,serif" font-size="14.0">counts = [45, 54, 37]</text>
<title>1</title>
<polygon fill="none" stroke="black" points="257,-261 132,-261 132,-193 257,-193 257,-261"/>
<text text-anchor="middle" x="194.5" y="-245.8" font-family="Times,serif" font-size="14.0">hue &lt;= 0.9</text>
<text text-anchor="middle" x="194.5" y="-230.8" font-family="Times,serif" font-size="14.0">c_entropy = 27.3</text>
<text text-anchor="middle" x="194.5" y="-215.8" font-family="Times,serif" font-size="14.0">instances = 49</text>
<text text-anchor="middle" x="194.5" y="-200.8" font-family="Times,serif" font-size="14.0">counts = [0, 12, 37]</text>
</g>
<g class="edge"><title>0&#45;&gt;1</title>
<path fill="none" stroke="black" d="M242.4,-296.9C236.4,-288.2 229.7,-278.6 223.4,-269.5"/>
<polygon fill="black" stroke="black" points="226.3,-267.5 217.7,-261.3 220.5,-271.5 226.3,-267.5"/>
</g>
<g class="node"><title>5</title>
<polygon fill="none" stroke="black" points="400,-261 275,-261 275,-193 400,-193 400,-261"/>
<text text-anchor="middle" x="337.5" y="-245.8" font-family="Times,serif" font-size="14.0">alcohol &lt;= 12.8</text>
<text text-anchor="middle" x="337.5" y="-230.8" font-family="Times,serif" font-size="14.0">c_entropy = 60.2</text>
<text text-anchor="middle" x="337.5" y="-215.8" font-family="Times,serif" font-size="14.0">instances = 87</text>
<text text-anchor="middle" x="337.5" y="-200.8" font-family="Times,serif" font-size="14.0">counts = [45, 42, 0]</text>
</g>
<g class="edge"><title>0&#45;&gt;5</title>
<path fill="none" stroke="black" d="M288.9,-296.9C295.0,-288.2 301.8,-278.6 308.2,-269.5"/>
<polygon fill="black" stroke="black" points="311.1,-271.5 314.0,-261.3 305.4,-267.5 311.1,-271.5"/>
</g>
<g class="node"><title>2</title>
<polygon fill="none" stroke="black" points="119,-149.5 0,-149.5 0,-96.5 119,-96.5 119,-149.5"/>
<text text-anchor="middle" x="59.5" y="-134.3" font-family="Times,serif" font-size="14.0">c_entropy = 0.0</text>
<text text-anchor="middle" x="59.5" y="-119.3" font-family="Times,serif" font-size="14.0">instances = 36</text>
<text text-anchor="middle" x="59.5" y="-104.3" font-family="Times,serif" font-size="14.0">counts = [0, 0, 36]</text>
</g>
<g class="edge"><title>1&#45;&gt;2</title>
<path fill="none" stroke="black" d="M150.7,-192.9C134.8,-180.9 116.9,-167.4 101.3,-155.5"/>
<polygon fill="black" stroke="black" points="103.4,-152.8 93.3,-149.5 99.1,-158.3 103.4,-152.8"/>
</g>
<g class="node"><title>3</title>
<polygon fill="none" stroke="black" points="256,-149.5 137,-149.5 137,-96.5 256,-96.5 256,-149.5"/>
<text text-anchor="middle" x="196.5" y="-134.3" font-family="Times,serif" font-size="14.0">c_entropy = 3.5</text>
<text text-anchor="middle" x="196.5" y="-119.3" font-family="Times,serif" font-size="14.0">instances = 13</text>
<text text-anchor="middle" x="196.5" y="-104.3" font-family="Times,serif" font-size="14.0">counts = [0, 12, 1]</text>
</g>
<g class="edge"><title>1&#45;&gt;3</title>
<path fill="none" stroke="black" d="M195.1,-192.9C195.4,-182.2 195.6,-170.4 195.8,-159.5"/>
<polygon fill="black" stroke="black" points="199.3,-159.6 196,-149.5 192.3,-159.4 199.3,-159.6"/>
</g>
<g class="node"><title>6</title>
<polygon fill="none" stroke="black" points="396,-149.5 277,-149.5 277,-96.5 396,-96.5 396,-149.5"/>
<text text-anchor="middle" x="336.5" y="-134.3" font-family="Times,serif" font-size="14.0">c_entropy = 0.0</text>
<text text-anchor="middle" x="336.5" y="-119.3" font-family="Times,serif" font-size="14.0">instances = 37</text>
<text text-anchor="middle" x="336.5" y="-104.3" font-family="Times,serif" font-size="14.0">counts = [0, 37, 0]</text>
</g>
<g class="edge"><title>5&#45;&gt;6</title>
<path fill="none" stroke="black" d="M337.2,-192.9C337.1,-182.3 337.0,-170.6 336.9,-159.9"/>
<polygon fill="black" stroke="black" points="340.3,-159.5 336.8,-149.5 333.3,-159.6 340.3,-159.5"/>
</g>
<g class="node"><title>7</title>
<polygon fill="none" stroke="black" points="585,-157 414,-157 414,-89 585,-89 585,-157"/>
<text text-anchor="middle" x="499.5" y="-141.8" font-family="Times,serif" font-size="14.0">alcalinity_of_ash &lt;= 21.2</text>
<text text-anchor="middle" x="499.5" y="-126.8" font-family="Times,serif" font-size="14.0">c_entropy = 16.2</text>
<text text-anchor="middle" x="499.5" y="-111.8" font-family="Times,serif" font-size="14.0">instances = 50</text>
<text text-anchor="middle" x="499.5" y="-96.8" font-family="Times,serif" font-size="14.0">counts = [45, 5, 0]</text>
</g>
<g class="edge"><title>5&#45;&gt;7</title>
<path fill="none" stroke="black" d="M390.1,-192.9C405.5,-183.2 422.4,-172.6 438.2,-162.6"/>
<polygon fill="black" stroke="black" points="440.3,-165.4 446.9,-157.1 436.6,-159.5 440.3,-165.4"/>
</g>
<g class="node"><title>8</title>
<polygon fill="none" stroke="black" points="492,-53 373,-53 373,-0 492,-0 492,-53"/>
<text text-anchor="middle" x="432.5" y="-37.8" font-family="Times,serif" font-size="14.0">c_entropy = 0.0</text>
<text text-anchor="middle" x="432.5" y="-22.8" font-family="Times,serif" font-size="14.0">instances = 43</text>
<text text-anchor="middle" x="432.5" y="-7.8" font-family="Times,serif" font-size="14.0">counts = [43, 0, 0]</text>
</g>
<g class="edge"><title>7&#45;&gt;8</title>
<path fill="none" stroke="black" d="M476.1,-88.9C469.8,-80.1 463.0,-70.5 456.6,-61.5"/>
<polygon fill="black" stroke="black" points="459.4,-59.4 450.7,-53.2 453.7,-63.4 459.4,-59.4"/>
</g>
<g class="node"><title>9</title>
<polygon fill="none" stroke="black" points="622.5,-53 510.5,-53 510.5,-0 622.5,-0 622.5,-53"/>
<text text-anchor="middle" x="566.5" y="-37.8" font-family="Times,serif" font-size="14.0">c_entropy = 4.2</text>
<text text-anchor="middle" x="566.5" y="-22.8" font-family="Times,serif" font-size="14.0">instances = 7</text>
<text text-anchor="middle" x="566.5" y="-7.8" font-family="Times,serif" font-size="14.0">counts = [2, 5, 0]</text>
</g>
<g class="edge"><title>7&#45;&gt;9</title>
<path fill="none" stroke="black" d="M522.9,-88.9C529.2,-80.1 536.0,-70.5 542.4,-61.5"/>
<polygon fill="black" stroke="black" points="545.3,-63.4 548.3,-53.2 539.6,-59.4 545.3,-63.4"/>
</g>
</g>
</svg>
