<?xml version="1.0" encoding="UTF-8" standalone="no"?>
<!DOCTYPE svg PUBLIC "-//W3C//DTD SVG 1.1//EN" "http://www.w3.org/Graphics/SVG/1.1/DTD/svg11.dtd">
<svg width="536pt" height="269pt" viewBox="0.0 0.0 536.0 269.0" xmlns="http://www.w3.org/2000/svg" xmlns:xlink="http://www.w3.org/1999/xlink">
<g class="graph" transform="scale(1 1) rotate(0) translate(4 265)">
<title>Tree</title>
<polygon fill="none" stroke="none" points="-4,4 -4,-265 532,-265 532,4 -4,4"/>
<g class="node"><title>0</title>
<polygon fill="none" stroke="black" points="338.5,-261 186.5,-261 186.5,-193 338.5,-193 338.5,-261"/>
<text text-anchor="middle" x="262.5" y="-245.8" font-family="Times,serif" font-size="14.0">color_intensity &lt;= 3.8</text>
<text text-anchor="middle" x="262.5" y="-230.8" font-family="Times,serif" font-size="14.0">c_gini = 89.6</text>
<text text-anchor="middle" x="262.5" y="-215.8" font-family="Times,serif" font-size="14.0">instances = 136</text>
<text text-anchor="middle" x="262.5" y="-200.8" font-family="Times,serif" font-size="14.0">counts = [45, 54, 37]</text>
<title>1</title>
<polygon fill="none" stroke="black" points="251,-157 132,-157 132,-89 251,-89 251,-157"/>
<text text-anchor="middle" x="191.5" y="-141.8" font-family="Times,serif" font-size="14.0">ash &lt;= 3.0</text>
<text text-anchor="middle" x="191.5" y="-126.8" font-family="Times,serif" font-size="14.0">c_gini = 3.8</text>
<text text-anchor="middle" x="191.5" y="-111.8" font-family="Times,serif" font-size="14.0">instances = 49</text>
<text text-anchor="middle" x="191.5" y="-96.8" font-family="Times,serif" font-size="14.0">counts = [2, 47, 0]</text>
</g>
<g class="edge"><title>0&#45;&gt;1</title>
<path fill="none" stroke="black" d="M239.4,-192.9C233.4,-184.2 226.7,-174.6 220.4,-165.5"/>
<polygon fill="black" stroke="black" points="223.3,-163.5 214.7,-157.3 217.5,-167.5 223.3,-163.5"/>
</g>
<g class="node"><title>5</title>
<polygon fill="none" stroke="black" points="397.5,-157 269.5,-157 269.5,-89 397.5,-89 397.5,-157"/>
<text text-anchor="middle" x="333.5" y="-141.8" font-family="Times,serif" font-size="14.0">flavanoids &lt;= 1.6</text>
<text text-anchor="middle" x="333.5" y="-126.8" font-family="Times,serif" font-size="14.0">c_gini = 49.5</text>
<text text-anchor="middle" x="333.5" y="-111.8" font-family="Times,serif" font-size="14.0">instances = 87</text>
<text text-anchor="middle" x="333.5" y="-96.8" font-family="Times,serif" font-size="14.0">counts = [43, 7, 37]</text>
</g>
<g class="edge"><title>0&#45;&gt;5</title>
<path fill="none" stroke="black" d="M285.6,-192.9C291.6,-184.2 298.3,-174.6 304.6,-165.5"/>
<polygon fill="black" stroke="black" points="307.5,-167.5 310.3,-157.3 301.7,-163.5 307.5,-167.5"/>
</g>
<g class="node"><title>2</title>
<polygon fill="none" stroke="black" points="119,-53 0,-53 0,-0 119,-0 119,-53"/>
<text text-anchor="middle" x="59.5" y="-37.8" font-family="Times,serif" font-size="14.0">c_gini = 2.0</text>
<text text-anchor="middle" x="59.5" y="-22.8" font-family="Times,serif" font-size="14.0">instances = 48</text>
<text text-anchor="middle" x="59.5" y="-7.8" font-family="Times,serif" font-size="14.0">counts = [1, 47, 0]</text>
</g>
<g class="edge"><title>1&#45;&gt;2</title>
<path fill="none" stroke="black" d="M145.3,-88.9C131.8,-79.3 117.0,-68.7 103.6,-59.1"/>
<polygon fill="black" stroke="black" points="105.6,-56.2 95.4,-53.2 101.5,-61.9 105.6,-56.2"/>
</g>
<g class="node"><title>3</title>
<polygon fill="none" stroke="black" points="249.5,-53 137.5,-53 137.5,-0 249.5,-0 249.5,-53"/>
<text text-anchor="middle" x="193.5" y="-37.8" font-family="Times,serif" font-size="14.0">c_gini = 0.0</text>
<text text-anchor="middle" x="193.5" y="-22.8" font-family="Times,serif" font-size="14.0">instances = 1</text>
<text text-anchor="middle" x="193.5" y="-7.8" font-family="Times,serif" font-size="14.0">counts = [1, 0, 0]</text>
</g>
<g class="edge"><title>1&#45;&gt;3</title>
<path fill="none" stroke="black" d="M192.2,-88.9C192.4,-80.7 192.6,-71.8 192.7,-63.5"/>
<polygon fill="black" stroke="black" points="196.2,-63.3 193.0,-53.2 189.2,-63.2 196.2,-63.3"/>
</g>
<g class="node"><title>6</title>
<polygon fill="none" stroke="black" points="391,-53 272,-53 272,-0 391,-0 391,-53"/>
<text text-anchor="middle" x="331.5" y="-37.8" font-family="Times,serif" font-size="14.0">c_gini = 1.9</text>
<text text-anchor="middle" x="331.5" y="-22.8" font-family="Times,serif" font-size="14.0">instances = 38</text>
<text text-anchor="middle" x="331.5" y="-7.8" font-family="Times,serif" font-size="14.0">counts = [0, 1, 37]</text>
</g>
<g class="edge"><title>5&#45;&gt;6</title>
<path fill="none" stroke="black" d="M332.8,-88.9C332.6,-80.7 332.4,-71.8 332.3,-63.5"/>
<polygon fill="black" stroke="black" points="335.8,-63.2 332.0,-53.2 328.8,-63.3 335.8,-63.2"/>
</g>
<g class="node"><title>7</title>
<polygon fill="none" stroke="black" points="528,-53 409,-53 409,-0 528,-0 528,-53"/>
<text text-anchor="middle" x="468.5" y="-37.8" font-family="Times,serif" font-size="14.0">c_gini = 10.5</text>
<text text-anchor="middle" x="468.5" y="-22.8" font-family="Times,serif" font-size="14.0">instances = 49</text>
<text text-anchor="middle" x="468.5" y="-7.8" font-family="Times,serif" font-size="14.0">counts = [43, 6, 0]</text>
</g>
<g class="edge"><title>5&#45;&gt;7</title>
<path fill="none" stroke="black" d="M380.7,-88.9C394.6,-79.3 409.7,-68.7 423.4,-59.1"/>
<polygon fill="black" stroke="black" points="425.5,-61.8 431.7,-53.2 421.5,-56.1 425.5,-61.8"/>
</g>
</g>
</svg>
