<?xml version="1.0" encoding="UTF-8" standalone="no"?>
<!DOCTYPE svg PUBLIC "-//W3C//DTD SVG 1.1//EN" "http://www.w3.org/Graphics/SVG/1.1/DTD/svg11.dtd">
<svg width="787pt" height="628pt" viewBox="0.0 0.0 787.0 628.0" xmlns="http://www.w3.org/2000/svg" xmlns:xlink="http://www.w3.org/1999/xlink">
<g class="graph" transform="scale(1 1) rotate(0) translate(4 624)">
<title>Tree</title>
<polygon fill="none" stroke="none" points="-4,4 -4,-624 783,-624 783,4 -4,4"/>
<g class="cluster"><title>cluster_i0_c0</title>
<polygon fill="none" stroke="black" points="8,-416 8,-612 254,-612 254,-416 8,-416"/>
<text text-anchor="middle" x="131" y="-596.8" font-family="Times,serif" font-size="14.0">Tree 1 for class 1</text>
<title>cluster_i0_c1</title>
<polygon fill="none" stroke="black" points="265,-416 265,-612 511,-612 511,-416 265,-416"/>
<text text-anchor="middle" x="388" y="-596.8" font-family="Times,serif" font-size="14.0">Tree 1 for class 2</text>
<title>cluster_i0_c2</title>
<polygon fill="none" stroke="black" points="525,-416 525,-612 771,-612 771,-416 525,-416"/>
<text text-anchor="middle" x="648" y="-596.8" font-family="Times,serif" font-size="14.0">Tree 1 for class 3</text>
<title>cluster_i1_c0</title>
<polygon fill="none" stroke="black" points="8,-212 8,-408 254,-408 254,-212 8,-212"/>
<text text-anchor="middle" x="131" y="-392.8" font-family="Times,serif" font-size="14.0">Tree 2 for class 1</text>
<title>cluster_i1_c1</title>
<polygon fill="none" stroke="black" points="262,-212 262,-408 508,-408 508,-212 262,-212"/>
<text text-anchor="middle" x="385" y="-392.8" font-family="Times,serif" font-size="14.0">Tree 2 for class 2</text>
<title>cluster_i1_c2</title>
<polygon fill="none" stroke="black" points="516,-212 516,-408 762,-408 762,-212 516,-212"/>
<text text-anchor="middle" x="639" y="-392.8" font-family="Times,serif" font-size="14.0">Tree 2 for class 3</text>
<title>cluster_i2_c0</title>
<polygon fill="none" stroke="black" points="12,-8 12,-204 258,-204 258,-8 12,-8"/>
<text text-anchor="middle" x="135" y="-188.8" font-family="Times,serif" font-size="14.0">Tree 3 for class 1</text>
<title>cluster_i2_c1</title>
<polygon fill="none" stroke="black" points="268,-8 268,-204 514,-204 514,-8 268,-8"/>
<text text-anchor="middle" x="391" y="-188.8" font-family="Times,serif" font-size="14.0">Tree 3 for class 2</text>
<title>cluster_i2_c2</title>
<polygon fill="none" stroke="black" points="523,-8 523,-204 769,-204 769,-8 523,-8"/>
<text text-anchor="middle" x="646" y="-188.8" font-family="Times,serif" font-size="14.0">Tree 3 for class 3</text>
</g>
<g class="node"><title>0</title>
<polygon fill="none" stroke="black" points="192.5,-581 69.5,-581 69.5,-513 192.5,-513 192.5,-581"/>
<text text-anchor="middle" x="131" y="-565.8" font-family="Times,serif" font-size="14.0">proline &lt;= 755.0</text>
<text text-anchor="middle" x="131" y="-550.8" font-family="Times,serif" font-size="14.0">c_gb = &#45;0.0</text>
<text text-anchor="middle" x="131" y="-535.8" font-family="Times,serif" font-size="14.0">instances = 136</text>
<text text-anchor="middle" x="131" y="-520.8" font-family="Times,serif" font-size="14.0">prediction=&#45;0.0</text>
<title>1</title>
<polygon fill="none" stroke="black" points="124,-477 16,-477 16,-424 124,-424 124,-477"/>
<text text-anchor="middle" x="70" y="-461.8" font-family="Times,serif" font-size="14.0">c_gb = &#45;18.1</text>
<text text-anchor="middle" x="70" y="-446.8" font-family="Times,serif" font-size="14.0">instances = 84</text>
<text text-anchor="middle" x="70" y="-431.8" font-family="Times,serif" font-size="14.0">prediction=&#45;1.4</text>
</g>
<g class="edge"><title>0&#45;&gt;1</title>
<path fill="none" stroke="black" d="M109.7,-512.9C104.0,-504.2 97.9,-494.7 92.2,-485.8"/>
<polygon fill="black" stroke="black" points="95.0,-483.7 86.6,-477.2 89.1,-487.5 95.0,-483.7"/>
</g>
<g class="node"><title>2</title>
<polygon fill="none" stroke="black" points="246,-477 142,-477 142,-424 246,-424 246,-477"/>
<text text-anchor="middle" x="194" y="-461.8" font-family="Times,serif" font-size="14.0">c_gb = &#45;28.5</text>
<text text-anchor="middle" x="194" y="-446.8" font-family="Times,serif" font-size="14.0">instances = 52</text>
<text text-anchor="middle" x="194" y="-431.8" font-family="Times,serif" font-size="14.0">prediction=2.2</text>
</g>
<g class="edge"><title>0&#45;&gt;2</title>
<path fill="none" stroke="black" d="M153.0,-512.9C158.9,-504.2 165.2,-494.7 171.1,-485.8"/>
<polygon fill="black" stroke="black" points="174.2,-487.5 176.8,-477.2 168.4,-483.6 174.2,-487.5"/>
</g>
<g class="node"><title>12</title>
<polygon fill="none" stroke="black" points="192.5,-377 69.5,-377 69.5,-309 192.5,-309 192.5,-377"/>
<text text-anchor="middle" x="131" y="-361.8" font-family="Times,serif" font-size="14.0">proline &lt;= 755.0</text>
<text text-anchor="middle" x="131" y="-346.8" font-family="Times,serif" font-size="14.0">c_gb = &#45;0.0</text>
<text text-anchor="middle" x="131" y="-331.8" font-family="Times,serif" font-size="14.0">instances = 136</text>
<text text-anchor="middle" x="131" y="-316.8" font-family="Times,serif" font-size="14.0">prediction=&#45;0.0</text>
<title>4</title>
<polygon fill="none" stroke="black" points="464,-581 312,-581 312,-513 464,-513 464,-581"/>
<text text-anchor="middle" x="388" y="-565.8" font-family="Times,serif" font-size="14.0">color_intensity &lt;= 3.8</text>
<text text-anchor="middle" x="388" y="-550.8" font-family="Times,serif" font-size="14.0">c_gb = &#45;1.2</text>
<text text-anchor="middle" x="388" y="-535.8" font-family="Times,serif" font-size="14.0">instances = 136</text>
<text text-anchor="middle" x="388" y="-520.8" font-family="Times,serif" font-size="14.0">prediction=0.3</text>
<title>5</title>
<polygon fill="none" stroke="black" points="377,-477 273,-477 273,-424 377,-424 377,-477"/>
<text text-anchor="middle" x="325" y="-461.8" font-family="Times,serif" font-size="14.0">c_gb = &#45;43.2</text>
<text text-anchor="middle" x="325" y="-446.8" font-family="Times,serif" font-size="14.0">instances = 49</text>
<text text-anchor="middle" x="325" y="-431.8" font-family="Times,serif" font-size="14.0">prediction=2.8</text>
</g>
<g class="edge"><title>4&#45;&gt;5</title>
<path fill="none" stroke="black" d="M366.0,-512.9C360.1,-504.2 353.8,-494.7 347.9,-485.8"/>
<polygon fill="black" stroke="black" points="350.6,-483.6 342.2,-477.2 344.8,-487.5 350.6,-483.6"/>
</g>
<g class="node"><title>6</title>
<polygon fill="none" stroke="black" points="503,-477 395,-477 395,-424 503,-424 503,-477"/>
<text text-anchor="middle" x="449" y="-461.8" font-family="Times,serif" font-size="14.0">c_gb = &#45;12.5</text>
<text text-anchor="middle" x="449" y="-446.8" font-family="Times,serif" font-size="14.0">instances = 87</text>
<text text-anchor="middle" x="449" y="-431.8" font-family="Times,serif" font-size="14.0">prediction=&#45;1.1</text>
</g>
<g class="edge"><title>4&#45;&gt;6</title>
<path fill="none" stroke="black" d="M409.3,-512.9C415.0,-504.2 421.1,-494.7 426.9,-485.8"/>
<polygon fill="black" stroke="black" points="429.9,-487.5 432.4,-477.2 424.0,-483.7 429.9,-487.5"/>
</g>
<g class="node"><title>16</title>
<polygon fill="none" stroke="black" points="461,-377 309,-377 309,-309 461,-309 461,-377"/>
<text text-anchor="middle" x="385" y="-361.8" font-family="Times,serif" font-size="14.0">color_intensity &lt;= 3.9</text>
<text text-anchor="middle" x="385" y="-346.8" font-family="Times,serif" font-size="14.0">c_gb = &#45;0.6</text>
<text text-anchor="middle" x="385" y="-331.8" font-family="Times,serif" font-size="14.0">instances = 136</text>
<text text-anchor="middle" x="385" y="-316.8" font-family="Times,serif" font-size="14.0">prediction=0.2</text>
<title>8</title>
<polygon fill="none" stroke="black" points="712,-581 584,-581 584,-513 712,-513 712,-581"/>
<text text-anchor="middle" x="648" y="-565.8" font-family="Times,serif" font-size="14.0">flavanoids &lt;= 1.2</text>
<text text-anchor="middle" x="648" y="-550.8" font-family="Times,serif" font-size="14.0">c_gb = &#45;1.1</text>
<text text-anchor="middle" x="648" y="-535.8" font-family="Times,serif" font-size="14.0">instances = 136</text>
<text text-anchor="middle" x="648" y="-520.8" font-family="Times,serif" font-size="14.0">prediction=&#45;0.3</text>
<title>9</title>
<polygon fill="none" stroke="black" points="637,-477 533,-477 533,-424 637,-424 637,-477"/>
<text text-anchor="middle" x="585" y="-461.8" font-family="Times,serif" font-size="14.0">c_gb = &#45;26.6</text>
<text text-anchor="middle" x="585" y="-446.8" font-family="Times,serif" font-size="14.0">instances = 35</text>
<text text-anchor="middle" x="585" y="-431.8" font-family="Times,serif" font-size="14.0">prediction=2.6</text>
</g>
<g class="edge"><title>8&#45;&gt;9</title>
<path fill="none" stroke="black" d="M626.0,-512.9C620.1,-504.2 613.8,-494.7 607.9,-485.8"/>
<polygon fill="black" stroke="black" points="610.6,-483.6 602.2,-477.2 604.8,-487.5 610.6,-483.6"/>
</g>
<g class="node"><title>10</title>
<polygon fill="none" stroke="black" points="763,-477 655,-477 655,-424 763,-424 763,-477"/>
<text text-anchor="middle" x="709" y="-461.8" font-family="Times,serif" font-size="14.0">c_gb = &#45;18.3</text>
<text text-anchor="middle" x="709" y="-446.8" font-family="Times,serif" font-size="14.0">instances = 101</text>
<text text-anchor="middle" x="709" y="-431.8" font-family="Times,serif" font-size="14.0">prediction=&#45;1.3</text>
</g>
<g class="edge"><title>8&#45;&gt;10</title>
<path fill="none" stroke="black" d="M669.3,-512.9C675.0,-504.2 681.1,-494.7 686.9,-485.8"/>
<polygon fill="black" stroke="black" points="689.9,-487.5 692.4,-477.2 684.0,-483.7 689.9,-487.5"/>
</g>
<g class="node"><title>20</title>
<polygon fill="none" stroke="black" points="703,-377 575,-377 575,-309 703,-309 703,-377"/>
<text text-anchor="middle" x="639" y="-361.8" font-family="Times,serif" font-size="14.0">flavanoids &lt;= 1.4</text>
<text text-anchor="middle" x="639" y="-346.8" font-family="Times,serif" font-size="14.0">c_gb = &#45;0.6</text>
<text text-anchor="middle" x="639" y="-331.8" font-family="Times,serif" font-size="14.0">instances = 136</text>
<text text-anchor="middle" x="639" y="-316.8" font-family="Times,serif" font-size="14.0">prediction=&#45;0.2</text>
<title>13</title>
<polygon fill="none" stroke="black" points="124,-273 16,-273 16,-220 124,-220 124,-273"/>
<text text-anchor="middle" x="70" y="-257.8" font-family="Times,serif" font-size="14.0">c_gb = &#45;11.2</text>
<text text-anchor="middle" x="70" y="-242.8" font-family="Times,serif" font-size="14.0">instances = 84</text>
<text text-anchor="middle" x="70" y="-227.8" font-family="Times,serif" font-size="14.0">prediction=&#45;1.2</text>
</g>
<g class="edge"><title>12&#45;&gt;13</title>
<path fill="none" stroke="black" d="M109.7,-308.9C104.0,-300.2 97.9,-290.7 92.2,-281.8"/>
<polygon fill="black" stroke="black" points="95.0,-279.7 86.6,-273.2 89.1,-283.5 95.0,-279.7"/>
</g>
<g class="node"><title>14</title>
<polygon fill="none" stroke="black" points="246,-273 142,-273 142,-220 246,-220 246,-273"/>
<text text-anchor="middle" x="194" y="-257.8" font-family="Times,serif" font-size="14.0">c_gb = &#45;13.2</text>
<text text-anchor="middle" x="194" y="-242.8" font-family="Times,serif" font-size="14.0">instances = 52</text>
<text text-anchor="middle" x="194" y="-227.8" font-family="Times,serif" font-size="14.0">prediction=1.4</text>
</g>
<g class="edge"><title>12&#45;&gt;14</title>
<path fill="none" stroke="black" d="M153.0,-308.9C158.9,-300.2 165.2,-290.7 171.1,-281.8"/>
<polygon fill="black" stroke="black" points="174.2,-283.5 176.8,-273.2 168.4,-279.6 174.2,-283.5"/>
</g>
<g class="node"><title>24</title>
<polygon fill="none" stroke="black" points="199,-173 71,-173 71,-105 199,-105 199,-173"/>
<text text-anchor="middle" x="135" y="-157.8" font-family="Times,serif" font-size="14.0">flavanoids &lt;= 2.3</text>
<text text-anchor="middle" x="135" y="-142.8" font-family="Times,serif" font-size="14.0">c_gb = &#45;0.0</text>
<text text-anchor="middle" x="135" y="-127.8" font-family="Times,serif" font-size="14.0">instances = 136</text>
<text text-anchor="middle" x="135" y="-112.8" font-family="Times,serif" font-size="14.0">prediction=&#45;0.0</text>
<title>17</title>
<polygon fill="none" stroke="black" points="374,-273 270,-273 270,-220 374,-220 374,-273"/>
<text text-anchor="middle" x="322" y="-257.8" font-family="Times,serif" font-size="14.0">c_gb = &#45;19.7</text>
<text text-anchor="middle" x="322" y="-242.8" font-family="Times,serif" font-size="14.0">instances = 53</text>
<text text-anchor="middle" x="322" y="-227.8" font-family="Times,serif" font-size="14.0">prediction=1.7</text>
</g>
<g class="edge"><title>16&#45;&gt;17</title>
<path fill="none" stroke="black" d="M363.0,-308.9C357.1,-300.2 350.8,-290.7 344.9,-281.8"/>
<polygon fill="black" stroke="black" points="347.6,-279.6 339.2,-273.2 341.8,-283.5 347.6,-279.6"/>
</g>
<g class="node"><title>18</title>
<polygon fill="none" stroke="black" points="500,-273 392,-273 392,-220 500,-220 500,-273"/>
<text text-anchor="middle" x="446" y="-257.8" font-family="Times,serif" font-size="14.0">c_gb = &#45;8.7</text>
<text text-anchor="middle" x="446" y="-242.8" font-family="Times,serif" font-size="14.0">instances = 83</text>
<text text-anchor="middle" x="446" y="-227.8" font-family="Times,serif" font-size="14.0">prediction=&#45;1.1</text>
</g>
<g class="edge"><title>16&#45;&gt;18</title>
<path fill="none" stroke="black" d="M406.3,-308.9C412.0,-300.2 418.1,-290.7 423.9,-281.8"/>
<polygon fill="black" stroke="black" points="426.9,-283.5 429.4,-273.2 421.0,-279.7 426.9,-283.5"/>
</g>
<g class="node"><title>28</title>
<polygon fill="none" stroke="black" points="449,-173 331,-173 331,-105 449,-105 449,-173"/>
<text text-anchor="middle" x="390" y="-157.8" font-family="Times,serif" font-size="14.0">alcohol &lt;= 12.7</text>
<text text-anchor="middle" x="390" y="-142.8" font-family="Times,serif" font-size="14.0">c_gb = &#45;0.4</text>
<text text-anchor="middle" x="390" y="-127.8" font-family="Times,serif" font-size="14.0">instances = 136</text>
<text text-anchor="middle" x="390" y="-112.8" font-family="Times,serif" font-size="14.0">prediction=0.2</text>
<title>21</title>
<polygon fill="none" stroke="black" points="628,-273 524,-273 524,-220 628,-220 628,-273"/>
<text text-anchor="middle" x="576" y="-257.8" font-family="Times,serif" font-size="14.0">c_gb = &#45;12.6</text>
<text text-anchor="middle" x="576" y="-242.8" font-family="Times,serif" font-size="14.0">instances = 44</text>
<text text-anchor="middle" x="576" y="-227.8" font-family="Times,serif" font-size="14.0">prediction=1.6</text>
</g>
<g class="edge"><title>20&#45;&gt;21</title>
<path fill="none" stroke="black" d="M617.0,-308.9C611.1,-300.2 604.8,-290.7 598.9,-281.8"/>
<polygon fill="black" stroke="black" points="601.6,-279.6 593.2,-273.2 595.8,-283.5 601.6,-279.6"/>
</g>
<g class="node"><title>22</title>
<polygon fill="none" stroke="black" points="754,-273 646,-273 646,-220 754,-220 754,-273"/>
<text text-anchor="middle" x="700" y="-257.8" font-family="Times,serif" font-size="14.0">c_gb = &#45;14.0</text>
<text text-anchor="middle" x="700" y="-242.8" font-family="Times,serif" font-size="14.0">instances = 92</text>
<text text-anchor="middle" x="700" y="-227.8" font-family="Times,serif" font-size="14.0">prediction=&#45;1.3</text>
</g>
<g class="edge"><title>20&#45;&gt;22</title>
<path fill="none" stroke="black" d="M660.3,-308.9C666.0,-300.2 672.1,-290.7 677.9,-281.8"/>
<polygon fill="black" stroke="black" points="680.9,-283.5 683.4,-273.2 675.0,-279.7 680.9,-283.5"/>
</g>
<g class="node"><title>32</title>
<polygon fill="none" stroke="black" points="696,-173 588,-173 588,-105 696,-105 696,-173"/>
<text text-anchor="middle" x="642" y="-157.8" font-family="Times,serif" font-size="14.0">hue &lt;= 0.8</text>
<text text-anchor="middle" x="642" y="-142.8" font-family="Times,serif" font-size="14.0">c_gb = &#45;0.3</text>
<text text-anchor="middle" x="642" y="-127.8" font-family="Times,serif" font-size="14.0">instances = 136</text>
<text text-anchor="middle" x="642" y="-112.8" font-family="Times,serif" font-size="14.0">prediction=&#45;0.2</text>
<title>25</title>
<polygon fill="none" stroke="black" points="128,-69 20,-69 20,-16 128,-16 128,-69"/>
<text text-anchor="middle" x="74" y="-53.8" font-family="Times,serif" font-size="14.0">c_gb = &#45;9.1</text>
<text text-anchor="middle" x="74" y="-38.8" font-family="Times,serif" font-size="14.0">instances = 76</text>
<text text-anchor="middle" x="74" y="-23.8" font-family="Times,serif" font-size="14.0">prediction=&#45;1.2</text>
</g>
<g class="edge"><title>24&#45;&gt;25</title>
<path fill="none" stroke="black" d="M113.7,-104.9C108.0,-96.2 101.9,-86.7 96.2,-77.8"/>
<polygon fill="black" stroke="black" points="99.0,-75.7 90.6,-69.2 93.1,-79.5 99.0,-75.7"/>
</g>
<g class="node"><title>26</title>
<polygon fill="none" stroke="black" points="250,-69 146,-69 146,-16 250,-16 250,-69"/>
<text text-anchor="middle" x="198" y="-53.8" font-family="Times,serif" font-size="14.0">c_gb = &#45;7.9</text>
<text text-anchor="middle" x="198" y="-38.8" font-family="Times,serif" font-size="14.0">instances = 60</text>
<text text-anchor="middle" x="198" y="-23.8" font-family="Times,serif" font-size="14.0">prediction=1.1</text>
</g>
<g class="edge"><title>24&#45;&gt;26</title>
<path fill="none" stroke="black" d="M157.0,-104.9C162.9,-96.2 169.2,-86.7 175.1,-77.8"/>
<polygon fill="black" stroke="black" points="178.2,-79.5 180.8,-69.2 172.4,-75.6 178.2,-79.5"/>
</g>
<g class="node"><title>29</title>
<polygon fill="none" stroke="black" points="380,-69 276,-69 276,-16 380,-16 380,-69"/>
<text text-anchor="middle" x="328" y="-53.8" font-family="Times,serif" font-size="14.0">c_gb = &#45;11.9</text>
<text text-anchor="middle" x="328" y="-38.8" font-family="Times,serif" font-size="14.0">instances = 57</text>
<text text-anchor="middle" x="328" y="-23.8" font-family="Times,serif" font-size="14.0">prediction=1.4</text>
</g>
<g class="edge"><title>28&#45;&gt;29</title>
<path fill="none" stroke="black" d="M368.3,-104.9C362.6,-96.2 356.3,-86.7 350.5,-77.8"/>
<polygon fill="black" stroke="black" points="353.3,-75.7 344.9,-69.2 347.4,-79.5 353.3,-75.7"/>
</g>
<g class="node"><title>30</title>
<polygon fill="none" stroke="black" points="506,-69 398,-69 398,-16 506,-16 506,-69"/>
<text text-anchor="middle" x="452" y="-53.8" font-family="Times,serif" font-size="14.0">c_gb = &#45;6.1</text>
<text text-anchor="middle" x="452" y="-38.8" font-family="Times,serif" font-size="14.0">instances = 79</text>
<text text-anchor="middle" x="452" y="-23.8" font-family="Times,serif" font-size="14.0">prediction=&#45;1.0</text>
</g>
<g class="edge"><title>28&#45;&gt;30</title>
<path fill="none" stroke="black" d="M411.7,-104.9C417.4,-96.2 423.7,-86.7 429.5,-77.8"/>
<polygon fill="black" stroke="black" points="432.6,-79.5 435.1,-69.2 426.7,-75.7 432.6,-79.5"/>
</g>
<g class="node"><title>33</title>
<polygon fill="none" stroke="black" points="635,-69 531,-69 531,-16 635,-16 635,-69"/>
<text text-anchor="middle" x="583" y="-53.8" font-family="Times,serif" font-size="14.0">c_gb = &#45;9.5</text>
<text text-anchor="middle" x="583" y="-38.8" font-family="Times,serif" font-size="14.0">instances = 35</text>
<text text-anchor="middle" x="583" y="-23.8" font-family="Times,serif" font-size="14.0">prediction=1.6</text>
</g>
<g class="edge"><title>32&#45;&gt;33</title>
<path fill="none" stroke="black" d="M621.4,-104.9C615.9,-96.2 609.9,-86.7 604.4,-77.8"/>
<polygon fill="black" stroke="black" points="607.3,-75.9 599.1,-69.2 601.4,-79.6 607.3,-75.9"/>
</g>
<g class="node"><title>34</title>
<polygon fill="none" stroke="black" points="761,-69 653,-69 653,-16 761,-16 761,-69"/>
<text text-anchor="middle" x="707" y="-53.8" font-family="Times,serif" font-size="14.0">c_gb = &#45;8.3</text>
<text text-anchor="middle" x="707" y="-38.8" font-family="Times,serif" font-size="14.0">instances = 101</text>
<text text-anchor="middle" x="707" y="-23.8" font-family="Times,serif" font-size="14.0">prediction=&#45;1.0</text>
</g>
<g class="edge"><title>32&#45;&gt;34</title>
<path fill="none" stroke="black" d="M664.7,-104.9C670.8,-96.1 677.4,-86.5 683.6,-77.5"/>
<polygon fill="black" stroke="black" points="686.5,-79.5 689.3,-69.2 680.7,-75.5 686.5,-79.5"/>
</g>
</g>
</svg>
