<?xml version="1.0" encoding="UTF-8" standalone="no"?>
<!DOCTYPE svg PUBLIC "-//W3C//DTD SVG 1.1//EN" "http://www.w3.org/Graphics/SVG/1.1/DTD/svg11.dtd">
<svg width="778pt" height="220pt" viewBox="0.0 0.0 778.0 220.0" xmlns="http://www.w3.org/2000/svg" xmlns:xlink="http://www.w3.org/1999/xlink">
<g class="graph" transform="scale(1 1) rotate(0) translate(4 216)">
<title>Tree</title>
<polygon fill="none" stroke="none" points="-4,4 -4,-216 774,-216 774,4 -4,4"/>
<g class="cluster"><title>cluster_i0_c0</title>
<polygon fill="none" stroke="black" points="8,-8 8,-204 254,-204 254,-8 8,-8"/>
<text text-anchor="middle" x="131" y="-188.8" font-family="Times,serif" font-size="14.0">Tree 1 for class 1</text>
<title>cluster_i0_c1</title>
<polygon fill="none" stroke="black" points="262,-8 262,-204 508,-204 508,-8 262,-8"/>
<text text-anchor="middle" x="385" y="-188.8" font-family="Times,serif" font-size="14.0">Tree 1 for class 2</text>
<title>cluster_i0_c2</title>
<polygon fill="none" stroke="black" points="516,-8 516,-204 762,-204 762,-8 516,-8"/>
<text text-anchor="middle" x="639" y="-188.8" font-family="Times,serif" font-size="14.0">Tree 1 for class 3</text>
</g>
<g class="node"><title>0</title>
<polygon fill="none" stroke="black" points="192.5,-173 69.5,-173 69.5,-105 192.5,-105 192.5,-173"/>
<text text-anchor="middle" x="131" y="-157.8" font-family="Times,serif" font-size="14.0">proline &lt;= 755.0</text>
<text text-anchor="middle" x="131" y="-142.8" font-family="Times,serif" font-size="14.0">c_gb = &#45;0.0</text>
<text text-anchor="middle" x="131" y="-127.8" font-family="Times,serif" font-size="14.0">instances = 136</text>
<text text-anchor="middle" x="131" y="-112.8" font-family="Times,serif" font-size="14.0">prediction=&#45;0.0</text>
<title>1</title>
<polygon fill="none" stroke="black" points="124,-69 16,-69 16,-16 124,-16 124,-69"/>
<text text-anchor="middle" x="70" y="-53.8" font-family="Times,serif" font-size="14.0">c_gb = &#45;36.2</text>
<text text-anchor="middle" x="70" y="-38.8" font-family="Times,serif" font-size="14.0">instances = 84</text>
<text text-anchor="middle" x="70" y="-23.8" font-family="Times,serif" font-size="14.0">prediction=&#45;1.4</text>
</g>
<g class="edge"><title>0&#45;&gt;1</title>
<path fill="none" stroke="black" d="M109.7,-104.9C104.0,-96.2 97.9,-86.7 92.2,-77.8"/>
<polygon fill="black" stroke="black" points="95.0,-75.7 86.6,-69.2 89.1,-79.5 95.0,-75.7"/>
</g>
<g class="node"><title>2</title>
<polygon fill="none" stroke="black" points="246,-69 142,-69 142,-16 246,-16 246,-69"/>
<text text-anchor="middle" x="194" y="-53.8" font-family="Times,serif" font-size="14.0">c_gb = &#45;57.0</text>
<text text-anchor="middle" x="194" y="-38.8" font-family="Times,serif" font-size="14.0">instances = 52</text>
<text text-anchor="middle" x="194" y="-23.8" font-family="Times,serif" font-size="14.0">prediction=2.2</text>
</g>
<g class="edge"><title>0&#45;&gt;2</title>
<path fill="none" stroke="black" d="M153.0,-104.9C158.9,-96.2 165.2,-86.7 171.1,-77.8"/>
<polygon fill="black" stroke="black" points="174.2,-79.5 176.8,-69.2 168.4,-75.6 174.2,-79.5"/>
</g>
<g class="node"><title>4</title>
<polygon fill="none" stroke="black" points="461,-173 309,-173 309,-105 461,-105 461,-173"/>
<text text-anchor="middle" x="385" y="-157.8" font-family="Times,serif" font-size="14.0">color_intensity &lt;= 3.8</text>
<text text-anchor="middle" x="385" y="-142.8" font-family="Times,serif" font-size="14.0">c_gb = &#45;2.5</text>
<text text-anchor="middle" x="385" y="-127.8" font-family="Times,serif" font-size="14.0">instances = 136</text>
<text text-anchor="middle" x="385" y="-112.8" font-family="Times,serif" font-size="14.0">prediction=0.3</text>
<title>5</title>
<polygon fill="none" stroke="black" points="374,-69 270,-69 270,-16 374,-16 374,-69"/>
<text text-anchor="middle" x="322" y="-53.8" font-family="Times,serif" font-size="14.0">c_gb = &#45;86.4</text>
<text text-anchor="middle" x="322" y="-38.8" font-family="Times,serif" font-size="14.0">instances = 49</text>
<text text-anchor="middle" x="322" y="-23.8" font-family="Times,serif" font-size="14.0">prediction=2.8</text>
</g>
<g class="edge"><title>4&#45;&gt;5</title>
<path fill="none" stroke="black" d="M363.0,-104.9C357.1,-96.2 350.8,-86.7 344.9,-77.8"/>
<polygon fill="black" stroke="black" points="347.6,-75.6 339.2,-69.2 341.8,-79.5 347.6,-75.6"/>
</g>
<g class="node"><title>6</title>
<polygon fill="none" stroke="black" points="500,-69 392,-69 392,-16 500,-16 500,-69"/>
<text text-anchor="middle" x="446" y="-53.8" font-family="Times,serif" font-size="14.0">c_gb = &#45;25.0</text>
<text text-anchor="middle" x="446" y="-38.8" font-family="Times,serif" font-size="14.0">instances = 87</text>
<text text-anchor="middle" x="446" y="-23.8" font-family="Times,serif" font-size="14.0">prediction=&#45;1.1</text>
</g>
<g class="edge"><title>4&#45;&gt;6</title>
<path fill="none" stroke="black" d="M406.3,-104.9C412.0,-96.2 418.1,-86.7 423.9,-77.8"/>
<polygon fill="black" stroke="black" points="426.9,-79.5 429.4,-69.2 421.0,-75.7 426.9,-79.5"/>
</g>
<g class="node"><title>8</title>
<polygon fill="none" stroke="black" points="703,-173 575,-173 575,-105 703,-105 703,-173"/>
<text text-anchor="middle" x="639" y="-157.8" font-family="Times,serif" font-size="14.0">flavanoids &lt;= 1.2</text>
<text text-anchor="middle" x="639" y="-142.8" font-family="Times,serif" font-size="14.0">c_gb = &#45;2.3</text>
<text text-anchor="middle" x="639" y="-127.8" font-family="Times,serif" font-size="14.0">instances = 136</text>
<text text-anchor="middle" x="639" y="-112.8" font-family="Times,serif" font-size="14.0">prediction=&#45;0.3</text>
<title>9</title>
<polygon fill="none" stroke="black" points="628,-69 524,-69 524,-16 628,-16 628,-69"/>
<text text-anchor="middle" x="576" y="-53.8" font-family="Times,serif" font-size="14.0">c_gb = &#45;53.2</text>
<text text-anchor="middle" x="576" y="-38.8" font-family="Times,serif" font-size="14.0">instances = 35</text>
<text text-anchor="middle" x="576" y="-23.8" font-family="Times,serif" font-size="14.0">prediction=2.6</text>
</g>
<g class="edge"><title>8&#45;&gt;9</title>
<path fill="none" stroke="black" d="M617.0,-104.9C611.1,-96.2 604.8,-86.7 598.9,-77.8"/>
<polygon fill="black" stroke="black" points="601.6,-75.6 593.2,-69.2 595.8,-79.5 601.6,-75.6"/>
</g>
<g class="node"><title>10</title>
<polygon fill="none" stroke="black" points="754,-69 646,-69 646,-16 754,-16 754,-69"/>
<text text-anchor="middle" x="700" y="-53.8" font-family="Times,serif" font-size="14.0">c_gb = &#45;36.6</text>
<text text-anchor="middle" x="700" y="-38.8" font-family="Times,serif" font-size="14.0">instances = 101</text>
<text text-anchor="middle" x="700" y="-23.8" font-family="Times,serif" font-size="14.0">prediction=&#45;1.3</text>
</g>
<g class="edge"><title>8&#45;&gt;10</title>
<path fill="none" stroke="black" d="M660.3,-104.9C666.0,-96.2 672.1,-86.7 677.9,-77.8"/>
<polygon fill="black" stroke="black" points="680.9,-79.5 683.4,-69.2 675.0,-75.7 680.9,-79.5"/>
</g>
</g>
</svg>
