<?xml version="1.0" encoding="UTF-8" standalone="no"?>
<!DOCTYPE svg PUBLIC "-//W3C//DTD SVG 1.1//EN" "http://www.w3.org/Graphics/SVG/1.1/DTD/svg11.dtd">
<svg width="1530pt" height="940pt" viewBox="0.0 0.0 1530.0 940.0" xmlns="http://www.w3.org/2000/svg" xmlns:xlink="http://www.w3.org/1999/xlink">
<g class="graph" transform="scale(1 1) rotate(0) translate(4 936)">
<title>Tree</title>
<polygon fill="none" stroke="none" points="-4,4 -4,-936 1526,-936 1526,4 -4,4"/>
<g class="cluster"><title>cluster_i0_c0</title>
<polygon fill="none" stroke="black" points="11,-624 11,-924 505,-924 505,-624 11,-624"/>
<text text-anchor="middle" x="258" y="-908.8" font-family="Times,serif" font-size="14.0">Tree 1 for class 1</text>
<title>cluster_i0_c1</title>
<polygon fill="none" stroke="black" points="515,-624 515,-924 1009,-924 1009,-624 515,-624"/>
<text text-anchor="middle" x="762" y="-908.8" font-family="Times,serif" font-size="14.0">Tree 1 for class 2</text>
<title>cluster_i0_c2</title>
<polygon fill="none" stroke="black" points="1018,-624 1018,-924 1512,-924 1512,-624 1018,-624"/>
<text text-anchor="middle" x="1265" y="-908.8" font-family="Times,serif" font-size="14.0">Tree 1 for class 3</text>
<title>cluster_i1_c0</title>
<polygon fill="none" stroke="black" points="8,-316 8,-616 506,-616 506,-316 8,-316"/>
<text text-anchor="middle" x="257" y="-600.8" font-family="Times,serif" font-size="14.0">Tree 2 for class 1</text>
<title>cluster_i1_c1</title>
<polygon fill="none" stroke="black" points="515,-316 515,-616 1009,-616 1009,-316 515,-316"/>
<text text-anchor="middle" x="762" y="-600.8" font-family="Times,serif" font-size="14.0">Tree 2 for class 2</text>
<title>cluster_i1_c2</title>
<polygon fill="none" stroke="black" points="1020,-316 1020,-616 1514,-616 1514,-316 1020,-316"/>
<text text-anchor="middle" x="1267" y="-600.8" font-family="Times,serif" font-size="14.0">Tree 2 for class 3</text>
<title>cluster_i2_c0</title>
<polygon fill="none" stroke="black" points="9,-8 9,-308 507,-308 507,-8 9,-8"/>
<text text-anchor="middle" x="258" y="-292.8" font-family="Times,serif" font-size="14.0">Tree 3 for class 1</text>
<title>cluster_i2_c1</title>
<polygon fill="none" stroke="black" points="516,-8 516,-308 1010,-308 1010,-8 516,-8"/>
<text text-anchor="middle" x="763" y="-292.8" font-family="Times,serif" font-size="14.0">Tree 3 for class 2</text>
<title>cluster_i2_c2</title>
<polygon fill="none" stroke="black" points="1019,-8 1019,-308 1513,-308 1513,-8 1019,-8"/>
<text text-anchor="middle" x="1266" y="-292.8" font-family="Times,serif" font-size="14.0">Tree 3 for class 3</text>
</g>
<g class="node"><title>0</title>
<polygon fill="none" stroke="black" points="320.5,-893 197.5,-893 197.5,-825 320.5,-825 320.5,-893"/>
<text text-anchor="middle" x="259" y="-877.8" font-family="Times,serif" font-size="14.0">proline &lt;= 755.0</text>
<text text-anchor="middle" x="259" y="-862.8" font-family="Times,serif" font-size="14.0">c_gb = &#45;0.0</text>
<text text-anchor="middle" x="259" y="-847.8" font-family="Times,serif" font-size="14.0">instances = 136</text>
<text text-anchor="middle" x="259" y="-832.8" font-family="Times,serif" font-size="14.0">prediction=&#45;0.0</text>
<title>1</title>
<polygon fill="none" stroke="black" points="245,-789 137,-789 137,-721 245,-721 245,-789"/>
<text text-anchor="middle" x="191" y="-773.8" font-family="Times,serif" font-size="14.0">ash &lt;= 2.9</text>
<text text-anchor="middle" x="191" y="-758.8" font-family="Times,serif" font-size="14.0">c_gb = &#45;36.0</text>
<text text-anchor="middle" x="191" y="-743.8" font-family="Times,serif" font-size="14.0">instances = 84</text>
<text text-anchor="middle" x="191" y="-728.8" font-family="Times,serif" font-size="14.0">prediction=&#45;1.4</text>
</g>
<g class="edge"><title>0&#45;&gt;1</title>
<path fill="none" stroke="black" d="M236.9,-824.9C231.2,-816.2 224.9,-806.8 218.9,-797.8"/>
<polygon fill="black" stroke="black" points="221.7,-795.7 213.2,-789.3 215.8,-799.6 221.7,-795.7"/>
</g>
<g class="node"><title>5</title>
<polygon fill="none" stroke="black" points="391,-789 263,-789 263,-721 391,-721 391,-789"/>
<text text-anchor="middle" x="327" y="-773.8" font-family="Times,serif" font-size="14.0">flavanoids &lt;= 2.3</text>
<text text-anchor="middle" x="327" y="-758.8" font-family="Times,serif" font-size="14.0">c_gb = &#45;56.5</text>
<text text-anchor="middle" x="327" y="-743.8" font-family="Times,serif" font-size="14.0">instances = 52</text>
<text text-anchor="middle" x="327" y="-728.8" font-family="Times,serif" font-size="14.0">prediction=2.2</text>
</g>
<g class="edge"><title>0&#45;&gt;5</title>
<path fill="none" stroke="black" d="M281.1,-824.9C286.8,-816.2 293.1,-806.8 299.1,-797.8"/>
<polygon fill="black" stroke="black" points="302.2,-799.6 304.8,-789.3 296.3,-795.7 302.2,-799.6"/>
</g>
<g class="node"><title>2</title>
<polygon fill="none" stroke="black" points="127,-685 19,-685 19,-632 127,-632 127,-685"/>
<text text-anchor="middle" x="73" y="-669.8" font-family="Times,serif" font-size="14.0">c_gb = &#45;38.4</text>
<text text-anchor="middle" x="73" y="-654.8" font-family="Times,serif" font-size="14.0">instances = 83</text>
<text text-anchor="middle" x="73" y="-639.8" font-family="Times,serif" font-size="14.0">prediction=&#45;1.4</text>
</g>
<g class="edge"><title>1&#45;&gt;2</title>
<path fill="none" stroke="black" d="M149.7,-720.9C137.8,-711.4 124.9,-701.1 113.1,-691.6"/>
<polygon fill="black" stroke="black" points="115.1,-688.8 105.1,-685.2 110.8,-694.2 115.1,-688.8"/>
</g>
<g class="node"><title>3</title>
<polygon fill="none" stroke="black" points="249,-685 145,-685 145,-632 249,-632 249,-685"/>
<text text-anchor="middle" x="197" y="-669.8" font-family="Times,serif" font-size="14.0">c_gb = &#45;1.4</text>
<text text-anchor="middle" x="197" y="-654.8" font-family="Times,serif" font-size="14.0">instances = 1</text>
<text text-anchor="middle" x="197" y="-639.8" font-family="Times,serif" font-size="14.0">prediction=2.1</text>
</g>
<g class="edge"><title>1&#45;&gt;3</title>
<path fill="none" stroke="black" d="M193.1,-720.9C193.6,-712.7 194.2,-703.8 194.7,-695.5"/>
<polygon fill="black" stroke="black" points="198.2,-695.4 195.4,-685.2 191.2,-695.0 198.2,-695.4"/>
</g>
<g class="node"><title>30</title>
<polygon fill="none" stroke="black" points="249.5,-585 126.5,-585 126.5,-517 249.5,-517 249.5,-585"/>
<text text-anchor="middle" x="188" y="-569.8" font-family="Times,serif" font-size="14.0">proline &lt;= 755.0</text>
<text text-anchor="middle" x="188" y="-554.8" font-family="Times,serif" font-size="14.0">c_gb = &#45;0.0</text>
<text text-anchor="middle" x="188" y="-539.8" font-family="Times,serif" font-size="14.0">instances = 136</text>
<text text-anchor="middle" x="188" y="-524.8" font-family="Times,serif" font-size="14.0">prediction=&#45;0.0</text>
<title>6</title>
<polygon fill="none" stroke="black" points="375,-685 267,-685 267,-632 375,-632 375,-685"/>
<text text-anchor="middle" x="321" y="-669.8" font-family="Times,serif" font-size="14.0">c_gb = &#45;1.9</text>
<text text-anchor="middle" x="321" y="-654.8" font-family="Times,serif" font-size="14.0">instances = 9</text>
<text text-anchor="middle" x="321" y="-639.8" font-family="Times,serif" font-size="14.0">prediction=&#45;0.9</text>
</g>
<g class="edge"><title>5&#45;&gt;6</title>
<path fill="none" stroke="black" d="M324.9,-720.9C324.4,-712.7 323.8,-703.8 323.3,-695.5"/>
<polygon fill="black" stroke="black" points="326.8,-695.0 322.6,-685.2 319.8,-695.4 326.8,-695.0"/>
</g>
<g class="node"><title>7</title>
<polygon fill="none" stroke="black" points="497,-685 393,-685 393,-632 497,-632 497,-685"/>
<text text-anchor="middle" x="445" y="-669.8" font-family="Times,serif" font-size="14.0">c_gb = &#45;79.3</text>
<text text-anchor="middle" x="445" y="-654.8" font-family="Times,serif" font-size="14.0">instances = 43</text>
<text text-anchor="middle" x="445" y="-639.8" font-family="Times,serif" font-size="14.0">prediction=2.9</text>
</g>
<g class="edge"><title>5&#45;&gt;7</title>
<path fill="none" stroke="black" d="M368.3,-720.9C380.1,-711.4 393.1,-701.1 404.9,-691.6"/>
<polygon fill="black" stroke="black" points="407.2,-694.2 412.9,-685.2 402.9,-688.8 407.2,-694.2"/>
</g>
<g class="node"><title>10</title>
<polygon fill="none" stroke="black" points="836,-893 684,-893 684,-825 836,-825 836,-893"/>
<text text-anchor="middle" x="760" y="-877.8" font-family="Times,serif" font-size="14.0">color_intensity &lt;= 3.8</text>
<text text-anchor="middle" x="760" y="-862.8" font-family="Times,serif" font-size="14.0">c_gb = &#45;2.5</text>
<text text-anchor="middle" x="760" y="-847.8" font-family="Times,serif" font-size="14.0">instances = 136</text>
<text text-anchor="middle" x="760" y="-832.8" font-family="Times,serif" font-size="14.0">prediction=0.3</text>
<title>11</title>
<polygon fill="none" stroke="black" points="742,-789 638,-789 638,-721 742,-721 742,-789"/>
<text text-anchor="middle" x="690" y="-773.8" font-family="Times,serif" font-size="14.0">ash &lt;= 3.0</text>
<text text-anchor="middle" x="690" y="-758.8" font-family="Times,serif" font-size="14.0">c_gb = &#45;85.6</text>
<text text-anchor="middle" x="690" y="-743.8" font-family="Times,serif" font-size="14.0">instances = 49</text>
<text text-anchor="middle" x="690" y="-728.8" font-family="Times,serif" font-size="14.0">prediction=2.8</text>
</g>
<g class="edge"><title>10&#45;&gt;11</title>
<path fill="none" stroke="black" d="M737.3,-824.9C731.3,-816.2 724.9,-806.8 718.7,-797.8"/>
<polygon fill="black" stroke="black" points="721.4,-795.6 712.9,-789.3 715.6,-799.5 721.4,-795.6"/>
</g>
<g class="node"><title>15</title>
<polygon fill="none" stroke="black" points="902,-789 760,-789 760,-721 902,-721 902,-789"/>
<text text-anchor="middle" x="831" y="-773.8" font-family="Times,serif" font-size="14.0">magnesium &lt;= 87.5</text>
<text text-anchor="middle" x="831" y="-758.8" font-family="Times,serif" font-size="14.0">c_gb = &#45;24.9</text>
<text text-anchor="middle" x="831" y="-743.8" font-family="Times,serif" font-size="14.0">instances = 87</text>
<text text-anchor="middle" x="831" y="-728.8" font-family="Times,serif" font-size="14.0">prediction=&#45;1.1</text>
</g>
<g class="edge"><title>10&#45;&gt;15</title>
<path fill="none" stroke="black" d="M783.1,-824.9C789.1,-816.2 795.8,-806.6 802.1,-797.5"/>
<polygon fill="black" stroke="black" points="805.0,-799.5 807.8,-789.3 799.2,-795.5 805.0,-799.5"/>
</g>
<g class="node"><title>12</title>
<polygon fill="none" stroke="black" points="627,-685 523,-685 523,-632 627,-632 627,-685"/>
<text text-anchor="middle" x="575" y="-669.8" font-family="Times,serif" font-size="14.0">c_gb = &#45;89.3</text>
<text text-anchor="middle" x="575" y="-654.8" font-family="Times,serif" font-size="14.0">instances = 48</text>
<text text-anchor="middle" x="575" y="-639.8" font-family="Times,serif" font-size="14.0">prediction=2.9</text>
</g>
<g class="edge"><title>11&#45;&gt;12</title>
<path fill="none" stroke="black" d="M649.8,-720.9C638.2,-711.4 625.6,-701.1 614.1,-691.6"/>
<polygon fill="black" stroke="black" points="616.3,-688.9 606.3,-685.2 611.8,-694.3 616.3,-688.9"/>
</g>
<g class="node"><title>13</title>
<polygon fill="none" stroke="black" points="753,-685 645,-685 645,-632 753,-632 753,-685"/>
<text text-anchor="middle" x="699" y="-669.8" font-family="Times,serif" font-size="14.0">c_gb = &#45;0.3</text>
<text text-anchor="middle" x="699" y="-654.8" font-family="Times,serif" font-size="14.0">instances = 1</text>
<text text-anchor="middle" x="699" y="-639.8" font-family="Times,serif" font-size="14.0">prediction=&#45;1.0</text>
</g>
<g class="edge"><title>11&#45;&gt;13</title>
<path fill="none" stroke="black" d="M693.1,-720.9C693.9,-712.6 694.8,-703.7 695.6,-695.2"/>
<polygon fill="black" stroke="black" points="699.1,-695.5 696.5,-685.2 692.1,-694.9 699.1,-695.5"/>
</g>
<g class="node"><title>40</title>
<polygon fill="none" stroke="black" points="746,-585 628,-585 628,-517 746,-517 746,-585"/>
<text text-anchor="middle" x="687" y="-569.8" font-family="Times,serif" font-size="14.0">alcohol &lt;= 12.7</text>
<text text-anchor="middle" x="687" y="-554.8" font-family="Times,serif" font-size="14.0">c_gb = &#45;0.5</text>
<text text-anchor="middle" x="687" y="-539.8" font-family="Times,serif" font-size="14.0">instances = 136</text>
<text text-anchor="middle" x="687" y="-524.8" font-family="Times,serif" font-size="14.0">prediction=0.2</text>
<title>16</title>
<polygon fill="none" stroke="black" points="875,-685 771,-685 771,-632 875,-632 875,-685"/>
<text text-anchor="middle" x="823" y="-669.8" font-family="Times,serif" font-size="14.0">c_gb = &#45;2.9</text>
<text text-anchor="middle" x="823" y="-654.8" font-family="Times,serif" font-size="14.0">instances = 8</text>
<text text-anchor="middle" x="823" y="-639.8" font-family="Times,serif" font-size="14.0">prediction=1.2</text>
</g>
<g class="edge"><title>15&#45;&gt;16</title>
<path fill="none" stroke="black" d="M828.2,-720.9C827.5,-712.6 826.7,-703.7 826.0,-695.2"/>
<polygon fill="black" stroke="black" points="829.5,-694.9 825.2,-685.2 822.5,-695.5 829.5,-694.9"/>
</g>
<g class="node"><title>17</title>
<polygon fill="none" stroke="black" points="1001,-685 893,-685 893,-632 1001,-632 1001,-685"/>
<text text-anchor="middle" x="947" y="-669.8" font-family="Times,serif" font-size="14.0">c_gb = &#45;33.5</text>
<text text-anchor="middle" x="947" y="-654.8" font-family="Times,serif" font-size="14.0">instances = 79</text>
<text text-anchor="middle" x="947" y="-639.8" font-family="Times,serif" font-size="14.0">prediction=&#45;1.4</text>
</g>
<g class="edge"><title>15&#45;&gt;17</title>
<path fill="none" stroke="black" d="M871.6,-720.9C883.2,-711.4 896.0,-701.1 907.6,-691.6"/>
<polygon fill="black" stroke="black" points="909.9,-694.3 915.4,-685.2 905.4,-688.8 909.9,-694.3"/>
</g>
<g class="node"><title>20</title>
<polygon fill="none" stroke="black" points="1329,-893 1201,-893 1201,-825 1329,-825 1329,-893"/>
<text text-anchor="middle" x="1265" y="-877.8" font-family="Times,serif" font-size="14.0">flavanoids &lt;= 1.2</text>
<text text-anchor="middle" x="1265" y="-862.8" font-family="Times,serif" font-size="14.0">c_gb = &#45;2.3</text>
<text text-anchor="middle" x="1265" y="-847.8" font-family="Times,serif" font-size="14.0">instances = 136</text>
<text text-anchor="middle" x="1265" y="-832.8" font-family="Times,serif" font-size="14.0">prediction=&#45;0.3</text>
<title>21</title>
<polygon fill="none" stroke="black" points="1267,-789 1115,-789 1115,-721 1267,-721 1267,-789"/>
<text text-anchor="middle" x="1191" y="-773.8" font-family="Times,serif" font-size="14.0">color_intensity &lt;= 3.5</text>
<text text-anchor="middle" x="1191" y="-758.8" font-family="Times,serif" font-size="14.0">c_gb = &#45;52.5</text>
<text text-anchor="middle" x="1191" y="-743.8" font-family="Times,serif" font-size="14.0">instances = 35</text>
<text text-anchor="middle" x="1191" y="-728.8" font-family="Times,serif" font-size="14.0">prediction=2.6</text>
</g>
<g class="edge"><title>20&#45;&gt;21</title>
<path fill="none" stroke="black" d="M1241.0,-824.9C1234.6,-816.2 1227.7,-806.6 1221.1,-797.5"/>
<polygon fill="black" stroke="black" points="1223.9,-795.3 1215.2,-789.3 1218.2,-799.4 1223.9,-795.3"/>
</g>
<g class="node"><title>25</title>
<polygon fill="none" stroke="black" points="1393,-789 1285,-789 1285,-721 1393,-721 1393,-789"/>
<text text-anchor="middle" x="1339" y="-773.8" font-family="Times,serif" font-size="14.0">hue &lt;= 0.7</text>
<text text-anchor="middle" x="1339" y="-758.8" font-family="Times,serif" font-size="14.0">c_gb = &#45;36.5</text>
<text text-anchor="middle" x="1339" y="-743.8" font-family="Times,serif" font-size="14.0">instances = 101</text>
<text text-anchor="middle" x="1339" y="-728.8" font-family="Times,serif" font-size="14.0">prediction=&#45;1.3</text>
</g>
<g class="edge"><title>20&#45;&gt;25</title>
<path fill="none" stroke="black" d="M1289.0,-824.9C1295.4,-816.2 1302.3,-806.6 1308.9,-797.5"/>
<polygon fill="black" stroke="black" points="1311.8,-799.4 1314.8,-789.3 1306.1,-795.3 1311.8,-799.4"/>
</g>
<g class="node"><title>22</title>
<polygon fill="none" stroke="black" points="1134,-685 1026,-685 1026,-632 1134,-632 1134,-685"/>
<text text-anchor="middle" x="1080" y="-669.8" font-family="Times,serif" font-size="14.0">c_gb = &#45;1.3</text>
<text text-anchor="middle" x="1080" y="-654.8" font-family="Times,serif" font-size="14.0">instances = 3</text>
<text text-anchor="middle" x="1080" y="-639.8" font-family="Times,serif" font-size="14.0">prediction=&#45;1.3</text>
</g>
<g class="edge"><title>21&#45;&gt;22</title>
<path fill="none" stroke="black" d="M1152.2,-720.9C1141.1,-711.5 1129.1,-701.3 1118.0,-691.9"/>
<polygon fill="black" stroke="black" points="1120.1,-689.1 1110.2,-685.2 1115.6,-694.4 1120.1,-689.1"/>
</g>
<g class="node"><title>23</title>
<polygon fill="none" stroke="black" points="1256,-685 1152,-685 1152,-632 1256,-632 1256,-685"/>
<text text-anchor="middle" x="1204" y="-669.8" font-family="Times,serif" font-size="14.0">c_gb = &#45;63.1</text>
<text text-anchor="middle" x="1204" y="-654.8" font-family="Times,serif" font-size="14.0">instances = 32</text>
<text text-anchor="middle" x="1204" y="-639.8" font-family="Times,serif" font-size="14.0">prediction=3.0</text>
</g>
<g class="edge"><title>21&#45;&gt;23</title>
<path fill="none" stroke="black" d="M1195.5,-720.9C1196.7,-712.6 1197.9,-703.7 1199.1,-695.2"/>
<polygon fill="black" stroke="black" points="1202.6,-695.6 1200.5,-685.2 1195.6,-694.7 1202.6,-695.6"/>
</g>
<g class="node"><title>50</title>
<polygon fill="none" stroke="black" points="1260,-585 1132,-585 1132,-517 1260,-517 1260,-585"/>
<text text-anchor="middle" x="1196" y="-569.8" font-family="Times,serif" font-size="14.0">flavanoids &lt;= 1.4</text>
<text text-anchor="middle" x="1196" y="-554.8" font-family="Times,serif" font-size="14.0">c_gb = &#45;0.5</text>
<text text-anchor="middle" x="1196" y="-539.8" font-family="Times,serif" font-size="14.0">instances = 136</text>
<text text-anchor="middle" x="1196" y="-524.8" font-family="Times,serif" font-size="14.0">prediction=&#45;0.2</text>
<title>26</title>
<polygon fill="none" stroke="black" points="1378,-685 1274,-685 1274,-632 1378,-632 1378,-685"/>
<text text-anchor="middle" x="1326" y="-669.8" font-family="Times,serif" font-size="14.0">c_gb = &#45;9.2</text>
<text text-anchor="middle" x="1326" y="-654.8" font-family="Times,serif" font-size="14.0">instances = 5</text>
<text text-anchor="middle" x="1326" y="-639.8" font-family="Times,serif" font-size="14.0">prediction=2.8</text>
</g>
<g class="edge"><title>25&#45;&gt;26</title>
<path fill="none" stroke="black" d="M1334.5,-720.9C1333.3,-712.6 1332.1,-703.7 1330.9,-695.2"/>
<polygon fill="black" stroke="black" points="1334.4,-694.7 1329.5,-685.2 1327.4,-695.6 1334.4,-694.7"/>
</g>
<g class="node"><title>27</title>
<polygon fill="none" stroke="black" points="1504,-685 1396,-685 1396,-632 1504,-632 1504,-685"/>
<text text-anchor="middle" x="1450" y="-669.8" font-family="Times,serif" font-size="14.0">c_gb = &#45;47.8</text>
<text text-anchor="middle" x="1450" y="-654.8" font-family="Times,serif" font-size="14.0">instances = 96</text>
<text text-anchor="middle" x="1450" y="-639.8" font-family="Times,serif" font-size="14.0">prediction=&#45;1.5</text>
</g>
<g class="edge"><title>25&#45;&gt;27</title>
<path fill="none" stroke="black" d="M1377.8,-720.9C1388.9,-711.5 1400.9,-701.3 1412.0,-691.9"/>
<polygon fill="black" stroke="black" points="1414.4,-694.4 1419.8,-685.2 1409.9,-689.1 1414.4,-694.4"/>
</g>
<g class="node"><title>31</title>
<polygon fill="none" stroke="black" points="250,-481 106,-481 106,-413 250,-413 250,-481"/>
<text text-anchor="middle" x="178" y="-465.8" font-family="Times,serif" font-size="14.0">total_phenols &lt;= 2.6</text>
<text text-anchor="middle" x="178" y="-450.8" font-family="Times,serif" font-size="14.0">c_gb = &#45;7.1</text>
<text text-anchor="middle" x="178" y="-435.8" font-family="Times,serif" font-size="14.0">instances = 84</text>
<text text-anchor="middle" x="178" y="-420.8" font-family="Times,serif" font-size="14.0">prediction=&#45;0.9</text>
</g>
<g class="edge"><title>30&#45;&gt;31</title>
<path fill="none" stroke="black" d="M184.8,-516.9C184.0,-508.8 183.1,-500.0 182.3,-491.5"/>
<polygon fill="black" stroke="black" points="185.7,-490.9 181.3,-481.3 178.8,-491.6 185.7,-490.9"/>
</g>
<g class="node"><title>35</title>
<polygon fill="none" stroke="black" points="386,-481 268,-481 268,-413 386,-413 386,-481"/>
<text text-anchor="middle" x="327" y="-465.8" font-family="Times,serif" font-size="14.0">alcohol &lt;= 13.0</text>
<text text-anchor="middle" x="327" y="-450.8" font-family="Times,serif" font-size="14.0">c_gb = &#45;7.1</text>
<text text-anchor="middle" x="327" y="-435.8" font-family="Times,serif" font-size="14.0">instances = 52</text>
<text text-anchor="middle" x="327" y="-420.8" font-family="Times,serif" font-size="14.0">prediction=0.9</text>
</g>
<g class="edge"><title>30&#45;&gt;35</title>
<path fill="none" stroke="black" d="M233.1,-516.9C246.0,-507.4 260.1,-497.1 273.5,-487.3"/>
<polygon fill="black" stroke="black" points="275.6,-490.0 281.6,-481.3 271.5,-484.4 275.6,-490.0"/>
</g>
<g class="node"><title>32</title>
<polygon fill="none" stroke="black" points="124,-377 16,-377 16,-324 124,-324 124,-377"/>
<text text-anchor="middle" x="70" y="-361.8" font-family="Times,serif" font-size="14.0">c_gb = &#45;8.2</text>
<text text-anchor="middle" x="70" y="-346.8" font-family="Times,serif" font-size="14.0">instances = 72</text>
<text text-anchor="middle" x="70" y="-331.8" font-family="Times,serif" font-size="14.0">prediction=&#45;1.1</text>
</g>
<g class="edge"><title>31&#45;&gt;32</title>
<path fill="none" stroke="black" d="M140.2,-412.9C129.5,-403.5 117.7,-393.3 107.0,-383.9"/>
<polygon fill="black" stroke="black" points="109.2,-381.2 99.4,-377.2 104.6,-386.5 109.2,-381.2"/>
</g>
<g class="node"><title>33</title>
<polygon fill="none" stroke="black" points="250,-377 142,-377 142,-324 250,-324 250,-377"/>
<text text-anchor="middle" x="196" y="-361.8" font-family="Times,serif" font-size="14.0">c_gb = &#45;0.0</text>
<text text-anchor="middle" x="196" y="-346.8" font-family="Times,serif" font-size="14.0">instances = 12</text>
<text text-anchor="middle" x="196" y="-331.8" font-family="Times,serif" font-size="14.0">prediction=&#45;0.1</text>
</g>
<g class="edge"><title>31&#45;&gt;33</title>
<path fill="none" stroke="black" d="M184.3,-412.9C185.9,-404.6 187.6,-395.7 189.2,-387.2"/>
<polygon fill="black" stroke="black" points="192.7,-387.7 191.1,-377.2 185.8,-386.4 192.7,-387.7"/>
</g>
<g class="node"><title>60</title>
<polygon fill="none" stroke="black" points="250.5,-277 127.5,-277 127.5,-209 250.5,-209 250.5,-277"/>
<text text-anchor="middle" x="189" y="-261.8" font-family="Times,serif" font-size="14.0">proline &lt;= 679.0</text>
<text text-anchor="middle" x="189" y="-246.8" font-family="Times,serif" font-size="14.0">c_gb = &#45;0.0</text>
<text text-anchor="middle" x="189" y="-231.8" font-family="Times,serif" font-size="14.0">instances = 136</text>
<text text-anchor="middle" x="189" y="-216.8" font-family="Times,serif" font-size="14.0">prediction=&#45;0.0</text>
<title>36</title>
<polygon fill="none" stroke="black" points="376,-377 268,-377 268,-324 376,-324 376,-377"/>
<text text-anchor="middle" x="322" y="-361.8" font-family="Times,serif" font-size="14.0">c_gb = &#45;0.7</text>
<text text-anchor="middle" x="322" y="-346.8" font-family="Times,serif" font-size="14.0">instances = 7</text>
<text text-anchor="middle" x="322" y="-331.8" font-family="Times,serif" font-size="14.0">prediction=&#45;0.8</text>
</g>
<g class="edge"><title>35&#45;&gt;36</title>
<path fill="none" stroke="black" d="M325.3,-412.9C324.8,-404.7 324.3,-395.8 323.9,-387.5"/>
<polygon fill="black" stroke="black" points="327.4,-387.0 323.4,-377.2 320.4,-387.4 327.4,-387.0"/>
</g>
<g class="node"><title>37</title>
<polygon fill="none" stroke="black" points="498,-377 394,-377 394,-324 498,-324 498,-377"/>
<text text-anchor="middle" x="446" y="-361.8" font-family="Times,serif" font-size="14.0">c_gb = &#45;10.0</text>
<text text-anchor="middle" x="446" y="-346.8" font-family="Times,serif" font-size="14.0">instances = 45</text>
<text text-anchor="middle" x="446" y="-331.8" font-family="Times,serif" font-size="14.0">prediction=1.2</text>
</g>
<g class="edge"><title>35&#45;&gt;37</title>
<path fill="none" stroke="black" d="M368.6,-412.9C380.6,-403.4 393.6,-393.1 405.6,-383.6"/>
<polygon fill="black" stroke="black" points="407.9,-386.2 413.6,-377.2 403.6,-380.7 407.9,-386.2"/>
</g>
<g class="node"><title>41</title>
<polygon fill="none" stroke="black" points="736,-481 608,-481 608,-413 736,-413 736,-481"/>
<text text-anchor="middle" x="672" y="-465.8" font-family="Times,serif" font-size="14.0">flavanoids &lt;= 1.0</text>
<text text-anchor="middle" x="672" y="-450.8" font-family="Times,serif" font-size="14.0">c_gb = &#45;11.0</text>
<text text-anchor="middle" x="672" y="-435.8" font-family="Times,serif" font-size="14.0">instances = 57</text>
<text text-anchor="middle" x="672" y="-420.8" font-family="Times,serif" font-size="14.0">prediction=1.1</text>
</g>
<g class="edge"><title>40&#45;&gt;41</title>
<path fill="none" stroke="black" d="M682.1,-516.9C680.9,-508.8 679.6,-500.0 678.4,-491.5"/>
<polygon fill="black" stroke="black" points="681.8,-490.7 676.9,-481.3 674.9,-491.7 681.8,-490.7"/>
</g>
<g class="node"><title>45</title>
<polygon fill="none" stroke="black" points="906,-481 754,-481 754,-413 906,-413 906,-481"/>
<text text-anchor="middle" x="830" y="-465.8" font-family="Times,serif" font-size="14.0">color_intensity &lt;= 3.5</text>
<text text-anchor="middle" x="830" y="-450.8" font-family="Times,serif" font-size="14.0">c_gb = &#45;5.6</text>
<text text-anchor="middle" x="830" y="-435.8" font-family="Times,serif" font-size="14.0">instances = 79</text>
<text text-anchor="middle" x="830" y="-420.8" font-family="Times,serif" font-size="14.0">prediction=&#45;0.8</text>
</g>
<g class="edge"><title>40&#45;&gt;45</title>
<path fill="none" stroke="black" d="M733.4,-516.9C746.7,-507.4 761.2,-497.1 774.9,-487.3"/>
<polygon fill="black" stroke="black" points="777.2,-490.0 783.3,-481.3 773.1,-484.3 777.2,-490.0"/>
</g>
<g class="node"><title>42</title>
<polygon fill="none" stroke="black" points="631,-377 523,-377 523,-324 631,-324 631,-377"/>
<text text-anchor="middle" x="577" y="-361.8" font-family="Times,serif" font-size="14.0">c_gb = &#45;0.3</text>
<text text-anchor="middle" x="577" y="-346.8" font-family="Times,serif" font-size="14.0">instances = 9</text>
<text text-anchor="middle" x="577" y="-331.8" font-family="Times,serif" font-size="14.0">prediction=&#45;0.6</text>
</g>
<g class="edge"><title>41&#45;&gt;42</title>
<path fill="none" stroke="black" d="M638.8,-412.9C629.5,-403.7 619.4,-393.7 610.1,-384.4"/>
<polygon fill="black" stroke="black" points="612.4,-381.8 602.9,-377.2 607.5,-386.8 612.4,-381.8"/>
</g>
<g class="node"><title>43</title>
<polygon fill="none" stroke="black" points="753,-377 649,-377 649,-324 753,-324 753,-377"/>
<text text-anchor="middle" x="701" y="-361.8" font-family="Times,serif" font-size="14.0">c_gb = &#45;13.6</text>
<text text-anchor="middle" x="701" y="-346.8" font-family="Times,serif" font-size="14.0">instances = 48</text>
<text text-anchor="middle" x="701" y="-331.8" font-family="Times,serif" font-size="14.0">prediction=1.3</text>
</g>
<g class="edge"><title>41&#45;&gt;43</title>
<path fill="none" stroke="black" d="M682.1,-412.9C684.7,-404.5 687.5,-395.5 690.1,-386.9"/>
<polygon fill="black" stroke="black" points="693.5,-387.8 693.1,-377.2 686.8,-385.8 693.5,-387.8"/>
</g>
<g class="node"><title>70</title>
<polygon fill="none" stroke="black" points="749,-277 631,-277 631,-209 749,-209 749,-277"/>
<text text-anchor="middle" x="690" y="-261.8" font-family="Times,serif" font-size="14.0">alcohol &lt;= 12.7</text>
<text text-anchor="middle" x="690" y="-246.8" font-family="Times,serif" font-size="14.0">c_gb = &#45;0.2</text>
<text text-anchor="middle" x="690" y="-231.8" font-family="Times,serif" font-size="14.0">instances = 136</text>
<text text-anchor="middle" x="690" y="-216.8" font-family="Times,serif" font-size="14.0">prediction=0.1</text>
<title>46</title>
<polygon fill="none" stroke="black" points="875,-377 771,-377 771,-324 875,-324 875,-377"/>
<text text-anchor="middle" x="823" y="-361.8" font-family="Times,serif" font-size="14.0">c_gb = &#45;1.5</text>
<text text-anchor="middle" x="823" y="-346.8" font-family="Times,serif" font-size="14.0">instances = 4</text>
<text text-anchor="middle" x="823" y="-331.8" font-family="Times,serif" font-size="14.0">prediction=1.4</text>
</g>
<g class="edge"><title>45&#45;&gt;46</title>
<path fill="none" stroke="black" d="M827.6,-412.9C826.9,-404.7 826.3,-395.8 825.7,-387.5"/>
<polygon fill="black" stroke="black" points="829.1,-387.0 824.9,-377.2 822.2,-387.5 829.1,-387.0"/>
</g>
<g class="node"><title>47</title>
<polygon fill="none" stroke="black" points="1001,-377 893,-377 893,-324 1001,-324 1001,-377"/>
<text text-anchor="middle" x="947" y="-361.8" font-family="Times,serif" font-size="14.0">c_gb = &#45;8.2</text>
<text text-anchor="middle" x="947" y="-346.8" font-family="Times,serif" font-size="14.0">instances = 75</text>
<text text-anchor="middle" x="947" y="-331.8" font-family="Times,serif" font-size="14.0">prediction=&#45;1.0</text>
</g>
<g class="edge"><title>45&#45;&gt;47</title>
<path fill="none" stroke="black" d="M870.9,-412.9C882.7,-403.4 895.5,-393.1 907.2,-383.6"/>
<polygon fill="black" stroke="black" points="909.6,-386.2 915.1,-377.2 905.2,-380.8 909.6,-386.2"/>
</g>
<g class="node"><title>51</title>
<polygon fill="none" stroke="black" points="1261,-481 1109,-481 1109,-413 1261,-413 1261,-481"/>
<text text-anchor="middle" x="1185" y="-465.8" font-family="Times,serif" font-size="14.0">color_intensity &lt;= 3.7</text>
<text text-anchor="middle" x="1185" y="-450.8" font-family="Times,serif" font-size="14.0">c_gb = &#45;6.5</text>
<text text-anchor="middle" x="1185" y="-435.8" font-family="Times,serif" font-size="14.0">instances = 44</text>
<text text-anchor="middle" x="1185" y="-420.8" font-family="Times,serif" font-size="14.0">prediction=1.0</text>
</g>
<g class="edge"><title>50&#45;&gt;51</title>
<path fill="none" stroke="black" d="M1192.4,-516.9C1191.5,-508.8 1190.6,-500.0 1189.7,-491.5"/>
<polygon fill="black" stroke="black" points="1193.1,-490.9 1188.6,-481.3 1186.2,-491.6 1193.1,-490.9"/>
</g>
<g class="node"><title>55</title>
<polygon fill="none" stroke="black" points="1387,-481 1279,-481 1279,-413 1387,-413 1387,-481"/>
<text text-anchor="middle" x="1333" y="-465.8" font-family="Times,serif" font-size="14.0">hue &lt;= 0.6</text>
<text text-anchor="middle" x="1333" y="-450.8" font-family="Times,serif" font-size="14.0">c_gb = &#45;10.2</text>
<text text-anchor="middle" x="1333" y="-435.8" font-family="Times,serif" font-size="14.0">instances = 92</text>
<text text-anchor="middle" x="1333" y="-420.8" font-family="Times,serif" font-size="14.0">prediction=&#45;1.1</text>
</g>
<g class="edge"><title>50&#45;&gt;55</title>
<path fill="none" stroke="black" d="M1240.5,-516.9C1253.2,-507.4 1267.1,-497.1 1280.2,-487.3"/>
<polygon fill="black" stroke="black" points="1282.3,-490.1 1288.3,-481.3 1278.2,-484.5 1282.3,-490.1"/>
</g>
<g class="node"><title>52</title>
<polygon fill="none" stroke="black" points="1136,-377 1028,-377 1028,-324 1136,-324 1136,-377"/>
<text text-anchor="middle" x="1082" y="-361.8" font-family="Times,serif" font-size="14.0">c_gb = &#45;0.7</text>
<text text-anchor="middle" x="1082" y="-346.8" font-family="Times,serif" font-size="14.0">instances = 8</text>
<text text-anchor="middle" x="1082" y="-331.8" font-family="Times,serif" font-size="14.0">prediction=&#45;1.0</text>
</g>
<g class="edge"><title>51&#45;&gt;52</title>
<path fill="none" stroke="black" d="M1149.0,-412.9C1138.8,-403.6 1127.8,-393.5 1117.6,-384.2"/>
<polygon fill="black" stroke="black" points="1119.8,-381.4 1110.0,-377.2 1115.0,-386.6 1119.8,-381.4"/>
</g>
<g class="node"><title>53</title>
<polygon fill="none" stroke="black" points="1258,-377 1154,-377 1154,-324 1258,-324 1258,-377"/>
<text text-anchor="middle" x="1206" y="-361.8" font-family="Times,serif" font-size="14.0">c_gb = &#45;9.1</text>
<text text-anchor="middle" x="1206" y="-346.8" font-family="Times,serif" font-size="14.0">instances = 36</text>
<text text-anchor="middle" x="1206" y="-331.8" font-family="Times,serif" font-size="14.0">prediction=1.2</text>
</g>
<g class="edge"><title>51&#45;&gt;53</title>
<path fill="none" stroke="black" d="M1192.3,-412.9C1194.2,-404.6 1196.2,-395.7 1198.1,-387.2"/>
<polygon fill="black" stroke="black" points="1201.5,-387.8 1200.3,-377.2 1194.7,-386.2 1201.5,-387.8"/>
</g>
<g class="node"><title>80</title>
<polygon fill="none" stroke="black" points="1263,-277 1135,-277 1135,-209 1263,-209 1263,-277"/>
<text text-anchor="middle" x="1199" y="-261.8" font-family="Times,serif" font-size="14.0">flavanoids &lt;= 1.4</text>
<text text-anchor="middle" x="1199" y="-246.8" font-family="Times,serif" font-size="14.0">c_gb = &#45;0.2</text>
<text text-anchor="middle" x="1199" y="-231.8" font-family="Times,serif" font-size="14.0">instances = 136</text>
<text text-anchor="middle" x="1199" y="-216.8" font-family="Times,serif" font-size="14.0">prediction=&#45;0.2</text>
<title>56</title>
<polygon fill="none" stroke="black" points="1380,-377 1276,-377 1276,-324 1380,-324 1380,-377"/>
<text text-anchor="middle" x="1328" y="-361.8" font-family="Times,serif" font-size="14.0">c_gb = &#45;0.1</text>
<text text-anchor="middle" x="1328" y="-346.8" font-family="Times,serif" font-size="14.0">instances = 1</text>
<text text-anchor="middle" x="1328" y="-331.8" font-family="Times,serif" font-size="14.0">prediction=0.8</text>
</g>
<g class="edge"><title>55&#45;&gt;56</title>
<path fill="none" stroke="black" d="M1331.2,-412.9C1330.8,-404.7 1330.3,-395.8 1329.9,-387.5"/>
<polygon fill="black" stroke="black" points="1333.4,-387.0 1329.4,-377.2 1326.4,-387.4 1333.4,-387.0"/>
</g>
<g class="node"><title>57</title>
<polygon fill="none" stroke="black" points="1506,-377 1398,-377 1398,-324 1506,-324 1506,-377"/>
<text text-anchor="middle" x="1452" y="-361.8" font-family="Times,serif" font-size="14.0">c_gb = &#45;10.8</text>
<text text-anchor="middle" x="1452" y="-346.8" font-family="Times,serif" font-size="14.0">instances = 91</text>
<text text-anchor="middle" x="1452" y="-331.8" font-family="Times,serif" font-size="14.0">prediction=&#45;1.1</text>
</g>
<g class="edge"><title>55&#45;&gt;57</title>
<path fill="none" stroke="black" d="M1374.6,-412.9C1386.6,-403.4 1399.7,-393.1 1411.6,-383.6"/>
<polygon fill="black" stroke="black" points="1413.9,-386.2 1419.6,-377.2 1409.6,-380.7 1413.9,-386.2"/>
</g>
<g class="node"><title>61</title>
<polygon fill="none" stroke="black" points="248,-173 104,-173 104,-105 248,-105 248,-173"/>
<text text-anchor="middle" x="176" y="-157.8" font-family="Times,serif" font-size="14.0">total_phenols &lt;= 1.1</text>
<text text-anchor="middle" x="176" y="-142.8" font-family="Times,serif" font-size="14.0">c_gb = &#45;3.2</text>
<text text-anchor="middle" x="176" y="-127.8" font-family="Times,serif" font-size="14.0">instances = 70</text>
<text text-anchor="middle" x="176" y="-112.8" font-family="Times,serif" font-size="14.0">prediction=&#45;1.0</text>
</g>
<g class="edge"><title>60&#45;&gt;61</title>
<path fill="none" stroke="black" d="M184.8,-208.9C183.7,-200.8 182.6,-192.0 181.5,-183.5"/>
<polygon fill="black" stroke="black" points="185.0,-182.8 180.2,-173.3 178.0,-183.7 185.0,-182.8"/>
</g>
<g class="node"><title>65</title>
<polygon fill="none" stroke="black" points="394,-173 266,-173 266,-105 394,-105 394,-173"/>
<text text-anchor="middle" x="330" y="-157.8" font-family="Times,serif" font-size="14.0">flavanoids &lt;= 2.2</text>
<text text-anchor="middle" x="330" y="-142.8" font-family="Times,serif" font-size="14.0">c_gb = &#45;1.9</text>
<text text-anchor="middle" x="330" y="-127.8" font-family="Times,serif" font-size="14.0">instances = 66</text>
<text text-anchor="middle" x="330" y="-112.8" font-family="Times,serif" font-size="14.0">prediction=0.6</text>
</g>
<g class="edge"><title>60&#45;&gt;65</title>
<path fill="none" stroke="black" d="M234.8,-208.9C247.8,-199.4 262.2,-189.1 275.7,-179.3"/>
<polygon fill="black" stroke="black" points="277.9,-182.0 284.0,-173.3 273.8,-176.3 277.9,-182.0"/>
</g>
<g class="node"><title>62</title>
<polygon fill="none" stroke="black" points="125,-69 17,-69 17,-16 125,-16 125,-69"/>
<text text-anchor="middle" x="71" y="-53.8" font-family="Times,serif" font-size="14.0">c_gb = &#45;0.0</text>
<text text-anchor="middle" x="71" y="-38.8" font-family="Times,serif" font-size="14.0">instances = 1</text>
<text text-anchor="middle" x="71" y="-23.8" font-family="Times,serif" font-size="14.0">prediction=&#45;0.2</text>
</g>
<g class="edge"><title>61&#45;&gt;62</title>
<path fill="none" stroke="black" d="M139.3,-104.9C128.9,-95.6 117.6,-85.5 107.3,-76.2"/>
<polygon fill="black" stroke="black" points="109.4,-73.3 99.6,-69.2 104.7,-78.5 109.4,-73.3"/>
</g>
<g class="node"><title>63</title>
<polygon fill="none" stroke="black" points="251,-69 143,-69 143,-16 251,-16 251,-69"/>
<text text-anchor="middle" x="197" y="-53.8" font-family="Times,serif" font-size="14.0">c_gb = &#45;3.2</text>
<text text-anchor="middle" x="197" y="-38.8" font-family="Times,serif" font-size="14.0">instances = 69</text>
<text text-anchor="middle" x="197" y="-23.8" font-family="Times,serif" font-size="14.0">prediction=&#45;1.0</text>
</g>
<g class="edge"><title>61&#45;&gt;63</title>
<path fill="none" stroke="black" d="M183.3,-104.9C185.2,-96.6 187.2,-87.7 189.1,-79.2"/>
<polygon fill="black" stroke="black" points="192.5,-79.8 191.3,-69.2 185.7,-78.2 192.5,-79.8"/>
</g>
<g class="node"><title>66</title>
<polygon fill="none" stroke="black" points="377,-69 269,-69 269,-16 377,-16 377,-69"/>
<text text-anchor="middle" x="323" y="-53.8" font-family="Times,serif" font-size="14.0">c_gb = &#45;0.8</text>
<text text-anchor="middle" x="323" y="-38.8" font-family="Times,serif" font-size="14.0">instances = 17</text>
<text text-anchor="middle" x="323" y="-23.8" font-family="Times,serif" font-size="14.0">prediction=&#45;0.9</text>
</g>
<g class="edge"><title>65&#45;&gt;66</title>
<path fill="none" stroke="black" d="M327.6,-104.9C326.9,-96.7 326.3,-87.8 325.7,-79.5"/>
<polygon fill="black" stroke="black" points="329.1,-79.0 324.9,-69.2 322.2,-79.5 329.1,-79.0"/>
</g>
<g class="node"><title>67</title>
<polygon fill="none" stroke="black" points="499,-69 395,-69 395,-16 499,-16 499,-69"/>
<text text-anchor="middle" x="447" y="-53.8" font-family="Times,serif" font-size="14.0">c_gb = &#45;3.8</text>
<text text-anchor="middle" x="447" y="-38.8" font-family="Times,serif" font-size="14.0">instances = 49</text>
<text text-anchor="middle" x="447" y="-23.8" font-family="Times,serif" font-size="14.0">prediction=1.0</text>
</g>
<g class="edge"><title>65&#45;&gt;67</title>
<path fill="none" stroke="black" d="M370.9,-104.9C382.7,-95.4 395.5,-85.1 407.2,-75.6"/>
<polygon fill="black" stroke="black" points="409.6,-78.2 415.1,-69.2 405.2,-72.8 409.6,-78.2"/>
</g>
<g class="node"><title>71</title>
<polygon fill="none" stroke="black" points="733,-173 605,-173 605,-105 733,-105 733,-173"/>
<text text-anchor="middle" x="669" y="-157.8" font-family="Times,serif" font-size="14.0">flavanoids &lt;= 1.2</text>
<text text-anchor="middle" x="669" y="-142.8" font-family="Times,serif" font-size="14.0">c_gb = &#45;3.4</text>
<text text-anchor="middle" x="669" y="-127.8" font-family="Times,serif" font-size="14.0">instances = 57</text>
<text text-anchor="middle" x="669" y="-112.8" font-family="Times,serif" font-size="14.0">prediction=0.9</text>
</g>
<g class="edge"><title>70&#45;&gt;71</title>
<path fill="none" stroke="black" d="M683.2,-208.9C681.5,-200.7 679.7,-191.8 677.9,-183.2"/>
<polygon fill="black" stroke="black" points="681.3,-182.4 675.9,-173.3 674.4,-183.8 681.3,-182.4"/>
</g>
<g class="node"><title>75</title>
<polygon fill="none" stroke="black" points="922.5,-173 751.5,-173 751.5,-105 922.5,-105 922.5,-173"/>
<text text-anchor="middle" x="837" y="-157.8" font-family="Times,serif" font-size="14.0">alcalinity_of_ash &lt;= 22.2</text>
<text text-anchor="middle" x="837" y="-142.8" font-family="Times,serif" font-size="14.0">c_gb = &#45;1.6</text>
<text text-anchor="middle" x="837" y="-127.8" font-family="Times,serif" font-size="14.0">instances = 79</text>
<text text-anchor="middle" x="837" y="-112.8" font-family="Times,serif" font-size="14.0">prediction=&#45;0.6</text>
</g>
<g class="edge"><title>70&#45;&gt;75</title>
<path fill="none" stroke="black" d="M737.7,-208.9C751.5,-199.3 766.7,-188.8 781.0,-178.9"/>
<polygon fill="black" stroke="black" points="783.0,-181.7 789.3,-173.1 779.0,-175.9 783.0,-181.7"/>
</g>
<g class="node"><title>72</title>
<polygon fill="none" stroke="black" points="632,-69 524,-69 524,-16 632,-16 632,-69"/>
<text text-anchor="middle" x="578" y="-53.8" font-family="Times,serif" font-size="14.0">c_gb = &#45;0.0</text>
<text text-anchor="middle" x="578" y="-38.8" font-family="Times,serif" font-size="14.0">instances = 12</text>
<text text-anchor="middle" x="578" y="-23.8" font-family="Times,serif" font-size="14.0">prediction=&#45;0.2</text>
</g>
<g class="edge"><title>71&#45;&gt;72</title>
<path fill="none" stroke="black" d="M637.2,-104.9C628.4,-95.8 618.8,-85.9 610.0,-76.7"/>
<polygon fill="black" stroke="black" points="612.2,-74.0 602.8,-69.2 607.2,-78.9 612.2,-74.0"/>
</g>
<g class="node"><title>73</title>
<polygon fill="none" stroke="black" points="754,-69 650,-69 650,-16 754,-16 754,-69"/>
<text text-anchor="middle" x="702" y="-53.8" font-family="Times,serif" font-size="14.0">c_gb = &#45;4.4</text>
<text text-anchor="middle" x="702" y="-38.8" font-family="Times,serif" font-size="14.0">instances = 45</text>
<text text-anchor="middle" x="702" y="-23.8" font-family="Times,serif" font-size="14.0">prediction=1.1</text>
</g>
<g class="edge"><title>71&#45;&gt;73</title>
<path fill="none" stroke="black" d="M680.5,-104.9C683.5,-96.5 686.7,-87.5 689.6,-78.9"/>
<polygon fill="black" stroke="black" points="693.0,-79.8 693.0,-69.2 686.4,-77.5 693.0,-79.8"/>
</g>
<g class="node"><title>76</title>
<polygon fill="none" stroke="black" points="880,-69 772,-69 772,-16 880,-16 880,-69"/>
<text text-anchor="middle" x="826" y="-53.8" font-family="Times,serif" font-size="14.0">c_gb = &#45;3.0</text>
<text text-anchor="middle" x="826" y="-38.8" font-family="Times,serif" font-size="14.0">instances = 63</text>
<text text-anchor="middle" x="826" y="-23.8" font-family="Times,serif" font-size="14.0">prediction=&#45;1.0</text>
</g>
<g class="edge"><title>75&#45;&gt;76</title>
<path fill="none" stroke="black" d="M833.2,-104.9C832.2,-96.6 831.1,-87.7 830.2,-79.2"/>
<polygon fill="black" stroke="black" points="833.6,-78.8 829.0,-69.2 826.7,-79.6 833.6,-78.8"/>
</g>
<g class="node"><title>77</title>
<polygon fill="none" stroke="black" points="1002,-69 898,-69 898,-16 1002,-16 1002,-69"/>
<text text-anchor="middle" x="950" y="-53.8" font-family="Times,serif" font-size="14.0">c_gb = &#45;0.1</text>
<text text-anchor="middle" x="950" y="-38.8" font-family="Times,serif" font-size="14.0">instances = 16</text>
<text text-anchor="middle" x="950" y="-23.8" font-family="Times,serif" font-size="14.0">prediction=0.4</text>
</g>
<g class="edge"><title>75&#45;&gt;77</title>
<path fill="none" stroke="black" d="M876.5,-104.9C887.8,-95.5 900.0,-85.3 911.3,-75.9"/>
<polygon fill="black" stroke="black" points="913.8,-78.3 919.2,-69.2 909.3,-73.0 913.8,-78.3"/>
</g>
<g class="node"><title>81</title>
<polygon fill="none" stroke="black" points="1262,-173 1110,-173 1110,-105 1262,-105 1262,-173"/>
<text text-anchor="middle" x="1186" y="-157.8" font-family="Times,serif" font-size="14.0">color_intensity &lt;= 3.7</text>
<text text-anchor="middle" x="1186" y="-142.8" font-family="Times,serif" font-size="14.0">c_gb = &#45;2.4</text>
<text text-anchor="middle" x="1186" y="-127.8" font-family="Times,serif" font-size="14.0">instances = 44</text>
<text text-anchor="middle" x="1186" y="-112.8" font-family="Times,serif" font-size="14.0">prediction=0.9</text>
</g>
<g class="edge"><title>80&#45;&gt;81</title>
<path fill="none" stroke="black" d="M1194.8,-208.9C1193.8,-200.8 1192.6,-192.0 1191.5,-183.5"/>
<polygon fill="black" stroke="black" points="1195.0,-182.8 1190.2,-173.3 1188.0,-183.7 1195.0,-182.8"/>
</g>
<g class="node"><title>85</title>
<polygon fill="none" stroke="black" points="1388,-173 1280,-173 1280,-105 1388,-105 1388,-173"/>
<text text-anchor="middle" x="1334" y="-157.8" font-family="Times,serif" font-size="14.0">hue &lt;= 0.6</text>
<text text-anchor="middle" x="1334" y="-142.8" font-family="Times,serif" font-size="14.0">c_gb = &#45;3.9</text>
<text text-anchor="middle" x="1334" y="-127.8" font-family="Times,serif" font-size="14.0">instances = 92</text>
<text text-anchor="middle" x="1334" y="-112.8" font-family="Times,serif" font-size="14.0">prediction=&#45;1.0</text>
</g>
<g class="edge"><title>80&#45;&gt;85</title>
<path fill="none" stroke="black" d="M1242.8,-208.9C1255.2,-199.5 1268.8,-189.3 1281.6,-179.6"/>
<polygon fill="black" stroke="black" points="1284.1,-182.1 1289.9,-173.3 1279.8,-176.5 1284.1,-182.1"/>
</g>
<g class="node"><title>82</title>
<polygon fill="none" stroke="black" points="1135,-69 1027,-69 1027,-16 1135,-16 1135,-69"/>
<text text-anchor="middle" x="1081" y="-53.8" font-family="Times,serif" font-size="14.0">c_gb = &#45;0.3</text>
<text text-anchor="middle" x="1081" y="-38.8" font-family="Times,serif" font-size="14.0">instances = 8</text>
<text text-anchor="middle" x="1081" y="-23.8" font-family="Times,serif" font-size="14.0">prediction=&#45;0.8</text>
</g>
<g class="edge"><title>81&#45;&gt;82</title>
<path fill="none" stroke="black" d="M1149.3,-104.9C1138.9,-95.6 1127.6,-85.5 1117.3,-76.2"/>
<polygon fill="black" stroke="black" points="1119.4,-73.3 1109.6,-69.2 1114.7,-78.5 1119.4,-73.3"/>
</g>
<g class="node"><title>83</title>
<polygon fill="none" stroke="black" points="1257,-69 1153,-69 1153,-16 1257,-16 1257,-69"/>
<text text-anchor="middle" x="1205" y="-53.8" font-family="Times,serif" font-size="14.0">c_gb = &#45;3.3</text>
<text text-anchor="middle" x="1205" y="-38.8" font-family="Times,serif" font-size="14.0">instances = 36</text>
<text text-anchor="middle" x="1205" y="-23.8" font-family="Times,serif" font-size="14.0">prediction=1.1</text>
</g>
<g class="edge"><title>81&#45;&gt;83</title>
<path fill="none" stroke="black" d="M1192.7,-104.9C1194.3,-96.6 1196.1,-87.7 1197.8,-79.2"/>
<polygon fill="black" stroke="black" points="1201.3,-79.7 1199.8,-69.2 1194.4,-78.4 1201.3,-79.7"/>
</g>
<g class="node"><title>86</title>
<polygon fill="none" stroke="black" points="1379,-69 1275,-69 1275,-16 1379,-16 1379,-69"/>
<text text-anchor="middle" x="1327" y="-53.8" font-family="Times,serif" font-size="14.0">c_gb = &#45;0.0</text>
<text text-anchor="middle" x="1327" y="-38.8" font-family="Times,serif" font-size="14.0">instances = 1</text>
<text text-anchor="middle" x="1327" y="-23.8" font-family="Times,serif" font-size="14.0">prediction=0.5</text>
</g>
<g class="edge"><title>85&#45;&gt;86</title>
<path fill="none" stroke="black" d="M1331.5,-104.9C1330.9,-96.7 1330.3,-87.8 1329.7,-79.5"/>
<polygon fill="black" stroke="black" points="1333.1,-79.0 1328.9,-69.2 1326.2,-79.5 1333.1,-79.0"/>
</g>
<g class="node"><title>87</title>
<polygon fill="none" stroke="black" points="1505,-69 1397,-69 1397,-16 1505,-16 1505,-69"/>
<text text-anchor="middle" x="1451" y="-53.8" font-family="Times,serif" font-size="14.0">c_gb = &#45;4.2</text>
<text text-anchor="middle" x="1451" y="-38.8" font-family="Times,serif" font-size="14.0">instances = 91</text>
<text text-anchor="middle" x="1451" y="-23.8" font-family="Times,serif" font-size="14.0">prediction=&#45;1.1</text>
</g>
<g class="edge"><title>85&#45;&gt;87</title>
<path fill="none" stroke="black" d="M1374.9,-104.9C1386.7,-95.4 1399.5,-85.1 1411.2,-75.6"/>
<polygon fill="black" stroke="black" points="1413.6,-78.2 1419.1,-69.2 1409.2,-72.8 1413.6,-78.2"/>
</g>
</g>
</svg>
