<?xml version="1.0" encoding="UTF-8" standalone="no"?>
<!DOCTYPE svg PUBLIC "-//W3C//DTD SVG 1.1//EN" "http://www.w3.org/Graphics/SVG/1.1/DTD/svg11.dtd">
<svg width="1457pt" height="224pt" viewBox="0.0 0.0 1457.0 224.0" xmlns="http://www.w3.org/2000/svg" xmlns:xlink="http://www.w3.org/1999/xlink">
<g class="graph" transform="scale(1 1) rotate(0) translate(4 220)">
<title>Tree</title>
<polygon fill="none" stroke="none" points="-4,4 -4,-220 1453,-220 1453,4 -4,4"/>
<g class="node"><title>0</title>
<polygon fill="none" stroke="black" points="310,-216 158,-216 158,-163 310,-163 310,-216"/>
<text text-anchor="middle" x="234" y="-200.8" font-family="Times,serif" font-size="14.0">color_intensity &lt;= 3.8</text>
<text text-anchor="middle" x="234" y="-185.8" font-family="Times,serif" font-size="14.0">instances = 136</text>
<text text-anchor="middle" x="234" y="-170.8" font-family="Times,serif" font-size="14.0">counts=[45,54,37]</text>
<title>1</title>
<polygon fill="none" stroke="black" points="219,-127 115,-127 115,-74 219,-74 219,-127"/>
<text text-anchor="middle" x="167" y="-111.8" font-family="Times,serif" font-size="14.0">ash &lt;= 3.0</text>
<text text-anchor="middle" x="167" y="-96.8" font-family="Times,serif" font-size="14.0">instances = 49</text>
<text text-anchor="middle" x="167" y="-81.8" font-family="Times,serif" font-size="14.0">counts=[2,47,0]</text>
</g>
<g class="edge"><title>0&#45;&gt;1</title>
<path fill="none" stroke="black" d="M214.3,-162.9C207.6,-154.3 200.2,-144.5 193.1,-135.4"/>
<polygon fill="black" stroke="black" points="195.7,-133.0 186.8,-127.2 190.2,-137.3 195.7,-133.0"/>
</g>
<g class="node"><title>5</title>
<polygon fill="none" stroke="black" points="365,-127 237,-127 237,-74 365,-74 365,-127"/>
<text text-anchor="middle" x="301" y="-111.8" font-family="Times,serif" font-size="14.0">flavanoids &lt;= 1.6</text>
<text text-anchor="middle" x="301" y="-96.8" font-family="Times,serif" font-size="14.0">instances = 87</text>
<text text-anchor="middle" x="301" y="-81.8" font-family="Times,serif" font-size="14.0">counts=[43,7,37]</text>
</g>
<g class="edge"><title>0&#45;&gt;5</title>
<path fill="none" stroke="black" d="M253.7,-162.9C260.4,-154.3 267.8,-144.5 274.9,-135.4"/>
<polygon fill="black" stroke="black" points="277.8,-137.3 281.2,-127.2 272.3,-133.0 277.8,-137.3"/>
</g>
<g class="node"><title>2</title>
<polygon fill="none" stroke="black" points="104,-38 0,-38 0,-0 104,-0 104,-38"/>
<text text-anchor="middle" x="52" y="-22.8" font-family="Times,serif" font-size="14.0">instances = 48</text>
<text text-anchor="middle" x="52" y="-7.8" font-family="Times,serif" font-size="14.0">counts=[1,47,0]</text>
</g>
<g class="edge"><title>1&#45;&gt;2</title>
<path fill="none" stroke="black" d="M130.0,-73.9C116.2,-64.4 100.6,-53.6 87.0,-44.2"/>
<polygon fill="black" stroke="black" points="88.6,-41.0 78.4,-38.2 84.6,-46.8 88.6,-41.0"/>
</g>
<g class="node"><title>3</title>
<polygon fill="none" stroke="black" points="219.5,-38 122.5,-38 122.5,-0 219.5,-0 219.5,-38"/>
<text text-anchor="middle" x="171" y="-22.8" font-family="Times,serif" font-size="14.0">instances = 1</text>
<text text-anchor="middle" x="171" y="-7.8" font-family="Times,serif" font-size="14.0">counts=[1,0,0]</text>
</g>
<g class="edge"><title>1&#45;&gt;3</title>
<path fill="none" stroke="black" d="M168.3,-73.9C168.7,-65.7 169.2,-56.6 169.6,-48.3"/>
<polygon fill="black" stroke="black" points="173.1,-48.4 170.1,-38.2 166.1,-48.1 173.1,-48.4"/>
</g>
<g class="node"><title>6</title>
<polygon fill="none" stroke="black" points="349,-38 245,-38 245,-0 349,-0 349,-38"/>
<text text-anchor="middle" x="297" y="-22.8" font-family="Times,serif" font-size="14.0">instances = 38</text>
<text text-anchor="middle" x="297" y="-7.8" font-family="Times,serif" font-size="14.0">counts=[0,1,37]</text>
</g>
<g class="edge"><title>5&#45;&gt;6</title>
<path fill="none" stroke="black" d="M299.7,-73.9C299.3,-65.7 298.8,-56.6 298.4,-48.3"/>
<polygon fill="black" stroke="black" points="301.9,-48.1 297.9,-38.2 294.9,-48.4 301.9,-48.1"/>
</g>
<g class="node"><title>7</title>
<polygon fill="none" stroke="black" points="471,-38 367,-38 367,-0 471,-0 471,-38"/>
<text text-anchor="middle" x="419" y="-22.8" font-family="Times,serif" font-size="14.0">instances = 49</text>
<text text-anchor="middle" x="419" y="-7.8" font-family="Times,serif" font-size="14.0">counts=[43,6,0]</text>
</g>
<g class="edge"><title>5&#45;&gt;7</title>
<path fill="none" stroke="black" d="M339.0,-73.9C353.3,-64.3 369.4,-53.4 383.5,-43.9"/>
<polygon fill="black" stroke="black" points="385.6,-46.7 391.9,-38.2 381.7,-40.9 385.6,-46.7"/>
</g>
<g class="node"><title>10</title>
<polygon fill="none" stroke="black" points="799,-216 647,-216 647,-163 799,-163 799,-216"/>
<text text-anchor="middle" x="723" y="-200.8" font-family="Times,serif" font-size="14.0">color_intensity &lt;= 3.8</text>
<text text-anchor="middle" x="723" y="-185.8" font-family="Times,serif" font-size="14.0">instances = 136</text>
<text text-anchor="middle" x="723" y="-170.8" font-family="Times,serif" font-size="14.0">counts=[45,54,37]</text>
<title>11</title>
<polygon fill="none" stroke="black" points="708,-127 604,-127 604,-74 708,-74 708,-127"/>
<text text-anchor="middle" x="656" y="-111.8" font-family="Times,serif" font-size="14.0">ash &lt;= 3.0</text>
<text text-anchor="middle" x="656" y="-96.8" font-family="Times,serif" font-size="14.0">instances = 49</text>
<text text-anchor="middle" x="656" y="-81.8" font-family="Times,serif" font-size="14.0">counts=[2,47,0]</text>
</g>
<g class="edge"><title>10&#45;&gt;11</title>
<path fill="none" stroke="black" d="M703.3,-162.9C696.6,-154.3 689.2,-144.5 682.1,-135.4"/>
<polygon fill="black" stroke="black" points="684.7,-133.0 675.8,-127.2 679.2,-137.3 684.7,-133.0"/>
</g>
<g class="node"><title>15</title>
<polygon fill="none" stroke="black" points="854,-127 726,-127 726,-74 854,-74 854,-127"/>
<text text-anchor="middle" x="790" y="-111.8" font-family="Times,serif" font-size="14.0">flavanoids &lt;= 1.6</text>
<text text-anchor="middle" x="790" y="-96.8" font-family="Times,serif" font-size="14.0">instances = 87</text>
<text text-anchor="middle" x="790" y="-81.8" font-family="Times,serif" font-size="14.0">counts=[43,7,37]</text>
</g>
<g class="edge"><title>10&#45;&gt;15</title>
<path fill="none" stroke="black" d="M742.7,-162.9C749.4,-154.3 756.8,-144.5 763.9,-135.4"/>
<polygon fill="black" stroke="black" points="766.8,-137.3 770.2,-127.2 761.3,-133.0 766.8,-137.3"/>
</g>
<g class="node"><title>12</title>
<polygon fill="none" stroke="black" points="593,-38 489,-38 489,-0 593,-0 593,-38"/>
<text text-anchor="middle" x="541" y="-22.8" font-family="Times,serif" font-size="14.0">instances = 48</text>
<text text-anchor="middle" x="541" y="-7.8" font-family="Times,serif" font-size="14.0">counts=[1,47,0]</text>
</g>
<g class="edge"><title>11&#45;&gt;12</title>
<path fill="none" stroke="black" d="M619.0,-73.9C605.2,-64.4 589.6,-53.6 576.0,-44.2"/>
<polygon fill="black" stroke="black" points="577.6,-41.0 567.4,-38.2 573.6,-46.8 577.6,-41.0"/>
</g>
<g class="node"><title>13</title>
<polygon fill="none" stroke="black" points="708.5,-38 611.5,-38 611.5,-0 708.5,-0 708.5,-38"/>
<text text-anchor="middle" x="660" y="-22.8" font-family="Times,serif" font-size="14.0">instances = 1</text>
<text text-anchor="middle" x="660" y="-7.8" font-family="Times,serif" font-size="14.0">counts=[1,0,0]</text>
</g>
<g class="edge"><title>11&#45;&gt;13</title>
<path fill="none" stroke="black" d="M657.3,-73.9C657.7,-65.7 658.2,-56.6 658.6,-48.3"/>
<polygon fill="black" stroke="black" points="662.1,-48.4 659.1,-38.2 655.1,-48.1 662.1,-48.4"/>
</g>
<g class="node"><title>16</title>
<polygon fill="none" stroke="black" points="838,-38 734,-38 734,-0 838,-0 838,-38"/>
<text text-anchor="middle" x="786" y="-22.8" font-family="Times,serif" font-size="14.0">instances = 38</text>
<text text-anchor="middle" x="786" y="-7.8" font-family="Times,serif" font-size="14.0">counts=[0,1,37]</text>
</g>
<g class="edge"><title>15&#45;&gt;16</title>
<path fill="none" stroke="black" d="M788.7,-73.9C788.3,-65.7 787.8,-56.6 787.4,-48.3"/>
<polygon fill="black" stroke="black" points="790.9,-48.1 786.9,-38.2 783.9,-48.4 790.9,-48.1"/>
</g>
<g class="node"><title>17</title>
<polygon fill="none" stroke="black" points="960,-38 856,-38 856,-0 960,-0 960,-38"/>
<text text-anchor="middle" x="908" y="-22.8" font-family="Times,serif" font-size="14.0">instances = 49</text>
<text text-anchor="middle" x="908" y="-7.8" font-family="Times,serif" font-size="14.0">counts=[43,6,0]</text>
</g>
<g class="edge"><title>15&#45;&gt;17</title>
<path fill="none" stroke="black" d="M828.0,-73.9C842.3,-64.3 858.4,-53.4 872.5,-43.9"/>
<polygon fill="black" stroke="black" points="874.6,-46.7 880.9,-38.2 870.7,-40.9 874.6,-46.7"/>
</g>
<g class="node"><title>20</title>
<polygon fill="none" stroke="black" points="1288,-216 1136,-216 1136,-163 1288,-163 1288,-216"/>
<text text-anchor="middle" x="1212" y="-200.8" font-family="Times,serif" font-size="14.0">color_intensity &lt;= 3.8</text>
<text text-anchor="middle" x="1212" y="-185.8" font-family="Times,serif" font-size="14.0">instances = 136</text>
<text text-anchor="middle" x="1212" y="-170.8" font-family="Times,serif" font-size="14.0">counts=[45,54,37]</text>
<title>21</title>
<polygon fill="none" stroke="black" points="1197,-127 1093,-127 1093,-74 1197,-74 1197,-127"/>
<text text-anchor="middle" x="1145" y="-111.8" font-family="Times,serif" font-size="14.0">ash &lt;= 3.0</text>
<text text-anchor="middle" x="1145" y="-96.8" font-family="Times,serif" font-size="14.0">instances = 49</text>
<text text-anchor="middle" x="1145" y="-81.8" font-family="Times,serif" font-size="14.0">counts=[2,47,0]</text>
</g>
<g class="edge"><title>20&#45;&gt;21</title>
<path fill="none" stroke="black" d="M1192.3,-162.9C1185.6,-154.3 1178.2,-144.5 1171.1,-135.4"/>
<polygon fill="black" stroke="black" points="1173.7,-133.0 1164.8,-127.2 1168.2,-137.3 1173.7,-133.0"/>
</g>
<g class="node"><title>25</title>
<polygon fill="none" stroke="black" points="1343,-127 1215,-127 1215,-74 1343,-74 1343,-127"/>
<text text-anchor="middle" x="1279" y="-111.8" font-family="Times,serif" font-size="14.0">flavanoids &lt;= 1.6</text>
<text text-anchor="middle" x="1279" y="-96.8" font-family="Times,serif" font-size="14.0">instances = 87</text>
<text text-anchor="middle" x="1279" y="-81.8" font-family="Times,serif" font-size="14.0">counts=[43,7,37]</text>
</g>
<g class="edge"><title>20&#45;&gt;25</title>
<path fill="none" stroke="black" d="M1231.7,-162.9C1238.4,-154.3 1245.8,-144.5 1252.9,-135.4"/>
<polygon fill="black" stroke="black" points="1255.8,-137.3 1259.2,-127.2 1250.3,-133.0 1255.8,-137.3"/>
</g>
<g class="node"><title>22</title>
<polygon fill="none" stroke="black" points="1082,-38 978,-38 978,-0 1082,-0 1082,-38"/>
<text text-anchor="middle" x="1030" y="-22.8" font-family="Times,serif" font-size="14.0">instances = 48</text>
<text text-anchor="middle" x="1030" y="-7.8" font-family="Times,serif" font-size="14.0">counts=[1,47,0]</text>
</g>
<g class="edge"><title>21&#45;&gt;22</title>
<path fill="none" stroke="black" d="M1108.0,-73.9C1094.2,-64.4 1078.6,-53.6 1065.0,-44.2"/>
<polygon fill="black" stroke="black" points="1066.6,-41.0 1056.4,-38.2 1062.6,-46.8 1066.6,-41.0"/>
</g>
<g class="node"><title>23</title>
<polygon fill="none" stroke="black" points="1197.5,-38 1100.5,-38 1100.5,-0 1197.5,-0 1197.5,-38"/>
<text text-anchor="middle" x="1149" y="-22.8" font-family="Times,serif" font-size="14.0">instances = 1</text>
<text text-anchor="middle" x="1149" y="-7.8" font-family="Times,serif" font-size="14.0">counts=[1,0,0]</text>
</g>
<g class="edge"><title>21&#45;&gt;23</title>
<path fill="none" stroke="black" d="M1146.3,-73.9C1146.7,-65.7 1147.2,-56.6 1147.6,-48.3"/>
<polygon fill="black" stroke="black" points="1151.1,-48.4 1148.1,-38.2 1144.1,-48.1 1151.1,-48.4"/>
</g>
<g class="node"><title>26</title>
<polygon fill="none" stroke="black" points="1327,-38 1223,-38 1223,-0 1327,-0 1327,-38"/>
<text text-anchor="middle" x="1275" y="-22.8" font-family="Times,serif" font-size="14.0">instances = 38</text>
<text text-anchor="middle" x="1275" y="-7.8" font-family="Times,serif" font-size="14.0">counts=[0,1,37]</text>
</g>
<g class="edge"><title>25&#45;&gt;26</title>
<path fill="none" stroke="black" d="M1277.7,-73.9C1277.3,-65.7 1276.8,-56.6 1276.4,-48.3"/>
<polygon fill="black" stroke="black" points="1279.9,-48.1 1275.9,-38.2 1272.9,-48.4 1279.9,-48.1"/>
</g>
<g class="node"><title>27</title>
<polygon fill="none" stroke="black" points="1449,-38 1345,-38 1345,-0 1449,-0 1449,-38"/>
<text text-anchor="middle" x="1397" y="-22.8" font-family="Times,serif" font-size="14.0">instances = 49</text>
<text text-anchor="middle" x="1397" y="-7.8" font-family="Times,serif" font-size="14.0">counts=[43,6,0]</text>
</g>
<g class="edge"><title>25&#45;&gt;27</title>
<path fill="none" stroke="black" d="M1317.0,-73.9C1331.3,-64.3 1347.4,-53.4 1361.5,-43.9"/>
<polygon fill="black" stroke="black" points="1363.6,-46.7 1369.9,-38.2 1359.7,-40.9 1363.6,-46.7"/>
</g>
</g>
</svg>
