<?xml version="1.0" encoding="UTF-8" standalone="no"?>
<!DOCTYPE svg PUBLIC "-//W3C//DTD SVG 1.1//EN" "http://www.w3.org/Graphics/SVG/1.1/DTD/svg11.dtd">
<svg width="1457pt" height="269pt" viewBox="0.0 0.0 1457.0 269.0" xmlns="http://www.w3.org/2000/svg" xmlns:xlink="http://www.w3.org/1999/xlink">
<g class="graph" transform="scale(1 1) rotate(0) translate(4 265)">
<title>Tree</title>
<polygon fill="none" stroke="none" points="-4,4 -4,-265 1453,-265 1453,4 -4,4"/>
<g class="node"><title>0</title>
<polygon fill="none" stroke="black" points="310,-261 158,-261 158,-193 310,-193 310,-261"/>
<text text-anchor="middle" x="234" y="-245.8" font-family="Times,serif" font-size="14.0">color_intensity &lt;= 3.8</text>
<text text-anchor="middle" x="234" y="-230.8" font-family="Times,serif" font-size="14.0">c_gini = 89.6</text>
<text text-anchor="middle" x="234" y="-215.8" font-family="Times,serif" font-size="14.0">instances = 136</text>
<text text-anchor="middle" x="234" y="-200.8" font-family="Times,serif" font-size="14.0">counts=[45,54,37]</text>
<title>1</title>
<polygon fill="none" stroke="black" points="219,-157 115,-157 115,-89 219,-89 219,-157"/>
<text text-anchor="middle" x="167" y="-141.8" font-family="Times,serif" font-size="14.0">ash &lt;= 3.0</text>
<text text-anchor="middle" x="167" y="-126.8" font-family="Times,serif" font-size="14.0">c_gini = 3.8</text>
<text text-anchor="middle" x="167" y="-111.8" font-family="Times,serif" font-size="14.0">instances = 49</text>
<text text-anchor="middle" x="167" y="-96.8" font-family="Times,serif" font-size="14.0">counts=[2,47,0]</text>
</g>
<g class="edge"><title>0&#45;&gt;1</title>
<path fill="none" stroke="black" d="M212.2,-192.9C206.6,-184.2 200.4,-174.8 194.5,-165.8"/>
<polygon fill="black" stroke="black" points="197.3,-163.7 188.9,-157.3 191.4,-167.6 197.3,-163.7"/>
</g>
<g class="node"><title>5</title>
<polygon fill="none" stroke="black" points="365,-157 237,-157 237,-89 365,-89 365,-157"/>
<text text-anchor="middle" x="301" y="-141.8" font-family="Times,serif" font-size="14.0">flavanoids &lt;= 1.6</text>
<text text-anchor="middle" x="301" y="-126.8" font-family="Times,serif" font-size="14.0">c_gini = 49.5</text>
<text text-anchor="middle" x="301" y="-111.8" font-family="Times,serif" font-size="14.0">instances = 87</text>
<text text-anchor="middle" x="301" y="-96.8" font-family="Times,serif" font-size="14.0">counts=[43,7,37]</text>
</g>
<g class="edge"><title>0&#45;&gt;5</title>
<path fill="none" stroke="black" d="M255.8,-192.9C261.4,-184.2 267.6,-174.8 273.5,-165.8"/>
<polygon fill="black" stroke="black" points="276.6,-167.6 279.1,-157.3 270.7,-163.7 276.6,-167.6"/>
</g>
<g class="node"><title>2</title>
<polygon fill="none" stroke="black" points="104,-53 0,-53 0,-0 104,-0 104,-53"/>
<text text-anchor="middle" x="52" y="-37.8" font-family="Times,serif" font-size="14.0">c_gini = 2.0</text>
<text text-anchor="middle" x="52" y="-22.8" font-family="Times,serif" font-size="14.0">instances = 48</text>
<text text-anchor="middle" x="52" y="-7.8" font-family="Times,serif" font-size="14.0">counts=[1,47,0]</text>
</g>
<g class="edge"><title>1&#45;&gt;2</title>
<path fill="none" stroke="black" d="M126.8,-88.9C115.2,-79.4 102.6,-69.1 91.1,-59.6"/>
<polygon fill="black" stroke="black" points="93.3,-56.9 83.3,-53.2 88.8,-62.3 93.3,-56.9"/>
</g>
<g class="node"><title>3</title>
<polygon fill="none" stroke="black" points="219.5,-53 122.5,-53 122.5,-0 219.5,-0 219.5,-53"/>
<text text-anchor="middle" x="171" y="-37.8" font-family="Times,serif" font-size="14.0">c_gini = 0.0</text>
<text text-anchor="middle" x="171" y="-22.8" font-family="Times,serif" font-size="14.0">instances = 1</text>
<text text-anchor="middle" x="171" y="-7.8" font-family="Times,serif" font-size="14.0">counts=[1,0,0]</text>
</g>
<g class="edge"><title>1&#45;&gt;3</title>
<path fill="none" stroke="black" d="M168.4,-88.9C168.7,-80.7 169.1,-71.8 169.5,-63.5"/>
<polygon fill="black" stroke="black" points="173.0,-63.4 169.9,-53.2 166.0,-63.1 173.0,-63.4"/>
</g>
<g class="node"><title>6</title>
<polygon fill="none" stroke="black" points="349,-53 245,-53 245,-0 349,-0 349,-53"/>
<text text-anchor="middle" x="297" y="-37.8" font-family="Times,serif" font-size="14.0">c_gini = 1.9</text>
<text text-anchor="middle" x="297" y="-22.8" font-family="Times,serif" font-size="14.0">instances = 38</text>
<text text-anchor="middle" x="297" y="-7.8" font-family="Times,serif" font-size="14.0">counts=[0,1,37]</text>
</g>
<g class="edge"><title>5&#45;&gt;6</title>
<path fill="none" stroke="black" d="M299.6,-88.9C299.3,-80.7 298.9,-71.8 298.5,-63.5"/>
<polygon fill="black" stroke="black" points="302.0,-63.1 298.1,-53.2 295.0,-63.4 302.0,-63.1"/>
</g>
<g class="node"><title>7</title>
<polygon fill="none" stroke="black" points="471,-53 367,-53 367,-0 471,-0 471,-53"/>
<text text-anchor="middle" x="419" y="-37.8" font-family="Times,serif" font-size="14.0">c_gini = 10.5</text>
<text text-anchor="middle" x="419" y="-22.8" font-family="Times,serif" font-size="14.0">instances = 49</text>
<text text-anchor="middle" x="419" y="-7.8" font-family="Times,serif" font-size="14.0">counts=[43,6,0]</text>
</g>
<g class="edge"><title>5&#45;&gt;7</title>
<path fill="none" stroke="black" d="M342.3,-88.9C354.1,-79.4 367.1,-69.1 378.9,-59.6"/>
<polygon fill="black" stroke="black" points="381.2,-62.2 386.9,-53.2 376.9,-56.8 381.2,-62.2"/>
</g>
<g class="node"><title>10</title>
<polygon fill="none" stroke="black" points="799,-261 647,-261 647,-193 799,-193 799,-261"/>
<text text-anchor="middle" x="723" y="-245.8" font-family="Times,serif" font-size="14.0">color_intensity &lt;= 3.8</text>
<text text-anchor="middle" x="723" y="-230.8" font-family="Times,serif" font-size="14.0">c_gini = 89.6</text>
<text text-anchor="middle" x="723" y="-215.8" font-family="Times,serif" font-size="14.0">instances = 136</text>
<text text-anchor="middle" x="723" y="-200.8" font-family="Times,serif" font-size="14.0">counts=[45,54,37]</text>
<title>11</title>
<polygon fill="none" stroke="black" points="708,-157 604,-157 604,-89 708,-89 708,-157"/>
<text text-anchor="middle" x="656" y="-141.8" font-family="Times,serif" font-size="14.0">ash &lt;= 3.0</text>
<text text-anchor="middle" x="656" y="-126.8" font-family="Times,serif" font-size="14.0">c_gini = 3.8</text>
<text text-anchor="middle" x="656" y="-111.8" font-family="Times,serif" font-size="14.0">instances = 49</text>
<text text-anchor="middle" x="656" y="-96.8" font-family="Times,serif" font-size="14.0">counts=[2,47,0]</text>
</g>
<g class="edge"><title>10&#45;&gt;11</title>
<path fill="none" stroke="black" d="M701.2,-192.9C695.6,-184.2 689.4,-174.8 683.5,-165.8"/>
<polygon fill="black" stroke="black" points="686.3,-163.7 677.9,-157.3 680.4,-167.6 686.3,-163.7"/>
</g>
<g class="node"><title>15</title>
<polygon fill="none" stroke="black" points="854,-157 726,-157 726,-89 854,-89 854,-157"/>
<text text-anchor="middle" x="790" y="-141.8" font-family="Times,serif" font-size="14.0">flavanoids &lt;= 1.6</text>
<text text-anchor="middle" x="790" y="-126.8" font-family="Times,serif" font-size="14.0">c_gini = 49.5</text>
<text text-anchor="middle" x="790" y="-111.8" font-family="Times,serif" font-size="14.0">instances = 87</text>
<text text-anchor="middle" x="790" y="-96.8" font-family="Times,serif" font-size="14.0">counts=[43,7,37]</text>
</g>
<g class="edge"><title>10&#45;&gt;15</title>
<path fill="none" stroke="black" d="M744.8,-192.9C750.4,-184.2 756.6,-174.8 762.5,-165.8"/>
<polygon fill="black" stroke="black" points="765.6,-167.6 768.1,-157.3 759.7,-163.7 765.6,-167.6"/>
</g>
<g class="node"><title>12</title>
<polygon fill="none" stroke="black" points="593,-53 489,-53 489,-0 593,-0 593,-53"/>
<text text-anchor="middle" x="541" y="-37.8" font-family="Times,serif" font-size="14.0">c_gini = 2.0</text>
<text text-anchor="middle" x="541" y="-22.8" font-family="Times,serif" font-size="14.0">instances = 48</text>
<text text-anchor="middle" x="541" y="-7.8" font-family="Times,serif" font-size="14.0">counts=[1,47,0]</text>
</g>
<g class="edge"><title>11&#45;&gt;12</title>
<path fill="none" stroke="black" d="M615.8,-88.9C604.2,-79.4 591.6,-69.1 580.1,-59.6"/>
<polygon fill="black" stroke="black" points="582.3,-56.9 572.3,-53.2 577.8,-62.3 582.3,-56.9"/>
</g>
<g class="node"><title>13</title>
<polygon fill="none" stroke="black" points="708.5,-53 611.5,-53 611.5,-0 708.5,-0 708.5,-53"/>
<text text-anchor="middle" x="660" y="-37.8" font-family="Times,serif" font-size="14.0">c_gini = 0.0</text>
<text text-anchor="middle" x="660" y="-22.8" font-family="Times,serif" font-size="14.0">instances = 1</text>
<text text-anchor="middle" x="660" y="-7.8" font-family="Times,serif" font-size="14.0">counts=[1,0,0]</text>
</g>
<g class="edge"><title>11&#45;&gt;13</title>
<path fill="none" stroke="black" d="M657.4,-88.9C657.7,-80.7 658.1,-71.8 658.5,-63.5"/>
<polygon fill="black" stroke="black" points="662.0,-63.4 658.9,-53.2 655.0,-63.1 662.0,-63.4"/>
</g>
<g class="node"><title>16</title>
<polygon fill="none" stroke="black" points="838,-53 734,-53 734,-0 838,-0 838,-53"/>
<text text-anchor="middle" x="786" y="-37.8" font-family="Times,serif" font-size="14.0">c_gini = 1.9</text>
<text text-anchor="middle" x="786" y="-22.8" font-family="Times,serif" font-size="14.0">instances = 38</text>
<text text-anchor="middle" x="786" y="-7.8" font-family="Times,serif" font-size="14.0">counts=[0,1,37]</text>
</g>
<g class="edge"><title>15&#45;&gt;16</title>
<path fill="none" stroke="black" d="M788.6,-88.9C788.3,-80.7 787.9,-71.8 787.5,-63.5"/>
<polygon fill="black" stroke="black" points="791.0,-63.1 787.1,-53.2 784.0,-63.4 791.0,-63.1"/>
</g>
<g class="node"><title>17</title>
<polygon fill="none" stroke="black" points="960,-53 856,-53 856,-0 960,-0 960,-53"/>
<text text-anchor="middle" x="908" y="-37.8" font-family="Times,serif" font-size="14.0">c_gini = 10.5</text>
<text text-anchor="middle" x="908" y="-22.8" font-family="Times,serif" font-size="14.0">instances = 49</text>
<text text-anchor="middle" x="908" y="-7.8" font-family="Times,serif" font-size="14.0">counts=[43,6,0]</text>
</g>
<g class="edge"><title>15&#45;&gt;17</title>
<path fill="none" stroke="black" d="M831.3,-88.9C843.1,-79.4 856.1,-69.1 867.9,-59.6"/>
<polygon fill="black" stroke="black" points="870.2,-62.2 875.9,-53.2 865.9,-56.8 870.2,-62.2"/>
</g>
<g class="node"><title>20</title>
<polygon fill="none" stroke="black" points="1288,-261 1136,-261 1136,-193 1288,-193 1288,-261"/>
<text text-anchor="middle" x="1212" y="-245.8" font-family="Times,serif" font-size="14.0">color_intensity &lt;= 3.8</text>
<text text-anchor="middle" x="1212" y="-230.8" font-family="Times,serif" font-size="14.0">c_gini = 89.6</text>
<text text-anchor="middle" x="1212" y="-215.8" font-family="Times,serif" font-size="14.0">instances = 136</text>
<text text-anchor="middle" x="1212" y="-200.8" font-family="Times,serif" font-size="14.0">counts=[45,54,37]</text>
<title>21</title>
<polygon fill="none" stroke="black" points="1197,-157 1093,-157 1093,-89 1197,-89 1197,-157"/>
<text text-anchor="middle" x="1145" y="-141.8" font-family="Times,serif" font-size="14.0">ash &lt;= 3.0</text>
<text text-anchor="middle" x="1145" y="-126.8" font-family="Times,serif" font-size="14.0">c_gini = 3.8</text>
<text text-anchor="middle" x="1145" y="-111.8" font-family="Times,serif" font-size="14.0">instances = 49</text>
<text text-anchor="middle" x="1145" y="-96.8" font-family="Times,serif" font-size="14.0">counts=[2,47,0]</text>
</g>
<g class="edge"><title>20&#45;&gt;21</title>
<path fill="none" stroke="black" d="M1190.2,-192.9C1184.6,-184.2 1178.4,-174.8 1172.5,-165.8"/>
<polygon fill="black" stroke="black" points="1175.3,-163.7 1166.9,-157.3 1169.4,-167.6 1175.3,-163.7"/>
</g>
<g class="node"><title>25</title>
<polygon fill="none" stroke="black" points="1343,-157 1215,-157 1215,-89 1343,-89 1343,-157"/>
<text text-anchor="middle" x="1279" y="-141.8" font-family="Times,serif" font-size="14.0">flavanoids &lt;= 1.6</text>
<text text-anchor="middle" x="1279" y="-126.8" font-family="Times,serif" font-size="14.0">c_gini = 49.5</text>
<text text-anchor="middle" x="1279" y="-111.8" font-family="Times,serif" font-size="14.0">instances = 87</text>
<text text-anchor="middle" x="1279" y="-96.8" font-family="Times,serif" font-size="14.0">counts=[43,7,37]</text>
</g>
<g class="edge"><title>20&#45;&gt;25</title>
<path fill="none" stroke="black" d="M1233.8,-192.9C1239.4,-184.2 1245.6,-174.8 1251.5,-165.8"/>
<polygon fill="black" stroke="black" points="1254.6,-167.6 1257.1,-157.3 1248.7,-163.7 1254.6,-167.6"/>
</g>
<g class="node"><title>22</title>
<polygon fill="none" stroke="black" points="1082,-53 978,-53 978,-0 1082,-0 1082,-53"/>
<text text-anchor="middle" x="1030" y="-37.8" font-family="Times,serif" font-size="14.0">c_gini = 2.0</text>
<text text-anchor="middle" x="1030" y="-22.8" font-family="Times,serif" font-size="14.0">instances = 48</text>
<text text-anchor="middle" x="1030" y="-7.8" font-family="Times,serif" font-size="14.0">counts=[1,47,0]</text>
</g>
<g class="edge"><title>21&#45;&gt;22</title>
<path fill="none" stroke="black" d="M1104.8,-88.9C1093.2,-79.4 1080.6,-69.1 1069.1,-59.6"/>
<polygon fill="black" stroke="black" points="1071.3,-56.9 1061.3,-53.2 1066.8,-62.3 1071.3,-56.9"/>
</g>
<g class="node"><title>23</title>
<polygon fill="none" stroke="black" points="1197.5,-53 1100.5,-53 1100.5,-0 1197.5,-0 1197.5,-53"/>
<text text-anchor="middle" x="1149" y="-37.8" font-family="Times,serif" font-size="14.0">c_gini = 0.0</text>
<text text-anchor="middle" x="1149" y="-22.8" font-family="Times,serif" font-size="14.0">instances = 1</text>
<text text-anchor="middle" x="1149" y="-7.8" font-family="Times,serif" font-size="14.0">counts=[1,0,0]</text>
</g>
<g class="edge"><title>21&#45;&gt;23</title>
<path fill="none" stroke="black" d="M1146.4,-88.9C1146.8,-80.7 1147.1,-71.8 1147.5,-63.5"/>
<polygon fill="black" stroke="black" points="1151.0,-63.4 1147.9,-53.2 1144.0,-63.1 1151.0,-63.4"/>
</g>
<g class="node"><title>26</title>
<polygon fill="none" stroke="black" points="1327,-53 1223,-53 1223,-0 1327,-0 1327,-53"/>
<text text-anchor="middle" x="1275" y="-37.8" font-family="Times,serif" font-size="14.0">c_gini = 1.9</text>
<text text-anchor="middle" x="1275" y="-22.8" font-family="Times,serif" font-size="14.0">instances = 38</text>
<text text-anchor="middle" x="1275" y="-7.8" font-family="Times,serif" font-size="14.0">counts=[0,1,37]</text>
</g>
<g class="edge"><title>25&#45;&gt;26</title>
<path fill="none" stroke="black" d="M1277.6,-88.9C1277.2,-80.7 1276.9,-71.8 1276.5,-63.5"/>
<polygon fill="black" stroke="black" points="1280.0,-63.1 1276.1,-53.2 1273.0,-63.4 1280.0,-63.1"/>
</g>
<g class="node"><title>27</title>
<polygon fill="none" stroke="black" points="1449,-53 1345,-53 1345,-0 1449,-0 1449,-53"/>
<text text-anchor="middle" x="1397" y="-37.8" font-family="Times,serif" font-size="14.0">c_gini = 10.5</text>
<text text-anchor="middle" x="1397" y="-22.8" font-family="Times,serif" font-size="14.0">instances = 49</text>
<text text-anchor="middle" x="1397" y="-7.8" font-family="Times,serif" font-size="14.0">counts=[43,6,0]</text>
</g>
<g class="edge"><title>25&#45;&gt;27</title>
<path fill="none" stroke="black" d="M1320.3,-88.9C1332.2,-79.4 1345.1,-69.1 1356.9,-59.6"/>
<polygon fill="black" stroke="black" points="1359.2,-62.2 1364.9,-53.2 1354.9,-56.8 1359.2,-62.2"/>
</g>
</g>
</svg>
