<?xml version="1.0" encoding="UTF-8" standalone="no"?>
<!DOCTYPE svg PUBLIC "-//W3C//DTD SVG 1.1//EN" "http://www.w3.org/Graphics/SVG/1.1/DTD/svg11.dtd">
<svg width="1479pt" height="269pt" viewBox="0.0 0.0 1478.5 269.0" xmlns="http://www.w3.org/2000/svg" xmlns:xlink="http://www.w3.org/1999/xlink">
<g class="graph" transform="scale(1 1) rotate(0) translate(4 265)">
<title>Tree</title>
<polygon fill="none" stroke="none" points="-4,4 -4,-265 1474.5,-265 1474.5,4 -4,4"/>
<g class="node"><title>0</title>
<polygon fill="none" stroke="black" points="293.5,-261 175.5,-261 175.5,-193 293.5,-193 293.5,-261"/>
<text text-anchor="middle" x="234.5" y="-245.8" font-family="Times,serif" font-size="14.0">alcohol &lt;= 12.7</text>
<text text-anchor="middle" x="234.5" y="-230.8" font-family="Times,serif" font-size="14.0">c_gini = 89.6</text>
<text text-anchor="middle" x="234.5" y="-215.8" font-family="Times,serif" font-size="14.0">instances = 136</text>
<text text-anchor="middle" x="234.5" y="-200.8" font-family="Times,serif" font-size="14.0">counts=[45,54,37]</text>
<title>1</title>
<polygon fill="none" stroke="black" points="225.5,-157 97.5,-157 97.5,-89 225.5,-89 225.5,-157"/>
<text text-anchor="middle" x="161.5" y="-141.8" font-family="Times,serif" font-size="14.0">flavanoids &lt;= 1.0</text>
<text text-anchor="middle" x="161.5" y="-126.8" font-family="Times,serif" font-size="14.0">c_gini = 15.2</text>
<text text-anchor="middle" x="161.5" y="-111.8" font-family="Times,serif" font-size="14.0">instances = 57</text>
<text text-anchor="middle" x="161.5" y="-96.8" font-family="Times,serif" font-size="14.0">counts=[0,48,9]</text>
</g>
<g class="edge"><title>0&#45;&gt;1</title>
<path fill="none" stroke="black" d="M210.8,-192.9C204.6,-184.2 197.7,-174.6 191.2,-165.5"/>
<polygon fill="black" stroke="black" points="194.0,-163.4 185.3,-157.3 188.3,-167.5 194.0,-163.4"/>
</g>
<g class="node"><title>5</title>
<polygon fill="none" stroke="black" points="371.5,-157 243.5,-157 243.5,-89 371.5,-89 371.5,-157"/>
<text text-anchor="middle" x="307.5" y="-141.8" font-family="Times,serif" font-size="14.0">flavanoids &lt;= 1.6</text>
<text text-anchor="middle" x="307.5" y="-126.8" font-family="Times,serif" font-size="14.0">c_gini = 43.0</text>
<text text-anchor="middle" x="307.5" y="-111.8" font-family="Times,serif" font-size="14.0">instances = 79</text>
<text text-anchor="middle" x="307.5" y="-96.8" font-family="Times,serif" font-size="14.0">counts=[45,6,28]</text>
</g>
<g class="edge"><title>0&#45;&gt;5</title>
<path fill="none" stroke="black" d="M258.2,-192.9C264.4,-184.2 271.3,-174.6 277.8,-165.5"/>
<polygon fill="black" stroke="black" points="280.7,-167.5 283.7,-157.3 275.0,-163.4 280.7,-167.5"/>
</g>
<g class="node"><title>2</title>
<polygon fill="none" stroke="black" points="97,-53 7.1e-15,-53 7.1e-15,-0 97,-0 97,-53"/>
<text text-anchor="middle" x="48.5" y="-37.8" font-family="Times,serif" font-size="14.0">c_gini = 1.8</text>
<text text-anchor="middle" x="48.5" y="-22.8" font-family="Times,serif" font-size="14.0">instances = 9</text>
<text text-anchor="middle" x="48.5" y="-7.8" font-family="Times,serif" font-size="14.0">counts=[0,1,8]</text>
</g>
<g class="edge"><title>1&#45;&gt;2</title>
<path fill="none" stroke="black" d="M122.0,-88.9C110.7,-79.5 98.5,-69.3 87.2,-59.9"/>
<polygon fill="black" stroke="black" points="89.2,-57.0 79.3,-53.2 84.7,-62.3 89.2,-57.0"/>
</g>
<g class="node"><title>3</title>
<polygon fill="none" stroke="black" points="219.5,-53 115.5,-53 115.5,-0 219.5,-0 219.5,-53"/>
<text text-anchor="middle" x="167.5" y="-37.8" font-family="Times,serif" font-size="14.0">c_gini = 2.0</text>
<text text-anchor="middle" x="167.5" y="-22.8" font-family="Times,serif" font-size="14.0">instances = 48</text>
<text text-anchor="middle" x="167.5" y="-7.8" font-family="Times,serif" font-size="14.0">counts=[0,47,1]</text>
</g>
<g class="edge"><title>1&#45;&gt;3</title>
<path fill="none" stroke="black" d="M163.6,-88.9C164.1,-80.7 164.7,-71.8 165.2,-63.5"/>
<polygon fill="black" stroke="black" points="168.7,-63.4 165.9,-53.2 161.7,-63.0 168.7,-63.4"/>
</g>
<g class="node"><title>6</title>
<polygon fill="none" stroke="black" points="353.5,-53 249.5,-53 249.5,-0 353.5,-0 353.5,-53"/>
<text text-anchor="middle" x="301.5" y="-37.8" font-family="Times,serif" font-size="14.0">c_gini = 1.9</text>
<text text-anchor="middle" x="301.5" y="-22.8" font-family="Times,serif" font-size="14.0">instances = 29</text>
<text text-anchor="middle" x="301.5" y="-7.8" font-family="Times,serif" font-size="14.0">counts=[0,1,28]</text>
</g>
<g class="edge"><title>5&#45;&gt;6</title>
<path fill="none" stroke="black" d="M305.4,-88.9C304.9,-80.7 304.3,-71.8 303.8,-63.5"/>
<polygon fill="black" stroke="black" points="307.3,-63.0 303.1,-53.2 300.3,-63.4 307.3,-63.0"/>
</g>
<g class="node"><title>7</title>
<polygon fill="none" stroke="black" points="475.5,-53 371.5,-53 371.5,-0 475.5,-0 475.5,-53"/>
<text text-anchor="middle" x="423.5" y="-37.8" font-family="Times,serif" font-size="14.0">c_gini = 9.0</text>
<text text-anchor="middle" x="423.5" y="-22.8" font-family="Times,serif" font-size="14.0">instances = 50</text>
<text text-anchor="middle" x="423.5" y="-7.8" font-family="Times,serif" font-size="14.0">counts=[45,5,0]</text>
</g>
<g class="edge"><title>5&#45;&gt;7</title>
<path fill="none" stroke="black" d="M348.1,-88.9C359.8,-79.4 372.5,-69.1 384.1,-59.6"/>
<polygon fill="black" stroke="black" points="386.4,-62.3 391.9,-53.2 381.9,-56.8 386.4,-62.3"/>
</g>
<g class="node"><title>10</title>
<polygon fill="none" stroke="black" points="787.5,-261 669.5,-261 669.5,-193 787.5,-193 787.5,-261"/>
<text text-anchor="middle" x="728.5" y="-245.8" font-family="Times,serif" font-size="14.0">alcohol &lt;= 12.7</text>
<text text-anchor="middle" x="728.5" y="-230.8" font-family="Times,serif" font-size="14.0">c_gini = 89.6</text>
<text text-anchor="middle" x="728.5" y="-215.8" font-family="Times,serif" font-size="14.0">instances = 136</text>
<text text-anchor="middle" x="728.5" y="-200.8" font-family="Times,serif" font-size="14.0">counts=[45,54,37]</text>
<title>11</title>
<polygon fill="none" stroke="black" points="719.5,-157 591.5,-157 591.5,-89 719.5,-89 719.5,-157"/>
<text text-anchor="middle" x="655.5" y="-141.8" font-family="Times,serif" font-size="14.0">flavanoids &lt;= 1.0</text>
<text text-anchor="middle" x="655.5" y="-126.8" font-family="Times,serif" font-size="14.0">c_gini = 15.2</text>
<text text-anchor="middle" x="655.5" y="-111.8" font-family="Times,serif" font-size="14.0">instances = 57</text>
<text text-anchor="middle" x="655.5" y="-96.8" font-family="Times,serif" font-size="14.0">counts=[0,48,9]</text>
</g>
<g class="edge"><title>10&#45;&gt;11</title>
<path fill="none" stroke="black" d="M704.8,-192.9C698.6,-184.2 691.7,-174.6 685.2,-165.5"/>
<polygon fill="black" stroke="black" points="688.0,-163.4 679.3,-157.3 682.3,-167.5 688.0,-163.4"/>
</g>
<g class="node"><title>15</title>
<polygon fill="none" stroke="black" points="865.5,-157 737.5,-157 737.5,-89 865.5,-89 865.5,-157"/>
<text text-anchor="middle" x="801.5" y="-141.8" font-family="Times,serif" font-size="14.0">flavanoids &lt;= 1.6</text>
<text text-anchor="middle" x="801.5" y="-126.8" font-family="Times,serif" font-size="14.0">c_gini = 43.0</text>
<text text-anchor="middle" x="801.5" y="-111.8" font-family="Times,serif" font-size="14.0">instances = 79</text>
<text text-anchor="middle" x="801.5" y="-96.8" font-family="Times,serif" font-size="14.0">counts=[45,6,28]</text>
</g>
<g class="edge"><title>10&#45;&gt;15</title>
<path fill="none" stroke="black" d="M752.2,-192.9C758.4,-184.2 765.3,-174.6 771.8,-165.5"/>
<polygon fill="black" stroke="black" points="774.7,-167.5 777.7,-157.3 769.0,-163.4 774.7,-167.5"/>
</g>
<g class="node"><title>12</title>
<polygon fill="none" stroke="black" points="591,-53 494,-53 494,-0 591,-0 591,-53"/>
<text text-anchor="middle" x="542.5" y="-37.8" font-family="Times,serif" font-size="14.0">c_gini = 1.8</text>
<text text-anchor="middle" x="542.5" y="-22.8" font-family="Times,serif" font-size="14.0">instances = 9</text>
<text text-anchor="middle" x="542.5" y="-7.8" font-family="Times,serif" font-size="14.0">counts=[0,1,8]</text>
</g>
<g class="edge"><title>11&#45;&gt;12</title>
<path fill="none" stroke="black" d="M616.0,-88.9C604.7,-79.5 592.5,-69.3 581.2,-59.9"/>
<polygon fill="black" stroke="black" points="583.2,-57.0 573.3,-53.2 578.7,-62.3 583.2,-57.0"/>
</g>
<g class="node"><title>13</title>
<polygon fill="none" stroke="black" points="713.5,-53 609.5,-53 609.5,-0 713.5,-0 713.5,-53"/>
<text text-anchor="middle" x="661.5" y="-37.8" font-family="Times,serif" font-size="14.0">c_gini = 2.0</text>
<text text-anchor="middle" x="661.5" y="-22.8" font-family="Times,serif" font-size="14.0">instances = 48</text>
<text text-anchor="middle" x="661.5" y="-7.8" font-family="Times,serif" font-size="14.0">counts=[0,47,1]</text>
</g>
<g class="edge"><title>11&#45;&gt;13</title>
<path fill="none" stroke="black" d="M657.6,-88.9C658.1,-80.7 658.7,-71.8 659.2,-63.5"/>
<polygon fill="black" stroke="black" points="662.7,-63.4 659.9,-53.2 655.7,-63.0 662.7,-63.4"/>
</g>
<g class="node"><title>16</title>
<polygon fill="none" stroke="black" points="847.5,-53 743.5,-53 743.5,-0 847.5,-0 847.5,-53"/>
<text text-anchor="middle" x="795.5" y="-37.8" font-family="Times,serif" font-size="14.0">c_gini = 1.9</text>
<text text-anchor="middle" x="795.5" y="-22.8" font-family="Times,serif" font-size="14.0">instances = 29</text>
<text text-anchor="middle" x="795.5" y="-7.8" font-family="Times,serif" font-size="14.0">counts=[0,1,28]</text>
</g>
<g class="edge"><title>15&#45;&gt;16</title>
<path fill="none" stroke="black" d="M799.4,-88.9C798.9,-80.7 798.3,-71.8 797.8,-63.5"/>
<polygon fill="black" stroke="black" points="801.3,-63.0 797.1,-53.2 794.3,-63.4 801.3,-63.0"/>
</g>
<g class="node"><title>17</title>
<polygon fill="none" stroke="black" points="969.5,-53 865.5,-53 865.5,-0 969.5,-0 969.5,-53"/>
<text text-anchor="middle" x="917.5" y="-37.8" font-family="Times,serif" font-size="14.0">c_gini = 9.0</text>
<text text-anchor="middle" x="917.5" y="-22.8" font-family="Times,serif" font-size="14.0">instances = 50</text>
<text text-anchor="middle" x="917.5" y="-7.8" font-family="Times,serif" font-size="14.0">counts=[45,5,0]</text>
</g>
<g class="edge"><title>15&#45;&gt;17</title>
<path fill="none" stroke="black" d="M842.1,-88.9C853.8,-79.4 866.5,-69.1 878.1,-59.6"/>
<polygon fill="black" stroke="black" points="880.4,-62.3 885.9,-53.2 875.9,-56.8 880.4,-62.3"/>
</g>
<g class="node"><title>20</title>
<polygon fill="none" stroke="black" points="1292,-261 1169,-261 1169,-193 1292,-193 1292,-261"/>
<text text-anchor="middle" x="1230.5" y="-245.8" font-family="Times,serif" font-size="14.0">proline &lt;= 755.0</text>
<text text-anchor="middle" x="1230.5" y="-230.8" font-family="Times,serif" font-size="14.0">c_gini = 89.6</text>
<text text-anchor="middle" x="1230.5" y="-215.8" font-family="Times,serif" font-size="14.0">instances = 136</text>
<text text-anchor="middle" x="1230.5" y="-200.8" font-family="Times,serif" font-size="14.0">counts=[45,54,37]</text>
<title>21</title>
<polygon fill="none" stroke="black" points="1227.5,-157 1075.5,-157 1075.5,-89 1227.5,-89 1227.5,-157"/>
<text text-anchor="middle" x="1151.5" y="-141.8" font-family="Times,serif" font-size="14.0">color_intensity &lt;= 4.8</text>
<text text-anchor="middle" x="1151.5" y="-126.8" font-family="Times,serif" font-size="14.0">c_gini = 42.0</text>
<text text-anchor="middle" x="1151.5" y="-111.8" font-family="Times,serif" font-size="14.0">instances = 84</text>
<text text-anchor="middle" x="1151.5" y="-96.8" font-family="Times,serif" font-size="14.0">counts=[2,50,32]</text>
</g>
<g class="edge"><title>20&#45;&gt;21</title>
<path fill="none" stroke="black" d="M1204.8,-192.9C1198.0,-184.1 1190.6,-174.4 1183.4,-165.2"/>
<polygon fill="black" stroke="black" points="1186.2,-163.1 1177.3,-157.3 1180.7,-167.3 1186.2,-163.1"/>
</g>
<g class="node"><title>25</title>
<polygon fill="none" stroke="black" points="1373.5,-157 1245.5,-157 1245.5,-89 1373.5,-89 1373.5,-157"/>
<text text-anchor="middle" x="1309.5" y="-141.8" font-family="Times,serif" font-size="14.0">flavanoids &lt;= 2.2</text>
<text text-anchor="middle" x="1309.5" y="-126.8" font-family="Times,serif" font-size="14.0">c_gini = 15.7</text>
<text text-anchor="middle" x="1309.5" y="-111.8" font-family="Times,serif" font-size="14.0">instances = 52</text>
<text text-anchor="middle" x="1309.5" y="-96.8" font-family="Times,serif" font-size="14.0">counts=[43,4,5]</text>
</g>
<g class="edge"><title>20&#45;&gt;25</title>
<path fill="none" stroke="black" d="M1256.2,-192.9C1263.0,-184.1 1270.4,-174.4 1277.6,-165.2"/>
<polygon fill="black" stroke="black" points="1280.3,-167.3 1283.7,-157.3 1274.8,-163.1 1280.3,-167.3"/>
</g>
<g class="node"><title>22</title>
<polygon fill="none" stroke="black" points="1091.5,-53 987.5,-53 987.5,-0 1091.5,-0 1091.5,-53"/>
<text text-anchor="middle" x="1039.5" y="-37.8" font-family="Times,serif" font-size="14.0">c_gini = 9.3</text>
<text text-anchor="middle" x="1039.5" y="-22.8" font-family="Times,serif" font-size="14.0">instances = 54</text>
<text text-anchor="middle" x="1039.5" y="-7.8" font-family="Times,serif" font-size="14.0">counts=[2,49,3]</text>
</g>
<g class="edge"><title>21&#45;&gt;22</title>
<path fill="none" stroke="black" d="M1112.3,-88.9C1101.2,-79.5 1089.0,-69.3 1077.9,-59.9"/>
<polygon fill="black" stroke="black" points="1079.9,-57.0 1070,-53.2 1075.4,-62.4 1079.9,-57.0"/>
</g>
<g class="node"><title>23</title>
<polygon fill="none" stroke="black" points="1213.5,-53 1109.5,-53 1109.5,-0 1213.5,-0 1213.5,-53"/>
<text text-anchor="middle" x="1161.5" y="-37.8" font-family="Times,serif" font-size="14.0">c_gini = 1.9</text>
<text text-anchor="middle" x="1161.5" y="-22.8" font-family="Times,serif" font-size="14.0">instances = 30</text>
<text text-anchor="middle" x="1161.5" y="-7.8" font-family="Times,serif" font-size="14.0">counts=[0,1,29]</text>
</g>
<g class="edge"><title>21&#45;&gt;23</title>
<path fill="none" stroke="black" d="M1155,-88.9C1155.9,-80.6 1156.8,-71.7 1157.7,-63.2"/>
<polygon fill="black" stroke="black" points="1161.2,-63.5 1158.8,-53.2 1154.2,-62.8 1161.2,-63.5"/>
</g>
<g class="node"><title>26</title>
<polygon fill="none" stroke="black" points="1348,-53 1251,-53 1251,-0 1348,-0 1348,-53"/>
<text text-anchor="middle" x="1299.5" y="-37.8" font-family="Times,serif" font-size="14.0">c_gini = 2.9</text>
<text text-anchor="middle" x="1299.5" y="-22.8" font-family="Times,serif" font-size="14.0">instances = 7</text>
<text text-anchor="middle" x="1299.5" y="-7.8" font-family="Times,serif" font-size="14.0">counts=[0,2,5]</text>
</g>
<g class="edge"><title>25&#45;&gt;26</title>
<path fill="none" stroke="black" d="M1306,-88.9C1305.1,-80.6 1304.2,-71.7 1303.3,-63.2"/>
<polygon fill="black" stroke="black" points="1306.8,-62.8 1302.2,-53.2 1299.8,-63.5 1306.8,-62.8"/>
</g>
<g class="node"><title>27</title>
<polygon fill="none" stroke="black" points="1470.5,-53 1366.5,-53 1366.5,-0 1470.5,-0 1470.5,-53"/>
<text text-anchor="middle" x="1418.5" y="-37.8" font-family="Times,serif" font-size="14.0">c_gini = 3.8</text>
<text text-anchor="middle" x="1418.5" y="-22.8" font-family="Times,serif" font-size="14.0">instances = 45</text>
<text text-anchor="middle" x="1418.5" y="-7.8" font-family="Times,serif" font-size="14.0">counts=[43,2,0]</text>
</g>
<g class="edge"><title>25&#45;&gt;27</title>
<path fill="none" stroke="black" d="M1347.6,-88.9C1358.5,-79.5 1370.3,-69.3 1381.1,-59.9"/>
<polygon fill="black" stroke="black" points="1383.5,-62.4 1388.8,-53.2 1379.0,-57.1 1383.5,-62.4"/>
</g>
</g>
</svg>
