<?xml version="1.0" encoding="UTF-8" standalone="no"?>
<!DOCTYPE svg PUBLIC "-//W3C//DTD SVG 1.1//EN" "http://www.w3.org/Graphics/SVG/1.1/DTD/svg11.dtd">
<svg width="1331pt" height="269pt" viewBox="0.0 0.0 1331.0 269.0" xmlns="http://www.w3.org/2000/svg" xmlns:xlink="http://www.w3.org/1999/xlink">
<g class="graph" transform="scale(1 1) rotate(0) translate(4 265)">
<title>Tree</title>
<polygon fill="none" stroke="none" points="-4,4 -4,-265 1327,-265 1327,4 -4,4"/>
<g class="node"><title>0</title>
<polygon fill="none" stroke="black" points="314,-261 162,-261 162,-193 314,-193 314,-261"/>
<text text-anchor="middle" x="238" y="-245.8" font-family="Times,serif" font-size="14.0">color_intensity &lt;= 4.8</text>
<text text-anchor="middle" x="238" y="-230.8" font-family="Times,serif" font-size="14.0">c_gini = 85.2</text>
<text text-anchor="middle" x="238" y="-215.8" font-family="Times,serif" font-size="14.0">instances = 136</text>
<text text-anchor="middle" x="238" y="-200.8" font-family="Times,serif" font-size="14.0">counts=[39,67,30]</text>
<title>1</title>
<polygon fill="none" stroke="black" points="229,-157 99,-157 99,-89 229,-89 229,-157"/>
<text text-anchor="middle" x="164" y="-141.8" font-family="Times,serif" font-size="14.0">proline &lt;= 1010.0</text>
<text text-anchor="middle" x="164" y="-126.8" font-family="Times,serif" font-size="14.0">c_gini = 14.5</text>
<text text-anchor="middle" x="164" y="-111.8" font-family="Times,serif" font-size="14.0">instances = 74</text>
<text text-anchor="middle" x="164" y="-96.8" font-family="Times,serif" font-size="14.0">counts=[7,66,1]</text>
</g>
<g class="edge"><title>0&#45;&gt;1</title>
<path fill="none" stroke="black" d="M214.0,-192.9C207.6,-184.2 200.7,-174.6 194.1,-165.5"/>
<polygon fill="black" stroke="black" points="196.9,-163.3 188.2,-157.3 191.2,-167.4 196.9,-163.3"/>
</g>
<g class="node"><title>5</title>
<polygon fill="none" stroke="black" points="375,-157 247,-157 247,-89 375,-89 375,-157"/>
<text text-anchor="middle" x="311" y="-141.8" font-family="Times,serif" font-size="14.0">flavanoids &lt;= 2.0</text>
<text text-anchor="middle" x="311" y="-126.8" font-family="Times,serif" font-size="14.0">c_gini = 31.9</text>
<text text-anchor="middle" x="311" y="-111.8" font-family="Times,serif" font-size="14.0">instances = 62</text>
<text text-anchor="middle" x="311" y="-96.8" font-family="Times,serif" font-size="14.0">counts=[32,1,29]</text>
</g>
<g class="edge"><title>0&#45;&gt;5</title>
<path fill="none" stroke="black" d="M261.7,-192.9C267.9,-184.2 274.8,-174.6 281.3,-165.5"/>
<polygon fill="black" stroke="black" points="284.2,-167.5 287.2,-157.3 278.5,-163.4 284.2,-167.5"/>
</g>
<g class="node"><title>2</title>
<polygon fill="none" stroke="black" points="104,-53 0,-53 0,-0 104,-0 104,-53"/>
<text text-anchor="middle" x="52" y="-37.8" font-family="Times,serif" font-size="14.0">c_gini = 3.9</text>
<text text-anchor="middle" x="52" y="-22.8" font-family="Times,serif" font-size="14.0">instances = 68</text>
<text text-anchor="middle" x="52" y="-7.8" font-family="Times,serif" font-size="14.0">counts=[1,66,1]</text>
</g>
<g class="edge"><title>1&#45;&gt;2</title>
<path fill="none" stroke="black" d="M124.8,-88.9C113.7,-79.5 101.5,-69.3 90.4,-59.9"/>
<polygon fill="black" stroke="black" points="92.4,-57.0 82.5,-53.2 87.9,-62.4 92.4,-57.0"/>
</g>
<g class="node"><title>3</title>
<polygon fill="none" stroke="black" points="219.5,-53 122.5,-53 122.5,-0 219.5,-0 219.5,-53"/>
<text text-anchor="middle" x="171" y="-37.8" font-family="Times,serif" font-size="14.0">c_gini = 0.0</text>
<text text-anchor="middle" x="171" y="-22.8" font-family="Times,serif" font-size="14.0">instances = 6</text>
<text text-anchor="middle" x="171" y="-7.8" font-family="Times,serif" font-size="14.0">counts=[6,0,0]</text>
</g>
<g class="edge"><title>1&#45;&gt;3</title>
<path fill="none" stroke="black" d="M166.4,-88.9C167.1,-80.7 167.7,-71.8 168.3,-63.5"/>
<polygon fill="black" stroke="black" points="171.8,-63.5 169.1,-53.2 164.9,-63.0 171.8,-63.5"/>
</g>
<g class="node"><title>6</title>
<polygon fill="none" stroke="black" points="356,-53 252,-53 252,-0 356,-0 356,-53"/>
<text text-anchor="middle" x="304" y="-37.8" font-family="Times,serif" font-size="14.0">c_gini = 1.9</text>
<text text-anchor="middle" x="304" y="-22.8" font-family="Times,serif" font-size="14.0">instances = 30</text>
<text text-anchor="middle" x="304" y="-7.8" font-family="Times,serif" font-size="14.0">counts=[0,1,29]</text>
</g>
<g class="edge"><title>5&#45;&gt;6</title>
<path fill="none" stroke="black" d="M308.6,-88.9C307.9,-80.7 307.3,-71.8 306.7,-63.5"/>
<polygon fill="black" stroke="black" points="310.1,-63.0 305.9,-53.2 303.2,-63.5 310.1,-63.0"/>
</g>
<g class="node"><title>7</title>
<polygon fill="none" stroke="black" points="478,-53 374,-53 374,-0 478,-0 478,-53"/>
<text text-anchor="middle" x="426" y="-37.8" font-family="Times,serif" font-size="14.0">c_gini = 0.0</text>
<text text-anchor="middle" x="426" y="-22.8" font-family="Times,serif" font-size="14.0">instances = 32</text>
<text text-anchor="middle" x="426" y="-7.8" font-family="Times,serif" font-size="14.0">counts=[32,0,0]</text>
</g>
<g class="edge"><title>5&#45;&gt;7</title>
<path fill="none" stroke="black" d="M351.2,-88.9C362.8,-79.4 375.4,-69.1 386.9,-59.6"/>
<polygon fill="black" stroke="black" points="389.2,-62.3 394.7,-53.2 384.7,-56.9 389.2,-62.3"/>
</g>
<g class="node"><title>10</title>
<polygon fill="none" stroke="black" points="813.5,-261 690.5,-261 690.5,-193 813.5,-193 813.5,-261"/>
<text text-anchor="middle" x="752" y="-245.8" font-family="Times,serif" font-size="14.0">proline &lt;= 755.0</text>
<text text-anchor="middle" x="752" y="-230.8" font-family="Times,serif" font-size="14.0">c_gini = 90.0</text>
<text text-anchor="middle" x="752" y="-215.8" font-family="Times,serif" font-size="14.0">instances = 136</text>
<text text-anchor="middle" x="752" y="-200.8" font-family="Times,serif" font-size="14.0">counts=[41,53,42]</text>
<title>11</title>
<polygon fill="none" stroke="black" points="767.5,-157 524.5,-157 524.5,-89 767.5,-89 767.5,-157"/>
<text text-anchor="middle" x="646" y="-141.8" font-family="Times,serif" font-size="14.0">od280/od315_of_diluted_wines &lt;= 1.9</text>
<text text-anchor="middle" x="646" y="-126.8" font-family="Times,serif" font-size="14.0">c_gini = 45.0</text>
<text text-anchor="middle" x="646" y="-111.8" font-family="Times,serif" font-size="14.0">instances = 90</text>
<text text-anchor="middle" x="646" y="-96.8" font-family="Times,serif" font-size="14.0">counts=[1,51,38]</text>
</g>
<g class="edge"><title>10&#45;&gt;11</title>
<path fill="none" stroke="black" d="M717.6,-192.9C708.1,-183.8 697.8,-173.8 688.0,-164.4"/>
<polygon fill="black" stroke="black" points="690.2,-161.7 680.6,-157.3 685.4,-166.8 690.2,-161.7"/>
</g>
<g class="node"><title>15</title>
<polygon fill="none" stroke="black" points="930,-157 786,-157 786,-89 930,-89 930,-157"/>
<text text-anchor="middle" x="858" y="-141.8" font-family="Times,serif" font-size="14.0">total_phenols &lt;= 2.2</text>
<text text-anchor="middle" x="858" y="-126.8" font-family="Times,serif" font-size="14.0">c_gini = 10.8</text>
<text text-anchor="middle" x="858" y="-111.8" font-family="Times,serif" font-size="14.0">instances = 46</text>
<text text-anchor="middle" x="858" y="-96.8" font-family="Times,serif" font-size="14.0">counts=[40,2,4]</text>
</g>
<g class="edge"><title>10&#45;&gt;15</title>
<path fill="none" stroke="black" d="M786.4,-192.9C795.9,-183.8 806.2,-173.8 816.0,-164.4"/>
<polygon fill="black" stroke="black" points="818.6,-166.8 823.4,-157.3 813.8,-161.7 818.6,-166.8"/>
</g>
<g class="node"><title>12</title>
<polygon fill="none" stroke="black" points="600,-53 496,-53 496,-0 600,-0 600,-53"/>
<text text-anchor="middle" x="548" y="-37.8" font-family="Times,serif" font-size="14.0">c_gini = 10.3</text>
<text text-anchor="middle" x="548" y="-22.8" font-family="Times,serif" font-size="14.0">instances = 43</text>
<text text-anchor="middle" x="548" y="-7.8" font-family="Times,serif" font-size="14.0">counts=[0,6,37]</text>
</g>
<g class="edge"><title>11&#45;&gt;12</title>
<path fill="none" stroke="black" d="M611.7,-88.9C602.1,-79.7 591.7,-69.7 582.2,-60.4"/>
<polygon fill="black" stroke="black" points="584.3,-57.7 574.7,-53.2 579.5,-62.7 584.3,-57.7"/>
</g>
<g class="node"><title>13</title>
<polygon fill="none" stroke="black" points="722,-53 618,-53 618,-0 722,-0 722,-53"/>
<text text-anchor="middle" x="670" y="-37.8" font-family="Times,serif" font-size="14.0">c_gini = 3.9</text>
<text text-anchor="middle" x="670" y="-22.8" font-family="Times,serif" font-size="14.0">instances = 47</text>
<text text-anchor="middle" x="670" y="-7.8" font-family="Times,serif" font-size="14.0">counts=[1,45,1]</text>
</g>
<g class="edge"><title>11&#45;&gt;13</title>
<path fill="none" stroke="black" d="M654.4,-88.9C656.5,-80.6 658.8,-71.7 660.9,-63.2"/>
<polygon fill="black" stroke="black" points="664.4,-63.8 663.5,-53.2 657.6,-62.1 664.4,-63.8"/>
</g>
<g class="node"><title>16</title>
<polygon fill="none" stroke="black" points="883.5,-53 786.5,-53 786.5,-0 883.5,-0 883.5,-53"/>
<text text-anchor="middle" x="835" y="-37.8" font-family="Times,serif" font-size="14.0">c_gini = 0.0</text>
<text text-anchor="middle" x="835" y="-22.8" font-family="Times,serif" font-size="14.0">instances = 4</text>
<text text-anchor="middle" x="835" y="-7.8" font-family="Times,serif" font-size="14.0">counts=[0,0,4]</text>
</g>
<g class="edge"><title>15&#45;&gt;16</title>
<path fill="none" stroke="black" d="M850.0,-88.9C847.9,-80.6 845.7,-71.7 843.7,-63.2"/>
<polygon fill="black" stroke="black" points="847.0,-62.1 841.3,-53.2 840.2,-63.8 847.0,-62.1"/>
</g>
<g class="node"><title>17</title>
<polygon fill="none" stroke="black" points="1006,-53 902,-53 902,-0 1006,-0 1006,-53"/>
<text text-anchor="middle" x="954" y="-37.8" font-family="Times,serif" font-size="14.0">c_gini = 3.8</text>
<text text-anchor="middle" x="954" y="-22.8" font-family="Times,serif" font-size="14.0">instances = 42</text>
<text text-anchor="middle" x="954" y="-7.8" font-family="Times,serif" font-size="14.0">counts=[40,2,0]</text>
</g>
<g class="edge"><title>15&#45;&gt;17</title>
<path fill="none" stroke="black" d="M891.6,-88.9C901.0,-79.7 911.2,-69.7 920.5,-60.4"/>
<polygon fill="black" stroke="black" points="923.2,-62.7 927.9,-53.2 918.3,-57.8 923.2,-62.7"/>
</g>
<g class="node"><title>20</title>
<polygon fill="none" stroke="black" points="1265.5,-261 1142.5,-261 1142.5,-193 1265.5,-193 1265.5,-261"/>
<text text-anchor="middle" x="1204" y="-245.8" font-family="Times,serif" font-size="14.0">proline &lt;= 928.0</text>
<text text-anchor="middle" x="1204" y="-230.8" font-family="Times,serif" font-size="14.0">c_gini = 89.0</text>
<text text-anchor="middle" x="1204" y="-215.8" font-family="Times,serif" font-size="14.0">instances = 136</text>
<text text-anchor="middle" x="1204" y="-200.8" font-family="Times,serif" font-size="14.0">counts=[50,53,33]</text>
<title>21</title>
<polygon fill="none" stroke="black" points="1201,-157 1073,-157 1073,-89 1201,-89 1201,-157"/>
<text text-anchor="middle" x="1137" y="-141.8" font-family="Times,serif" font-size="14.0">flavanoids &lt;= 1.0</text>
<text text-anchor="middle" x="1137" y="-126.8" font-family="Times,serif" font-size="14.0">c_gini = 51.9</text>
<text text-anchor="middle" x="1137" y="-111.8" font-family="Times,serif" font-size="14.0">instances = 94</text>
<text text-anchor="middle" x="1137" y="-96.8" font-family="Times,serif" font-size="14.0">counts=[8,53,33]</text>
</g>
<g class="edge"><title>20&#45;&gt;21</title>
<path fill="none" stroke="black" d="M1182.2,-192.9C1176.6,-184.2 1170.4,-174.8 1164.5,-165.8"/>
<polygon fill="black" stroke="black" points="1167.3,-163.7 1158.9,-157.3 1161.4,-167.6 1167.3,-163.7"/>
</g>
<g class="node"><title>25</title>
<polygon fill="none" stroke="black" points="1323,-149.5 1219,-149.5 1219,-96.5 1323,-96.5 1323,-149.5"/>
<text text-anchor="middle" x="1271" y="-134.3" font-family="Times,serif" font-size="14.0">c_gini = 0.0</text>
<text text-anchor="middle" x="1271" y="-119.3" font-family="Times,serif" font-size="14.0">instances = 42</text>
<text text-anchor="middle" x="1271" y="-104.3" font-family="Times,serif" font-size="14.0">counts=[42,0,0]</text>
</g>
<g class="edge"><title>20&#45;&gt;25</title>
<path fill="none" stroke="black" d="M1225.8,-192.9C1233.0,-181.8 1241.2,-169.4 1248.5,-158.2"/>
<polygon fill="black" stroke="black" points="1251.7,-159.8 1254.2,-149.5 1245.8,-156.0 1251.7,-159.8"/>
</g>
<g class="node"><title>22</title>
<polygon fill="none" stroke="black" points="1128,-53 1024,-53 1024,-0 1128,-0 1128,-53"/>
<text text-anchor="middle" x="1076" y="-37.8" font-family="Times,serif" font-size="14.0">c_gini = 0.0</text>
<text text-anchor="middle" x="1076" y="-22.8" font-family="Times,serif" font-size="14.0">instances = 30</text>
<text text-anchor="middle" x="1076" y="-7.8" font-family="Times,serif" font-size="14.0">counts=[0,0,30]</text>
</g>
<g class="edge"><title>21&#45;&gt;22</title>
<path fill="none" stroke="black" d="M1115.7,-88.9C1110,-80.2 1103.9,-70.7 1098.2,-61.8"/>
<polygon fill="black" stroke="black" points="1101.0,-59.7 1092.6,-53.2 1095.1,-63.5 1101.0,-59.7"/>
</g>
<g class="node"><title>23</title>
<polygon fill="none" stroke="black" points="1250,-53 1146,-53 1146,-0 1250,-0 1250,-53"/>
<text text-anchor="middle" x="1198" y="-37.8" font-family="Times,serif" font-size="14.0">c_gini = 19.0</text>
<text text-anchor="middle" x="1198" y="-22.8" font-family="Times,serif" font-size="14.0">instances = 64</text>
<text text-anchor="middle" x="1198" y="-7.8" font-family="Times,serif" font-size="14.0">counts=[8,53,3]</text>
</g>
<g class="edge"><title>21&#45;&gt;23</title>
<path fill="none" stroke="black" d="M1158.3,-88.9C1164,-80.2 1170.1,-70.7 1175.8,-61.8"/>
<polygon fill="black" stroke="black" points="1178.9,-63.5 1181.4,-53.2 1173.0,-59.7 1178.9,-63.5"/>
</g>
</g>
</svg>
