<?xml version="1.0" encoding="UTF-8" standalone="no"?>
<!DOCTYPE svg PUBLIC "-//W3C//DTD SVG 1.1//EN" "http://www.w3.org/Graphics/SVG/1.1/DTD/svg11.dtd">
<svg width="1479pt" height="224pt" viewBox="0.0 0.0 1478.5 224.0" xmlns="http://www.w3.org/2000/svg" xmlns:xlink="http://www.w3.org/1999/xlink">
<g class="graph" transform="scale(1 1) rotate(0) translate(4 220)">
<title>Tree</title>
<polygon fill="none" stroke="none" points="-4,4 -4,-220 1474.5,-220 1474.5,4 -4,4"/>
<g class="node"><title>0</title>
<polygon fill="none" stroke="black" points="293.5,-216 175.5,-216 175.5,-163 293.5,-163 293.5,-216"/>
<text text-anchor="middle" x="234.5" y="-200.8" font-family="Times,serif" font-size="14.0">alcohol &lt;= 12.7</text>
<text text-anchor="middle" x="234.5" y="-185.8" font-family="Times,serif" font-size="14.0">instances = 136</text>
<text text-anchor="middle" x="234.5" y="-170.8" font-family="Times,serif" font-size="14.0">counts=[45,54,37]</text>
<title>1</title>
<polygon fill="none" stroke="black" points="225.5,-127 97.5,-127 97.5,-74 225.5,-74 225.5,-127"/>
<text text-anchor="middle" x="161.5" y="-111.8" font-family="Times,serif" font-size="14.0">flavanoids &lt;= 1.0</text>
<text text-anchor="middle" x="161.5" y="-96.8" font-family="Times,serif" font-size="14.0">instances = 57</text>
<text text-anchor="middle" x="161.5" y="-81.8" font-family="Times,serif" font-size="14.0">counts=[0,48,9]</text>
</g>
<g class="edge"><title>0&#45;&gt;1</title>
<path fill="none" stroke="black" d="M213.0,-162.9C205.7,-154.2 197.5,-144.3 189.7,-135.1"/>
<polygon fill="black" stroke="black" points="192.2,-132.7 183.1,-127.2 186.9,-137.2 192.2,-132.7"/>
</g>
<g class="node"><title>5</title>
<polygon fill="none" stroke="black" points="371.5,-127 243.5,-127 243.5,-74 371.5,-74 371.5,-127"/>
<text text-anchor="middle" x="307.5" y="-111.8" font-family="Times,serif" font-size="14.0">flavanoids &lt;= 1.6</text>
<text text-anchor="middle" x="307.5" y="-96.8" font-family="Times,serif" font-size="14.0">instances = 79</text>
<text text-anchor="middle" x="307.5" y="-81.8" font-family="Times,serif" font-size="14.0">counts=[45,6,28]</text>
</g>
<g class="edge"><title>0&#45;&gt;5</title>
<path fill="none" stroke="black" d="M256.0,-162.9C263.3,-154.2 271.5,-144.3 279.3,-135.1"/>
<polygon fill="black" stroke="black" points="282.1,-137.2 285.9,-127.2 276.8,-132.7 282.1,-137.2"/>
</g>
<g class="node"><title>2</title>
<polygon fill="none" stroke="black" points="97,-38 7.1e-15,-38 7.1e-15,-0 97,-0 97,-38"/>
<text text-anchor="middle" x="48.5" y="-22.8" font-family="Times,serif" font-size="14.0">instances = 9</text>
<text text-anchor="middle" x="48.5" y="-7.8" font-family="Times,serif" font-size="14.0">counts=[0,1,8]</text>
</g>
<g class="edge"><title>1&#45;&gt;2</title>
<path fill="none" stroke="black" d="M125.1,-73.9C111.6,-64.4 96.3,-53.6 82.9,-44.2"/>
<polygon fill="black" stroke="black" points="84.6,-41.1 74.4,-38.2 80.6,-46.9 84.6,-41.1"/>
</g>
<g class="node"><title>3</title>
<polygon fill="none" stroke="black" points="219.5,-38 115.5,-38 115.5,-0 219.5,-0 219.5,-38"/>
<text text-anchor="middle" x="167.5" y="-22.8" font-family="Times,serif" font-size="14.0">instances = 48</text>
<text text-anchor="middle" x="167.5" y="-7.8" font-family="Times,serif" font-size="14.0">counts=[0,47,1]</text>
</g>
<g class="edge"><title>1&#45;&gt;3</title>
<path fill="none" stroke="black" d="M163.4,-73.9C164.0,-65.7 164.7,-56.6 165.4,-48.3"/>
<polygon fill="black" stroke="black" points="168.9,-48.5 166.1,-38.2 161.9,-47.9 168.9,-48.5"/>
</g>
<g class="node"><title>6</title>
<polygon fill="none" stroke="black" points="353.5,-38 249.5,-38 249.5,-0 353.5,-0 353.5,-38"/>
<text text-anchor="middle" x="301.5" y="-22.8" font-family="Times,serif" font-size="14.0">instances = 29</text>
<text text-anchor="middle" x="301.5" y="-7.8" font-family="Times,serif" font-size="14.0">counts=[0,1,28]</text>
</g>
<g class="edge"><title>5&#45;&gt;6</title>
<path fill="none" stroke="black" d="M305.6,-73.9C305.0,-65.7 304.3,-56.6 303.6,-48.3"/>
<polygon fill="black" stroke="black" points="307.1,-47.9 302.9,-38.2 300.1,-48.5 307.1,-47.9"/>
</g>
<g class="node"><title>7</title>
<polygon fill="none" stroke="black" points="475.5,-38 371.5,-38 371.5,-0 475.5,-0 475.5,-38"/>
<text text-anchor="middle" x="423.5" y="-22.8" font-family="Times,serif" font-size="14.0">instances = 50</text>
<text text-anchor="middle" x="423.5" y="-7.8" font-family="Times,serif" font-size="14.0">counts=[45,5,0]</text>
</g>
<g class="edge"><title>5&#45;&gt;7</title>
<path fill="none" stroke="black" d="M344.8,-73.9C358.9,-64.3 374.8,-53.4 388.6,-43.9"/>
<polygon fill="black" stroke="black" points="390.6,-46.8 396.9,-38.2 386.7,-41.0 390.6,-46.8"/>
</g>
<g class="node"><title>10</title>
<polygon fill="none" stroke="black" points="787.5,-216 669.5,-216 669.5,-163 787.5,-163 787.5,-216"/>
<text text-anchor="middle" x="728.5" y="-200.8" font-family="Times,serif" font-size="14.0">alcohol &lt;= 12.7</text>
<text text-anchor="middle" x="728.5" y="-185.8" font-family="Times,serif" font-size="14.0">instances = 136</text>
<text text-anchor="middle" x="728.5" y="-170.8" font-family="Times,serif" font-size="14.0">counts=[45,54,37]</text>
<title>11</title>
<polygon fill="none" stroke="black" points="719.5,-127 591.5,-127 591.5,-74 719.5,-74 719.5,-127"/>
<text text-anchor="middle" x="655.5" y="-111.8" font-family="Times,serif" font-size="14.0">flavanoids &lt;= 1.0</text>
<text text-anchor="middle" x="655.5" y="-96.8" font-family="Times,serif" font-size="14.0">instances = 57</text>
<text text-anchor="middle" x="655.5" y="-81.8" font-family="Times,serif" font-size="14.0">counts=[0,48,9]</text>
</g>
<g class="edge"><title>10&#45;&gt;11</title>
<path fill="none" stroke="black" d="M707.0,-162.9C699.7,-154.2 691.5,-144.3 683.7,-135.1"/>
<polygon fill="black" stroke="black" points="686.2,-132.7 677.1,-127.2 680.9,-137.2 686.2,-132.7"/>
</g>
<g class="node"><title>15</title>
<polygon fill="none" stroke="black" points="865.5,-127 737.5,-127 737.5,-74 865.5,-74 865.5,-127"/>
<text text-anchor="middle" x="801.5" y="-111.8" font-family="Times,serif" font-size="14.0">flavanoids &lt;= 1.6</text>
<text text-anchor="middle" x="801.5" y="-96.8" font-family="Times,serif" font-size="14.0">instances = 79</text>
<text text-anchor="middle" x="801.5" y="-81.8" font-family="Times,serif" font-size="14.0">counts=[45,6,28]</text>
</g>
<g class="edge"><title>10&#45;&gt;15</title>
<path fill="none" stroke="black" d="M750.0,-162.9C757.3,-154.2 765.5,-144.3 773.3,-135.1"/>
<polygon fill="black" stroke="black" points="776.1,-137.2 779.9,-127.2 770.8,-132.7 776.1,-137.2"/>
</g>
<g class="node"><title>12</title>
<polygon fill="none" stroke="black" points="591,-38 494,-38 494,-0 591,-0 591,-38"/>
<text text-anchor="middle" x="542.5" y="-22.8" font-family="Times,serif" font-size="14.0">instances = 9</text>
<text text-anchor="middle" x="542.5" y="-7.8" font-family="Times,serif" font-size="14.0">counts=[0,1,8]</text>
</g>
<g class="edge"><title>11&#45;&gt;12</title>
<path fill="none" stroke="black" d="M619.1,-73.9C605.6,-64.4 590.2,-53.6 576.9,-44.2"/>
<polygon fill="black" stroke="black" points="578.6,-41.1 568.4,-38.2 574.6,-46.9 578.6,-41.1"/>
</g>
<g class="node"><title>13</title>
<polygon fill="none" stroke="black" points="713.5,-38 609.5,-38 609.5,-0 713.5,-0 713.5,-38"/>
<text text-anchor="middle" x="661.5" y="-22.8" font-family="Times,serif" font-size="14.0">instances = 48</text>
<text text-anchor="middle" x="661.5" y="-7.8" font-family="Times,serif" font-size="14.0">counts=[0,47,1]</text>
</g>
<g class="edge"><title>11&#45;&gt;13</title>
<path fill="none" stroke="black" d="M657.4,-73.9C658.0,-65.7 658.7,-56.6 659.4,-48.3"/>
<polygon fill="black" stroke="black" points="662.9,-48.5 660.1,-38.2 655.9,-47.9 662.9,-48.5"/>
</g>
<g class="node"><title>16</title>
<polygon fill="none" stroke="black" points="847.5,-38 743.5,-38 743.5,-0 847.5,-0 847.5,-38"/>
<text text-anchor="middle" x="795.5" y="-22.8" font-family="Times,serif" font-size="14.0">instances = 29</text>
<text text-anchor="middle" x="795.5" y="-7.8" font-family="Times,serif" font-size="14.0">counts=[0,1,28]</text>
</g>
<g class="edge"><title>15&#45;&gt;16</title>
<path fill="none" stroke="black" d="M799.6,-73.9C799.0,-65.7 798.3,-56.6 797.6,-48.3"/>
<polygon fill="black" stroke="black" points="801.1,-47.9 796.9,-38.2 794.1,-48.5 801.1,-47.9"/>
</g>
<g class="node"><title>17</title>
<polygon fill="none" stroke="black" points="969.5,-38 865.5,-38 865.5,-0 969.5,-0 969.5,-38"/>
<text text-anchor="middle" x="917.5" y="-22.8" font-family="Times,serif" font-size="14.0">instances = 50</text>
<text text-anchor="middle" x="917.5" y="-7.8" font-family="Times,serif" font-size="14.0">counts=[45,5,0]</text>
</g>
<g class="edge"><title>15&#45;&gt;17</title>
<path fill="none" stroke="black" d="M838.8,-73.9C852.9,-64.3 868.8,-53.4 882.6,-43.9"/>
<polygon fill="black" stroke="black" points="884.6,-46.8 890.9,-38.2 880.7,-41.0 884.6,-46.8"/>
</g>
<g class="node"><title>20</title>
<polygon fill="none" stroke="black" points="1292,-216 1169,-216 1169,-163 1292,-163 1292,-216"/>
<text text-anchor="middle" x="1230.5" y="-200.8" font-family="Times,serif" font-size="14.0">proline &lt;= 755.0</text>
<text text-anchor="middle" x="1230.5" y="-185.8" font-family="Times,serif" font-size="14.0">instances = 136</text>
<text text-anchor="middle" x="1230.5" y="-170.8" font-family="Times,serif" font-size="14.0">counts=[45,54,37]</text>
<title>21</title>
<polygon fill="none" stroke="black" points="1227.5,-127 1075.5,-127 1075.5,-74 1227.5,-74 1227.5,-127"/>
<text text-anchor="middle" x="1151.5" y="-111.8" font-family="Times,serif" font-size="14.0">color_intensity &lt;= 4.8</text>
<text text-anchor="middle" x="1151.5" y="-96.8" font-family="Times,serif" font-size="14.0">instances = 84</text>
<text text-anchor="middle" x="1151.5" y="-81.8" font-family="Times,serif" font-size="14.0">counts=[2,50,32]</text>
</g>
<g class="edge"><title>20&#45;&gt;21</title>
<path fill="none" stroke="black" d="M1207.2,-162.9C1199.3,-154.1 1190.2,-144.2 1181.8,-134.9"/>
<polygon fill="black" stroke="black" points="1184.2,-132.3 1174.9,-127.2 1179.0,-137.0 1184.2,-132.3"/>
</g>
<g class="node"><title>25</title>
<polygon fill="none" stroke="black" points="1373.5,-127 1245.5,-127 1245.5,-74 1373.5,-74 1373.5,-127"/>
<text text-anchor="middle" x="1309.5" y="-111.8" font-family="Times,serif" font-size="14.0">flavanoids &lt;= 2.2</text>
<text text-anchor="middle" x="1309.5" y="-96.8" font-family="Times,serif" font-size="14.0">instances = 52</text>
<text text-anchor="middle" x="1309.5" y="-81.8" font-family="Times,serif" font-size="14.0">counts=[43,4,5]</text>
</g>
<g class="edge"><title>20&#45;&gt;25</title>
<path fill="none" stroke="black" d="M1253.8,-162.9C1261.7,-154.1 1270.8,-144.2 1279.2,-134.9"/>
<polygon fill="black" stroke="black" points="1282.0,-137.0 1286.1,-127.2 1276.8,-132.3 1282.0,-137.0"/>
</g>
<g class="node"><title>22</title>
<polygon fill="none" stroke="black" points="1091.5,-38 987.5,-38 987.5,-0 1091.5,-0 1091.5,-38"/>
<text text-anchor="middle" x="1039.5" y="-22.8" font-family="Times,serif" font-size="14.0">instances = 54</text>
<text text-anchor="middle" x="1039.5" y="-7.8" font-family="Times,serif" font-size="14.0">counts=[2,49,3]</text>
</g>
<g class="edge"><title>21&#45;&gt;22</title>
<path fill="none" stroke="black" d="M1115.5,-73.9C1102.0,-64.4 1086.8,-53.6 1073.6,-44.2"/>
<polygon fill="black" stroke="black" points="1075.4,-41.2 1065.2,-38.2 1071.3,-46.9 1075.4,-41.2"/>
</g>
<g class="node"><title>23</title>
<polygon fill="none" stroke="black" points="1213.5,-38 1109.5,-38 1109.5,-0 1213.5,-0 1213.5,-38"/>
<text text-anchor="middle" x="1161.5" y="-22.8" font-family="Times,serif" font-size="14.0">instances = 30</text>
<text text-anchor="middle" x="1161.5" y="-7.8" font-family="Times,serif" font-size="14.0">counts=[0,1,29]</text>
</g>
<g class="edge"><title>21&#45;&gt;23</title>
<path fill="none" stroke="black" d="M1154.7,-73.9C1155.8,-65.7 1156.9,-56.6 1157.9,-48.3"/>
<polygon fill="black" stroke="black" points="1161.4,-48.6 1159.2,-38.2 1154.5,-47.7 1161.4,-48.6"/>
</g>
<g class="node"><title>26</title>
<polygon fill="none" stroke="black" points="1348,-38 1251,-38 1251,-0 1348,-0 1348,-38"/>
<text text-anchor="middle" x="1299.5" y="-22.8" font-family="Times,serif" font-size="14.0">instances = 7</text>
<text text-anchor="middle" x="1299.5" y="-7.8" font-family="Times,serif" font-size="14.0">counts=[0,2,5]</text>
</g>
<g class="edge"><title>25&#45;&gt;26</title>
<path fill="none" stroke="black" d="M1306.3,-73.9C1305.2,-65.7 1304.1,-56.6 1303.1,-48.3"/>
<polygon fill="black" stroke="black" points="1306.5,-47.7 1301.8,-38.2 1299.6,-48.6 1306.5,-47.7"/>
</g>
<g class="node"><title>27</title>
<polygon fill="none" stroke="black" points="1470.5,-38 1366.5,-38 1366.5,-0 1470.5,-0 1470.5,-38"/>
<text text-anchor="middle" x="1418.5" y="-22.8" font-family="Times,serif" font-size="14.0">instances = 45</text>
<text text-anchor="middle" x="1418.5" y="-7.8" font-family="Times,serif" font-size="14.0">counts=[43,2,0]</text>
</g>
<g class="edge"><title>25&#45;&gt;27</title>
<path fill="none" stroke="black" d="M1344.6,-73.9C1357.7,-64.4 1372.4,-53.6 1385.3,-44.2"/>
<polygon fill="black" stroke="black" points="1387.5,-47.0 1393.5,-38.2 1383.3,-41.3 1387.5,-47.0"/>
</g>
</g>
</svg>
