<?xml version="1.0" encoding="UTF-8" standalone="no"?>
<!DOCTYPE svg PUBLIC "-//W3C//DTD SVG 1.1//EN" "http://www.w3.org/Graphics/SVG/1.1/DTD/svg11.dtd">
<svg width="1301pt" height="269pt" viewBox="0.0 0.0 1301.0 269.0" xmlns="http://www.w3.org/2000/svg" xmlns:xlink="http://www.w3.org/1999/xlink">
<g class="graph" transform="scale(1 1) rotate(0) translate(4 265)">
<title>Tree</title>
<polygon fill="none" stroke="none" points="-4,4 -4,-265 1297,-265 1297,4 -4,4"/>
<g class="node"><title>0</title>
<polygon fill="none" stroke="black" points="314,-261 162,-261 162,-193 314,-193 314,-261"/>
<text text-anchor="middle" x="238" y="-245.8" font-family="Times,serif" font-size="14.0">color_intensity &lt;= 4.8</text>
<text text-anchor="middle" x="238" y="-230.8" font-family="Times,serif" font-size="14.0">c_gini = 85.2</text>
<text text-anchor="middle" x="238" y="-215.8" font-family="Times,serif" font-size="14.0">instances = 136</text>
<text text-anchor="middle" x="238" y="-200.8" font-family="Times,serif" font-size="14.0">counts=[39,67,30]</text>
<title>1</title>
<polygon fill="none" stroke="black" points="229,-157 99,-157 99,-89 229,-89 229,-157"/>
<text text-anchor="middle" x="164" y="-141.8" font-family="Times,serif" font-size="14.0">proline &lt;= 1010.0</text>
<text text-anchor="middle" x="164" y="-126.8" font-family="Times,serif" font-size="14.0">c_gini = 14.5</text>
<text text-anchor="middle" x="164" y="-111.8" font-family="Times,serif" font-size="14.0">instances = 74</text>
<text text-anchor="middle" x="164" y="-96.8" font-family="Times,serif" font-size="14.0">counts=[7,66,1]</text>
</g>
<g class="edge"><title>0&#45;&gt;1</title>
<path fill="none" stroke="black" d="M214.0,-192.9C207.6,-184.2 200.7,-174.6 194.1,-165.5"/>
<polygon fill="black" stroke="black" points="196.9,-163.3 188.2,-157.3 191.2,-167.4 196.9,-163.3"/>
</g>
<g class="node"><title>5</title>
<polygon fill="none" stroke="black" points="375,-157 247,-157 247,-89 375,-89 375,-157"/>
<text text-anchor="middle" x="311" y="-141.8" font-family="Times,serif" font-size="14.0">flavanoids &lt;= 2.0</text>
<text text-anchor="middle" x="311" y="-126.8" font-family="Times,serif" font-size="14.0">c_gini = 31.9</text>
<text text-anchor="middle" x="311" y="-111.8" font-family="Times,serif" font-size="14.0">instances = 62</text>
<text text-anchor="middle" x="311" y="-96.8" font-family="Times,serif" font-size="14.0">counts=[32,1,29]</text>
</g>
<g class="edge"><title>0&#45;&gt;5</title>
<path fill="none" stroke="black" d="M261.7,-192.9C267.9,-184.2 274.8,-174.6 281.3,-165.5"/>
<polygon fill="black" stroke="black" points="284.2,-167.5 287.2,-157.3 278.5,-163.4 284.2,-167.5"/>
</g>
<g class="node"><title>2</title>
<polygon fill="none" stroke="black" points="104,-53 0,-53 0,-0 104,-0 104,-53"/>
<text text-anchor="middle" x="52" y="-37.8" font-family="Times,serif" font-size="14.0">c_gini = 3.9</text>
<text text-anchor="middle" x="52" y="-22.8" font-family="Times,serif" font-size="14.0">instances = 68</text>
<text text-anchor="middle" x="52" y="-7.8" font-family="Times,serif" font-size="14.0">counts=[1,66,1]</text>
</g>
<g class="edge"><title>1&#45;&gt;2</title>
<path fill="none" stroke="black" d="M124.8,-88.9C113.7,-79.5 101.5,-69.3 90.4,-59.9"/>
<polygon fill="black" stroke="black" points="92.4,-57.0 82.5,-53.2 87.9,-62.4 92.4,-57.0"/>
</g>
<g class="node"><title>3</title>
<polygon fill="none" stroke="black" points="219.5,-53 122.5,-53 122.5,-0 219.5,-0 219.5,-53"/>
<text text-anchor="middle" x="171" y="-37.8" font-family="Times,serif" font-size="14.0">c_gini = 0.0</text>
<text text-anchor="middle" x="171" y="-22.8" font-family="Times,serif" font-size="14.0">instances = 6</text>
<text text-anchor="middle" x="171" y="-7.8" font-family="Times,serif" font-size="14.0">counts=[6,0,0]</text>
</g>
<g class="edge"><title>1&#45;&gt;3</title>
<path fill="none" stroke="black" d="M166.4,-88.9C167.1,-80.7 167.7,-71.8 168.3,-63.5"/>
<polygon fill="black" stroke="black" points="171.8,-63.5 169.1,-53.2 164.9,-63.0 171.8,-63.5"/>
</g>
<g class="node"><title>6</title>
<polygon fill="none" stroke="black" points="356,-53 252,-53 252,-0 356,-0 356,-53"/>
<text text-anchor="middle" x="304" y="-37.8" font-family="Times,serif" font-size="14.0">c_gini = 1.9</text>
<text text-anchor="middle" x="304" y="-22.8" font-family="Times,serif" font-size="14.0">instances = 30</text>
<text text-anchor="middle" x="304" y="-7.8" font-family="Times,serif" font-size="14.0">counts=[0,1,29]</text>
</g>
<g class="edge"><title>5&#45;&gt;6</title>
<path fill="none" stroke="black" d="M308.6,-88.9C307.9,-80.7 307.3,-71.8 306.7,-63.5"/>
<polygon fill="black" stroke="black" points="310.1,-63.0 305.9,-53.2 303.2,-63.5 310.1,-63.0"/>
</g>
<g class="node"><title>7</title>
<polygon fill="none" stroke="black" points="478,-53 374,-53 374,-0 478,-0 478,-53"/>
<text text-anchor="middle" x="426" y="-37.8" font-family="Times,serif" font-size="14.0">c_gini = 0.0</text>
<text text-anchor="middle" x="426" y="-22.8" font-family="Times,serif" font-size="14.0">instances = 32</text>
<text text-anchor="middle" x="426" y="-7.8" font-family="Times,serif" font-size="14.0">counts=[32,0,0]</text>
</g>
<g class="edge"><title>5&#45;&gt;7</title>
<path fill="none" stroke="black" d="M351.2,-88.9C362.8,-79.4 375.4,-69.1 386.9,-59.6"/>
<polygon fill="black" stroke="black" points="389.2,-62.3 394.7,-53.2 384.7,-56.9 389.2,-62.3"/>
</g>
<g class="node"><title>10</title>
<polygon fill="none" stroke="black" points="810,-261 658,-261 658,-193 810,-193 810,-261"/>
<text text-anchor="middle" x="734" y="-245.8" font-family="Times,serif" font-size="14.0">color_intensity &lt;= 4.8</text>
<text text-anchor="middle" x="734" y="-230.8" font-family="Times,serif" font-size="14.0">c_gini = 90.0</text>
<text text-anchor="middle" x="734" y="-215.8" font-family="Times,serif" font-size="14.0">instances = 136</text>
<text text-anchor="middle" x="734" y="-200.8" font-family="Times,serif" font-size="14.0">counts=[41,53,42]</text>
<title>11</title>
<polygon fill="none" stroke="black" points="719.5,-157 596.5,-157 596.5,-89 719.5,-89 719.5,-157"/>
<text text-anchor="middle" x="658" y="-141.8" font-family="Times,serif" font-size="14.0">proline &lt;= 760.0</text>
<text text-anchor="middle" x="658" y="-126.8" font-family="Times,serif" font-size="14.0">c_gini = 15.6</text>
<text text-anchor="middle" x="658" y="-111.8" font-family="Times,serif" font-size="14.0">instances = 60</text>
<text text-anchor="middle" x="658" y="-96.8" font-family="Times,serif" font-size="14.0">counts=[8,51,1]</text>
</g>
<g class="edge"><title>10&#45;&gt;11</title>
<path fill="none" stroke="black" d="M709.3,-192.9C702.8,-184.2 695.7,-174.6 688.9,-165.5"/>
<polygon fill="black" stroke="black" points="691.6,-163.2 682.8,-157.3 686.0,-167.4 691.6,-163.2"/>
</g>
<g class="node"><title>15</title>
<polygon fill="none" stroke="black" points="882,-157 738,-157 738,-89 882,-89 882,-157"/>
<text text-anchor="middle" x="810" y="-141.8" font-family="Times,serif" font-size="14.0">total_phenols &lt;= 2.5</text>
<text text-anchor="middle" x="810" y="-126.8" font-family="Times,serif" font-size="14.0">c_gini = 39.5</text>
<text text-anchor="middle" x="810" y="-111.8" font-family="Times,serif" font-size="14.0">instances = 76</text>
<text text-anchor="middle" x="810" y="-96.8" font-family="Times,serif" font-size="14.0">counts=[33,2,41]</text>
</g>
<g class="edge"><title>10&#45;&gt;15</title>
<path fill="none" stroke="black" d="M758.7,-192.9C765.2,-184.2 772.3,-174.6 779.1,-165.5"/>
<polygon fill="black" stroke="black" points="782.0,-167.4 785.2,-157.3 776.4,-163.2 782.0,-167.4"/>
</g>
<g class="node"><title>12</title>
<polygon fill="none" stroke="black" points="600,-53 496,-53 496,-0 600,-0 600,-53"/>
<text text-anchor="middle" x="548" y="-37.8" font-family="Times,serif" font-size="14.0">c_gini = 2.0</text>
<text text-anchor="middle" x="548" y="-22.8" font-family="Times,serif" font-size="14.0">instances = 50</text>
<text text-anchor="middle" x="548" y="-7.8" font-family="Times,serif" font-size="14.0">counts=[1,49,0]</text>
</g>
<g class="edge"><title>11&#45;&gt;12</title>
<path fill="none" stroke="black" d="M619.5,-88.9C608.6,-79.5 596.6,-69.3 585.7,-59.9"/>
<polygon fill="black" stroke="black" points="587.8,-57.1 578.0,-53.2 583.3,-62.4 587.8,-57.1"/>
</g>
<g class="node"><title>13</title>
<polygon fill="none" stroke="black" points="715.5,-53 618.5,-53 618.5,-0 715.5,-0 715.5,-53"/>
<text text-anchor="middle" x="667" y="-37.8" font-family="Times,serif" font-size="14.0">c_gini = 4.6</text>
<text text-anchor="middle" x="667" y="-22.8" font-family="Times,serif" font-size="14.0">instances = 10</text>
<text text-anchor="middle" x="667" y="-7.8" font-family="Times,serif" font-size="14.0">counts=[7,2,1]</text>
</g>
<g class="edge"><title>11&#45;&gt;13</title>
<path fill="none" stroke="black" d="M661.1,-88.9C661.9,-80.6 662.8,-71.7 663.6,-63.2"/>
<polygon fill="black" stroke="black" points="667.1,-63.5 664.5,-53.2 660.1,-62.9 667.1,-63.5"/>
</g>
<g class="node"><title>16</title>
<polygon fill="none" stroke="black" points="854,-53 750,-53 750,-0 854,-0 854,-53"/>
<text text-anchor="middle" x="802" y="-37.8" font-family="Times,serif" font-size="14.0">c_gini = 3.8</text>
<text text-anchor="middle" x="802" y="-22.8" font-family="Times,serif" font-size="14.0">instances = 43</text>
<text text-anchor="middle" x="802" y="-7.8" font-family="Times,serif" font-size="14.0">counts=[0,2,41]</text>
</g>
<g class="edge"><title>15&#45;&gt;16</title>
<path fill="none" stroke="black" d="M807.2,-88.9C806.5,-80.6 805.7,-71.7 805.0,-63.2"/>
<polygon fill="black" stroke="black" points="808.5,-62.9 804.2,-53.2 801.5,-63.5 808.5,-62.9"/>
</g>
<g class="node"><title>17</title>
<polygon fill="none" stroke="black" points="976,-53 872,-53 872,-0 976,-0 976,-53"/>
<text text-anchor="middle" x="924" y="-37.8" font-family="Times,serif" font-size="14.0">c_gini = 0.0</text>
<text text-anchor="middle" x="924" y="-22.8" font-family="Times,serif" font-size="14.0">instances = 33</text>
<text text-anchor="middle" x="924" y="-7.8" font-family="Times,serif" font-size="14.0">counts=[33,0,0]</text>
</g>
<g class="edge"><title>15&#45;&gt;17</title>
<path fill="none" stroke="black" d="M849.9,-88.9C861.2,-79.5 873.6,-69.3 884.9,-59.9"/>
<polygon fill="black" stroke="black" points="887.5,-62.3 893.0,-53.2 883.0,-56.9 887.5,-62.3"/>
</g>
<g class="node"><title>20</title>
<polygon fill="none" stroke="black" points="1235.5,-261 1112.5,-261 1112.5,-193 1235.5,-193 1235.5,-261"/>
<text text-anchor="middle" x="1174" y="-245.8" font-family="Times,serif" font-size="14.0">proline &lt;= 928.0</text>
<text text-anchor="middle" x="1174" y="-230.8" font-family="Times,serif" font-size="14.0">c_gini = 89.0</text>
<text text-anchor="middle" x="1174" y="-215.8" font-family="Times,serif" font-size="14.0">instances = 136</text>
<text text-anchor="middle" x="1174" y="-200.8" font-family="Times,serif" font-size="14.0">counts=[50,53,33]</text>
<title>21</title>
<polygon fill="none" stroke="black" points="1171,-157 1043,-157 1043,-89 1171,-89 1171,-157"/>
<text text-anchor="middle" x="1107" y="-141.8" font-family="Times,serif" font-size="14.0">flavanoids &lt;= 1.0</text>
<text text-anchor="middle" x="1107" y="-126.8" font-family="Times,serif" font-size="14.0">c_gini = 51.9</text>
<text text-anchor="middle" x="1107" y="-111.8" font-family="Times,serif" font-size="14.0">instances = 94</text>
<text text-anchor="middle" x="1107" y="-96.8" font-family="Times,serif" font-size="14.0">counts=[8,53,33]</text>
</g>
<g class="edge"><title>20&#45;&gt;21</title>
<path fill="none" stroke="black" d="M1152.2,-192.9C1146.6,-184.2 1140.4,-174.8 1134.5,-165.8"/>
<polygon fill="black" stroke="black" points="1137.3,-163.7 1128.9,-157.3 1131.4,-167.6 1137.3,-163.7"/>
</g>
<g class="node"><title>25</title>
<polygon fill="none" stroke="black" points="1293,-149.5 1189,-149.5 1189,-96.5 1293,-96.5 1293,-149.5"/>
<text text-anchor="middle" x="1241" y="-134.3" font-family="Times,serif" font-size="14.0">c_gini = 0.0</text>
<text text-anchor="middle" x="1241" y="-119.3" font-family="Times,serif" font-size="14.0">instances = 42</text>
<text text-anchor="middle" x="1241" y="-104.3" font-family="Times,serif" font-size="14.0">counts=[42,0,0]</text>
</g>
<g class="edge"><title>20&#45;&gt;25</title>
<path fill="none" stroke="black" d="M1195.8,-192.9C1203.0,-181.8 1211.2,-169.4 1218.5,-158.2"/>
<polygon fill="black" stroke="black" points="1221.7,-159.8 1224.2,-149.5 1215.8,-156.0 1221.7,-159.8"/>
</g>
<g class="node"><title>22</title>
<polygon fill="none" stroke="black" points="1098,-53 994,-53 994,-0 1098,-0 1098,-53"/>
<text text-anchor="middle" x="1046" y="-37.8" font-family="Times,serif" font-size="14.0">c_gini = 0.0</text>
<text text-anchor="middle" x="1046" y="-22.8" font-family="Times,serif" font-size="14.0">instances = 30</text>
<text text-anchor="middle" x="1046" y="-7.8" font-family="Times,serif" font-size="14.0">counts=[0,0,30]</text>
</g>
<g class="edge"><title>21&#45;&gt;22</title>
<path fill="none" stroke="black" d="M1085.7,-88.9C1080,-80.2 1073.9,-70.7 1068.2,-61.8"/>
<polygon fill="black" stroke="black" points="1071.0,-59.7 1062.6,-53.2 1065.1,-63.5 1071.0,-59.7"/>
</g>
<g class="node"><title>23</title>
<polygon fill="none" stroke="black" points="1220,-53 1116,-53 1116,-0 1220,-0 1220,-53"/>
<text text-anchor="middle" x="1168" y="-37.8" font-family="Times,serif" font-size="14.0">c_gini = 19.0</text>
<text text-anchor="middle" x="1168" y="-22.8" font-family="Times,serif" font-size="14.0">instances = 64</text>
<text text-anchor="middle" x="1168" y="-7.8" font-family="Times,serif" font-size="14.0">counts=[8,53,3]</text>
</g>
<g class="edge"><title>21&#45;&gt;23</title>
<path fill="none" stroke="black" d="M1128.3,-88.9C1134,-80.2 1140.1,-70.7 1145.8,-61.8"/>
<polygon fill="black" stroke="black" points="1148.9,-63.5 1151.4,-53.2 1143.0,-59.7 1148.9,-63.5"/>
</g>
</g>
</svg>
