<?xml version="1.0" encoding="utf-8" standalone="no"?>
<!DOCTYPE svg PUBLIC "-//W3C//DTD SVG 1.1//EN" "http://www.w3.org/Graphics/SVG/1.1/DTD/svg11.dtd">
<svg height="367.2pt" version="1.1" viewBox="0 0 486.0 367.2" width="486.0pt" xmlns="http://www.w3.org/2000/svg" xmlns:xlink="http://www.w3.org/1999/xlink">
<defs>
<style type="text/css"> *{stroke-linecap:butt;stroke-linejoin:round;}
</style>
</defs>
<g >
<g >
<path d="M 0 367.2  L 486.0 367.2  L 486.0 0  L 0 0  z " style="fill:#ffffff;"/>
<g >
<path d="M 28.9 343.3  L 475.3 343.3  L 475.3 10.7  L 28.9 10.7  z " style="fill:#ffffff;"/>
<path clip-path="url(#a)" d="M 61.3 326.6  L 69.4 326.6  L 77.5 326.6  L 85.7 326.6  L 93.8 326.6  L 101.9 326.6  L 110.1 326.6  L 118.2 326.6  L 126.4 326.6  L 134.5 326.6  L 142.6 326.6  L 150.8 326.6  L 158.9 326.6  L 167.0 326.6  L 175.2 326.6  L 183.3 326.6  L 191.4 326.6  L 199.6 326.6  L 207.7 326.6  L 215.9 326.6  L 224.0 326.6  L 232.1 326.6  L 240.3 326.6  L 248.4 326.6  L 256.5 326.6  L 264.7 326.6  L 272.8 326.6  L 281.0 326.6  L 289.1 326.6  L 297.2 326.6  L 305.4 326.6  L 313.5 326.6  L 321.6 326.6  L 329.8 326.6  L 337.9 326.6  L 346.1 326.6  L 354.2 326.6  L 362.3 326.6  L 370.5 326.6  L 378.6 326.6  L 386.7 326.6  L 394.9 326.6  L 403.0 326.6  L 411.1 326.6  L 419.3 326.6  L 427.4 326.6  L 435.6 326.6  L 443.7 326.6  L 451.8 326.6  L 451.8 320.6  L 451.8 314.5  L 451.8 308.4  L 451.8 302.3  L 451.8 296.2  L 451.8 290.1  L 451.8 284.0  L 451.8 277.9  L 451.8 271.8  L 451.8 265.7  L 451.8 259.6  L 451.8 253.5  L 451.8 247.4  L 451.8 241.3  L 451.8 235.2  L 451.8 229.1  L 451.8 223.0  L 451.8 216.9  L 451.8 210.8  L 451.8 204.7  L 451.8 198.6  L 451.8 192.5  L 451.8 186.4  L 451.8 180.4  L 450.1 180.3  L 443.7 179.8  L 435.6 179.0  L 427.4 177.8  L 419.3 176.3  L 411.1 174.5  L 410.0 174.2  L 403.0 172.2  L 394.9 169.5  L 390.9 168.1  L 386.7 166.3  L 378.6 162.6  L 377.4 162.0  L 370.5 158.1  L 366.5 155.9  L 362.3 153.2  L 356.6 149.8  L 354.2 148.3  L 346.1 143.8  L 345.8 143.7  L 337.9 139.9  L 331.8 137.6  L 329.8 136.8  L 321.6 134.4  L 313.5 132.5  L 307.0 131.5  L 305.4 131.2  L 297.2 130.5  L 289.1 130.3  L 281.0 130.6  L 273.7 131.5  L 272.8 131.6  L 264.7 133.1  L 256.5 135.4  L 250.6 137.6  L 248.4 138.4  L 240.3 142.4  L 238.1 143.7  L 232.1 147.3  L 228.5 149.8  L 224.0 152.8  L 219.6 155.9  L 215.9 158.3  L 210.2 162.0  L 207.7 163.5  L 200.1 168.1  L 199.6 168.3  L 191.4 173.0  L 189.3 174.2  L 183.3 177.6  L 178.8 180.3  L 175.2 182.5  L 168.8 186.4  L 167.0 187.5  L 159.5 192.5  L 158.9 192.9  L 150.8 198.3  L 150.4 198.6  L 142.6 203.5  L 140.6 204.7  L 134.5 208.1  L 129.3 210.8  L 126.4 212.2  L 118.2 215.7  L 115.2 216.9  L 110.1 218.8  L 101.9 221.4  L 96.3 223.0  L 93.8 223.7  L 85.7 225.7  L 77.5 227.4  L 69.4 228.9  L 68.1 229.1  L 61.3 230.2  L 53.1 231.2  L 53.1 235.2  L 53.1 241.3  L 53.1 247.4  L 53.1 253.5  L 53.1 259.6  L 53.1 265.7  L 53.1 271.8  L 53.1 277.9  L 53.1 284.0  L 53.1 290.1  L 53.1 296.2  L 53.1 302.3  L 53.1 308.4  L 53.1 314.5  L 53.1 320.6  L 53.1 326.6  z " style="fill:#e58368;"/>
<path clip-path="url(#a)" d="M 451.8 122.8  L 451.8 119.3  L 451.8 113.2  L 451.8 107.1  L 451.8 101.0  L 451.8 94.9  L 451.8 88.8  L 451.8 82.7  L 451.8 76.6  L 451.8 70.5  L 451.8 64.4  L 451.8 58.3  L 451.8 52.2  L 451.8 46.1  L 451.8 40.0  L 451.8 33.9  L 451.8 27.8  L 443.7 27.8  L 435.6 27.8  L 427.4 27.8  L 419.3 27.8  L 411.1 27.8  L 403.0 27.8  L 394.9 27.8  L 386.7 27.8  L 378.6 27.8  L 370.5 27.8  L 362.3 27.8  L 354.2 27.8  L 346.1 27.8  L 337.9 27.8  L 331.3 27.8  L 337.9 28.9  L 346.1 30.2  L 354.2 31.2  L 362.3 32.2  L 370.5 33.2  L 375.7 33.9  L 378.6 34.2  L 386.7 35.1  L 394.9 36.4  L 403.0 38.1  L 409.9 40.0  L 411.1 40.3  L 419.3 42.8  L 426.2 46.1  L 427.4 46.7  L 434.8 52.2  L 435.6 53.1  L 438.9 58.3  L 439.9 64.4  L 439.0 70.5  L 437.0 76.6  L 435.6 80.0  L 434.7 82.7  L 432.8 88.8  L 431.7 94.9  L 431.8 101.0  L 433.8 107.1  L 435.6 109.6  L 438.3 113.2  L 443.7 117.7  L 445.8 119.3  z " style="fill:#e58368;"/>
<path clip-path="url(#a)" d="M 61.3 113.9  L 62.6 113.2  L 69.4 108.5  L 71.6 107.1  L 77.5 101.9  L 78.6 101.0  L 82.4 94.9  L 82.9 88.8  L 80.5 82.7  L 77.5 78.1  L 76.4 76.6  L 71.5 70.5  L 69.4 67.4  L 67.1 64.4  L 63.5 58.3  L 61.3 52.4  L 61.2 52.2  L 59.8 46.1  L 59.9 40.0  L 61.3 34.6  L 61.4 33.9  L 64.1 27.8  L 61.3 27.8  L 53.1 27.8  L 53.1 33.9  L 53.1 40.0  L 53.1 46.1  L 53.1 52.2  L 53.1 58.3  L 53.1 64.4  L 53.1 70.5  L 53.1 76.6  L 53.1 82.7  L 53.1 88.8  L 53.1 94.9  L 53.1 101.0  L 53.1 107.1  L 53.1 113.2  L 53.1 118.5  z " style="fill:#e58368;"/>
<path clip-path="url(#a)" d="M 61.3 230.2  L 68.1 229.1  L 69.4 228.9  L 77.5 227.4  L 85.7 225.7  L 93.8 223.7  L 96.3 223.0  L 101.9 221.4  L 110.1 218.8  L 115.2 216.9  L 118.2 215.7  L 126.4 212.2  L 129.3 210.8  L 134.5 208.1  L 140.6 204.7  L 142.6 203.5  L 150.4 198.6  L 150.8 198.3  L 158.9 192.9  L 159.5 192.5  L 167.0 187.5  L 168.8 186.4  L 175.2 182.5  L 178.8 180.3  L 183.3 177.6  L 189.3 174.2  L 191.4 173.0  L 199.6 168.3  L 200.1 168.1  L 207.7 163.5  L 210.2 162.0  L 215.9 158.3  L 219.6 155.9  L 224.0 152.8  L 228.5 149.8  L 232.1 147.3  L 238.1 143.7  L 240.3 142.4  L 248.4 138.4  L 250.6 137.6  L 256.5 135.4  L 264.7 133.1  L 272.8 131.6  L 273.7 131.5  L 281.0 130.6  L 289.1 130.3  L 297.2 130.5  L 305.4 131.2  L 307.0 131.5  L 313.5 132.5  L 321.6 134.4  L 329.8 136.8  L 331.8 137.6  L 337.9 139.9  L 345.8 143.7  L 346.1 143.8  L 354.2 148.3  L 356.6 149.8  L 362.3 153.2  L 366.5 155.9  L 370.5 158.1  L 377.4 162.0  L 378.6 162.6  L 386.7 166.3  L 390.9 168.1  L 394.9 169.5  L 403.0 172.2  L 410.0 174.2  L 411.1 174.5  L 419.3 176.3  L 427.4 177.8  L 435.6 179.0  L 443.7 179.8  L 450.1 180.3  L 451.8 180.4  L 451.8 180.3  L 451.8 174.2  L 451.8 168.1  L 451.8 162.0  L 451.8 155.9  L 451.8 149.8  L 451.8 143.7  L 451.8 137.6  L 451.8 131.5  L 451.8 125.4  L 451.8 122.8  L 445.8 119.3  L 443.7 117.7  L 438.3 113.2  L 435.6 109.6  L 433.8 107.1  L 431.8 101.0  L 431.7 94.9  L 432.8 88.8  L 434.7 82.7  L 435.6 80.0  L 437.0 76.6  L 439.0 70.5  L 439.9 64.4  L 438.9 58.3  L 435.6 53.1  L 434.8 52.2  L 427.4 46.7  L 426.2 46.1  L 419.3 42.8  L 411.1 40.3  L 409.9 40.0  L 403.0 38.1  L 394.9 36.4  L 386.7 35.1  L 378.6 34.2  L 375.7 33.9  L 370.5 33.2  L 362.3 32.2  L 354.2 31.2  L 346.1 30.2  L 337.9 28.9  L 331.3 27.8  L 329.8 27.8  L 321.6 27.8  L 313.5 27.8  L 305.4 27.8  L 297.2 27.8  L 289.1 27.8  L 281.0 27.8  L 272.8 27.8  L 264.7 27.8  L 256.5 27.8  L 248.4 27.8  L 240.3 27.8  L 232.1 27.8  L 224.0 27.8  L 215.9 27.8  L 207.7 27.8  L 199.6 27.8  L 191.4 27.8  L 183.3 27.8  L 175.2 27.8  L 167.0 27.8  L 158.9 27.8  L 150.8 27.8  L 142.6 27.8  L 134.5 27.8  L 126.4 27.8  L 118.2 27.8  L 110.1 27.8  L 101.9 27.8  L 93.8 27.8  L 85.7 27.8  L 77.5 27.8  L 69.4 27.8  L 64.1 27.8  L 61.4 33.9  L 61.3 34.6  L 59.9 40.0  L 59.8 46.1  L 61.2 52.2  L 61.3 52.4  L 63.5 58.3  L 67.1 64.4  L 69.4 67.4  L 71.5 70.5  L 76.4 76.6  L 77.5 78.1  L 80.5 82.7  L 82.9 88.8  L 82.4 94.9  L 78.6 101.0  L 77.5 101.9  L 71.6 107.1  L 69.4 108.5  L 62.6 113.2  L 61.3 113.9  L 53.1 118.5  L 53.1 119.3  L 53.1 125.4  L 53.1 131.5  L 53.1 137.6  L 53.1 143.7  L 53.1 149.8  L 53.1 155.9  L 53.1 162.0  L 53.1 168.1  L 53.1 174.2  L 53.1 180.3  L 53.1 186.4  L 53.1 192.5  L 53.1 198.6  L 53.1 204.7  L 53.1 210.8  L 53.1 216.9  L 53.1 223.0  L 53.1 229.1  L 53.1 231.2  z " style="fill:#68abd0;"/>
<path clip-path="url(#a)" d="M 451.8 234.7  L 451.3 235.2  L 443.7 240.0  L 441.0 241.3  L 435.6 243.5  L 427.4 246.0  L 419.3 247.7  L 411.1 248.9  L 403.0 249.4  L 394.9 249.0  L 386.7 247.0  L 378.6 242.9  L 376.8 241.3  L 370.5 236.0  L 369.7 235.2  L 362.3 228.5  L 355.7 223.0  L 346.1 216.2  L 337.9 211.6  L 336.1 210.8  L 329.8 207.8  L 320.6 204.7  L 313.5 202.7  L 305.4 201.1  L 297.2 200.2  L 289.1 199.9  L 281.0 200.1  L 272.8 200.8  L 264.7 202.3  L 256.0 204.7  L 248.4 207.3  L 241.5 210.8  L 240.3 211.5  L 233.1 216.9  L 228.2 223.0  L 225.9 229.1  L 223.3 241.3  L 220.9 247.4  L 216.3 253.5  L 215.9 253.8  L 207.7 258.7  L 205.9 259.6  L 199.6 261.7  L 191.4 263.9  L 183.3 265.8  L 167.0 269.1  L 156.3 271.8  L 150.8 273.3  L 142.6 276.0  L 134.5 279.6  L 126.4 284.3  L 117.4 290.1  L 106.8 296.2  L 101.9 298.3  L 93.8 301.4  L 90.6 302.3  L 85.7 303.2  L 77.5 303.9  L 69.4 303.4  L 64.5 302.3  L 61.3 300.3  L 57.8 296.2  L 59.9 290.1  L 61.3 288.9  L 67.6 284.0  L 69.4 283.0  L 79.6 277.9  L 85.7 275.3  L 93.8 271.6  L 101.9 268.3  L 107.2 265.7  L 110.1 264.3  L 126.4 255.4  L 129.2 253.5  L 134.5 250.6  L 139.4 247.4  L 142.6 245.7  L 150.8 240.7  L 170.3 229.1  L 180.3 223.0  L 189.4 216.9  L 197.5 210.8  L 212.0 198.6  L 215.9 195.6  L 219.9 192.5  L 224.0 189.7  L 228.6 186.4  L 232.1 184.1  L 237.7 180.3  L 240.3 178.6  L 256.5 167.0  L 264.7 161.6  L 272.8 157.5  L 277.0 155.9  L 281.0 154.7  L 289.1 153.2  L 297.2 152.8  L 305.4 153.5  L 313.5 155.0  L 316.3 155.9  L 321.6 157.7  L 331.7 162.0  L 346.1 169.1  L 356.9 174.2  L 362.3 176.6  L 378.6 182.6  L 386.7 185.1  L 391.2 186.4  L 394.9 187.5  L 403.0 189.9  L 412.5 192.5  L 419.3 194.7  L 431.9 198.6  L 445.7 204.7  L 451.8 209.2  L 451.8 209.2  " style="fill:none;stroke:#000000;stroke-dasharray:5.5,2.4;stroke-dashoffset:0;stroke-width:1.5;"/>
<path clip-path="url(#a)" d="M 329.8 284.0  L 329.8 284.0  L 329.8 283.9  L 329.9 284.0  L 329.8 284.0  " style="fill:none;stroke:#000000;stroke-dasharray:5.5,2.4;stroke-dashoffset:0;stroke-width:1.5;"/>
<path clip-path="url(#a)" d="M 53.1 231.2  L 61.3 230.2  L 68.1 229.1  L 69.4 228.9  L 77.5 227.4  L 85.7 225.7  L 93.8 223.7  L 96.3 223.0  L 101.9 221.4  L 110.1 218.8  L 115.2 216.9  L 118.2 215.7  L 126.4 212.2  L 129.3 210.8  L 134.5 208.1  L 140.6 204.7  L 142.6 203.5  L 150.4 198.6  L 150.8 198.3  L 158.9 192.9  L 159.5 192.5  L 167.0 187.5  L 168.8 186.4  L 175.2 182.5  L 178.8 180.3  L 183.3 177.6  L 189.3 174.2  L 191.4 173.0  L 199.6 168.3  L 200.1 168.1  L 207.7 163.5  L 210.2 162.0  L 215.9 158.3  L 219.6 155.9  L 224.0 152.8  L 228.5 149.8  L 232.1 147.3  L 238.1 143.7  L 240.3 142.4  L 248.4 138.4  L 250.6 137.6  L 256.5 135.4  L 264.7 133.1  L 272.8 131.6  L 273.7 131.5  L 281.0 130.6  L 289.1 130.3  L 297.2 130.5  L 305.4 131.2  L 307.0 131.5  L 313.5 132.5  L 321.6 134.4  L 329.8 136.8  L 331.8 137.6  L 337.9 139.9  L 345.8 143.7  L 346.1 143.8  L 354.2 148.3  L 356.6 149.8  L 362.3 153.2  L 366.5 155.9  L 370.5 158.1  L 377.4 162.0  L 378.6 162.6  L 386.7 166.3  L 390.9 168.1  L 394.9 169.5  L 403.0 172.2  L 410.0 174.2  L 411.1 174.5  L 419.3 176.3  L 427.4 177.8  L 435.6 179.0  L 443.7 179.8  L 450.1 180.3  L 451.8 180.4  " style="fill:none;stroke:#000000;stroke-width:1.5;"/>
<path clip-path="url(#a)" d="M 451.8 122.8  L 445.8 119.3  L 443.7 117.7  L 438.3 113.2  L 435.6 109.6  L 433.8 107.1  L 431.8 101.0  L 431.7 94.9  L 432.8 88.8  L 434.7 82.7  L 435.6 80.0  L 437.0 76.6  L 439.0 70.5  L 439.9 64.4  L 438.9 58.3  L 435.6 53.1  L 434.8 52.2  L 427.4 46.7  L 426.2 46.1  L 419.3 42.8  L 411.1 40.3  L 409.9 40.0  L 403.0 38.1  L 394.9 36.4  L 386.7 35.1  L 378.6 34.2  L 375.7 33.9  L 370.5 33.2  L 362.3 32.2  L 354.2 31.2  L 346.1 30.2  L 337.9 28.9  L 331.3 27.8  " style="fill:none;stroke:#000000;stroke-width:1.5;"/>
<path clip-path="url(#a)" d="M 64.1 27.8  L 61.4 33.9  L 61.3 34.6  L 59.9 40.0  L 59.8 46.1  L 61.2 52.2  L 61.3 52.4  L 63.5 58.3  L 67.1 64.4  L 69.4 67.4  L 71.5 70.5  L 76.4 76.6  L 77.5 78.1  L 80.5 82.7  L 82.9 88.8  L 82.4 94.9  L 78.6 101.0  L 77.5 101.9  L 71.6 107.1  L 69.4 108.5  L 62.6 113.2  L 61.3 113.9  L 53.1 118.5  " style="fill:none;stroke:#000000;stroke-width:1.5;"/>
<path clip-path="url(#a)" d="M 69.4 192.6  L 77.5 193.0  L 82.6 192.5  L 85.7 192.0  L 93.8 189.7  L 101.9 186.8  L 102.9 186.4  L 110.1 182.3  L 113.9 180.3  L 118.2 177.3  L 123.6 174.2  L 126.4 172.3  L 134.2 168.1  L 134.5 167.9  L 142.6 163.4  L 145.8 162.0  L 150.8 159.4  L 158.4 155.9  L 158.9 155.6  L 167.0 150.7  L 168.7 149.8  L 175.2 144.7  L 176.5 143.7  L 181.4 137.6  L 183.3 132.2  L 183.6 131.5  L 183.3 130.9  L 175.2 128.7  L 167.0 129.9  L 161.5 131.5  L 158.9 132.2  L 150.8 135.4  L 145.5 137.6  L 142.6 139.0  L 134.5 143.1  L 133.5 143.7  L 126.4 148.0  L 123.2 149.8  L 118.2 152.8  L 112.2 155.9  L 110.1 157.0  L 101.9 160.7  L 98.8 162.0  L 93.8 164.1  L 85.7 167.1  L 83.2 168.1  L 77.5 170.6  L 69.4 174.2  L 69.4 174.2  L 61.3 180.1  L 61.1 180.3  L 59.1 186.4  L 61.3 188.7  L 68.6 192.5  L 69.4 192.6  " style="fill:none;stroke:#000000;stroke-width:1.5;"/>
<path clip-path="url(#a)" d="M 411.1 152.2  L 419.3 154.5  L 427.4 154.7  L 434.2 149.8  L 428.7 143.7  L 427.4 142.9  L 419.3 138.8  L 416.7 137.6  L 411.1 135.3  L 403.0 131.9  L 401.7 131.5  L 394.9 128.2  L 390.9 125.4  L 387.8 119.3  L 386.7 115.7  L 386.0 113.2  L 384.4 107.1  L 382.6 101.0  L 379.8 94.9  L 378.6 93.2  L 374.3 88.8  L 370.5 86.2  L 362.4 82.7  L 362.3 82.6  L 354.2 80.9  L 346.1 80.0  L 337.9 79.6  L 329.8 79.5  L 321.6 79.6  L 313.5 79.7  L 305.4 79.7  L 297.2 79.4  L 289.1 78.7  L 281.0 77.6  L 275.3 76.6  L 272.8 76.1  L 264.7 74.3  L 256.5 71.8  L 252.6 70.5  L 248.4 68.8  L 240.3 64.6  L 239.9 64.4  L 232.1 59.0  L 231.2 58.3  L 224.0 52.6  L 223.5 52.2  L 215.9 47.4  L 213.6 46.1  L 207.7 43.6  L 199.6 41.0  L 193.7 40.0  L 191.4 39.7  L 183.3 39.7  L 181.7 40.0  L 175.2 42.0  L 169.4 46.1  L 169.4 52.2  L 174.4 58.3  L 175.2 58.9  L 182.9 64.4  L 183.3 64.7  L 191.4 69.9  L 192.4 70.5  L 199.6 76.6  L 199.6 76.6  L 203.8 82.7  L 205.4 88.8  L 205.8 94.9  L 205.9 101.0  L 206.6 107.1  L 207.7 108.8  L 215.9 111.7  L 224.0 111.5  L 232.1 110.7  L 240.3 109.8  L 248.4 108.9  L 256.5 108.1  L 264.7 107.5  L 272.8 107.1  L 273.9 107.1  L 281.0 106.8  L 289.1 107.0  L 289.6 107.1  L 297.2 107.5  L 305.4 108.3  L 313.5 109.6  L 321.6 111.3  L 328.5 113.2  L 329.8 113.4  L 337.9 115.3  L 346.1 117.5  L 351.9 119.3  L 354.2 119.9  L 362.3 122.1  L 370.5 124.8  L 372.5 125.4  L 378.6 127.6  L 385.2 131.5  L 386.7 132.7  L 391.1 137.6  L 394.9 141.7  L 396.5 143.7  L 403.0 148.4  L 404.9 149.8  L 411.1 152.2  " style="fill:none;stroke:#000000;stroke-width:1.5;"/>
<defs>
<path d="M 0 4.7  C 1.3 4.7 2.5 4.2 3.4 3.4  C 4.2 2.5 4.7 1.3 4.7 0  C 4.7 -1.3 4.2 -2.5 3.4 -3.4  C 2.5 -4.2 1.3 -4.7 0 -4.7  C -1.3 -4.7 -2.5 -4.2 -3.4 -3.4  C -4.2 -2.5 -4.7 -1.3 -4.7 0  C -4.7 1.3 -4.2 2.5 -3.4 3.4  C -2.5 4.2 -1.3 4.7 0 4.7  z " id="d" style="stroke:#00dd00;"/>
</defs>
<g clip-path="url(#a)">
<use style="fill:#00dd00;stroke:#00dd00;" x="447.5" xlink:href="#d" y="111.2"/>
<use style="fill:#00dd00;stroke:#00dd00;" x="404.4" xlink:href="#d" y="149.7"/>
<use style="fill:#00dd00;stroke:#00dd00;" x="451.8" xlink:href="#d" y="162.7"/>
<use style="fill:#00dd00;stroke:#00dd00;" x="224.1" xlink:href="#d" y="239.9"/>
<use style="fill:#00dd00;stroke:#00dd00;" x="398.8" xlink:href="#d" y="164.2"/>
<use style="fill:#00dd00;stroke:#00dd00;" x="310.1" xlink:href="#d" y="79.6"/>
<use style="fill:#00dd00;stroke:#00dd00;" x="128.7" xlink:href="#d" y="253.6"/>
<use style="fill:#00dd00;stroke:#00dd00;" x="415.9" xlink:href="#d" y="173.9"/>
<use style="fill:#00dd00;stroke:#00dd00;" x="61.7" xlink:href="#d" y="301.2"/>
<use style="fill:#00dd00;stroke:#00dd00;" x="407.4" xlink:href="#d" y="181.1"/>
<use style="fill:#00dd00;stroke:#00dd00;" x="221.3" xlink:href="#d" y="191.2"/>
<use style="fill:#00dd00;stroke:#00dd00;" x="447.7" xlink:href="#d" y="237.7"/>
<use style="fill:#00dd00;stroke:#00dd00;" x="414.5" xlink:href="#d" y="193.0"/>
<use style="fill:#00dd00;stroke:#00dd00;" x="173.7" xlink:href="#d" y="146.3"/>
<use style="fill:#00dd00;stroke:#00dd00;" x="419.4" xlink:href="#d" y="167.3"/>
<use style="fill:#00dd00;stroke:#00dd00;" x="374.7" xlink:href="#d" y="88.9"/>
<use style="fill:#00dd00;stroke:#00dd00;" x="203.9" xlink:href="#d" y="83.3"/>
<use style="fill:#00dd00;stroke:#00dd00;" x="387.5" xlink:href="#d" y="167.8"/>
<use style="fill:#00dd00;stroke:#00dd00;" x="327.0" xlink:href="#d" y="288.2"/>
<use style="fill:#00dd00;stroke:#00dd00;" x="423.8" xlink:href="#d" y="195.8"/>
<use style="fill:#00dd00;stroke:#00dd00;" x="235.2" xlink:href="#d" y="61.2"/>
<use style="fill:#00dd00;stroke:#00dd00;" x="64.3" xlink:href="#d" y="191.3"/>
<use style="fill:#00dd00;stroke:#00dd00;" x="416.6" xlink:href="#d" y="155.0"/>
<use style="fill:#00dd00;stroke:#00dd00;" x="393.7" xlink:href="#d" y="178.5"/>
<use style="fill:#00dd00;stroke:#00dd00;" x="426.6" xlink:href="#d" y="178.4"/>
<use style="fill:#00dd00;stroke:#00dd00;" x="127.1" xlink:href="#d" y="172.2"/>
<use style="fill:#00dd00;stroke:#00dd00;" x="360.2" xlink:href="#d" y="121.7"/>
<use style="fill:#00dd00;stroke:#00dd00;" x="390.2" xlink:href="#d" y="123.5"/>
<use style="fill:#00dd00;stroke:#00dd00;" x="125.9" xlink:href="#d" y="284.7"/>
<use style="fill:#00dd00;stroke:#00dd00;" x="293.8" xlink:href="#d" y="200.1"/>
<use style="fill:#00dd00;stroke:#00dd00;" x="357.7" xlink:href="#d" y="98.3"/>
<use style="fill:#00dd00;stroke:#00dd00;" x="373.6" xlink:href="#d" y="119.0"/>
<use style="fill:#00dd00;stroke:#00dd00;" x="174.0" xlink:href="#d" y="42.0"/>
<use style="fill:#00dd00;stroke:#00dd00;" x="371.9" xlink:href="#d" y="237.2"/>
<use style="fill:#00dd00;stroke:#00dd00;" x="258.3" xlink:href="#d" y="108.1"/>
<use style="fill:#00dd00;stroke:#00dd00;" x="367.4" xlink:href="#d" y="152.9"/>
<use style="fill:#00dd00;stroke:#00dd00;" x="285.4" xlink:href="#d" y="141.4"/>
<use style="fill:#00dd00;stroke:#00dd00;" x="187.4" xlink:href="#d" y="218.1"/>
<use style="fill:#00dd00;stroke:#00dd00;" x="284.3" xlink:href="#d" y="230.6"/>
<use style="fill:#00dd00;stroke:#00dd00;" x="183.0" xlink:href="#d" y="135.3"/>
</g>
</g>
<g >
<defs>
<path d="M 0 -5.7  L -1.3 -1.8  L -5.4 -1.8  L -2.1 0.7  L -3.4 4.6  L -0 2.2  L 3.4 4.6  L 2.1 0.7  L 5.4 -1.8  L 1.3 -1.8  z " id="e" style="stroke:#ffff00;"/>
</defs>
<g clip-path="url(#a)">
<use style="fill:#ffff00;stroke:#ffff00;" x="265.7" xlink:href="#e" y="170.3"/>
<use style="fill:#ffff00;stroke:#ffff00;" x="446.5" xlink:href="#e" y="185.6"/>
<use style="fill:#ffff00;stroke:#ffff00;" x="259.4" xlink:href="#e" y="175.2"/>
<use style="fill:#ffff00;stroke:#ffff00;" x="418.7" xlink:href="#e" y="193.5"/>
<use style="fill:#ffff00;stroke:#ffff00;" x="421.9" xlink:href="#e" y="191.8"/>
<use style="fill:#ffff00;stroke:#ffff00;" x="440.9" xlink:href="#e" y="152.6"/>
<use style="fill:#ffff00;stroke:#ffff00;" x="383.9" xlink:href="#e" y="122.5"/>
<use style="fill:#ffff00;stroke:#ffff00;" x="319.9" xlink:href="#e" y="149.3"/>
<use style="fill:#ffff00;stroke:#ffff00;" x="382.6" xlink:href="#e" y="176.5"/>
<use style="fill:#ffff00;stroke:#ffff00;" x="208.7" xlink:href="#e" y="167.8"/>
<use style="fill:#ffff00;stroke:#ffff00;" x="355.9" xlink:href="#e" y="191.0"/>
<use style="fill:#ffff00;stroke:#ffff00;" x="53.1" xlink:href="#e" y="102.0"/>
<use style="fill:#ffff00;stroke:#ffff00;" x="356.0" xlink:href="#e" y="166.6"/>
<use style="fill:#ffff00;stroke:#ffff00;" x="257.1" xlink:href="#e" y="147.5"/>
<use style="fill:#ffff00;stroke:#ffff00;" x="269.9" xlink:href="#e" y="188.8"/>
<use style="fill:#ffff00;stroke:#ffff00;" x="298.9" xlink:href="#e" y="135.6"/>
<use style="fill:#ffff00;stroke:#ffff00;" x="412.2" xlink:href="#e" y="176.7"/>
<use style="fill:#ffff00;stroke:#ffff00;" x="430.0" xlink:href="#e" y="169.7"/>
<use style="fill:#ffff00;stroke:#ffff00;" x="235.4" xlink:href="#e" y="161.6"/>
<use style="fill:#ffff00;stroke:#ffff00;" x="421.9" xlink:href="#e" y="179.1"/>
<use style="fill:#ffff00;stroke:#ffff00;" x="317.0" xlink:href="#e" y="193.2"/>
<use style="fill:#ffff00;stroke:#ffff00;" x="327.6" xlink:href="#e" y="173.9"/>
<use style="fill:#ffff00;stroke:#ffff00;" x="177.2" xlink:href="#e" y="194.6"/>
<use style="fill:#ffff00;stroke:#ffff00;" x="431.3" xlink:href="#e" y="166.8"/>
<use style="fill:#ffff00;stroke:#ffff00;" x="254.0" xlink:href="#e" y="160.3"/>
</g>
</g>
<g >
<g >
<g >
<defs>
<path d="M 0 0  L 0 3.5  " id="i" style="stroke:#000000;stroke-width:0.8;"/>
</defs>
<g>
<use style="stroke:#000000;stroke-width:0.8;" x="63.2" xlink:href="#i" y="343.3"/>
</g>
</g>
<g >
<defs>
<path d="M 10.6 35.5  L 73.2 35.5  L 73.2 27.2  L 10.6 27.2  z " id="g" />
<path d="M 40.6 39.3  Q 47.7 37.8 51.6 33  Q 55.6 28.2 55.6 21.2  Q 55.6 10.4 48.2 4.5  Q 40.8 -1.4 27.1 -1.4  Q 22.5 -1.4 17.7 -0.5  Q 12.8 0.4 7.6 2.2  L 7.6 11.7  Q 11.7 9.3 16.6 8.1  Q 21.5 6.9 26.8 6.9  Q 36.1 6.9 40.9 10.5  Q 45.8 14.2 45.8 21.2  Q 45.8 27.6 41.3 31.3  Q 36.8 34.9 28.7 34.9  L 20.2 34.9  L 20.2 43.0  L 29.1 43.0  Q 36.4 43.0 40.2 45.9  Q 44.1 48.8 44.1 54.3  Q 44.1 59.9 40.1 62.9  Q 36.1 65.9 28.7 65.9  Q 24.7 65.9 20.0 65.0  Q 15.4 64.2 9.8 62.3  L 9.8 71.1  Q 15.4 72.7 20.3 73.4  Q 25.2 74.2 29.6 74.2  Q 40.8 74.2 47.4 69.1  Q 53.9 64.0 53.9 55.3  Q 53.9 49.3 50.4 45.1  Q 47.0 40.9 40.6 39.3  z " id="p" />
</defs>
<g transform="translate(55.8 357.9)scale(0.1 -0.1)">
<use xlink:href="#g"/>
<use x="83.8" xlink:href="#p"/>
</g>
</g>
</g>
<g >
<g >
<g>
<use style="stroke:#000000;stroke-width:0.8;" x="143.8" xlink:href="#i" y="343.3"/>
</g>
</g>
<g >
<defs>
<path d="M 19.2 8.3  L 53.6 8.3  L 53.6 0  L 7.3 0  L 7.3 8.3  Q 12.9 14.1 22.6 23.9  Q 32.3 33.7 34.8 36.5  Q 39.5 41.8 41.4 45.5  Q 43.3 49.2 43.3 52.8  Q 43.3 58.6 39.2 62.2  Q 35.2 65.9 28.6 65.9  Q 24.0 65.9 18.8 64.3  Q 13.7 62.7 7.8 59.4  L 7.8 69.4  Q 13.8 71.8 18.9 73  Q 24.1 74.2 28.4 74.2  Q 39.8 74.2 46.5 68.5  Q 53.2 62.9 53.2 53.4  Q 53.2 48.9 51.5 44.9  Q 49.9 40.9 45.4 35.4  Q 44.2 34.0 37.6 27.2  Q 31.1 20.5 19.2 8.3  z " id="m" />
</defs>
<g transform="translate(136.4 357.9)scale(0.1 -0.1)">
<use xlink:href="#g"/>
<use x="83.8" xlink:href="#m"/>
</g>
</g>
</g>
<g >
<g >
<g>
<use style="stroke:#000000;stroke-width:0.8;" x="224.4" xlink:href="#i" y="343.3"/>
</g>
</g>
<g >
<defs>
<path d="M 12.4 8.3  L 28.5 8.3  L 28.5 63.9  L 11.0 60.4  L 11.0 69.4  L 28.4 72.9  L 38.3 72.9  L 38.3 8.3  L 54.4 8.3  L 54.4 0  L 12.4 0  z " id="l" />
</defs>
<g transform="translate(217.0 357.9)scale(0.1 -0.1)">
<use xlink:href="#g"/>
<use x="83.8" xlink:href="#l"/>
</g>
</g>
</g>
<g >
<g >
<g>
<use style="stroke:#000000;stroke-width:0.8;" x="305.0" xlink:href="#i" y="343.3"/>
</g>
</g>
<g >
<defs>
<path d="M 31.8 66.4  Q 24.2 66.4 20.3 58.9  Q 16.5 51.4 16.5 36.4  Q 16.5 21.4 20.3 13.9  Q 24.2 6.4 31.8 6.4  Q 39.5 6.4 43.3 13.9  Q 47.1 21.4 47.1 36.4  Q 47.1 51.4 43.3 58.9  Q 39.5 66.4 31.8 66.4  z M 31.8 74.2  Q 44.0 74.2 50.5 64.5  Q 57.0 54.8 57.0 36.4  Q 57.0 18.0 50.5 8.3  Q 44.0 -1.4 31.8 -1.4  Q 19.5 -1.4 13.1 8.3  Q 6.6 18.0 6.6 36.4  Q 6.6 54.8 13.1 64.5  Q 19.5 74.2 31.8 74.2  z " id="t" />
</defs>
<g transform="translate(301.8 357.9)scale(0.1 -0.1)">
<use xlink:href="#t"/>
</g>
</g>
</g>
<g >
<g >
<g>
<use style="stroke:#000000;stroke-width:0.8;" x="385.6" xlink:href="#i" y="343.3"/>
</g>
</g>
<g >
<g transform="translate(382.4 357.9)scale(0.1 -0.1)">
<use xlink:href="#l"/>
</g>
</g>
</g>
<g >
<g >
<g>
<use style="stroke:#000000;stroke-width:0.8;" x="466.2" xlink:href="#i" y="343.3"/>
</g>
</g>
<g >
<g transform="translate(463.0 357.9)scale(0.1 -0.1)">
<use xlink:href="#m"/>
</g>
</g>
</g>
</g>
<g >
<g >
<g >
<defs>
<path d="M 0 0  L -3.5 0  " id="f" style="stroke:#000000;stroke-width:0.8;"/>
</defs>
<g>
<use style="stroke:#000000;stroke-width:0.8;" x="28.9" xlink:href="#f" y="325.1"/>
</g>
</g>
<g >
<defs>
<path d="M 37.8 64.3  L 12.9 25.4  L 37.8 25.4  z M 35.2 72.9  L 47.6 72.9  L 47.6 25.4  L 58.0 25.4  L 58.0 17.2  L 47.6 17.2  L 47.6 0  L 37.8 0  L 37.8 17.2  L 4.9 17.2  L 4.9 26.7  z " id="u" />
</defs>
<g transform="translate(7.2 328.9)scale(0.1 -0.1)">
<use xlink:href="#g"/>
<use x="83.8" xlink:href="#u"/>
</g>
</g>
</g>
<g >
<g >
<g>
<use style="stroke:#000000;stroke-width:0.8;" x="28.9" xlink:href="#f" y="287.0"/>
</g>
</g>
<g >
<g transform="translate(7.2 290.8)scale(0.1 -0.1)">
<use xlink:href="#g"/>
<use x="83.8" xlink:href="#p"/>
</g>
</g>
</g>
<g >
<g >
<g>
<use style="stroke:#000000;stroke-width:0.8;" x="28.9" xlink:href="#f" y="248.9"/>
</g>
</g>
<g >
<g transform="translate(7.2 252.7)scale(0.1 -0.1)">
<use xlink:href="#g"/>
<use x="83.8" xlink:href="#m"/>
</g>
</g>
</g>
<g >
<g >
<g>
<use style="stroke:#000000;stroke-width:0.8;" x="28.9" xlink:href="#f" y="210.8"/>
</g>
</g>
<g >
<g transform="translate(7.2 214.6)scale(0.1 -0.1)">
<use xlink:href="#g"/>
<use x="83.8" xlink:href="#l"/>
</g>
</g>
</g>
<g >
<g >
<g>
<use style="stroke:#000000;stroke-width:0.8;" x="28.9" xlink:href="#f" y="172.7"/>
</g>
</g>
<g >
<g transform="translate(15.6 176.5)scale(0.1 -0.1)">
<use xlink:href="#t"/>
</g>
</g>
</g>
<g >
<g >
<g>
<use style="stroke:#000000;stroke-width:0.8;" x="28.9" xlink:href="#f" y="134.6"/>
</g>
</g>
<g >
<g transform="translate(15.6 138.4)scale(0.1 -0.1)">
<use xlink:href="#l"/>
</g>
</g>
</g>
<g >
<g >
<g>
<use style="stroke:#000000;stroke-width:0.8;" x="28.9" xlink:href="#f" y="96.6"/>
</g>
</g>
<g >
<g transform="translate(15.6 100.4)scale(0.1 -0.1)">
<use xlink:href="#m"/>
</g>
</g>
</g>
<g >
<g >
<g>
<use style="stroke:#000000;stroke-width:0.8;" x="28.9" xlink:href="#f" y="58.5"/>
</g>
</g>
<g >
<g transform="translate(15.6 62.3)scale(0.1 -0.1)">
<use xlink:href="#p"/>
</g>
</g>
</g>
<g >
<g >
<g>
<use style="stroke:#000000;stroke-width:0.8;" x="28.9" xlink:href="#f" y="20.4"/>
</g>
</g>
<g >
<g transform="translate(15.6 24.2)scale(0.1 -0.1)">
<use xlink:href="#u"/>
</g>
</g>
</g>
</g>
<g >
<defs>
<path d="M 0 3  C 0.8 3 1.6 2.7 2.1 2.1  C 2.7 1.6 3 0.8 3 0  C 3 -0.8 2.7 -1.6 2.1 -2.1  C 1.6 -2.7 0.8 -3 0 -3  C -0.8 -3 -1.6 -2.7 -2.1 -2.1  C -2.7 -1.6 -3 -0.8 -3 0  C -3 0.8 -2.7 1.6 -2.1 2.1  C -1.6 2.7 -0.8 3 0 3  z " id="c" />
</defs>
<g clip-path="url(#a)">
<use style="fill:#67001f;stroke:#67001f;" x="447.5" xlink:href="#c" y="111.2"/>
<use style="fill:#053061;stroke:#053061;" x="372.5" xlink:href="#c" y="115.0"/>
<use style="fill:#67001f;stroke:#67001f;" x="388.8" xlink:href="#c" y="187.6"/>
<use style="fill:#67001f;stroke:#67001f;" x="400.7" xlink:href="#c" y="190.9"/>
<use style="fill:#053061;stroke:#053061;" x="404.4" xlink:href="#c" y="149.7"/>
<use style="fill:#67001f;stroke:#67001f;" x="451.8" xlink:href="#c" y="162.7"/>
<use style="fill:#67001f;stroke:#67001f;" x="224.1" xlink:href="#c" y="239.9"/>
<use style="fill:#053061;stroke:#053061;" x="398.8" xlink:href="#c" y="164.2"/>
<use style="fill:#053061;stroke:#053061;" x="310.1" xlink:href="#c" y="79.6"/>
<use style="fill:#67001f;stroke:#67001f;" x="128.7" xlink:href="#c" y="253.6"/>
<use style="fill:#053061;stroke:#053061;" x="415.9" xlink:href="#c" y="173.9"/>
<use style="fill:#67001f;stroke:#67001f;" x="61.7" xlink:href="#c" y="301.2"/>
<use style="fill:#67001f;stroke:#67001f;" x="407.4" xlink:href="#c" y="181.1"/>
<use style="fill:#67001f;stroke:#67001f;" x="221.3" xlink:href="#c" y="191.2"/>
<use style="fill:#053061;stroke:#053061;" x="400.3" xlink:href="#c" y="145.9"/>
<use style="fill:#67001f;stroke:#67001f;" x="198.2" xlink:href="#c" y="236.7"/>
<use style="fill:#67001f;stroke:#67001f;" x="447.7" xlink:href="#c" y="237.7"/>
<use style="fill:#67001f;stroke:#67001f;" x="414.5" xlink:href="#c" y="193.0"/>
<use style="fill:#67001f;stroke:#67001f;" x="407.2" xlink:href="#c" y="201.4"/>
<use style="fill:#053061;stroke:#053061;" x="173.7" xlink:href="#c" y="146.3"/>
<use style="fill:#67001f;stroke:#67001f;" x="252.4" xlink:href="#c" y="196.0"/>
<use style="fill:#053061;stroke:#053061;" x="419.4" xlink:href="#c" y="167.3"/>
<use style="fill:#67001f;stroke:#67001f;" x="100.8" xlink:href="#c" y="277.1"/>
<use style="fill:#053061;stroke:#053061;" x="374.7" xlink:href="#c" y="88.9"/>
<use style="fill:#053061;stroke:#053061;" x="203.9" xlink:href="#c" y="83.3"/>
<use style="fill:#053061;stroke:#053061;" x="138.3" xlink:href="#c" y="153.1"/>
<use style="fill:#67001f;stroke:#67001f;" x="387.5" xlink:href="#c" y="167.8"/>
<use style="fill:#67001f;stroke:#67001f;" x="327.0" xlink:href="#c" y="288.2"/>
<use style="fill:#67001f;stroke:#67001f;" x="423.8" xlink:href="#c" y="195.8"/>
<use style="fill:#053061;stroke:#053061;" x="235.2" xlink:href="#c" y="61.2"/>
<use style="fill:#053061;stroke:#053061;" x="64.3" xlink:href="#c" y="191.3"/>
<use style="fill:#053061;stroke:#053061;" x="416.6" xlink:href="#c" y="155.0"/>
<use style="fill:#67001f;stroke:#67001f;" x="393.7" xlink:href="#c" y="178.5"/>
<use style="fill:#053061;stroke:#053061;" x="426.6" xlink:href="#c" y="178.4"/>
<use style="fill:#053061;stroke:#053061;" x="127.1" xlink:href="#c" y="172.2"/>
<use style="fill:#053061;stroke:#053061;" x="357.1" xlink:href="#c" y="91.5"/>
<use style="fill:#67001f;stroke:#67001f;" x="126.2" xlink:href="#c" y="261.3"/>
<use style="fill:#053061;stroke:#053061;" x="348.0" xlink:href="#c" y="103.2"/>
<use style="fill:#053061;stroke:#053061;" x="360.2" xlink:href="#c" y="121.7"/>
<use style="fill:#053061;stroke:#053061;" x="390.2" xlink:href="#c" y="123.5"/>
<use style="fill:#053061;stroke:#053061;" x="364.1" xlink:href="#c" y="109.3"/>
<use style="fill:#67001f;stroke:#67001f;" x="125.9" xlink:href="#c" y="284.7"/>
<use style="fill:#67001f;stroke:#67001f;" x="293.8" xlink:href="#c" y="200.1"/>
<use style="fill:#053061;stroke:#053061;" x="357.7" xlink:href="#c" y="98.3"/>
<use style="fill:#053061;stroke:#053061;" x="409.1" xlink:href="#c" y="149.1"/>
<use style="fill:#053061;stroke:#053061;" x="373.6" xlink:href="#c" y="119.0"/>
<use style="fill:#67001f;stroke:#67001f;" x="382.6" xlink:href="#c" y="185.2"/>
<use style="fill:#053061;stroke:#053061;" x="174.0" xlink:href="#c" y="42.0"/>
<use style="fill:#67001f;stroke:#67001f;" x="371.9" xlink:href="#c" y="237.2"/>
<use style="fill:#053061;stroke:#053061;" x="258.3" xlink:href="#c" y="108.1"/>
<use style="fill:#67001f;stroke:#67001f;" x="367.4" xlink:href="#c" y="152.9"/>
<use style="fill:#67001f;stroke:#67001f;" x="369.1" xlink:href="#c" y="186.8"/>
<use style="fill:#67001f;stroke:#67001f;" x="88.1" xlink:href="#c" y="287.1"/>
<use style="fill:#67001f;stroke:#67001f;" x="285.4" xlink:href="#c" y="141.4"/>
<use style="fill:#053061;stroke:#053061;" x="328.2" xlink:href="#c" y="80.9"/>
<use style="fill:#67001f;stroke:#67001f;" x="187.4" xlink:href="#c" y="218.1"/>
<use style="fill:#053061;stroke:#053061;" x="376.9" xlink:href="#c" y="112.6"/>
<use style="fill:#053061;stroke:#053061;" x="284.3" xlink:href="#c" y="230.6"/>
<use style="fill:#053061;stroke:#053061;" x="183.0" xlink:href="#c" y="135.3"/>
<use style="fill:#67001f;stroke:#67001f;" x="350.0" xlink:href="#c" y="218.6"/>
</g>
</g>
<g >
<defs>
<path d="M 0 -3  L -0.7 -0.9  L -2.9 -0.9  L -1.1 0.4  L -1.8 2.4  L -0 1.1  L 1.8 2.4  L 1.1 0.4  L 2.9 -0.9  L 0.7 -0.9  z " id="b" />
</defs>
<g clip-path="url(#a)">
<use style="fill:#67001f;stroke:#67001f;" x="218.8" xlink:href="#b" y="203.5"/>
<use style="fill:#053061;stroke:#053061;" x="394.7" xlink:href="#b" y="143.7"/>
<use style="fill:#053061;stroke:#053061;" x="265.7" xlink:href="#b" y="170.3"/>
<use style="fill:#053061;stroke:#053061;" x="446.5" xlink:href="#b" y="185.6"/>
<use style="fill:#67001f;stroke:#67001f;" x="221.3" xlink:href="#b" y="245.7"/>
<use style="fill:#67001f;stroke:#67001f;" x="233.1" xlink:href="#b" y="172.3"/>
<use style="fill:#053061;stroke:#053061;" x="63.2" xlink:href="#b" y="165.2"/>
<use style="fill:#053061;stroke:#053061;" x="259.4" xlink:href="#b" y="175.2"/>
<use style="fill:#053061;stroke:#053061;" x="418.7" xlink:href="#b" y="193.5"/>
<use style="fill:#053061;stroke:#053061;" x="162.4" xlink:href="#b" y="112.5"/>
<use style="fill:#053061;stroke:#053061;" x="387.4" xlink:href="#b" y="139.9"/>
<use style="fill:#053061;stroke:#053061;" x="421.9" xlink:href="#b" y="191.8"/>
<use style="fill:#67001f;stroke:#67001f;" x="351.1" xlink:href="#b" y="253.6"/>
<use style="fill:#67001f;stroke:#67001f;" x="440.9" xlink:href="#b" y="152.6"/>
<use style="fill:#67001f;stroke:#67001f;" x="281.4" xlink:href="#b" y="175.3"/>
<use style="fill:#67001f;stroke:#67001f;" x="345.7" xlink:href="#b" y="238.5"/>
<use style="fill:#053061;stroke:#053061;" x="182.6" xlink:href="#b" y="160.1"/>
<use style="fill:#67001f;stroke:#67001f;" x="383.9" xlink:href="#b" y="122.5"/>
<use style="fill:#053061;stroke:#053061;" x="408.8" xlink:href="#b" y="162.6"/>
<use style="fill:#67001f;stroke:#67001f;" x="245.8" xlink:href="#b" y="188.8"/>
<use style="fill:#67001f;stroke:#67001f;" x="421.2" xlink:href="#b" y="202.5"/>
<use style="fill:#053061;stroke:#053061;" x="319.9" xlink:href="#b" y="149.3"/>
<use style="fill:#053061;stroke:#053061;" x="315.0" xlink:href="#b" y="27.8"/>
<use style="fill:#053061;stroke:#053061;" x="382.6" xlink:href="#b" y="176.5"/>
<use style="fill:#053061;stroke:#053061;" x="208.7" xlink:href="#b" y="167.8"/>
<use style="fill:#053061;stroke:#053061;" x="139.9" xlink:href="#b" y="143.9"/>
<use style="fill:#053061;stroke:#053061;" x="355.9" xlink:href="#b" y="191.0"/>
<use style="fill:#67001f;stroke:#67001f;" x="155.8" xlink:href="#b" y="253.2"/>
<use style="fill:#67001f;stroke:#67001f;" x="240.8" xlink:href="#b" y="172.3"/>
<use style="fill:#67001f;stroke:#67001f;" x="138.3" xlink:href="#b" y="260.4"/>
<use style="fill:#67001f;stroke:#67001f;" x="360.6" xlink:href="#b" y="178.8"/>
<use style="fill:#053061;stroke:#053061;" x="160.5" xlink:href="#b" y="119.4"/>
<use style="fill:#67001f;stroke:#67001f;" x="195.6" xlink:href="#b" y="219.9"/>
<use style="fill:#053061;stroke:#053061;" x="402.1" xlink:href="#b" y="140.2"/>
<use style="fill:#053061;stroke:#053061;" x="212.5" xlink:href="#b" y="93.9"/>
<use style="fill:#67001f;stroke:#67001f;" x="273.7" xlink:href="#b" y="152.6"/>
<use style="fill:#67001f;stroke:#67001f;" x="131.4" xlink:href="#b" y="299.5"/>
<use style="fill:#053061;stroke:#053061;" x="229.1" xlink:href="#b" y="137.5"/>
<use style="fill:#053061;stroke:#053061;" x="353.5" xlink:href="#b" y="108.9"/>
<use style="fill:#67001f;stroke:#67001f;" x="205.9" xlink:href="#b" y="236.1"/>
<use style="fill:#67001f;stroke:#67001f;" x="393.7" xlink:href="#b" y="227.1"/>
<use style="fill:#67001f;stroke:#67001f;" x="106.9" xlink:href="#b" y="270.2"/>
<use style="fill:#053061;stroke:#053061;" x="279.8" xlink:href="#b" y="59.7"/>
<use style="fill:#67001f;stroke:#67001f;" x="244.0" xlink:href="#b" y="165.3"/>
<use style="fill:#67001f;stroke:#67001f;" x="429.7" xlink:href="#b" y="206.3"/>
<use style="fill:#053061;stroke:#053061;" x="53.1" xlink:href="#b" y="102.0"/>
<use style="fill:#053061;stroke:#053061;" x="356.0" xlink:href="#b" y="166.6"/>
<use style="fill:#053061;stroke:#053061;" x="257.1" xlink:href="#b" y="147.5"/>
<use style="fill:#053061;stroke:#053061;" x="397.9" xlink:href="#b" y="160.1"/>
<use style="fill:#67001f;stroke:#67001f;" x="349.1" xlink:href="#b" y="220.8"/>
<use style="fill:#053061;stroke:#053061;" x="269.9" xlink:href="#b" y="188.8"/>
<use style="fill:#053061;stroke:#053061;" x="406.8" xlink:href="#b" y="148.4"/>
<use style="fill:#67001f;stroke:#67001f;" x="363.2" xlink:href="#b" y="175.6"/>
<use style="fill:#67001f;stroke:#67001f;" x="278.7" xlink:href="#b" y="198.4"/>
<use style="fill:#67001f;stroke:#67001f;" x="430.5" xlink:href="#b" y="224.4"/>
<use style="fill:#67001f;stroke:#67001f;" x="200.6" xlink:href="#b" y="225.6"/>
<use style="fill:#67001f;stroke:#67001f;" x="380.5" xlink:href="#b" y="240.6"/>
<use style="fill:#053061;stroke:#053061;" x="298.9" xlink:href="#b" y="135.6"/>
<use style="fill:#053061;stroke:#053061;" x="356.2" xlink:href="#b" y="90.9"/>
<use style="fill:#67001f;stroke:#67001f;" x="351.1" xlink:href="#b" y="154.7"/>
<use style="fill:#67001f;stroke:#67001f;" x="395.2" xlink:href="#b" y="215.7"/>
<use style="fill:#053061;stroke:#053061;" x="383.4" xlink:href="#b" y="143.9"/>
<use style="fill:#67001f;stroke:#67001f;" x="366.4" xlink:href="#b" y="172.7"/>
<use style="fill:#053061;stroke:#053061;" x="412.2" xlink:href="#b" y="176.7"/>
<use style="fill:#67001f;stroke:#67001f;" x="430.0" xlink:href="#b" y="169.7"/>
<use style="fill:#67001f;stroke:#67001f;" x="403.1" xlink:href="#b" y="193.8"/>
<use style="fill:#053061;stroke:#053061;" x="235.4" xlink:href="#b" y="161.6"/>
<use style="fill:#053061;stroke:#053061;" x="426.3" xlink:href="#b" y="172.1"/>
<use style="fill:#053061;stroke:#053061;" x="394.6" xlink:href="#b" y="141.1"/>
<use style="fill:#053061;stroke:#053061;" x="421.9" xlink:href="#b" y="179.1"/>
<use style="fill:#67001f;stroke:#67001f;" x="403.1" xlink:href="#b" y="210.7"/>
<use style="fill:#053061;stroke:#053061;" x="269.4" xlink:href="#b" y="91.8"/>
<use style="fill:#053061;stroke:#053061;" x="370.6" xlink:href="#b" y="119.3"/>
<use style="fill:#053061;stroke:#053061;" x="317.0" xlink:href="#b" y="193.2"/>
<use style="fill:#053061;stroke:#053061;" x="327.6" xlink:href="#b" y="173.9"/>
<use style="fill:#67001f;stroke:#67001f;" x="346.4" xlink:href="#b" y="204.5"/>
<use style="fill:#053061;stroke:#053061;" x="366.5" xlink:href="#b" y="116.7"/>
<use style="fill:#67001f;stroke:#67001f;" x="365.7" xlink:href="#b" y="229.3"/>
<use style="fill:#053061;stroke:#053061;" x="231.3" xlink:href="#b" y="106.0"/>
<use style="fill:#053061;stroke:#053061;" x="394.8" xlink:href="#b" y="166.8"/>
<use style="fill:#053061;stroke:#053061;" x="255.1" xlink:href="#b" y="79.6"/>
<use style="fill:#053061;stroke:#053061;" x="384.6" xlink:href="#b" y="141.4"/>
<use style="fill:#67001f;stroke:#67001f;" x="232.2" xlink:href="#b" y="189.9"/>
<use style="fill:#053061;stroke:#053061;" x="177.2" xlink:href="#b" y="194.6"/>
<use style="fill:#053061;stroke:#053061;" x="344.9" xlink:href="#b" y="92.3"/>
<use style="fill:#053061;stroke:#053061;" x="109.6" xlink:href="#b" y="104.1"/>
<use style="fill:#67001f;stroke:#67001f;" x="335.8" xlink:href="#b" y="156.6"/>
<use style="fill:#053061;stroke:#053061;" x="366.8" xlink:href="#b" y="105.2"/>
<use style="fill:#67001f;stroke:#67001f;" x="393.7" xlink:href="#b" y="276.7"/>
<use style="fill:#67001f;stroke:#67001f;" x="323.2" xlink:href="#b" y="158.7"/>
<use style="fill:#67001f;stroke:#67001f;" x="121.4" xlink:href="#b" y="267.8"/>
<use style="fill:#67001f;stroke:#67001f;" x="431.3" xlink:href="#b" y="166.8"/>
<use style="fill:#67001f;stroke:#67001f;" x="302.0" xlink:href="#b" y="173.5"/>
<use style="fill:#67001f;stroke:#67001f;" x="288.6" xlink:href="#b" y="157.9"/>
<use style="fill:#67001f;stroke:#67001f;" x="63.4" xlink:href="#b" y="326.6"/>
<use style="fill:#67001f;stroke:#67001f;" x="243.7" xlink:href="#b" y="199.0"/>
<use style="fill:#67001f;stroke:#67001f;" x="365.4" xlink:href="#b" y="245.8"/>
<use style="fill:#053061;stroke:#053061;" x="254.0" xlink:href="#b" y="160.3"/>
<use style="fill:#67001f;stroke:#67001f;" x="417.1" xlink:href="#b" y="183.9"/>
<use style="fill:#67001f;stroke:#67001f;" x="245.6" xlink:href="#b" y="169.8"/>
</g>
</g>
<g >
<path d="M 28.9 343.3  L 28.9 10.7  " style="fill:none;stroke:#000000;stroke-linecap:square;stroke-linejoin:miter;stroke-width:0.8;"/>
<path d="M 475.3 343.3  L 475.3 10.7  " style="fill:none;stroke:#000000;stroke-linecap:square;stroke-linejoin:miter;stroke-width:0.8;"/>
<path d="M 28.9 343.3  L 475.3 343.3  " style="fill:none;stroke:#000000;stroke-linecap:square;stroke-linejoin:miter;stroke-width:0.8;"/>
<path d="M 28.9 10.7  L 475.3 10.7  " style="fill:none;stroke:#000000;stroke-linecap:square;stroke-linejoin:miter;stroke-width:0.8;"/>
<g >
<path d="M 73.2 33.4  L 431.1 33.4  Q 433.1 33.4 433.1 31.4  L 433.1 17.7  Q 433.1 15.7 431.1 15.7  L 73.2 15.7  Q 71.2 15.7 71.2 17.7  L 71.2 31.4  Q 71.2 33.4 73.2 33.4  z " style="fill:#ffffff;opacity:0.8;stroke:#cccccc;stroke-linejoin:miter;"/>
<defs>
<path d="M 0 3  C 0.8 3 1.6 2.7 2.1 2.1  C 2.7 1.6 3 0.8 3 0  C 3 -0.8 2.7 -1.6 2.1 -2.1  C 1.6 -2.7 0.8 -3 0 -3  C -0.8 -3 -1.6 -2.7 -2.1 -2.1  C -2.7 -1.6 -3 -0.8 -3 0  C -3 0.8 -2.7 1.6 -2.1 2.1  C -1.6 2.7 -0.8 3 0 3  z " id="eb" style="stroke:#1f77b4;"/>
</defs>
<g>
<use style="fill:#1f77b4;stroke:#1f77b4;" x="85.2" xlink:href="#eb" y="24.7"/>
</g>
</g>
<g >
<defs>
<path d="M -0.3 72.9  L 61.4 72.9  L 61.4 64.6  L 35.5 64.6  L 35.5 0  L 25.6 0  L 25.6 64.6  L -0.3 64.6  z " id="q" />
<path d="M 41.1 46.3  Q 39.6 47.2 37.8 47.6  Q 36.0 48 33.9 48  Q 26.3 48 22.2 43.0  Q 18.1 38.1 18.1 28.8  L 18.1 0  L 9.1 0  L 9.1 54.7  L 18.1 54.7  L 18.1 46.2  Q 21.0 51.2 25.5 53.6  Q 30.0 56 36.5 56  Q 37.5 56 38.6 55.9  Q 39.7 55.8 41.1 55.5  z " id="h" />
<path d="M 34.3 27.5  Q 23.4 27.5 19.2 25  Q 15.0 22.5 15.0 16.5  Q 15.0 11.7 18.1 8.9  Q 21.3 6.1 26.7 6.1  Q 34.2 6.1 38.7 11.4  Q 43.2 16.7 43.2 25.5  L 43.2 27.5  z M 52.2 31.2  L 52.2 0  L 43.2 0  L 43.2 8.3  Q 40.1 3.3 35.5 1.0  Q 31.0 -1.4 24.3 -1.4  Q 15.9 -1.4 11.0 3.3  Q 6 8.0 6 15.9  Q 6 25.1 12.2 29.8  Q 18.4 34.5 30.6 34.5  L 43.2 34.5  L 43.2 35.4  Q 43.2 41.6 39.1 45  Q 35.1 48.4 27.7 48.4  Q 23 48.4 18.5 47.3  Q 14.1 46.1 10.0 43.9  L 10.0 52.2  Q 14.9 54.1 19.6 55.0  Q 24.2 56 28.6 56  Q 40.5 56 46.3 49.8  Q 52.2 43.7 52.2 31.2  z " id="bb" />
<path d="M 9.4 54.7  L 18.4 54.7  L 18.4 0  L 9.4 0  z M 9.4 76.0  L 18.4 76.0  L 18.4 64.6  L 9.4 64.6  z " id="v" />
<path d="M 54.9 33.0  L 54.9 0  L 45.9 0  L 45.9 32.7  Q 45.9 40.5 42.9 44.3  Q 39.8 48.2 33.8 48.2  Q 26.5 48.2 22.3 43.5  Q 18.1 38.9 18.1 30.9  L 18.1 0  L 9.1 0  L 9.1 54.7  L 18.1 54.7  L 18.1 46.2  Q 21.3 51.1 25.7 53.6  Q 30.1 56 35.8 56  Q 45.2 56 50.0 50.2  Q 54.9 44.3 54.9 33.0  z " id="w" />
</defs>
<g transform="translate(103.2 27.3)scale(0.1 -0.1)">
<use xlink:href="#q"/>
<use x="60.9" xlink:href="#h"/>
<use x="102.0" xlink:href="#bb"/>
<use x="163.3" xlink:href="#v"/>
<use x="191.0" xlink:href="#w"/>
</g>
</g>
<g >
<g>
<use style="fill:#00dd00;stroke:#00dd00;" x="158.6" xlink:href="#d" y="24.7"/>
</g>
</g>
<g >
<defs>
<path d="M 53.5 70.5  L 53.5 60.9  Q 47.9 63.6 42.9 64.9  Q 37.9 66.2 33.3 66.2  Q 25.2 66.2 20.9 63.1  Q 16.5 60.0 16.5 54.2  Q 16.5 49.4 19.4 46.9  Q 22.3 44.4 30.4 42.9  L 36.4 41.7  Q 47.4 39.6 52.7 34.3  Q 57.9 29 57.9 20.1  Q 57.9 9.5 50.8 4.0  Q 43.7 -1.4 30.0 -1.4  Q 24.8 -1.4 19.0 -0.2  Q 13.1 0.9 6.9 3.2  L 6.9 13.4  Q 12.9 10.0 18.7 8.3  Q 24.4 6.6 30.0 6.6  Q 38.4 6.6 43.0 9.9  Q 47.6 13.2 47.6 19.4  Q 47.6 24.8 44.3 27.8  Q 41.0 30.8 33.5 32.3  L 27.5 33.5  Q 16.5 35.7 11.5 40.4  Q 6.6 45.1 6.6 53.4  Q 6.6 63.1 13.4 68.7  Q 20.2 74.2 32.2 74.2  Q 37.3 74.2 42.6 73.3  Q 48.0 72.4 53.5 70.5  z " id="z" />
<path d="M 8.5 21.6  L 8.5 54.7  L 17.5 54.7  L 17.5 21.9  Q 17.5 14.2 20.5 10.3  Q 23.5 6.4 29.6 6.4  Q 36.9 6.4 41.1 11.0  Q 45.3 15.7 45.3 23.7  L 45.3 54.7  L 54.3 54.7  L 54.3 0  L 45.3 0  L 45.3 8.4  Q 42.0 3.4 37.7 1  Q 33.4 -1.4 27.7 -1.4  Q 18.3 -1.4 13.4 4.4  Q 8.5 10.3 8.5 21.6  z M 31.1 56  z " id="x" />
<path d="M 18.1 8.2  L 18.1 -20.8  L 9.1 -20.8  L 9.1 54.7  L 18.1 54.7  L 18.1 46.4  Q 21.0 51.3 25.3 53.6  Q 29.6 56 35.6 56  Q 45.6 56 51.8 48.1  Q 58.0 40.2 58.0 27.3  Q 58.0 14.4 51.8 6.5  Q 45.6 -1.4 35.6 -1.4  Q 29.6 -1.4 25.3 1.0  Q 21.0 3.3 18.1 8.2  z M 48.7 27.3  Q 48.7 37.2 44.6 42.8  Q 40.5 48.5 33.4 48.5  Q 26.3 48.5 22.2 42.8  Q 18.1 37.2 18.1 27.3  Q 18.1 17.4 22.2 11.8  Q 26.3 6.1 33.4 6.1  Q 40.5 6.1 44.6 11.8  Q 48.7 17.4 48.7 27.3  z " id="r" />
<path d="M 30.6 48.4  Q 23.4 48.4 19.2 42.8  Q 15.0 37.1 15.0 27.3  Q 15.0 17.5 19.2 11.8  Q 23.3 6.2 30.6 6.2  Q 37.8 6.2 42.0 11.9  Q 46.2 17.5 46.2 27.3  Q 46.2 37.0 42.0 42.7  Q 37.8 48.4 30.6 48.4  z M 30.6 56  Q 42.3 56 49.0 48.4  Q 55.7 40.8 55.7 27.3  Q 55.7 13.9 49.0 6.2  Q 42.3 -1.4 30.6 -1.4  Q 18.8 -1.4 12.2 6.2  Q 5.5 13.9 5.5 27.3  Q 5.5 40.8 12.2 48.4  Q 18.8 56 30.6 56  z " id="o" />
<path d="M 18.3 70.2  L 18.3 54.7  L 36.8 54.7  L 36.8 47.7  L 18.3 47.7  L 18.3 18.0  Q 18.3 11.3 20.1 9.4  Q 22.0 7.5 27.6 7.5  L 36.8 7.5  L 36.8 0  L 27.6 0  Q 17.2 0 13.2 3.9  Q 9.3 7.8 9.3 18.0  L 9.3 47.7  L 2.7 47.7  L 2.7 54.7  L 9.3 54.7  L 9.3 70.2  z " id="k" />
<path id="s" />
<path d="M 28.6 0  L 0.8 72.9  L 11.1 72.9  L 34.2 11.5  L 57.3 72.9  L 67.6 72.9  L 39.8 0  z " id="ab" />
<path d="M 56.2 29.6  L 56.2 25.2  L 14.9 25.2  Q 15.5 15.9 20.5 11.1  Q 25.5 6.2 34.4 6.2  Q 39.6 6.2 44.5 7.5  Q 49.3 8.7 54.1 11.3  L 54.1 2.8  Q 49.3 0.7 44.2 -0.3  Q 39.1 -1.4 33.9 -1.4  Q 20.8 -1.4 13.2 6.2  Q 5.5 13.8 5.5 26.8  Q 5.5 40.2 12.8 48.1  Q 20.0 56 32.3 56  Q 43.4 56 49.8 48.9  Q 56.2 41.8 56.2 29.6  z M 47.2 32.2  Q 47.1 39.6 43.1 44.0  Q 39.1 48.4 32.4 48.4  Q 24.9 48.4 20.4 44.1  Q 15.9 39.9 15.2 32.2  z " id="n" />
<path d="M 48.8 52.6  L 48.8 44.2  Q 45.0 46.3 41.1 47.3  Q 37.3 48.4 33.4 48.4  Q 24.7 48.4 19.8 42.8  Q 15.0 37.3 15.0 27.3  Q 15.0 17.3 19.8 11.7  Q 24.7 6.2 33.4 6.2  Q 37.3 6.2 41.1 7.2  Q 45.0 8.3 48.8 10.4  L 48.8 2.1  Q 45.0 0.3 41.0 -0.5  Q 37.0 -1.4 32.4 -1.4  Q 20.1 -1.4 12.8 6.3  Q 5.5 14.1 5.5 27.3  Q 5.5 40.7 12.9 48.3  Q 20.2 56 33.0 56  Q 37.2 56 41.1 55.1  Q 45.1 54.3 48.8 52.6  z " id="cb" />
<path d="M 44.3 53.1  L 44.3 44.6  Q 40.5 46.5 36.4 47.5  Q 32.3 48.5 27.9 48.5  Q 21.2 48.5 17.8 46.4  Q 14.5 44.4 14.5 40.3  Q 14.5 37.2 16.9 35.4  Q 19.3 33.6 26.5 32.0  L 29.6 31.3  Q 39.2 29.2 43.2 25.5  Q 47.2 21.8 47.2 15.1  Q 47.2 7.5 41.2 3.0  Q 35.2 -1.4 24.6 -1.4  Q 20.2 -1.4 15.5 -0.6  Q 10.7 0.3 5.4 2  L 5.4 11.3  Q 10.4 8.7 15.2 7.4  Q 20.1 6.1 24.8 6.1  Q 31.2 6.1 34.6 8.3  Q 38.0 10.5 38.0 14.4  Q 38.0 18.1 35.5 20.0  Q 33.1 22.0 24.7 23.8  L 21.6 24.5  Q 13.2 26.3 9.5 29.9  Q 5.8 33.5 5.8 39.9  Q 5.8 47.6 11.3 51.8  Q 16.8 56 26.8 56  Q 31.8 56 36.2 55.3  Q 40.6 54.5 44.3 53.1  z " id="j" />
</defs>
<g transform="translate(176.6 27.3)scale(0.1 -0.1)">
<use xlink:href="#z"/>
<use x="63.5" xlink:href="#x"/>
<use x="126.9" xlink:href="#r"/>
<use x="190.3" xlink:href="#r"/>
<use x="253.8" xlink:href="#o"/>
<use x="315.0" xlink:href="#h"/>
<use x="356.1" xlink:href="#k"/>
<use x="395.3" xlink:href="#s"/>
<use x="427.1" xlink:href="#ab"/>
<use x="495.4" xlink:href="#n"/>
<use x="556.9" xlink:href="#cb"/>
<use x="611.9" xlink:href="#k"/>
<use x="651.1" xlink:href="#o"/>
<use x="712.3" xlink:href="#h"/>
<use x="753.4" xlink:href="#j"/>
</g>
</g>
<g >
<defs>
<path d="M 0 -3  L -0.7 -0.9  L -2.9 -0.9  L -1.1 0.4  L -1.8 2.4  L -0 1.1  L 1.8 2.4  L 1.1 0.4  L 2.9 -0.9  L 0.7 -0.9  z " id="db" style="stroke:#1f77b4;"/>
</defs>
<g>
<use style="fill:#1f77b4;stroke:#1f77b4;" x="287.2" xlink:href="#db" y="24.7"/>
</g>
</g>
<g >
<g transform="translate(305.2 27.3)scale(0.1 -0.1)">
<use xlink:href="#q"/>
<use x="60.8" xlink:href="#n"/>
<use x="122.3" xlink:href="#j"/>
<use x="174.4" xlink:href="#k"/>
</g>
</g>
<g >
<g>
<use style="fill:#ffff00;stroke:#ffff00;" x="356.6" xlink:href="#e" y="24.7"/>
</g>
</g>
<g >
<defs>
<path d="M 9.8 72.9  L 55.9 72.9  L 55.9 64.6  L 19.7 64.6  L 19.7 43.0  L 54.4 43.0  L 54.4 34.7  L 19.7 34.7  L 19.7 8.3  L 56.8 8.3  L 56.8 0  L 9.8 0  z " id="y" />
</defs>
<g transform="translate(374.6 27.3)scale(0.1 -0.1)">
<use xlink:href="#q"/>
<use x="60.8" xlink:href="#n"/>
<use x="122.3" xlink:href="#j"/>
<use x="174.4" xlink:href="#k"/>
<use x="213.7" xlink:href="#s"/>
<use x="245.4" xlink:href="#y"/>
<use x="308.6" xlink:href="#h"/>
<use x="349.7" xlink:href="#h"/>
<use x="390.8" xlink:href="#o"/>
<use x="452.0" xlink:href="#h"/>
<use x="493.1" xlink:href="#j"/>
</g>
</g>
</g>
</g>
</g>
<defs>
<clipPath id="a" >
<rect height="332.6" width="446.4" x="28.9" y="10.7"/>
</clipPath>
</defs>
</svg>
